G04 EAGLE Gerber RS-274X export*
G75*
%MOMM*%
%FSLAX34Y34*%
%LPD*%
%INBottom Copper*%
%IPPOS*%
%AMOC8*
5,1,8,0,0,1.08239X$1,22.5*%
G01*
%ADD10C,1.625600*%
%ADD11C,1.879600*%
%ADD12C,1.108000*%
%ADD13C,0.254000*%
%ADD14C,0.756400*%
%ADD15C,0.177800*%

G36*
X2454775Y10171D02*
X2454775Y10171D01*
X2454843Y10171D01*
X2454905Y10191D01*
X2454970Y10201D01*
X2455031Y10230D01*
X2455097Y10251D01*
X2455150Y10288D01*
X2455209Y10316D01*
X2455259Y10363D01*
X2455316Y10402D01*
X2455356Y10453D01*
X2455403Y10498D01*
X2455437Y10557D01*
X2455480Y10611D01*
X2455503Y10672D01*
X2455535Y10728D01*
X2455550Y10795D01*
X2455575Y10860D01*
X2455579Y10924D01*
X2455593Y10988D01*
X2455587Y11056D01*
X2455592Y11125D01*
X2455578Y11168D01*
X2455571Y11253D01*
X2455480Y11480D01*
X2455476Y11493D01*
X2453054Y15688D01*
X2451339Y22087D01*
X2451339Y28713D01*
X2453054Y35112D01*
X2456366Y40849D01*
X2461051Y45534D01*
X2466788Y48846D01*
X2473187Y50561D01*
X2479813Y50561D01*
X2486212Y48846D01*
X2490227Y46528D01*
X2490290Y46503D01*
X2490350Y46469D01*
X2490413Y46455D01*
X2490474Y46431D01*
X2490542Y46426D01*
X2490609Y46411D01*
X2490674Y46417D01*
X2490739Y46412D01*
X2490806Y46427D01*
X2490874Y46433D01*
X2490935Y46457D01*
X2490998Y46472D01*
X2491057Y46506D01*
X2491121Y46532D01*
X2491172Y46573D01*
X2491228Y46606D01*
X2491274Y46656D01*
X2491327Y46699D01*
X2491363Y46753D01*
X2491408Y46801D01*
X2491437Y46863D01*
X2491475Y46920D01*
X2491485Y46964D01*
X2491521Y47042D01*
X2491556Y47283D01*
X2491559Y47297D01*
X2491620Y194037D01*
X2491609Y194105D01*
X2491609Y194174D01*
X2491598Y194211D01*
X2491596Y194232D01*
X2491587Y194255D01*
X2491580Y194300D01*
X2491550Y194362D01*
X2491529Y194428D01*
X2491501Y194469D01*
X2491497Y194479D01*
X2491489Y194489D01*
X2491464Y194540D01*
X2491417Y194590D01*
X2491378Y194647D01*
X2491330Y194684D01*
X2491329Y194685D01*
X2491327Y194687D01*
X2491283Y194734D01*
X2491223Y194768D01*
X2491169Y194811D01*
X2491109Y194834D01*
X2491052Y194866D01*
X2490985Y194881D01*
X2490921Y194906D01*
X2490856Y194910D01*
X2490793Y194924D01*
X2490724Y194918D01*
X2490656Y194923D01*
X2490613Y194909D01*
X2490528Y194902D01*
X2490472Y194880D01*
X2490453Y194877D01*
X2490395Y194849D01*
X2490300Y194811D01*
X2490287Y194807D01*
X2486212Y192454D01*
X2479813Y190739D01*
X2473187Y190739D01*
X2466788Y192454D01*
X2461051Y195766D01*
X2456366Y200451D01*
X2453054Y206188D01*
X2451339Y212587D01*
X2451339Y219213D01*
X2453054Y225612D01*
X2455476Y229807D01*
X2455501Y229871D01*
X2455535Y229930D01*
X2455549Y229994D01*
X2455573Y230054D01*
X2455578Y230123D01*
X2455593Y230190D01*
X2455588Y230255D01*
X2455592Y230319D01*
X2455577Y230386D01*
X2455571Y230455D01*
X2455547Y230515D01*
X2455532Y230578D01*
X2455498Y230638D01*
X2455472Y230702D01*
X2455431Y230752D01*
X2455399Y230808D01*
X2455348Y230855D01*
X2455305Y230908D01*
X2455251Y230944D01*
X2455203Y230988D01*
X2455141Y231017D01*
X2455084Y231055D01*
X2455039Y231065D01*
X2454963Y231102D01*
X2454720Y231136D01*
X2454707Y231139D01*
X21793Y231139D01*
X21725Y231129D01*
X21657Y231129D01*
X21595Y231109D01*
X21530Y231099D01*
X21469Y231070D01*
X21403Y231049D01*
X21350Y231012D01*
X21291Y230984D01*
X21241Y230937D01*
X21184Y230898D01*
X21144Y230847D01*
X21097Y230802D01*
X21063Y230743D01*
X21020Y230689D01*
X20997Y230628D01*
X20965Y230572D01*
X20950Y230505D01*
X20925Y230440D01*
X20921Y230376D01*
X20907Y230312D01*
X20913Y230244D01*
X20908Y230175D01*
X20922Y230132D01*
X20929Y230047D01*
X21020Y229820D01*
X21024Y229807D01*
X23446Y225612D01*
X25161Y219213D01*
X25161Y212587D01*
X23446Y206188D01*
X20134Y200451D01*
X15449Y195766D01*
X9712Y192454D01*
X3313Y190739D01*
X-3313Y190739D01*
X-9712Y192454D01*
X-13826Y194830D01*
X-13890Y194855D01*
X-13950Y194889D01*
X-14013Y194903D01*
X-14074Y194927D01*
X-14142Y194932D01*
X-14209Y194946D01*
X-14274Y194941D01*
X-14339Y194946D01*
X-14406Y194931D01*
X-14474Y194925D01*
X-14535Y194901D01*
X-14598Y194886D01*
X-14657Y194852D01*
X-14721Y194826D01*
X-14772Y194785D01*
X-14828Y194752D01*
X-14874Y194702D01*
X-14927Y194659D01*
X-14963Y194604D01*
X-15007Y194556D01*
X-15037Y194494D01*
X-15075Y194437D01*
X-15085Y194393D01*
X-15121Y194316D01*
X-15148Y194130D01*
X-15157Y194090D01*
X-15156Y194075D01*
X-15159Y194061D01*
X-15220Y47205D01*
X-15209Y47137D01*
X-15209Y47068D01*
X-15190Y47006D01*
X-15180Y46942D01*
X-15150Y46880D01*
X-15129Y46814D01*
X-15093Y46761D01*
X-15064Y46703D01*
X-15017Y46652D01*
X-14978Y46596D01*
X-14927Y46556D01*
X-14883Y46508D01*
X-14823Y46474D01*
X-14769Y46432D01*
X-14709Y46408D01*
X-14652Y46376D01*
X-14585Y46361D01*
X-14521Y46337D01*
X-14456Y46332D01*
X-14393Y46318D01*
X-14324Y46324D01*
X-14256Y46319D01*
X-14213Y46333D01*
X-14128Y46340D01*
X-13900Y46431D01*
X-13887Y46435D01*
X-9712Y48846D01*
X-3313Y50561D01*
X3313Y50561D01*
X9712Y48846D01*
X15449Y45534D01*
X20134Y40849D01*
X23446Y35112D01*
X25161Y28713D01*
X25161Y22087D01*
X23446Y15688D01*
X21024Y11493D01*
X20999Y11429D01*
X20965Y11370D01*
X20951Y11306D01*
X20927Y11246D01*
X20922Y11177D01*
X20907Y11110D01*
X20912Y11045D01*
X20908Y10981D01*
X20923Y10914D01*
X20929Y10845D01*
X20953Y10785D01*
X20968Y10722D01*
X21002Y10662D01*
X21028Y10598D01*
X21069Y10548D01*
X21101Y10492D01*
X21152Y10445D01*
X21195Y10392D01*
X21249Y10356D01*
X21297Y10312D01*
X21359Y10283D01*
X21416Y10245D01*
X21461Y10235D01*
X21537Y10198D01*
X21780Y10164D01*
X21793Y10161D01*
X2454707Y10161D01*
X2454775Y10171D01*
G37*
%LPC*%
G36*
X672044Y140743D02*
X672044Y140743D01*
X670094Y141551D01*
X668601Y143044D01*
X667793Y144994D01*
X667793Y147106D01*
X668601Y149056D01*
X670094Y150549D01*
X670138Y150567D01*
X670191Y150599D01*
X670249Y150622D01*
X670287Y150653D01*
X670300Y150660D01*
X670316Y150674D01*
X670366Y150704D01*
X670407Y150751D01*
X670455Y150790D01*
X670480Y150828D01*
X670494Y150841D01*
X670507Y150863D01*
X670542Y150903D01*
X670568Y150959D01*
X670602Y151011D01*
X670609Y151042D01*
X670626Y151072D01*
X670633Y151103D01*
X670652Y151145D01*
X670666Y151248D01*
X670684Y151331D01*
X670681Y151366D01*
X670686Y151388D01*
X670686Y153412D01*
X670677Y153474D01*
X670678Y153536D01*
X670657Y153604D01*
X670646Y153675D01*
X670620Y153731D01*
X670602Y153790D01*
X670562Y153850D01*
X670531Y153914D01*
X670488Y153960D01*
X670454Y154011D01*
X670415Y154039D01*
X670349Y154109D01*
X670164Y154215D01*
X670138Y154233D01*
X670094Y154251D01*
X668601Y155744D01*
X667793Y157694D01*
X667793Y159806D01*
X668601Y161756D01*
X669160Y162314D01*
X669190Y162355D01*
X669225Y162388D01*
X669245Y162423D01*
X669276Y162458D01*
X669293Y162495D01*
X669317Y162528D01*
X669336Y162583D01*
X669357Y162619D01*
X669365Y162653D01*
X669386Y162700D01*
X669391Y162741D01*
X669405Y162779D01*
X669407Y162843D01*
X669415Y162879D01*
X669412Y162908D01*
X669420Y162963D01*
X669412Y163004D01*
X669414Y163045D01*
X669396Y163111D01*
X669393Y163144D01*
X669384Y163167D01*
X669374Y163225D01*
X669355Y163262D01*
X669344Y163302D01*
X669306Y163362D01*
X669294Y163390D01*
X669280Y163408D01*
X669252Y163462D01*
X669223Y163491D01*
X669201Y163526D01*
X669146Y163573D01*
X669127Y163597D01*
X669108Y163609D01*
X669066Y163652D01*
X669030Y163671D01*
X668999Y163698D01*
X668932Y163727D01*
X668906Y163744D01*
X668889Y163748D01*
X668833Y163778D01*
X668792Y163786D01*
X668754Y163802D01*
X668662Y163812D01*
X668572Y163830D01*
X668543Y163825D01*
X668529Y163828D01*
X668525Y163828D01*
X668518Y163827D01*
X668490Y163830D01*
X668343Y163800D01*
X668262Y163788D01*
X668248Y163782D01*
X668229Y163778D01*
X668212Y163767D01*
X668192Y163763D01*
X667806Y163603D01*
X665694Y163603D01*
X663744Y164411D01*
X662300Y165855D01*
X662283Y165868D01*
X662270Y165884D01*
X662176Y165946D01*
X662086Y166013D01*
X662066Y166020D01*
X662049Y166031D01*
X662004Y166041D01*
X661835Y166100D01*
X661722Y166104D01*
X661672Y166115D01*
X560326Y166115D01*
X560305Y166112D01*
X560284Y166114D01*
X560174Y166092D01*
X560063Y166075D01*
X560044Y166066D01*
X560023Y166062D01*
X559985Y166038D01*
X559823Y165960D01*
X559741Y165883D01*
X559697Y165855D01*
X556148Y162305D01*
X523352Y162305D01*
X519803Y165855D01*
X519786Y165868D01*
X519772Y165884D01*
X519679Y165946D01*
X519589Y166013D01*
X519569Y166020D01*
X519551Y166031D01*
X519507Y166041D01*
X519338Y166100D01*
X519225Y166104D01*
X519174Y166115D01*
X465428Y166115D01*
X465407Y166112D01*
X465386Y166114D01*
X465276Y166092D01*
X465165Y166075D01*
X465146Y166066D01*
X465126Y166062D01*
X465087Y166038D01*
X464926Y165960D01*
X464843Y165883D01*
X464800Y165855D01*
X463356Y164411D01*
X461406Y163603D01*
X459294Y163603D01*
X457344Y164411D01*
X455851Y165904D01*
X455043Y167854D01*
X455043Y169966D01*
X455851Y171916D01*
X457344Y173409D01*
X459294Y174217D01*
X461406Y174217D01*
X463356Y173409D01*
X464800Y171965D01*
X464817Y171952D01*
X464830Y171936D01*
X464924Y171874D01*
X465014Y171807D01*
X465034Y171800D01*
X465051Y171789D01*
X465096Y171779D01*
X465265Y171720D01*
X465378Y171716D01*
X465428Y171705D01*
X521858Y171705D01*
X525407Y168155D01*
X525424Y168142D01*
X525438Y168126D01*
X525531Y168064D01*
X525621Y167997D01*
X525641Y167990D01*
X525659Y167979D01*
X525703Y167969D01*
X525872Y167910D01*
X525985Y167906D01*
X526036Y167895D01*
X553464Y167895D01*
X553485Y167898D01*
X553506Y167896D01*
X553616Y167918D01*
X553727Y167935D01*
X553746Y167944D01*
X553767Y167948D01*
X553805Y167972D01*
X553967Y168050D01*
X554049Y168127D01*
X554093Y168155D01*
X557642Y171705D01*
X661672Y171705D01*
X661693Y171708D01*
X661714Y171706D01*
X661824Y171728D01*
X661935Y171745D01*
X661954Y171754D01*
X661974Y171758D01*
X662013Y171782D01*
X662174Y171860D01*
X662257Y171937D01*
X662300Y171965D01*
X663744Y173409D01*
X665694Y174217D01*
X667806Y174217D01*
X669756Y173409D01*
X671200Y171965D01*
X671217Y171952D01*
X671230Y171936D01*
X671324Y171874D01*
X671414Y171807D01*
X671434Y171800D01*
X671451Y171789D01*
X671496Y171779D01*
X671665Y171720D01*
X671778Y171716D01*
X671828Y171705D01*
X725058Y171705D01*
X728607Y168155D01*
X728624Y168142D01*
X728638Y168126D01*
X728731Y168064D01*
X728821Y167997D01*
X728841Y167990D01*
X728859Y167979D01*
X728903Y167969D01*
X729072Y167910D01*
X729185Y167906D01*
X729236Y167895D01*
X756664Y167895D01*
X756685Y167898D01*
X756706Y167896D01*
X756817Y167918D01*
X756927Y167935D01*
X756946Y167944D01*
X756967Y167948D01*
X757005Y167972D01*
X757167Y168050D01*
X757249Y168127D01*
X757293Y168155D01*
X758945Y169807D01*
X758945Y169808D01*
X760842Y171705D01*
X864872Y171705D01*
X864893Y171708D01*
X864914Y171706D01*
X865024Y171728D01*
X865135Y171745D01*
X865154Y171754D01*
X865174Y171758D01*
X865213Y171782D01*
X865374Y171860D01*
X865457Y171937D01*
X865500Y171965D01*
X866944Y173409D01*
X868894Y174217D01*
X871006Y174217D01*
X872956Y173409D01*
X874400Y171965D01*
X874417Y171952D01*
X874430Y171936D01*
X874524Y171874D01*
X874614Y171807D01*
X874634Y171800D01*
X874651Y171789D01*
X874696Y171779D01*
X874865Y171720D01*
X874978Y171716D01*
X875028Y171705D01*
X930798Y171705D01*
X932695Y169808D01*
X932695Y169807D01*
X934347Y168155D01*
X934364Y168142D01*
X934378Y168126D01*
X934471Y168064D01*
X934561Y167997D01*
X934581Y167990D01*
X934599Y167979D01*
X934643Y167969D01*
X934812Y167910D01*
X934925Y167906D01*
X934976Y167895D01*
X959864Y167895D01*
X959885Y167898D01*
X959906Y167896D01*
X960016Y167918D01*
X960127Y167935D01*
X960146Y167944D01*
X960167Y167948D01*
X960205Y167972D01*
X960367Y168050D01*
X960449Y168127D01*
X960493Y168155D01*
X962145Y169807D01*
X962145Y169808D01*
X964042Y171705D01*
X1068072Y171705D01*
X1068093Y171708D01*
X1068114Y171706D01*
X1068224Y171728D01*
X1068335Y171745D01*
X1068354Y171754D01*
X1068374Y171758D01*
X1068413Y171782D01*
X1068574Y171860D01*
X1068657Y171937D01*
X1068700Y171965D01*
X1070144Y173409D01*
X1072094Y174217D01*
X1074206Y174217D01*
X1076156Y173409D01*
X1077600Y171965D01*
X1077617Y171952D01*
X1077630Y171936D01*
X1077724Y171874D01*
X1077814Y171807D01*
X1077834Y171800D01*
X1077851Y171789D01*
X1077896Y171779D01*
X1078065Y171720D01*
X1078178Y171716D01*
X1078228Y171705D01*
X1131458Y171705D01*
X1133355Y169808D01*
X1133355Y169807D01*
X1135007Y168155D01*
X1135024Y168142D01*
X1135038Y168126D01*
X1135131Y168064D01*
X1135221Y167997D01*
X1135241Y167990D01*
X1135259Y167979D01*
X1135303Y167969D01*
X1135472Y167910D01*
X1135585Y167906D01*
X1135636Y167895D01*
X1163064Y167895D01*
X1163085Y167898D01*
X1163106Y167896D01*
X1163216Y167918D01*
X1163327Y167935D01*
X1163346Y167944D01*
X1163367Y167948D01*
X1163405Y167972D01*
X1163567Y168050D01*
X1163649Y168127D01*
X1163693Y168155D01*
X1165345Y169807D01*
X1165345Y169808D01*
X1167242Y171705D01*
X1271272Y171705D01*
X1271293Y171708D01*
X1271314Y171706D01*
X1271424Y171728D01*
X1271535Y171745D01*
X1271554Y171754D01*
X1271574Y171758D01*
X1271613Y171782D01*
X1271774Y171860D01*
X1271857Y171937D01*
X1271900Y171965D01*
X1273344Y173409D01*
X1275294Y174217D01*
X1277406Y174217D01*
X1279356Y173409D01*
X1280800Y171965D01*
X1280817Y171952D01*
X1280830Y171936D01*
X1280924Y171874D01*
X1281014Y171807D01*
X1281034Y171800D01*
X1281051Y171789D01*
X1281096Y171779D01*
X1281265Y171720D01*
X1281378Y171716D01*
X1281428Y171705D01*
X1334658Y171705D01*
X1338207Y168155D01*
X1338224Y168142D01*
X1338238Y168126D01*
X1338331Y168064D01*
X1338421Y167997D01*
X1338441Y167990D01*
X1338459Y167979D01*
X1338503Y167969D01*
X1338672Y167910D01*
X1338785Y167906D01*
X1338836Y167895D01*
X1366264Y167895D01*
X1366285Y167898D01*
X1366306Y167896D01*
X1366416Y167918D01*
X1366527Y167935D01*
X1366546Y167944D01*
X1366567Y167948D01*
X1366605Y167972D01*
X1366767Y168050D01*
X1366849Y168127D01*
X1366893Y168155D01*
X1370442Y171705D01*
X1474472Y171705D01*
X1474493Y171708D01*
X1474514Y171706D01*
X1474624Y171728D01*
X1474735Y171745D01*
X1474754Y171754D01*
X1474774Y171758D01*
X1474813Y171782D01*
X1474974Y171860D01*
X1475057Y171937D01*
X1475100Y171965D01*
X1476544Y173409D01*
X1478494Y174217D01*
X1480606Y174217D01*
X1482556Y173409D01*
X1484000Y171965D01*
X1484017Y171952D01*
X1484030Y171936D01*
X1484124Y171874D01*
X1484214Y171807D01*
X1484234Y171800D01*
X1484251Y171789D01*
X1484296Y171779D01*
X1484465Y171720D01*
X1484578Y171716D01*
X1484628Y171705D01*
X1537858Y171705D01*
X1541407Y168155D01*
X1541424Y168142D01*
X1541438Y168126D01*
X1541531Y168064D01*
X1541621Y167997D01*
X1541641Y167990D01*
X1541659Y167979D01*
X1541703Y167969D01*
X1541872Y167910D01*
X1541985Y167906D01*
X1542036Y167895D01*
X1569464Y167895D01*
X1569485Y167898D01*
X1569506Y167896D01*
X1569616Y167918D01*
X1569727Y167935D01*
X1569746Y167944D01*
X1569767Y167948D01*
X1569805Y167972D01*
X1569967Y168050D01*
X1570049Y168127D01*
X1570093Y168155D01*
X1573642Y171705D01*
X1677672Y171705D01*
X1677693Y171708D01*
X1677714Y171706D01*
X1677824Y171728D01*
X1677935Y171745D01*
X1677954Y171754D01*
X1677974Y171758D01*
X1678013Y171782D01*
X1678174Y171860D01*
X1678257Y171937D01*
X1678300Y171965D01*
X1679744Y173409D01*
X1681694Y174217D01*
X1683806Y174217D01*
X1685756Y173409D01*
X1687200Y171965D01*
X1687217Y171952D01*
X1687230Y171936D01*
X1687324Y171874D01*
X1687414Y171807D01*
X1687434Y171800D01*
X1687451Y171789D01*
X1687496Y171779D01*
X1687665Y171720D01*
X1687778Y171716D01*
X1687828Y171705D01*
X1743598Y171705D01*
X1747147Y168155D01*
X1747164Y168142D01*
X1747178Y168126D01*
X1747271Y168064D01*
X1747361Y167997D01*
X1747381Y167990D01*
X1747399Y167979D01*
X1747443Y167969D01*
X1747612Y167910D01*
X1747725Y167906D01*
X1747776Y167895D01*
X1772664Y167895D01*
X1772685Y167898D01*
X1772706Y167896D01*
X1772816Y167918D01*
X1772927Y167935D01*
X1772946Y167944D01*
X1772967Y167948D01*
X1773005Y167972D01*
X1773167Y168050D01*
X1773249Y168127D01*
X1773293Y168155D01*
X1776842Y171705D01*
X1880872Y171705D01*
X1880893Y171708D01*
X1880914Y171706D01*
X1881024Y171728D01*
X1881135Y171745D01*
X1881154Y171754D01*
X1881174Y171758D01*
X1881213Y171782D01*
X1881374Y171860D01*
X1881457Y171937D01*
X1881500Y171965D01*
X1882944Y173409D01*
X1884894Y174217D01*
X1887006Y174217D01*
X1888956Y173409D01*
X1890400Y171965D01*
X1890417Y171952D01*
X1890430Y171936D01*
X1890524Y171874D01*
X1890614Y171807D01*
X1890634Y171800D01*
X1890651Y171789D01*
X1890696Y171779D01*
X1890865Y171720D01*
X1890978Y171716D01*
X1891028Y171705D01*
X1944258Y171705D01*
X1947807Y168155D01*
X1947824Y168142D01*
X1947838Y168126D01*
X1947931Y168064D01*
X1948021Y167997D01*
X1948041Y167990D01*
X1948059Y167979D01*
X1948103Y167969D01*
X1948272Y167910D01*
X1948385Y167906D01*
X1948436Y167895D01*
X1975864Y167895D01*
X1975885Y167898D01*
X1975906Y167896D01*
X1976016Y167918D01*
X1976127Y167935D01*
X1976146Y167944D01*
X1976167Y167948D01*
X1976205Y167972D01*
X1976367Y168050D01*
X1976449Y168127D01*
X1976493Y168155D01*
X1980042Y171705D01*
X2084072Y171705D01*
X2084093Y171708D01*
X2084114Y171706D01*
X2084224Y171728D01*
X2084335Y171745D01*
X2084354Y171754D01*
X2084374Y171758D01*
X2084413Y171782D01*
X2084574Y171860D01*
X2084657Y171937D01*
X2084700Y171965D01*
X2086144Y173409D01*
X2088094Y174217D01*
X2090206Y174217D01*
X2092156Y173409D01*
X2093600Y171965D01*
X2093617Y171952D01*
X2093630Y171936D01*
X2093724Y171874D01*
X2093814Y171807D01*
X2093834Y171800D01*
X2093851Y171789D01*
X2093896Y171779D01*
X2094065Y171720D01*
X2094178Y171716D01*
X2094228Y171705D01*
X2147458Y171705D01*
X2151007Y168155D01*
X2151024Y168142D01*
X2151038Y168126D01*
X2151131Y168064D01*
X2151221Y167997D01*
X2151241Y167990D01*
X2151259Y167979D01*
X2151303Y167969D01*
X2151472Y167910D01*
X2151585Y167906D01*
X2151636Y167895D01*
X2179064Y167895D01*
X2179085Y167898D01*
X2179106Y167896D01*
X2179216Y167918D01*
X2179327Y167935D01*
X2179346Y167944D01*
X2179367Y167948D01*
X2179405Y167972D01*
X2179567Y168050D01*
X2179649Y168127D01*
X2179693Y168155D01*
X2183242Y171705D01*
X2286155Y171705D01*
X2286257Y171720D01*
X2286359Y171728D01*
X2286387Y171740D01*
X2286418Y171745D01*
X2286510Y171789D01*
X2286606Y171827D01*
X2286629Y171847D01*
X2286657Y171860D01*
X2286732Y171930D01*
X2286812Y171995D01*
X2286829Y172021D01*
X2286851Y172042D01*
X2286902Y172131D01*
X2286959Y172216D01*
X2286965Y172240D01*
X2286983Y172272D01*
X2287026Y172464D01*
X2287851Y174456D01*
X2289344Y175949D01*
X2291294Y176757D01*
X2293406Y176757D01*
X2295356Y175949D01*
X2296849Y174456D01*
X2297657Y172506D01*
X2297657Y170394D01*
X2296849Y168444D01*
X2295356Y166951D01*
X2293406Y166143D01*
X2291364Y166143D01*
X2291343Y166140D01*
X2291322Y166142D01*
X2291212Y166120D01*
X2291179Y166115D01*
X2185926Y166115D01*
X2185905Y166112D01*
X2185884Y166114D01*
X2185774Y166092D01*
X2185663Y166075D01*
X2185644Y166066D01*
X2185623Y166062D01*
X2185585Y166038D01*
X2185423Y165960D01*
X2185341Y165883D01*
X2185297Y165855D01*
X2181748Y162305D01*
X2148952Y162305D01*
X2145403Y165855D01*
X2145386Y165868D01*
X2145372Y165884D01*
X2145279Y165946D01*
X2145189Y166013D01*
X2145169Y166020D01*
X2145151Y166031D01*
X2145107Y166041D01*
X2144938Y166100D01*
X2144825Y166104D01*
X2144774Y166115D01*
X2094228Y166115D01*
X2094207Y166112D01*
X2094186Y166114D01*
X2094076Y166092D01*
X2093965Y166075D01*
X2093946Y166066D01*
X2093926Y166062D01*
X2093887Y166038D01*
X2093726Y165960D01*
X2093643Y165883D01*
X2093600Y165855D01*
X2093090Y165346D01*
X2093035Y165271D01*
X2092974Y165202D01*
X2092957Y165165D01*
X2092933Y165132D01*
X2092902Y165044D01*
X2092864Y164960D01*
X2092859Y164919D01*
X2092845Y164881D01*
X2092842Y164788D01*
X2092830Y164697D01*
X2092838Y164656D01*
X2092836Y164615D01*
X2092860Y164526D01*
X2092876Y164435D01*
X2092895Y164398D01*
X2092906Y164358D01*
X2092956Y164280D01*
X2092998Y164198D01*
X2093027Y164169D01*
X2093049Y164134D01*
X2093119Y164074D01*
X2093184Y164008D01*
X2093220Y163989D01*
X2093251Y163962D01*
X2093336Y163926D01*
X2093417Y163882D01*
X2093458Y163874D01*
X2093496Y163858D01*
X2093588Y163848D01*
X2093678Y163830D01*
X2093709Y163835D01*
X2093760Y163830D01*
X2094021Y163882D01*
X2094038Y163893D01*
X2094058Y163897D01*
X2094444Y164057D01*
X2096556Y164057D01*
X2098506Y163249D01*
X2099999Y161756D01*
X2100807Y159806D01*
X2100807Y157694D01*
X2099999Y155744D01*
X2098506Y154251D01*
X2098462Y154233D01*
X2098409Y154201D01*
X2098351Y154178D01*
X2098296Y154133D01*
X2098234Y154096D01*
X2098193Y154049D01*
X2098145Y154010D01*
X2098105Y153951D01*
X2098058Y153897D01*
X2098032Y153841D01*
X2097998Y153789D01*
X2097987Y153742D01*
X2097948Y153655D01*
X2097921Y153443D01*
X2097914Y153412D01*
X2097914Y151388D01*
X2097923Y151326D01*
X2097922Y151264D01*
X2097935Y151223D01*
X2097937Y151189D01*
X2097948Y151163D01*
X2097954Y151125D01*
X2097980Y151069D01*
X2097998Y151010D01*
X2098026Y150968D01*
X2098036Y150942D01*
X2098050Y150925D01*
X2098069Y150886D01*
X2098112Y150840D01*
X2098146Y150789D01*
X2098181Y150764D01*
X2098204Y150736D01*
X2098218Y150726D01*
X2098251Y150691D01*
X2098390Y150612D01*
X2098425Y150588D01*
X2098435Y150586D01*
X2098436Y150585D01*
X2098462Y150567D01*
X2098506Y150549D01*
X2099999Y149056D01*
X2100807Y147106D01*
X2100807Y144994D01*
X2099999Y143044D01*
X2098506Y141551D01*
X2096556Y140743D01*
X2094444Y140743D01*
X2092494Y141551D01*
X2091001Y143044D01*
X2090193Y144994D01*
X2090193Y147106D01*
X2091001Y149056D01*
X2092494Y150549D01*
X2092538Y150567D01*
X2092591Y150599D01*
X2092649Y150622D01*
X2092687Y150653D01*
X2092700Y150660D01*
X2092716Y150674D01*
X2092766Y150704D01*
X2092807Y150751D01*
X2092855Y150790D01*
X2092880Y150828D01*
X2092894Y150841D01*
X2092907Y150863D01*
X2092942Y150903D01*
X2092968Y150959D01*
X2093002Y151011D01*
X2093009Y151042D01*
X2093026Y151072D01*
X2093033Y151103D01*
X2093052Y151145D01*
X2093066Y151248D01*
X2093084Y151331D01*
X2093081Y151366D01*
X2093086Y151388D01*
X2093086Y153412D01*
X2093077Y153474D01*
X2093078Y153536D01*
X2093057Y153604D01*
X2093046Y153675D01*
X2093020Y153731D01*
X2093002Y153790D01*
X2092962Y153850D01*
X2092931Y153914D01*
X2092888Y153960D01*
X2092854Y154011D01*
X2092815Y154039D01*
X2092749Y154109D01*
X2092564Y154215D01*
X2092538Y154233D01*
X2092494Y154251D01*
X2091001Y155744D01*
X2090193Y157694D01*
X2090193Y159806D01*
X2091001Y161756D01*
X2091560Y162314D01*
X2091590Y162355D01*
X2091625Y162388D01*
X2091645Y162423D01*
X2091676Y162458D01*
X2091693Y162495D01*
X2091717Y162528D01*
X2091736Y162583D01*
X2091757Y162619D01*
X2091765Y162653D01*
X2091786Y162700D01*
X2091791Y162741D01*
X2091805Y162779D01*
X2091807Y162843D01*
X2091815Y162879D01*
X2091812Y162908D01*
X2091820Y162963D01*
X2091812Y163004D01*
X2091814Y163045D01*
X2091796Y163111D01*
X2091793Y163144D01*
X2091784Y163167D01*
X2091774Y163225D01*
X2091755Y163262D01*
X2091744Y163302D01*
X2091706Y163362D01*
X2091694Y163390D01*
X2091680Y163408D01*
X2091652Y163462D01*
X2091623Y163491D01*
X2091601Y163526D01*
X2091546Y163573D01*
X2091527Y163597D01*
X2091508Y163609D01*
X2091466Y163652D01*
X2091430Y163671D01*
X2091399Y163698D01*
X2091332Y163727D01*
X2091306Y163744D01*
X2091289Y163748D01*
X2091233Y163778D01*
X2091192Y163786D01*
X2091154Y163802D01*
X2091062Y163812D01*
X2090972Y163830D01*
X2090943Y163825D01*
X2090929Y163828D01*
X2090925Y163828D01*
X2090918Y163827D01*
X2090890Y163830D01*
X2090743Y163800D01*
X2090662Y163788D01*
X2090648Y163782D01*
X2090629Y163778D01*
X2090612Y163767D01*
X2090592Y163763D01*
X2090206Y163603D01*
X2088094Y163603D01*
X2086144Y164411D01*
X2084700Y165855D01*
X2084683Y165868D01*
X2084670Y165884D01*
X2084576Y165946D01*
X2084486Y166013D01*
X2084466Y166020D01*
X2084449Y166031D01*
X2084404Y166041D01*
X2084235Y166100D01*
X2084122Y166104D01*
X2084072Y166115D01*
X1982726Y166115D01*
X1982705Y166112D01*
X1982684Y166114D01*
X1982574Y166092D01*
X1982463Y166075D01*
X1982444Y166066D01*
X1982423Y166062D01*
X1982385Y166038D01*
X1982223Y165960D01*
X1982141Y165883D01*
X1982097Y165855D01*
X1978548Y162305D01*
X1945752Y162305D01*
X1942203Y165855D01*
X1942186Y165868D01*
X1942172Y165884D01*
X1942079Y165946D01*
X1941989Y166013D01*
X1941969Y166020D01*
X1941951Y166031D01*
X1941907Y166041D01*
X1941738Y166100D01*
X1941625Y166104D01*
X1941574Y166115D01*
X1891028Y166115D01*
X1891007Y166112D01*
X1890986Y166114D01*
X1890876Y166092D01*
X1890765Y166075D01*
X1890746Y166066D01*
X1890726Y166062D01*
X1890687Y166038D01*
X1890526Y165960D01*
X1890443Y165883D01*
X1890400Y165855D01*
X1889890Y165346D01*
X1889835Y165271D01*
X1889774Y165202D01*
X1889757Y165165D01*
X1889733Y165132D01*
X1889702Y165044D01*
X1889664Y164960D01*
X1889659Y164919D01*
X1889645Y164881D01*
X1889642Y164788D01*
X1889630Y164697D01*
X1889638Y164656D01*
X1889636Y164615D01*
X1889660Y164526D01*
X1889676Y164435D01*
X1889695Y164398D01*
X1889706Y164358D01*
X1889756Y164280D01*
X1889798Y164198D01*
X1889827Y164169D01*
X1889849Y164134D01*
X1889919Y164074D01*
X1889984Y164008D01*
X1890020Y163989D01*
X1890051Y163962D01*
X1890136Y163926D01*
X1890217Y163882D01*
X1890258Y163874D01*
X1890296Y163858D01*
X1890388Y163848D01*
X1890478Y163830D01*
X1890509Y163835D01*
X1890560Y163830D01*
X1890821Y163882D01*
X1890838Y163893D01*
X1890858Y163897D01*
X1891244Y164057D01*
X1893356Y164057D01*
X1895306Y163249D01*
X1896799Y161756D01*
X1897607Y159806D01*
X1897607Y157694D01*
X1896799Y155744D01*
X1895306Y154251D01*
X1895262Y154233D01*
X1895209Y154201D01*
X1895151Y154178D01*
X1895096Y154133D01*
X1895034Y154096D01*
X1894993Y154049D01*
X1894945Y154010D01*
X1894905Y153951D01*
X1894858Y153897D01*
X1894832Y153841D01*
X1894798Y153789D01*
X1894787Y153742D01*
X1894748Y153655D01*
X1894721Y153443D01*
X1894714Y153412D01*
X1894714Y151388D01*
X1894723Y151326D01*
X1894722Y151264D01*
X1894735Y151223D01*
X1894737Y151189D01*
X1894748Y151163D01*
X1894754Y151125D01*
X1894780Y151069D01*
X1894798Y151010D01*
X1894826Y150968D01*
X1894836Y150942D01*
X1894850Y150925D01*
X1894869Y150886D01*
X1894912Y150840D01*
X1894946Y150789D01*
X1894981Y150764D01*
X1895004Y150736D01*
X1895018Y150726D01*
X1895051Y150691D01*
X1895190Y150612D01*
X1895225Y150588D01*
X1895235Y150586D01*
X1895236Y150585D01*
X1895262Y150567D01*
X1895306Y150549D01*
X1896799Y149056D01*
X1897607Y147106D01*
X1897607Y144994D01*
X1896799Y143044D01*
X1895306Y141551D01*
X1893356Y140743D01*
X1891244Y140743D01*
X1889294Y141551D01*
X1887801Y143044D01*
X1886993Y144994D01*
X1886993Y147106D01*
X1887801Y149056D01*
X1889294Y150549D01*
X1889338Y150567D01*
X1889391Y150599D01*
X1889449Y150622D01*
X1889487Y150653D01*
X1889500Y150660D01*
X1889516Y150674D01*
X1889566Y150704D01*
X1889607Y150751D01*
X1889655Y150790D01*
X1889680Y150828D01*
X1889694Y150841D01*
X1889707Y150863D01*
X1889742Y150903D01*
X1889768Y150959D01*
X1889802Y151011D01*
X1889809Y151042D01*
X1889826Y151072D01*
X1889833Y151103D01*
X1889852Y151145D01*
X1889866Y151248D01*
X1889884Y151331D01*
X1889881Y151366D01*
X1889886Y151388D01*
X1889886Y153412D01*
X1889877Y153474D01*
X1889878Y153536D01*
X1889857Y153604D01*
X1889846Y153675D01*
X1889820Y153731D01*
X1889802Y153790D01*
X1889762Y153850D01*
X1889731Y153914D01*
X1889688Y153960D01*
X1889654Y154011D01*
X1889615Y154039D01*
X1889549Y154109D01*
X1889364Y154215D01*
X1889338Y154233D01*
X1889294Y154251D01*
X1887801Y155744D01*
X1886993Y157694D01*
X1886993Y159806D01*
X1887801Y161756D01*
X1888360Y162314D01*
X1888390Y162355D01*
X1888425Y162388D01*
X1888445Y162423D01*
X1888476Y162458D01*
X1888493Y162495D01*
X1888517Y162528D01*
X1888536Y162583D01*
X1888557Y162619D01*
X1888565Y162653D01*
X1888586Y162700D01*
X1888591Y162741D01*
X1888605Y162779D01*
X1888607Y162843D01*
X1888615Y162879D01*
X1888612Y162908D01*
X1888620Y162963D01*
X1888612Y163004D01*
X1888614Y163045D01*
X1888596Y163111D01*
X1888593Y163144D01*
X1888584Y163167D01*
X1888574Y163225D01*
X1888555Y163262D01*
X1888544Y163302D01*
X1888506Y163362D01*
X1888494Y163390D01*
X1888480Y163408D01*
X1888452Y163462D01*
X1888423Y163491D01*
X1888401Y163526D01*
X1888346Y163573D01*
X1888327Y163597D01*
X1888308Y163609D01*
X1888266Y163652D01*
X1888230Y163671D01*
X1888199Y163698D01*
X1888132Y163727D01*
X1888106Y163744D01*
X1888089Y163748D01*
X1888033Y163778D01*
X1887992Y163786D01*
X1887954Y163802D01*
X1887862Y163812D01*
X1887772Y163830D01*
X1887743Y163825D01*
X1887729Y163828D01*
X1887725Y163828D01*
X1887718Y163827D01*
X1887690Y163830D01*
X1887543Y163800D01*
X1887462Y163788D01*
X1887448Y163782D01*
X1887429Y163778D01*
X1887412Y163767D01*
X1887392Y163763D01*
X1887006Y163603D01*
X1884894Y163603D01*
X1882944Y164411D01*
X1881500Y165855D01*
X1881483Y165868D01*
X1881470Y165884D01*
X1881376Y165946D01*
X1881286Y166013D01*
X1881266Y166020D01*
X1881249Y166031D01*
X1881204Y166041D01*
X1881035Y166100D01*
X1880922Y166104D01*
X1880872Y166115D01*
X1779526Y166115D01*
X1779505Y166112D01*
X1779484Y166114D01*
X1779374Y166092D01*
X1779263Y166075D01*
X1779244Y166066D01*
X1779223Y166062D01*
X1779185Y166038D01*
X1779023Y165960D01*
X1778941Y165883D01*
X1778897Y165855D01*
X1775348Y162305D01*
X1745092Y162305D01*
X1741543Y165855D01*
X1741526Y165868D01*
X1741512Y165884D01*
X1741419Y165946D01*
X1741329Y166013D01*
X1741309Y166020D01*
X1741291Y166031D01*
X1741247Y166041D01*
X1741078Y166100D01*
X1740965Y166104D01*
X1740914Y166115D01*
X1687828Y166115D01*
X1687807Y166112D01*
X1687786Y166114D01*
X1687676Y166092D01*
X1687565Y166075D01*
X1687546Y166066D01*
X1687526Y166062D01*
X1687487Y166038D01*
X1687326Y165960D01*
X1687243Y165883D01*
X1687200Y165855D01*
X1686690Y165346D01*
X1686635Y165271D01*
X1686574Y165202D01*
X1686557Y165165D01*
X1686533Y165132D01*
X1686502Y165044D01*
X1686464Y164960D01*
X1686459Y164919D01*
X1686445Y164881D01*
X1686442Y164788D01*
X1686430Y164697D01*
X1686438Y164656D01*
X1686436Y164615D01*
X1686460Y164526D01*
X1686476Y164435D01*
X1686495Y164398D01*
X1686506Y164358D01*
X1686556Y164280D01*
X1686598Y164198D01*
X1686627Y164169D01*
X1686649Y164134D01*
X1686719Y164074D01*
X1686784Y164008D01*
X1686820Y163989D01*
X1686851Y163962D01*
X1686936Y163926D01*
X1687017Y163882D01*
X1687058Y163874D01*
X1687096Y163858D01*
X1687188Y163848D01*
X1687278Y163830D01*
X1687309Y163835D01*
X1687360Y163830D01*
X1687621Y163882D01*
X1687638Y163893D01*
X1687658Y163897D01*
X1688044Y164057D01*
X1690156Y164057D01*
X1692106Y163249D01*
X1693599Y161756D01*
X1694407Y159806D01*
X1694407Y157694D01*
X1693599Y155744D01*
X1692106Y154251D01*
X1692062Y154233D01*
X1692009Y154201D01*
X1691951Y154178D01*
X1691896Y154133D01*
X1691834Y154096D01*
X1691793Y154049D01*
X1691745Y154010D01*
X1691705Y153951D01*
X1691658Y153897D01*
X1691632Y153841D01*
X1691598Y153789D01*
X1691587Y153742D01*
X1691548Y153655D01*
X1691521Y153443D01*
X1691514Y153412D01*
X1691514Y151388D01*
X1691523Y151326D01*
X1691522Y151264D01*
X1691535Y151223D01*
X1691537Y151189D01*
X1691548Y151163D01*
X1691554Y151125D01*
X1691580Y151069D01*
X1691598Y151010D01*
X1691626Y150968D01*
X1691636Y150942D01*
X1691650Y150925D01*
X1691669Y150886D01*
X1691712Y150840D01*
X1691746Y150789D01*
X1691781Y150764D01*
X1691804Y150736D01*
X1691818Y150726D01*
X1691851Y150691D01*
X1691990Y150612D01*
X1692025Y150588D01*
X1692035Y150586D01*
X1692036Y150585D01*
X1692062Y150567D01*
X1692106Y150549D01*
X1693599Y149056D01*
X1694407Y147106D01*
X1694407Y144994D01*
X1693599Y143044D01*
X1692106Y141551D01*
X1690156Y140743D01*
X1688044Y140743D01*
X1686094Y141551D01*
X1684601Y143044D01*
X1683793Y144994D01*
X1683793Y147106D01*
X1684601Y149056D01*
X1686094Y150549D01*
X1686138Y150567D01*
X1686191Y150599D01*
X1686249Y150622D01*
X1686287Y150653D01*
X1686300Y150660D01*
X1686316Y150674D01*
X1686366Y150704D01*
X1686407Y150751D01*
X1686455Y150790D01*
X1686480Y150828D01*
X1686494Y150841D01*
X1686507Y150863D01*
X1686542Y150903D01*
X1686568Y150959D01*
X1686602Y151011D01*
X1686609Y151042D01*
X1686626Y151072D01*
X1686633Y151103D01*
X1686652Y151145D01*
X1686666Y151248D01*
X1686684Y151331D01*
X1686681Y151366D01*
X1686686Y151388D01*
X1686686Y153412D01*
X1686677Y153474D01*
X1686678Y153536D01*
X1686657Y153604D01*
X1686646Y153675D01*
X1686620Y153731D01*
X1686602Y153790D01*
X1686562Y153850D01*
X1686531Y153914D01*
X1686488Y153960D01*
X1686454Y154011D01*
X1686415Y154039D01*
X1686349Y154109D01*
X1686164Y154215D01*
X1686138Y154233D01*
X1686094Y154251D01*
X1684601Y155744D01*
X1683793Y157694D01*
X1683793Y159806D01*
X1684601Y161756D01*
X1685160Y162314D01*
X1685190Y162355D01*
X1685225Y162388D01*
X1685245Y162423D01*
X1685276Y162458D01*
X1685293Y162495D01*
X1685317Y162528D01*
X1685336Y162583D01*
X1685357Y162619D01*
X1685365Y162653D01*
X1685386Y162700D01*
X1685391Y162741D01*
X1685405Y162779D01*
X1685407Y162843D01*
X1685415Y162879D01*
X1685412Y162908D01*
X1685420Y162963D01*
X1685412Y163004D01*
X1685414Y163045D01*
X1685396Y163111D01*
X1685393Y163144D01*
X1685384Y163167D01*
X1685374Y163225D01*
X1685355Y163262D01*
X1685344Y163302D01*
X1685306Y163362D01*
X1685294Y163390D01*
X1685280Y163408D01*
X1685252Y163462D01*
X1685223Y163491D01*
X1685201Y163526D01*
X1685146Y163573D01*
X1685127Y163597D01*
X1685108Y163609D01*
X1685066Y163652D01*
X1685030Y163671D01*
X1684999Y163698D01*
X1684932Y163727D01*
X1684906Y163744D01*
X1684889Y163748D01*
X1684833Y163778D01*
X1684792Y163786D01*
X1684754Y163802D01*
X1684662Y163812D01*
X1684572Y163830D01*
X1684543Y163825D01*
X1684529Y163828D01*
X1684525Y163828D01*
X1684518Y163827D01*
X1684490Y163830D01*
X1684343Y163800D01*
X1684262Y163788D01*
X1684248Y163782D01*
X1684229Y163778D01*
X1684212Y163767D01*
X1684192Y163763D01*
X1683806Y163603D01*
X1681694Y163603D01*
X1679744Y164411D01*
X1678300Y165855D01*
X1678283Y165868D01*
X1678270Y165884D01*
X1678176Y165946D01*
X1678086Y166013D01*
X1678066Y166020D01*
X1678049Y166031D01*
X1678004Y166041D01*
X1677835Y166100D01*
X1677722Y166104D01*
X1677672Y166115D01*
X1576326Y166115D01*
X1576305Y166112D01*
X1576284Y166114D01*
X1576174Y166092D01*
X1576063Y166075D01*
X1576044Y166066D01*
X1576023Y166062D01*
X1575985Y166038D01*
X1575823Y165960D01*
X1575741Y165883D01*
X1575697Y165855D01*
X1572148Y162305D01*
X1539352Y162305D01*
X1535803Y165855D01*
X1535786Y165868D01*
X1535772Y165884D01*
X1535679Y165946D01*
X1535589Y166013D01*
X1535569Y166020D01*
X1535551Y166031D01*
X1535507Y166041D01*
X1535338Y166100D01*
X1535225Y166104D01*
X1535174Y166115D01*
X1484628Y166115D01*
X1484607Y166112D01*
X1484586Y166114D01*
X1484476Y166092D01*
X1484365Y166075D01*
X1484346Y166066D01*
X1484326Y166062D01*
X1484287Y166038D01*
X1484126Y165960D01*
X1484043Y165883D01*
X1484000Y165855D01*
X1483490Y165346D01*
X1483435Y165271D01*
X1483374Y165202D01*
X1483357Y165165D01*
X1483333Y165132D01*
X1483302Y165044D01*
X1483264Y164960D01*
X1483259Y164919D01*
X1483245Y164881D01*
X1483242Y164788D01*
X1483230Y164697D01*
X1483238Y164656D01*
X1483236Y164615D01*
X1483260Y164526D01*
X1483276Y164435D01*
X1483295Y164398D01*
X1483306Y164358D01*
X1483356Y164280D01*
X1483398Y164198D01*
X1483427Y164169D01*
X1483449Y164134D01*
X1483519Y164074D01*
X1483584Y164008D01*
X1483620Y163989D01*
X1483651Y163962D01*
X1483736Y163926D01*
X1483817Y163882D01*
X1483858Y163874D01*
X1483896Y163858D01*
X1483988Y163848D01*
X1484078Y163830D01*
X1484109Y163835D01*
X1484160Y163830D01*
X1484421Y163882D01*
X1484438Y163893D01*
X1484458Y163897D01*
X1484844Y164057D01*
X1486956Y164057D01*
X1488906Y163249D01*
X1490399Y161756D01*
X1491207Y159806D01*
X1491207Y157694D01*
X1490399Y155744D01*
X1488906Y154251D01*
X1488862Y154233D01*
X1488809Y154201D01*
X1488751Y154178D01*
X1488696Y154133D01*
X1488634Y154096D01*
X1488593Y154049D01*
X1488545Y154010D01*
X1488505Y153951D01*
X1488458Y153897D01*
X1488432Y153841D01*
X1488398Y153789D01*
X1488387Y153742D01*
X1488348Y153655D01*
X1488321Y153443D01*
X1488314Y153412D01*
X1488314Y151388D01*
X1488323Y151326D01*
X1488322Y151264D01*
X1488335Y151223D01*
X1488337Y151189D01*
X1488348Y151163D01*
X1488354Y151125D01*
X1488380Y151069D01*
X1488398Y151010D01*
X1488426Y150968D01*
X1488436Y150942D01*
X1488450Y150925D01*
X1488469Y150886D01*
X1488512Y150840D01*
X1488546Y150789D01*
X1488581Y150764D01*
X1488604Y150736D01*
X1488618Y150726D01*
X1488651Y150691D01*
X1488790Y150612D01*
X1488825Y150588D01*
X1488835Y150586D01*
X1488836Y150585D01*
X1488862Y150567D01*
X1488906Y150549D01*
X1490399Y149056D01*
X1491207Y147106D01*
X1491207Y144994D01*
X1490399Y143044D01*
X1488906Y141551D01*
X1486956Y140743D01*
X1484844Y140743D01*
X1482894Y141551D01*
X1481401Y143044D01*
X1480593Y144994D01*
X1480593Y147106D01*
X1481401Y149056D01*
X1482894Y150549D01*
X1482938Y150567D01*
X1482991Y150599D01*
X1483049Y150622D01*
X1483087Y150653D01*
X1483100Y150660D01*
X1483116Y150674D01*
X1483166Y150704D01*
X1483207Y150751D01*
X1483255Y150790D01*
X1483280Y150828D01*
X1483294Y150841D01*
X1483307Y150863D01*
X1483342Y150903D01*
X1483368Y150959D01*
X1483402Y151011D01*
X1483409Y151042D01*
X1483426Y151072D01*
X1483433Y151103D01*
X1483452Y151145D01*
X1483466Y151248D01*
X1483484Y151331D01*
X1483481Y151366D01*
X1483486Y151388D01*
X1483486Y153412D01*
X1483477Y153474D01*
X1483478Y153536D01*
X1483457Y153604D01*
X1483446Y153675D01*
X1483420Y153731D01*
X1483402Y153790D01*
X1483362Y153850D01*
X1483331Y153914D01*
X1483288Y153960D01*
X1483254Y154011D01*
X1483215Y154039D01*
X1483149Y154109D01*
X1482964Y154215D01*
X1482938Y154233D01*
X1482894Y154251D01*
X1481401Y155744D01*
X1480593Y157694D01*
X1480593Y159806D01*
X1481401Y161756D01*
X1481960Y162314D01*
X1481990Y162355D01*
X1482025Y162388D01*
X1482045Y162423D01*
X1482076Y162458D01*
X1482093Y162495D01*
X1482117Y162528D01*
X1482136Y162583D01*
X1482157Y162619D01*
X1482165Y162653D01*
X1482186Y162700D01*
X1482191Y162741D01*
X1482205Y162779D01*
X1482207Y162843D01*
X1482215Y162879D01*
X1482212Y162908D01*
X1482220Y162963D01*
X1482212Y163004D01*
X1482214Y163045D01*
X1482196Y163111D01*
X1482193Y163144D01*
X1482184Y163167D01*
X1482174Y163225D01*
X1482155Y163262D01*
X1482144Y163302D01*
X1482106Y163362D01*
X1482094Y163390D01*
X1482080Y163408D01*
X1482052Y163462D01*
X1482023Y163491D01*
X1482001Y163526D01*
X1481946Y163573D01*
X1481927Y163597D01*
X1481908Y163609D01*
X1481866Y163652D01*
X1481830Y163671D01*
X1481799Y163698D01*
X1481732Y163727D01*
X1481706Y163744D01*
X1481689Y163748D01*
X1481633Y163778D01*
X1481592Y163786D01*
X1481554Y163802D01*
X1481462Y163812D01*
X1481372Y163830D01*
X1481343Y163825D01*
X1481329Y163828D01*
X1481325Y163828D01*
X1481318Y163827D01*
X1481290Y163830D01*
X1481143Y163800D01*
X1481062Y163788D01*
X1481048Y163782D01*
X1481029Y163778D01*
X1481012Y163767D01*
X1480992Y163763D01*
X1480606Y163603D01*
X1478494Y163603D01*
X1476544Y164411D01*
X1475100Y165855D01*
X1475083Y165868D01*
X1475070Y165884D01*
X1474976Y165946D01*
X1474886Y166013D01*
X1474866Y166020D01*
X1474849Y166031D01*
X1474804Y166041D01*
X1474635Y166100D01*
X1474522Y166104D01*
X1474472Y166115D01*
X1373126Y166115D01*
X1373105Y166112D01*
X1373084Y166114D01*
X1372974Y166092D01*
X1372863Y166075D01*
X1372844Y166066D01*
X1372823Y166062D01*
X1372785Y166038D01*
X1372623Y165960D01*
X1372541Y165883D01*
X1372497Y165855D01*
X1368948Y162305D01*
X1336152Y162305D01*
X1332603Y165855D01*
X1332586Y165868D01*
X1332572Y165884D01*
X1332479Y165946D01*
X1332389Y166013D01*
X1332369Y166020D01*
X1332351Y166031D01*
X1332307Y166041D01*
X1332138Y166100D01*
X1332025Y166104D01*
X1331974Y166115D01*
X1281428Y166115D01*
X1281407Y166112D01*
X1281386Y166114D01*
X1281276Y166092D01*
X1281165Y166075D01*
X1281146Y166066D01*
X1281126Y166062D01*
X1281087Y166038D01*
X1280926Y165960D01*
X1280843Y165883D01*
X1280800Y165855D01*
X1280290Y165346D01*
X1280236Y165271D01*
X1280174Y165202D01*
X1280157Y165165D01*
X1280133Y165132D01*
X1280102Y165044D01*
X1280064Y164960D01*
X1280059Y164919D01*
X1280045Y164881D01*
X1280042Y164788D01*
X1280030Y164697D01*
X1280038Y164656D01*
X1280036Y164615D01*
X1280060Y164526D01*
X1280076Y164435D01*
X1280095Y164398D01*
X1280106Y164358D01*
X1280156Y164280D01*
X1280198Y164198D01*
X1280227Y164169D01*
X1280249Y164134D01*
X1280319Y164074D01*
X1280384Y164008D01*
X1280420Y163989D01*
X1280451Y163962D01*
X1280536Y163926D01*
X1280617Y163882D01*
X1280658Y163874D01*
X1280696Y163858D01*
X1280788Y163848D01*
X1280878Y163830D01*
X1280909Y163835D01*
X1280960Y163830D01*
X1281221Y163882D01*
X1281238Y163893D01*
X1281258Y163897D01*
X1281644Y164057D01*
X1283756Y164057D01*
X1285706Y163249D01*
X1287199Y161756D01*
X1288007Y159806D01*
X1288007Y157694D01*
X1287199Y155744D01*
X1285706Y154251D01*
X1285662Y154233D01*
X1285609Y154201D01*
X1285551Y154178D01*
X1285496Y154133D01*
X1285434Y154096D01*
X1285393Y154049D01*
X1285345Y154010D01*
X1285305Y153951D01*
X1285258Y153897D01*
X1285232Y153841D01*
X1285198Y153789D01*
X1285187Y153742D01*
X1285148Y153655D01*
X1285121Y153443D01*
X1285114Y153412D01*
X1285114Y151388D01*
X1285123Y151326D01*
X1285122Y151264D01*
X1285135Y151223D01*
X1285137Y151189D01*
X1285148Y151163D01*
X1285154Y151125D01*
X1285180Y151069D01*
X1285198Y151010D01*
X1285226Y150968D01*
X1285236Y150942D01*
X1285250Y150925D01*
X1285269Y150886D01*
X1285312Y150840D01*
X1285346Y150789D01*
X1285381Y150764D01*
X1285404Y150736D01*
X1285418Y150726D01*
X1285451Y150691D01*
X1285590Y150612D01*
X1285625Y150588D01*
X1285635Y150586D01*
X1285636Y150585D01*
X1285662Y150567D01*
X1285706Y150549D01*
X1287199Y149056D01*
X1288007Y147106D01*
X1288007Y144994D01*
X1287199Y143044D01*
X1285706Y141551D01*
X1283756Y140743D01*
X1281644Y140743D01*
X1279694Y141551D01*
X1278201Y143044D01*
X1277393Y144994D01*
X1277393Y147106D01*
X1278201Y149056D01*
X1279694Y150549D01*
X1279738Y150567D01*
X1279791Y150599D01*
X1279849Y150622D01*
X1279887Y150653D01*
X1279900Y150660D01*
X1279916Y150674D01*
X1279966Y150704D01*
X1280007Y150751D01*
X1280055Y150790D01*
X1280080Y150828D01*
X1280094Y150841D01*
X1280107Y150863D01*
X1280142Y150903D01*
X1280168Y150959D01*
X1280202Y151011D01*
X1280209Y151042D01*
X1280226Y151072D01*
X1280233Y151103D01*
X1280252Y151145D01*
X1280266Y151248D01*
X1280284Y151331D01*
X1280281Y151366D01*
X1280286Y151388D01*
X1280286Y153412D01*
X1280277Y153474D01*
X1280278Y153536D01*
X1280257Y153604D01*
X1280246Y153675D01*
X1280220Y153731D01*
X1280202Y153790D01*
X1280162Y153850D01*
X1280131Y153914D01*
X1280088Y153960D01*
X1280054Y154011D01*
X1280015Y154039D01*
X1279949Y154109D01*
X1279764Y154215D01*
X1279738Y154233D01*
X1279694Y154251D01*
X1278201Y155744D01*
X1277393Y157694D01*
X1277393Y159806D01*
X1278201Y161756D01*
X1278760Y162314D01*
X1278790Y162355D01*
X1278825Y162388D01*
X1278845Y162423D01*
X1278876Y162458D01*
X1278893Y162495D01*
X1278917Y162528D01*
X1278936Y162583D01*
X1278957Y162619D01*
X1278965Y162653D01*
X1278986Y162700D01*
X1278991Y162741D01*
X1279005Y162779D01*
X1279007Y162843D01*
X1279015Y162879D01*
X1279012Y162908D01*
X1279020Y162963D01*
X1279012Y163004D01*
X1279014Y163045D01*
X1278996Y163111D01*
X1278993Y163144D01*
X1278984Y163167D01*
X1278974Y163225D01*
X1278955Y163262D01*
X1278944Y163302D01*
X1278906Y163362D01*
X1278894Y163390D01*
X1278880Y163408D01*
X1278852Y163462D01*
X1278823Y163491D01*
X1278801Y163526D01*
X1278746Y163573D01*
X1278727Y163597D01*
X1278708Y163609D01*
X1278666Y163652D01*
X1278630Y163671D01*
X1278599Y163698D01*
X1278532Y163727D01*
X1278506Y163744D01*
X1278489Y163748D01*
X1278433Y163778D01*
X1278392Y163786D01*
X1278354Y163802D01*
X1278262Y163812D01*
X1278172Y163830D01*
X1278143Y163825D01*
X1278129Y163828D01*
X1278125Y163828D01*
X1278118Y163827D01*
X1278090Y163830D01*
X1277943Y163800D01*
X1277862Y163788D01*
X1277848Y163782D01*
X1277829Y163778D01*
X1277812Y163767D01*
X1277792Y163763D01*
X1277406Y163603D01*
X1275294Y163603D01*
X1273344Y164411D01*
X1271900Y165855D01*
X1271883Y165868D01*
X1271870Y165884D01*
X1271776Y165946D01*
X1271686Y166013D01*
X1271666Y166020D01*
X1271649Y166031D01*
X1271604Y166041D01*
X1271435Y166100D01*
X1271322Y166104D01*
X1271272Y166115D01*
X1169926Y166115D01*
X1169905Y166112D01*
X1169884Y166114D01*
X1169773Y166092D01*
X1169663Y166075D01*
X1169644Y166066D01*
X1169623Y166062D01*
X1169585Y166038D01*
X1169423Y165960D01*
X1169341Y165883D01*
X1169297Y165855D01*
X1167645Y164203D01*
X1165748Y162305D01*
X1132952Y162305D01*
X1131055Y164203D01*
X1129403Y165855D01*
X1129386Y165868D01*
X1129372Y165884D01*
X1129279Y165946D01*
X1129189Y166013D01*
X1129169Y166020D01*
X1129151Y166031D01*
X1129107Y166041D01*
X1128938Y166100D01*
X1128825Y166104D01*
X1128774Y166115D01*
X1078228Y166115D01*
X1078207Y166112D01*
X1078186Y166114D01*
X1078076Y166092D01*
X1077965Y166075D01*
X1077946Y166066D01*
X1077926Y166062D01*
X1077887Y166038D01*
X1077726Y165960D01*
X1077643Y165883D01*
X1077600Y165855D01*
X1077090Y165346D01*
X1077036Y165271D01*
X1076974Y165202D01*
X1076957Y165165D01*
X1076933Y165132D01*
X1076902Y165044D01*
X1076864Y164960D01*
X1076859Y164919D01*
X1076845Y164881D01*
X1076842Y164788D01*
X1076830Y164697D01*
X1076838Y164656D01*
X1076836Y164615D01*
X1076860Y164526D01*
X1076876Y164435D01*
X1076895Y164398D01*
X1076906Y164358D01*
X1076956Y164280D01*
X1076998Y164198D01*
X1077027Y164169D01*
X1077049Y164134D01*
X1077119Y164074D01*
X1077184Y164008D01*
X1077220Y163989D01*
X1077251Y163962D01*
X1077336Y163926D01*
X1077417Y163882D01*
X1077458Y163874D01*
X1077496Y163858D01*
X1077588Y163848D01*
X1077678Y163830D01*
X1077709Y163835D01*
X1077760Y163830D01*
X1078021Y163882D01*
X1078038Y163893D01*
X1078058Y163897D01*
X1078444Y164057D01*
X1080556Y164057D01*
X1082506Y163249D01*
X1083999Y161756D01*
X1084807Y159806D01*
X1084807Y157694D01*
X1083999Y155744D01*
X1082506Y154251D01*
X1082462Y154233D01*
X1082409Y154201D01*
X1082351Y154178D01*
X1082296Y154133D01*
X1082234Y154096D01*
X1082193Y154049D01*
X1082145Y154010D01*
X1082105Y153951D01*
X1082058Y153897D01*
X1082032Y153841D01*
X1081998Y153789D01*
X1081987Y153742D01*
X1081948Y153655D01*
X1081921Y153443D01*
X1081914Y153412D01*
X1081914Y151388D01*
X1081923Y151326D01*
X1081922Y151264D01*
X1081935Y151223D01*
X1081937Y151189D01*
X1081948Y151163D01*
X1081954Y151125D01*
X1081980Y151069D01*
X1081998Y151010D01*
X1082026Y150968D01*
X1082036Y150942D01*
X1082050Y150925D01*
X1082069Y150886D01*
X1082112Y150840D01*
X1082146Y150789D01*
X1082181Y150764D01*
X1082204Y150736D01*
X1082218Y150726D01*
X1082251Y150691D01*
X1082390Y150612D01*
X1082425Y150588D01*
X1082435Y150586D01*
X1082436Y150585D01*
X1082462Y150567D01*
X1082506Y150549D01*
X1083999Y149056D01*
X1084807Y147106D01*
X1084807Y144994D01*
X1083999Y143044D01*
X1082506Y141551D01*
X1080556Y140743D01*
X1078444Y140743D01*
X1076494Y141551D01*
X1075001Y143044D01*
X1074193Y144994D01*
X1074193Y147106D01*
X1075001Y149056D01*
X1076494Y150549D01*
X1076538Y150567D01*
X1076591Y150599D01*
X1076649Y150622D01*
X1076687Y150653D01*
X1076700Y150660D01*
X1076716Y150674D01*
X1076766Y150704D01*
X1076807Y150751D01*
X1076855Y150790D01*
X1076880Y150828D01*
X1076894Y150841D01*
X1076907Y150863D01*
X1076942Y150903D01*
X1076968Y150959D01*
X1077002Y151011D01*
X1077009Y151042D01*
X1077026Y151072D01*
X1077033Y151103D01*
X1077052Y151145D01*
X1077066Y151248D01*
X1077084Y151331D01*
X1077081Y151366D01*
X1077086Y151388D01*
X1077086Y153412D01*
X1077077Y153474D01*
X1077078Y153536D01*
X1077057Y153604D01*
X1077046Y153675D01*
X1077020Y153731D01*
X1077002Y153790D01*
X1076962Y153850D01*
X1076931Y153914D01*
X1076888Y153960D01*
X1076854Y154011D01*
X1076815Y154039D01*
X1076749Y154109D01*
X1076564Y154215D01*
X1076538Y154233D01*
X1076494Y154251D01*
X1075001Y155744D01*
X1074193Y157694D01*
X1074193Y159806D01*
X1075001Y161756D01*
X1075560Y162314D01*
X1075590Y162355D01*
X1075625Y162388D01*
X1075645Y162423D01*
X1075676Y162458D01*
X1075693Y162495D01*
X1075717Y162528D01*
X1075736Y162583D01*
X1075757Y162619D01*
X1075765Y162653D01*
X1075786Y162700D01*
X1075791Y162741D01*
X1075805Y162779D01*
X1075807Y162843D01*
X1075815Y162879D01*
X1075812Y162908D01*
X1075820Y162963D01*
X1075812Y163004D01*
X1075814Y163045D01*
X1075796Y163111D01*
X1075793Y163144D01*
X1075784Y163167D01*
X1075774Y163225D01*
X1075755Y163262D01*
X1075744Y163302D01*
X1075706Y163362D01*
X1075694Y163390D01*
X1075680Y163408D01*
X1075652Y163462D01*
X1075623Y163491D01*
X1075601Y163526D01*
X1075546Y163573D01*
X1075527Y163597D01*
X1075508Y163609D01*
X1075466Y163652D01*
X1075430Y163671D01*
X1075399Y163698D01*
X1075332Y163727D01*
X1075306Y163744D01*
X1075289Y163748D01*
X1075233Y163778D01*
X1075192Y163786D01*
X1075154Y163802D01*
X1075062Y163812D01*
X1074972Y163830D01*
X1074943Y163825D01*
X1074929Y163828D01*
X1074925Y163828D01*
X1074918Y163827D01*
X1074890Y163830D01*
X1074743Y163800D01*
X1074662Y163788D01*
X1074648Y163782D01*
X1074629Y163778D01*
X1074612Y163767D01*
X1074592Y163763D01*
X1074206Y163603D01*
X1072094Y163603D01*
X1070144Y164411D01*
X1068700Y165855D01*
X1068683Y165868D01*
X1068670Y165884D01*
X1068576Y165946D01*
X1068486Y166013D01*
X1068466Y166020D01*
X1068449Y166031D01*
X1068404Y166041D01*
X1068235Y166100D01*
X1068122Y166104D01*
X1068072Y166115D01*
X966726Y166115D01*
X966705Y166112D01*
X966684Y166114D01*
X966573Y166092D01*
X966463Y166075D01*
X966444Y166066D01*
X966423Y166062D01*
X966385Y166038D01*
X966223Y165960D01*
X966141Y165883D01*
X966097Y165855D01*
X962548Y162305D01*
X932292Y162305D01*
X930395Y164203D01*
X928743Y165855D01*
X928726Y165868D01*
X928712Y165884D01*
X928619Y165946D01*
X928529Y166013D01*
X928509Y166020D01*
X928491Y166031D01*
X928447Y166041D01*
X928278Y166100D01*
X928165Y166104D01*
X928114Y166115D01*
X875028Y166115D01*
X875007Y166112D01*
X874986Y166114D01*
X874876Y166092D01*
X874765Y166075D01*
X874746Y166066D01*
X874726Y166062D01*
X874687Y166038D01*
X874526Y165960D01*
X874443Y165883D01*
X874400Y165855D01*
X873890Y165346D01*
X873836Y165271D01*
X873774Y165202D01*
X873757Y165165D01*
X873733Y165132D01*
X873702Y165044D01*
X873664Y164960D01*
X873659Y164919D01*
X873645Y164881D01*
X873642Y164788D01*
X873630Y164697D01*
X873638Y164656D01*
X873636Y164615D01*
X873660Y164526D01*
X873676Y164435D01*
X873695Y164398D01*
X873706Y164358D01*
X873756Y164280D01*
X873798Y164198D01*
X873827Y164169D01*
X873849Y164134D01*
X873919Y164074D01*
X873984Y164008D01*
X874020Y163989D01*
X874051Y163962D01*
X874136Y163926D01*
X874217Y163882D01*
X874258Y163874D01*
X874296Y163858D01*
X874388Y163848D01*
X874478Y163830D01*
X874509Y163835D01*
X874560Y163830D01*
X874821Y163882D01*
X874838Y163893D01*
X874858Y163897D01*
X875244Y164057D01*
X877356Y164057D01*
X879306Y163249D01*
X880799Y161756D01*
X881607Y159806D01*
X881607Y157694D01*
X880799Y155744D01*
X879306Y154251D01*
X879262Y154233D01*
X879209Y154201D01*
X879151Y154178D01*
X879096Y154133D01*
X879034Y154096D01*
X878993Y154049D01*
X878945Y154010D01*
X878905Y153951D01*
X878858Y153897D01*
X878832Y153841D01*
X878798Y153789D01*
X878787Y153742D01*
X878748Y153655D01*
X878721Y153443D01*
X878714Y153412D01*
X878714Y151388D01*
X878723Y151326D01*
X878722Y151264D01*
X878735Y151223D01*
X878737Y151189D01*
X878748Y151163D01*
X878754Y151125D01*
X878780Y151069D01*
X878798Y151010D01*
X878826Y150968D01*
X878836Y150942D01*
X878850Y150925D01*
X878869Y150886D01*
X878912Y150840D01*
X878946Y150789D01*
X878981Y150764D01*
X879004Y150736D01*
X879018Y150726D01*
X879051Y150691D01*
X879190Y150612D01*
X879225Y150588D01*
X879235Y150586D01*
X879236Y150585D01*
X879262Y150567D01*
X879306Y150549D01*
X880799Y149056D01*
X881607Y147106D01*
X881607Y144994D01*
X880799Y143044D01*
X879306Y141551D01*
X877356Y140743D01*
X875244Y140743D01*
X873294Y141551D01*
X871801Y143044D01*
X870993Y144994D01*
X870993Y147106D01*
X871801Y149056D01*
X873294Y150549D01*
X873338Y150567D01*
X873391Y150599D01*
X873449Y150622D01*
X873487Y150653D01*
X873500Y150660D01*
X873516Y150674D01*
X873566Y150704D01*
X873607Y150751D01*
X873655Y150790D01*
X873680Y150828D01*
X873694Y150841D01*
X873707Y150863D01*
X873742Y150903D01*
X873768Y150959D01*
X873802Y151011D01*
X873809Y151042D01*
X873826Y151072D01*
X873833Y151103D01*
X873852Y151145D01*
X873866Y151248D01*
X873884Y151331D01*
X873881Y151366D01*
X873886Y151388D01*
X873886Y153412D01*
X873877Y153474D01*
X873878Y153536D01*
X873857Y153604D01*
X873846Y153675D01*
X873820Y153731D01*
X873802Y153790D01*
X873762Y153850D01*
X873731Y153914D01*
X873688Y153960D01*
X873654Y154011D01*
X873615Y154039D01*
X873549Y154109D01*
X873364Y154215D01*
X873338Y154233D01*
X873294Y154251D01*
X871801Y155744D01*
X870993Y157694D01*
X870993Y159806D01*
X871801Y161756D01*
X872360Y162314D01*
X872390Y162355D01*
X872425Y162388D01*
X872445Y162423D01*
X872476Y162458D01*
X872493Y162495D01*
X872517Y162528D01*
X872536Y162583D01*
X872557Y162619D01*
X872565Y162653D01*
X872586Y162700D01*
X872591Y162741D01*
X872605Y162779D01*
X872607Y162843D01*
X872615Y162879D01*
X872612Y162908D01*
X872620Y162963D01*
X872612Y163004D01*
X872614Y163045D01*
X872596Y163111D01*
X872593Y163144D01*
X872584Y163167D01*
X872574Y163225D01*
X872555Y163262D01*
X872544Y163302D01*
X872506Y163362D01*
X872494Y163390D01*
X872480Y163408D01*
X872452Y163462D01*
X872423Y163491D01*
X872401Y163526D01*
X872346Y163573D01*
X872327Y163597D01*
X872308Y163609D01*
X872266Y163652D01*
X872230Y163671D01*
X872199Y163698D01*
X872132Y163727D01*
X872106Y163744D01*
X872089Y163748D01*
X872033Y163778D01*
X871992Y163786D01*
X871954Y163802D01*
X871862Y163812D01*
X871772Y163830D01*
X871743Y163825D01*
X871729Y163828D01*
X871725Y163828D01*
X871718Y163827D01*
X871690Y163830D01*
X871543Y163800D01*
X871462Y163788D01*
X871448Y163782D01*
X871429Y163778D01*
X871412Y163767D01*
X871392Y163763D01*
X871006Y163603D01*
X868894Y163603D01*
X866944Y164411D01*
X865500Y165855D01*
X865483Y165868D01*
X865470Y165884D01*
X865376Y165946D01*
X865286Y166013D01*
X865266Y166020D01*
X865249Y166031D01*
X865204Y166041D01*
X865035Y166100D01*
X864922Y166104D01*
X864872Y166115D01*
X763526Y166115D01*
X763505Y166112D01*
X763484Y166114D01*
X763373Y166092D01*
X763263Y166075D01*
X763244Y166066D01*
X763223Y166062D01*
X763185Y166038D01*
X763023Y165960D01*
X762941Y165883D01*
X762897Y165855D01*
X761245Y164203D01*
X761245Y164202D01*
X759348Y162305D01*
X726552Y162305D01*
X723003Y165855D01*
X722986Y165868D01*
X722972Y165884D01*
X722879Y165946D01*
X722789Y166013D01*
X722769Y166020D01*
X722751Y166031D01*
X722707Y166041D01*
X722538Y166100D01*
X722425Y166104D01*
X722374Y166115D01*
X671828Y166115D01*
X671807Y166112D01*
X671786Y166114D01*
X671676Y166092D01*
X671565Y166075D01*
X671546Y166066D01*
X671526Y166062D01*
X671487Y166038D01*
X671326Y165960D01*
X671243Y165883D01*
X671200Y165855D01*
X670690Y165346D01*
X670636Y165271D01*
X670574Y165202D01*
X670557Y165165D01*
X670533Y165132D01*
X670502Y165044D01*
X670464Y164960D01*
X670459Y164919D01*
X670445Y164881D01*
X670442Y164788D01*
X670430Y164697D01*
X670438Y164656D01*
X670436Y164615D01*
X670460Y164526D01*
X670476Y164435D01*
X670495Y164398D01*
X670506Y164358D01*
X670556Y164280D01*
X670598Y164198D01*
X670627Y164169D01*
X670649Y164134D01*
X670719Y164074D01*
X670784Y164008D01*
X670820Y163989D01*
X670851Y163962D01*
X670936Y163926D01*
X671017Y163882D01*
X671058Y163874D01*
X671096Y163858D01*
X671188Y163848D01*
X671278Y163830D01*
X671309Y163835D01*
X671360Y163830D01*
X671621Y163882D01*
X671638Y163893D01*
X671658Y163897D01*
X672044Y164057D01*
X674156Y164057D01*
X676106Y163249D01*
X677599Y161756D01*
X678407Y159806D01*
X678407Y157694D01*
X677599Y155744D01*
X676106Y154251D01*
X676062Y154233D01*
X676009Y154201D01*
X675951Y154178D01*
X675896Y154133D01*
X675834Y154096D01*
X675793Y154049D01*
X675745Y154010D01*
X675705Y153951D01*
X675658Y153897D01*
X675632Y153841D01*
X675598Y153789D01*
X675587Y153742D01*
X675548Y153655D01*
X675521Y153443D01*
X675514Y153412D01*
X675514Y151388D01*
X675523Y151326D01*
X675522Y151264D01*
X675535Y151223D01*
X675537Y151189D01*
X675548Y151163D01*
X675554Y151125D01*
X675580Y151069D01*
X675598Y151010D01*
X675626Y150968D01*
X675636Y150942D01*
X675650Y150925D01*
X675669Y150886D01*
X675712Y150840D01*
X675746Y150789D01*
X675781Y150764D01*
X675804Y150736D01*
X675818Y150726D01*
X675851Y150691D01*
X675990Y150612D01*
X676025Y150588D01*
X676035Y150586D01*
X676036Y150585D01*
X676062Y150567D01*
X676106Y150549D01*
X677599Y149056D01*
X678407Y147106D01*
X678407Y144994D01*
X677599Y143044D01*
X676106Y141551D01*
X674156Y140743D01*
X672044Y140743D01*
G37*
%LPD*%
%LPC*%
G36*
X1234937Y95489D02*
X1234937Y95489D01*
X1228538Y97204D01*
X1222801Y100516D01*
X1218116Y105201D01*
X1214804Y110938D01*
X1213089Y117337D01*
X1213089Y123963D01*
X1214804Y130362D01*
X1218116Y136099D01*
X1222801Y140784D01*
X1228538Y144096D01*
X1234937Y145811D01*
X1241563Y145811D01*
X1247962Y144096D01*
X1253699Y140784D01*
X1258384Y136099D01*
X1261696Y130362D01*
X1263411Y123963D01*
X1263411Y117337D01*
X1261696Y110938D01*
X1258384Y105201D01*
X1253699Y100516D01*
X1247962Y97204D01*
X1241563Y95489D01*
X1234937Y95489D01*
G37*
%LPD*%
%LPC*%
G36*
X308977Y14477D02*
X308977Y14477D01*
X304963Y16140D01*
X301890Y19213D01*
X300227Y23227D01*
X300227Y27573D01*
X301890Y31587D01*
X304963Y34660D01*
X307807Y35838D01*
X307860Y35870D01*
X307918Y35893D01*
X307973Y35938D01*
X308035Y35975D01*
X308076Y36022D01*
X308124Y36061D01*
X308164Y36120D01*
X308211Y36174D01*
X308237Y36230D01*
X308271Y36282D01*
X308282Y36329D01*
X308321Y36416D01*
X308348Y36628D01*
X308355Y36659D01*
X308355Y61483D01*
X333495Y86622D01*
X333508Y86639D01*
X333524Y86653D01*
X333586Y86746D01*
X333653Y86836D01*
X333660Y86856D01*
X333671Y86874D01*
X333681Y86918D01*
X333740Y87087D01*
X333744Y87200D01*
X333755Y87251D01*
X333755Y109222D01*
X333752Y109243D01*
X333754Y109264D01*
X333732Y109374D01*
X333715Y109485D01*
X333706Y109504D01*
X333702Y109524D01*
X333678Y109563D01*
X333600Y109724D01*
X333523Y109807D01*
X333495Y109850D01*
X332051Y111294D01*
X331243Y113244D01*
X331243Y115286D01*
X331240Y115307D01*
X331242Y115328D01*
X331220Y115438D01*
X331203Y115549D01*
X331194Y115568D01*
X331190Y115589D01*
X331166Y115627D01*
X331088Y115789D01*
X331011Y115871D01*
X330983Y115915D01*
X312765Y134133D01*
X312748Y134146D01*
X312734Y134162D01*
X312641Y134224D01*
X312551Y134291D01*
X312531Y134298D01*
X312513Y134309D01*
X312469Y134319D01*
X312300Y134378D01*
X312187Y134382D01*
X312136Y134393D01*
X310094Y134393D01*
X308144Y135201D01*
X306651Y136694D01*
X305843Y138644D01*
X305843Y140756D01*
X306651Y142706D01*
X308095Y144150D01*
X308108Y144167D01*
X308124Y144180D01*
X308186Y144274D01*
X308253Y144364D01*
X308260Y144384D01*
X308271Y144401D01*
X308281Y144446D01*
X308340Y144615D01*
X308344Y144728D01*
X308355Y144778D01*
X308355Y147699D01*
X308352Y147720D01*
X308354Y147741D01*
X308332Y147851D01*
X308315Y147962D01*
X308306Y147981D01*
X308302Y148002D01*
X308278Y148040D01*
X308200Y148202D01*
X308123Y148284D01*
X308095Y148328D01*
X279780Y176642D01*
X279780Y179072D01*
X279777Y179093D01*
X279779Y179114D01*
X279757Y179224D01*
X279740Y179335D01*
X279731Y179354D01*
X279727Y179374D01*
X279703Y179413D01*
X279625Y179574D01*
X279548Y179657D01*
X279520Y179700D01*
X278076Y181144D01*
X277268Y183094D01*
X277268Y185206D01*
X278076Y187156D01*
X279569Y188649D01*
X281519Y189457D01*
X283631Y189457D01*
X285581Y188649D01*
X287074Y187156D01*
X287882Y185206D01*
X287882Y183094D01*
X287074Y181144D01*
X285757Y179827D01*
X285696Y179744D01*
X285629Y179666D01*
X285617Y179638D01*
X285599Y179613D01*
X285565Y179516D01*
X285525Y179421D01*
X285522Y179391D01*
X285512Y179362D01*
X285508Y179259D01*
X285497Y179157D01*
X285504Y179127D01*
X285502Y179096D01*
X285529Y178997D01*
X285550Y178896D01*
X285562Y178876D01*
X285572Y178840D01*
X285715Y178615D01*
X285744Y178591D01*
X285757Y178571D01*
X312047Y152280D01*
X313945Y150383D01*
X313945Y144778D01*
X313948Y144757D01*
X313946Y144736D01*
X313968Y144626D01*
X313985Y144515D01*
X313994Y144496D01*
X313998Y144476D01*
X314022Y144437D01*
X314100Y144276D01*
X314177Y144193D01*
X314205Y144150D01*
X315649Y142706D01*
X316457Y140756D01*
X316457Y138714D01*
X316460Y138693D01*
X316458Y138672D01*
X316480Y138561D01*
X316497Y138451D01*
X316506Y138432D01*
X316510Y138411D01*
X316534Y138373D01*
X316612Y138211D01*
X316689Y138129D01*
X316717Y138085D01*
X334935Y119867D01*
X334952Y119854D01*
X334966Y119838D01*
X335059Y119776D01*
X335149Y119709D01*
X335169Y119702D01*
X335187Y119691D01*
X335231Y119681D01*
X335400Y119622D01*
X335513Y119618D01*
X335564Y119607D01*
X337606Y119607D01*
X339556Y118799D01*
X341049Y117306D01*
X341857Y115356D01*
X341857Y113244D01*
X341049Y111294D01*
X339605Y109850D01*
X339592Y109833D01*
X339576Y109820D01*
X339514Y109726D01*
X339447Y109636D01*
X339440Y109616D01*
X339429Y109599D01*
X339419Y109554D01*
X339360Y109385D01*
X339356Y109272D01*
X339345Y109222D01*
X339345Y84567D01*
X314205Y59428D01*
X314192Y59411D01*
X314176Y59397D01*
X314114Y59304D01*
X314047Y59214D01*
X314040Y59194D01*
X314029Y59176D01*
X314019Y59132D01*
X313960Y58963D01*
X313956Y58850D01*
X313945Y58799D01*
X313945Y36659D01*
X313954Y36597D01*
X313953Y36535D01*
X313974Y36467D01*
X313985Y36396D01*
X314012Y36340D01*
X314029Y36281D01*
X314069Y36221D01*
X314100Y36156D01*
X314143Y36111D01*
X314177Y36060D01*
X314216Y36032D01*
X314282Y35962D01*
X314468Y35856D01*
X314493Y35838D01*
X317337Y34660D01*
X320410Y31587D01*
X322073Y27573D01*
X322073Y23227D01*
X320410Y19213D01*
X317337Y16140D01*
X313323Y14477D01*
X308977Y14477D01*
G37*
%LPD*%
%LPC*%
G36*
X170394Y89943D02*
X170394Y89943D01*
X168444Y90751D01*
X166951Y92244D01*
X166143Y94194D01*
X166143Y96306D01*
X166951Y98256D01*
X168444Y99749D01*
X170394Y100557D01*
X172436Y100557D01*
X172457Y100560D01*
X172478Y100558D01*
X172588Y100580D01*
X172699Y100597D01*
X172718Y100606D01*
X172739Y100610D01*
X172777Y100634D01*
X172939Y100712D01*
X173021Y100789D01*
X173065Y100817D01*
X187445Y115197D01*
X187458Y115214D01*
X187474Y115228D01*
X187536Y115321D01*
X187603Y115411D01*
X187610Y115431D01*
X187621Y115449D01*
X187631Y115493D01*
X187690Y115662D01*
X187693Y115758D01*
X187703Y115801D01*
X187702Y115812D01*
X187705Y115826D01*
X187705Y198122D01*
X187702Y198143D01*
X187704Y198164D01*
X187682Y198274D01*
X187665Y198385D01*
X187656Y198404D01*
X187652Y198424D01*
X187628Y198463D01*
X187550Y198624D01*
X187473Y198707D01*
X187445Y198750D01*
X186001Y200194D01*
X185193Y202144D01*
X185193Y204256D01*
X186001Y206206D01*
X187494Y207699D01*
X189444Y208507D01*
X191556Y208507D01*
X193506Y207699D01*
X194999Y206206D01*
X195807Y204256D01*
X195807Y202144D01*
X194999Y200194D01*
X193555Y198750D01*
X193542Y198733D01*
X193526Y198720D01*
X193464Y198626D01*
X193397Y198536D01*
X193390Y198516D01*
X193379Y198499D01*
X193369Y198454D01*
X193310Y198285D01*
X193306Y198172D01*
X193295Y198122D01*
X193295Y113142D01*
X177017Y96865D01*
X177004Y96848D01*
X176988Y96834D01*
X176926Y96741D01*
X176859Y96651D01*
X176852Y96631D01*
X176841Y96613D01*
X176831Y96569D01*
X176772Y96400D01*
X176768Y96287D01*
X176757Y96236D01*
X176757Y94194D01*
X175949Y92244D01*
X174456Y90751D01*
X172506Y89943D01*
X170394Y89943D01*
G37*
%LPD*%
%LPC*%
G36*
X119594Y39143D02*
X119594Y39143D01*
X117644Y39951D01*
X116151Y41444D01*
X115343Y43394D01*
X115343Y45506D01*
X116151Y47456D01*
X117644Y48949D01*
X117688Y48967D01*
X117741Y48999D01*
X117799Y49022D01*
X117854Y49067D01*
X117916Y49104D01*
X117957Y49151D01*
X118005Y49190D01*
X118045Y49249D01*
X118092Y49303D01*
X118118Y49359D01*
X118152Y49411D01*
X118163Y49458D01*
X118202Y49545D01*
X118229Y49757D01*
X118236Y49788D01*
X118236Y134362D01*
X118227Y134424D01*
X118228Y134486D01*
X118207Y134554D01*
X118196Y134625D01*
X118170Y134681D01*
X118152Y134740D01*
X118112Y134800D01*
X118081Y134864D01*
X118038Y134910D01*
X118004Y134961D01*
X117965Y134989D01*
X117899Y135059D01*
X117714Y135165D01*
X117688Y135183D01*
X117644Y135201D01*
X116151Y136694D01*
X115343Y138644D01*
X115343Y140756D01*
X116151Y142706D01*
X117644Y144199D01*
X119594Y145007D01*
X121706Y145007D01*
X123656Y144199D01*
X125149Y142706D01*
X125957Y140756D01*
X125957Y138644D01*
X125149Y136694D01*
X123656Y135201D01*
X123612Y135183D01*
X123559Y135151D01*
X123501Y135128D01*
X123446Y135083D01*
X123384Y135046D01*
X123343Y134999D01*
X123295Y134960D01*
X123255Y134901D01*
X123208Y134847D01*
X123182Y134791D01*
X123148Y134739D01*
X123137Y134692D01*
X123098Y134605D01*
X123071Y134393D01*
X123064Y134362D01*
X123064Y49788D01*
X123073Y49726D01*
X123072Y49664D01*
X123093Y49596D01*
X123104Y49525D01*
X123130Y49469D01*
X123148Y49410D01*
X123188Y49350D01*
X123219Y49286D01*
X123262Y49240D01*
X123296Y49189D01*
X123335Y49161D01*
X123401Y49091D01*
X123586Y48985D01*
X123612Y48967D01*
X123656Y48949D01*
X125149Y47456D01*
X125957Y45506D01*
X125957Y43394D01*
X125149Y41444D01*
X123656Y39951D01*
X121706Y39143D01*
X119594Y39143D01*
G37*
%LPD*%
%LPC*%
G36*
X72604Y70893D02*
X72604Y70893D01*
X70654Y71701D01*
X69161Y73194D01*
X68353Y75144D01*
X68353Y77256D01*
X69161Y79206D01*
X70654Y80699D01*
X70698Y80717D01*
X70751Y80749D01*
X70809Y80772D01*
X70864Y80817D01*
X70926Y80854D01*
X70967Y80901D01*
X71015Y80940D01*
X71055Y80999D01*
X71102Y81053D01*
X71128Y81109D01*
X71162Y81161D01*
X71173Y81208D01*
X71212Y81295D01*
X71239Y81507D01*
X71246Y81538D01*
X71246Y144510D01*
X72920Y146184D01*
X77069Y150332D01*
X77106Y150382D01*
X77150Y150426D01*
X77184Y150489D01*
X77227Y150546D01*
X77247Y150605D01*
X77277Y150660D01*
X77290Y150730D01*
X77314Y150797D01*
X77316Y150859D01*
X77328Y150920D01*
X77320Y150968D01*
X77323Y151063D01*
X77267Y151270D01*
X77261Y151301D01*
X77243Y151344D01*
X77243Y153456D01*
X78051Y155406D01*
X79544Y156899D01*
X81494Y157707D01*
X83606Y157707D01*
X85556Y156899D01*
X87049Y155406D01*
X87857Y153456D01*
X87857Y151344D01*
X87049Y149394D01*
X85556Y147901D01*
X83606Y147093D01*
X81494Y147093D01*
X81451Y147111D01*
X81390Y147126D01*
X81333Y147151D01*
X81262Y147158D01*
X81193Y147175D01*
X81131Y147172D01*
X81069Y147178D01*
X80999Y147164D01*
X80927Y147160D01*
X80869Y147138D01*
X80808Y147126D01*
X80768Y147100D01*
X80678Y147067D01*
X80509Y146936D01*
X80482Y146919D01*
X76334Y142770D01*
X76321Y142753D01*
X76305Y142740D01*
X76243Y142647D01*
X76176Y142556D01*
X76169Y142537D01*
X76158Y142519D01*
X76148Y142475D01*
X76089Y142305D01*
X76085Y142193D01*
X76074Y142142D01*
X76074Y81538D01*
X76083Y81476D01*
X76082Y81414D01*
X76103Y81346D01*
X76114Y81275D01*
X76140Y81219D01*
X76158Y81160D01*
X76198Y81100D01*
X76229Y81036D01*
X76272Y80990D01*
X76306Y80939D01*
X76345Y80911D01*
X76411Y80841D01*
X76596Y80735D01*
X76622Y80717D01*
X76666Y80699D01*
X78159Y79206D01*
X78967Y77256D01*
X78967Y75144D01*
X78159Y73194D01*
X76666Y71701D01*
X74716Y70893D01*
X72604Y70893D01*
G37*
%LPD*%
%LPC*%
G36*
X300569Y124868D02*
X300569Y124868D01*
X298619Y125676D01*
X297126Y127169D01*
X296318Y129119D01*
X296318Y130048D01*
X296303Y130150D01*
X296295Y130252D01*
X296283Y130280D01*
X296278Y130311D01*
X296234Y130403D01*
X296196Y130499D01*
X296176Y130522D01*
X296163Y130550D01*
X296093Y130625D01*
X296028Y130705D01*
X296002Y130722D01*
X295981Y130744D01*
X295892Y130795D01*
X295807Y130852D01*
X295783Y130858D01*
X295751Y130876D01*
X295491Y130934D01*
X295453Y130931D01*
X295430Y130936D01*
X259338Y130936D01*
X259276Y130927D01*
X259214Y130928D01*
X259146Y130907D01*
X259075Y130896D01*
X259019Y130870D01*
X258960Y130852D01*
X258900Y130812D01*
X258836Y130781D01*
X258790Y130738D01*
X258739Y130704D01*
X258711Y130665D01*
X258641Y130599D01*
X258535Y130414D01*
X258517Y130388D01*
X258499Y130344D01*
X257006Y128851D01*
X255056Y128043D01*
X252944Y128043D01*
X250994Y128851D01*
X249501Y130344D01*
X248693Y132294D01*
X248693Y133362D01*
X248675Y133481D01*
X248660Y133601D01*
X248655Y133612D01*
X248653Y133624D01*
X248601Y133733D01*
X248551Y133843D01*
X248543Y133852D01*
X248538Y133864D01*
X248455Y133952D01*
X248375Y134043D01*
X248365Y134049D01*
X248356Y134058D01*
X248252Y134118D01*
X248148Y134181D01*
X248136Y134184D01*
X248126Y134190D01*
X248008Y134216D01*
X247890Y134246D01*
X247878Y134245D01*
X247866Y134248D01*
X247745Y134238D01*
X247625Y134231D01*
X247613Y134227D01*
X247601Y134226D01*
X247489Y134181D01*
X247376Y134139D01*
X247368Y134133D01*
X247354Y134127D01*
X247148Y133959D01*
X247114Y133908D01*
X247086Y133884D01*
X246263Y132750D01*
X245075Y131562D01*
X243717Y130575D01*
X242220Y129813D01*
X240623Y129294D01*
X239902Y129180D01*
X239902Y137923D01*
X248645Y137923D01*
X248617Y137744D01*
X248616Y137623D01*
X248612Y137503D01*
X248615Y137491D01*
X248615Y137478D01*
X248650Y137363D01*
X248682Y137246D01*
X248688Y137236D01*
X248692Y137224D01*
X248760Y137124D01*
X248824Y137022D01*
X248834Y137014D01*
X248841Y137004D01*
X248935Y136928D01*
X249027Y136850D01*
X249038Y136845D01*
X249048Y136837D01*
X249160Y136793D01*
X249272Y136745D01*
X249284Y136744D01*
X249295Y136740D01*
X249416Y136730D01*
X249536Y136718D01*
X249548Y136720D01*
X249560Y136719D01*
X249677Y136746D01*
X249797Y136770D01*
X249805Y136775D01*
X249819Y136779D01*
X250049Y136912D01*
X250092Y136958D01*
X250122Y136977D01*
X250994Y137849D01*
X252944Y138657D01*
X255056Y138657D01*
X257006Y137849D01*
X258499Y136356D01*
X258517Y136312D01*
X258549Y136259D01*
X258572Y136201D01*
X258617Y136146D01*
X258654Y136084D01*
X258701Y136043D01*
X258740Y135995D01*
X258799Y135955D01*
X258853Y135908D01*
X258909Y135882D01*
X258961Y135848D01*
X259008Y135837D01*
X259095Y135798D01*
X259307Y135771D01*
X259338Y135764D01*
X299450Y135764D01*
X299557Y135656D01*
X299571Y135646D01*
X299580Y135635D01*
X299614Y135612D01*
X299651Y135575D01*
X299714Y135541D01*
X299771Y135498D01*
X299800Y135489D01*
X299801Y135488D01*
X299803Y135487D01*
X299830Y135478D01*
X299885Y135448D01*
X299955Y135435D01*
X300022Y135411D01*
X300084Y135409D01*
X300145Y135397D01*
X300186Y135404D01*
X300205Y135404D01*
X300209Y135405D01*
X300288Y135402D01*
X300410Y135435D01*
X300468Y135444D01*
X300499Y135459D01*
X300526Y135464D01*
X300569Y135482D01*
X302681Y135482D01*
X304631Y134674D01*
X306124Y133181D01*
X306932Y131231D01*
X306932Y129119D01*
X306124Y127169D01*
X304631Y125676D01*
X302681Y124868D01*
X300569Y124868D01*
G37*
%LPD*%
%LPC*%
G36*
X167854Y59463D02*
X167854Y59463D01*
X165904Y60271D01*
X164411Y61764D01*
X163603Y63714D01*
X163603Y65826D01*
X164411Y67776D01*
X165904Y69269D01*
X167854Y70077D01*
X169966Y70077D01*
X171916Y69269D01*
X173409Y67776D01*
X173427Y67732D01*
X173459Y67679D01*
X173482Y67621D01*
X173527Y67566D01*
X173564Y67504D01*
X173611Y67463D01*
X173650Y67415D01*
X173709Y67375D01*
X173763Y67328D01*
X173819Y67302D01*
X173871Y67268D01*
X173918Y67257D01*
X174005Y67218D01*
X174217Y67191D01*
X174248Y67184D01*
X222473Y67184D01*
X222535Y67193D01*
X222597Y67192D01*
X222665Y67213D01*
X222736Y67224D01*
X222792Y67250D01*
X222851Y67268D01*
X222911Y67308D01*
X222975Y67339D01*
X223021Y67382D01*
X223072Y67416D01*
X223100Y67455D01*
X223170Y67521D01*
X223276Y67707D01*
X223294Y67732D01*
X224101Y69681D01*
X225594Y71174D01*
X227544Y71982D01*
X229656Y71982D01*
X231606Y71174D01*
X233099Y69681D01*
X233907Y67731D01*
X233907Y65619D01*
X233099Y63669D01*
X231606Y62176D01*
X229656Y61368D01*
X227544Y61368D01*
X225529Y62203D01*
X225460Y62254D01*
X225440Y62261D01*
X225423Y62272D01*
X225378Y62282D01*
X225209Y62341D01*
X225096Y62345D01*
X225046Y62356D01*
X174248Y62356D01*
X174186Y62347D01*
X174124Y62348D01*
X174056Y62327D01*
X173985Y62316D01*
X173929Y62290D01*
X173870Y62272D01*
X173810Y62232D01*
X173746Y62201D01*
X173700Y62158D01*
X173649Y62124D01*
X173621Y62085D01*
X173551Y62019D01*
X173445Y61834D01*
X173427Y61808D01*
X173409Y61764D01*
X171916Y60271D01*
X169966Y59463D01*
X167854Y59463D01*
G37*
%LPD*%
%LPC*%
G36*
X29577Y90677D02*
X29577Y90677D01*
X25563Y92340D01*
X22490Y95413D01*
X20827Y99427D01*
X20827Y103773D01*
X22490Y107787D01*
X25563Y110860D01*
X29577Y112523D01*
X33923Y112523D01*
X37937Y110860D01*
X41010Y107787D01*
X42673Y103773D01*
X42673Y99427D01*
X41010Y95413D01*
X37937Y92340D01*
X33923Y90677D01*
X29577Y90677D01*
G37*
%LPD*%
%LPC*%
G36*
X331202Y204977D02*
X331202Y204977D01*
X327188Y206640D01*
X324115Y209713D01*
X322452Y213727D01*
X322452Y218073D01*
X324115Y222087D01*
X327188Y225160D01*
X331202Y226823D01*
X335548Y226823D01*
X339562Y225160D01*
X342635Y222087D01*
X344298Y218073D01*
X344298Y213727D01*
X342635Y209713D01*
X339562Y206640D01*
X335548Y204977D01*
X331202Y204977D01*
G37*
%LPD*%
%LPC*%
G36*
X305802Y204977D02*
X305802Y204977D01*
X301788Y206640D01*
X298715Y209713D01*
X297052Y213727D01*
X297052Y218073D01*
X298715Y222087D01*
X301788Y225160D01*
X305802Y226823D01*
X310148Y226823D01*
X314162Y225160D01*
X317235Y222087D01*
X318898Y218073D01*
X318898Y213727D01*
X317235Y209713D01*
X314162Y206640D01*
X310148Y204977D01*
X305802Y204977D01*
G37*
%LPD*%
%LPC*%
G36*
X280402Y204977D02*
X280402Y204977D01*
X276388Y206640D01*
X273315Y209713D01*
X271652Y213727D01*
X271652Y218073D01*
X273315Y222087D01*
X276388Y225160D01*
X280402Y226823D01*
X284748Y226823D01*
X288762Y225160D01*
X291835Y222087D01*
X293498Y218073D01*
X293498Y213727D01*
X291835Y209713D01*
X288762Y206640D01*
X284748Y204977D01*
X280402Y204977D01*
G37*
%LPD*%
%LPC*%
G36*
X61327Y192277D02*
X61327Y192277D01*
X57313Y193940D01*
X54240Y197013D01*
X52577Y201027D01*
X52577Y205373D01*
X54240Y209387D01*
X57313Y212460D01*
X61327Y214123D01*
X65673Y214123D01*
X69687Y212460D01*
X72760Y209387D01*
X74423Y205373D01*
X74423Y201027D01*
X72760Y197013D01*
X69687Y193940D01*
X65673Y192277D01*
X61327Y192277D01*
G37*
%LPD*%
%LPC*%
G36*
X366127Y14477D02*
X366127Y14477D01*
X362113Y16140D01*
X359040Y19213D01*
X357377Y23227D01*
X357377Y27573D01*
X359040Y31587D01*
X362113Y34660D01*
X366127Y36323D01*
X370473Y36323D01*
X374487Y34660D01*
X377560Y31587D01*
X379223Y27573D01*
X379223Y23227D01*
X377560Y19213D01*
X374487Y16140D01*
X370473Y14477D01*
X366127Y14477D01*
G37*
%LPD*%
%LPC*%
G36*
X391527Y14477D02*
X391527Y14477D01*
X387513Y16140D01*
X384440Y19213D01*
X382777Y23227D01*
X382777Y27573D01*
X384440Y31587D01*
X387513Y34660D01*
X391527Y36323D01*
X395873Y36323D01*
X399887Y34660D01*
X402960Y31587D01*
X404623Y27573D01*
X404623Y23227D01*
X402960Y19213D01*
X399887Y16140D01*
X395873Y14477D01*
X391527Y14477D01*
G37*
%LPD*%
%LPC*%
G36*
X283577Y14477D02*
X283577Y14477D01*
X279563Y16140D01*
X276490Y19213D01*
X274827Y23227D01*
X274827Y27573D01*
X276490Y31587D01*
X279563Y34660D01*
X283577Y36323D01*
X287923Y36323D01*
X291937Y34660D01*
X295010Y31587D01*
X296673Y27573D01*
X296673Y23227D01*
X295010Y19213D01*
X291937Y16140D01*
X287923Y14477D01*
X283577Y14477D01*
G37*
%LPD*%
%LPC*%
G36*
X369302Y65277D02*
X369302Y65277D01*
X365288Y66940D01*
X362215Y70013D01*
X360552Y74027D01*
X360552Y78373D01*
X362215Y82387D01*
X365288Y85460D01*
X369302Y87123D01*
X373648Y87123D01*
X377662Y85460D01*
X380735Y82387D01*
X382398Y78373D01*
X382398Y74027D01*
X380735Y70013D01*
X377662Y66940D01*
X373648Y65277D01*
X369302Y65277D01*
G37*
%LPD*%
%LPC*%
G36*
X394702Y65277D02*
X394702Y65277D01*
X390688Y66940D01*
X387615Y70013D01*
X385952Y74027D01*
X385952Y78373D01*
X387615Y82387D01*
X390688Y85460D01*
X394702Y87123D01*
X399048Y87123D01*
X403062Y85460D01*
X406135Y82387D01*
X407798Y78373D01*
X407798Y74027D01*
X406135Y70013D01*
X403062Y66940D01*
X399048Y65277D01*
X394702Y65277D01*
G37*
%LPD*%
%LPC*%
G36*
X2157944Y172493D02*
X2157944Y172493D01*
X2155994Y173301D01*
X2154501Y174794D01*
X2153693Y176744D01*
X2153693Y178856D01*
X2154501Y180806D01*
X2155994Y182299D01*
X2156038Y182317D01*
X2156091Y182349D01*
X2156149Y182372D01*
X2156204Y182417D01*
X2156266Y182454D01*
X2156307Y182501D01*
X2156355Y182540D01*
X2156395Y182599D01*
X2156442Y182653D01*
X2156468Y182709D01*
X2156502Y182761D01*
X2156513Y182808D01*
X2156552Y182895D01*
X2156579Y183107D01*
X2156586Y183138D01*
X2156586Y216912D01*
X2156577Y216974D01*
X2156578Y217036D01*
X2156557Y217104D01*
X2156546Y217175D01*
X2156520Y217231D01*
X2156502Y217290D01*
X2156462Y217350D01*
X2156431Y217414D01*
X2156388Y217460D01*
X2156354Y217511D01*
X2156315Y217539D01*
X2156249Y217609D01*
X2156064Y217715D01*
X2156038Y217733D01*
X2155994Y217751D01*
X2154501Y219244D01*
X2153693Y221194D01*
X2153693Y223306D01*
X2154501Y225256D01*
X2155994Y226749D01*
X2157944Y227557D01*
X2160056Y227557D01*
X2162006Y226749D01*
X2163499Y225256D01*
X2164307Y223306D01*
X2164307Y221194D01*
X2163499Y219244D01*
X2162006Y217751D01*
X2161962Y217733D01*
X2161909Y217701D01*
X2161851Y217678D01*
X2161796Y217633D01*
X2161734Y217596D01*
X2161693Y217549D01*
X2161645Y217510D01*
X2161605Y217451D01*
X2161558Y217397D01*
X2161532Y217341D01*
X2161498Y217289D01*
X2161487Y217242D01*
X2161448Y217155D01*
X2161421Y216943D01*
X2161414Y216912D01*
X2161414Y183138D01*
X2161423Y183076D01*
X2161422Y183014D01*
X2161443Y182946D01*
X2161454Y182875D01*
X2161480Y182819D01*
X2161498Y182760D01*
X2161538Y182700D01*
X2161569Y182636D01*
X2161612Y182590D01*
X2161646Y182539D01*
X2161685Y182511D01*
X2161751Y182441D01*
X2161936Y182335D01*
X2161962Y182317D01*
X2162006Y182299D01*
X2163499Y180806D01*
X2164307Y178856D01*
X2164307Y176744D01*
X2163499Y174794D01*
X2162006Y173301D01*
X2160056Y172493D01*
X2157944Y172493D01*
G37*
%LPD*%
%LPC*%
G36*
X532344Y172493D02*
X532344Y172493D01*
X530394Y173301D01*
X528901Y174794D01*
X528093Y176744D01*
X528093Y178856D01*
X528901Y180806D01*
X530394Y182299D01*
X530438Y182317D01*
X530491Y182349D01*
X530549Y182372D01*
X530604Y182417D01*
X530666Y182454D01*
X530707Y182501D01*
X530755Y182540D01*
X530795Y182599D01*
X530842Y182653D01*
X530868Y182709D01*
X530902Y182761D01*
X530913Y182808D01*
X530952Y182895D01*
X530979Y183107D01*
X530986Y183138D01*
X530986Y216912D01*
X530977Y216974D01*
X530978Y217036D01*
X530957Y217104D01*
X530946Y217175D01*
X530920Y217231D01*
X530902Y217290D01*
X530862Y217350D01*
X530831Y217414D01*
X530788Y217460D01*
X530754Y217511D01*
X530715Y217539D01*
X530649Y217609D01*
X530464Y217715D01*
X530438Y217733D01*
X530394Y217751D01*
X528901Y219244D01*
X528093Y221194D01*
X528093Y223306D01*
X528901Y225256D01*
X530394Y226749D01*
X532344Y227557D01*
X534456Y227557D01*
X536406Y226749D01*
X537899Y225256D01*
X538707Y223306D01*
X538707Y221194D01*
X537899Y219244D01*
X536406Y217751D01*
X536362Y217733D01*
X536309Y217701D01*
X536251Y217678D01*
X536196Y217633D01*
X536134Y217596D01*
X536093Y217549D01*
X536045Y217510D01*
X536005Y217451D01*
X535958Y217397D01*
X535932Y217341D01*
X535898Y217289D01*
X535887Y217242D01*
X535848Y217155D01*
X535821Y216943D01*
X535814Y216912D01*
X535814Y183138D01*
X535823Y183076D01*
X535822Y183014D01*
X535843Y182946D01*
X535854Y182875D01*
X535880Y182819D01*
X535898Y182760D01*
X535938Y182700D01*
X535969Y182636D01*
X536012Y182590D01*
X536046Y182539D01*
X536085Y182511D01*
X536151Y182441D01*
X536336Y182335D01*
X536362Y182317D01*
X536406Y182299D01*
X537899Y180806D01*
X538707Y178856D01*
X538707Y176744D01*
X537899Y174794D01*
X536406Y173301D01*
X534456Y172493D01*
X532344Y172493D01*
G37*
%LPD*%
%LPC*%
G36*
X1954744Y172493D02*
X1954744Y172493D01*
X1952794Y173301D01*
X1951301Y174794D01*
X1950493Y176744D01*
X1950493Y178856D01*
X1951301Y180806D01*
X1952794Y182299D01*
X1952838Y182317D01*
X1952891Y182349D01*
X1952949Y182372D01*
X1953004Y182417D01*
X1953066Y182454D01*
X1953107Y182501D01*
X1953155Y182540D01*
X1953195Y182599D01*
X1953242Y182653D01*
X1953268Y182709D01*
X1953302Y182761D01*
X1953313Y182808D01*
X1953352Y182895D01*
X1953379Y183107D01*
X1953386Y183138D01*
X1953386Y216912D01*
X1953377Y216974D01*
X1953378Y217036D01*
X1953357Y217104D01*
X1953346Y217175D01*
X1953320Y217231D01*
X1953302Y217290D01*
X1953262Y217350D01*
X1953231Y217414D01*
X1953188Y217460D01*
X1953154Y217511D01*
X1953115Y217539D01*
X1953049Y217609D01*
X1952864Y217715D01*
X1952838Y217733D01*
X1952794Y217751D01*
X1951301Y219244D01*
X1950493Y221194D01*
X1950493Y223306D01*
X1951301Y225256D01*
X1952794Y226749D01*
X1954744Y227557D01*
X1956856Y227557D01*
X1958806Y226749D01*
X1960299Y225256D01*
X1961107Y223306D01*
X1961107Y221194D01*
X1960299Y219244D01*
X1958806Y217751D01*
X1958762Y217733D01*
X1958709Y217701D01*
X1958651Y217678D01*
X1958596Y217633D01*
X1958534Y217596D01*
X1958493Y217549D01*
X1958445Y217510D01*
X1958405Y217451D01*
X1958358Y217397D01*
X1958332Y217341D01*
X1958298Y217289D01*
X1958287Y217242D01*
X1958248Y217155D01*
X1958221Y216943D01*
X1958214Y216912D01*
X1958214Y183138D01*
X1958223Y183076D01*
X1958222Y183014D01*
X1958243Y182946D01*
X1958254Y182875D01*
X1958280Y182819D01*
X1958298Y182760D01*
X1958338Y182700D01*
X1958369Y182636D01*
X1958412Y182590D01*
X1958446Y182539D01*
X1958485Y182511D01*
X1958551Y182441D01*
X1958736Y182335D01*
X1958762Y182317D01*
X1958806Y182299D01*
X1960299Y180806D01*
X1961107Y178856D01*
X1961107Y176744D01*
X1960299Y174794D01*
X1958806Y173301D01*
X1956856Y172493D01*
X1954744Y172493D01*
G37*
%LPD*%
%LPC*%
G36*
X1751544Y172493D02*
X1751544Y172493D01*
X1749594Y173301D01*
X1748101Y174794D01*
X1747293Y176744D01*
X1747293Y178856D01*
X1748101Y180806D01*
X1749594Y182299D01*
X1749638Y182317D01*
X1749691Y182349D01*
X1749749Y182372D01*
X1749804Y182417D01*
X1749866Y182454D01*
X1749907Y182501D01*
X1749955Y182540D01*
X1749995Y182599D01*
X1750042Y182653D01*
X1750068Y182709D01*
X1750102Y182761D01*
X1750113Y182808D01*
X1750152Y182895D01*
X1750179Y183107D01*
X1750186Y183138D01*
X1750186Y216912D01*
X1750177Y216974D01*
X1750178Y217036D01*
X1750157Y217104D01*
X1750146Y217175D01*
X1750120Y217231D01*
X1750102Y217290D01*
X1750062Y217350D01*
X1750031Y217414D01*
X1749988Y217460D01*
X1749954Y217511D01*
X1749915Y217539D01*
X1749849Y217609D01*
X1749664Y217715D01*
X1749638Y217733D01*
X1749594Y217751D01*
X1748101Y219244D01*
X1747293Y221194D01*
X1747293Y223306D01*
X1748101Y225256D01*
X1749594Y226749D01*
X1751544Y227557D01*
X1753656Y227557D01*
X1755606Y226749D01*
X1757099Y225256D01*
X1757907Y223306D01*
X1757907Y221194D01*
X1757099Y219244D01*
X1755606Y217751D01*
X1755562Y217733D01*
X1755509Y217701D01*
X1755451Y217678D01*
X1755396Y217633D01*
X1755334Y217596D01*
X1755293Y217549D01*
X1755245Y217510D01*
X1755205Y217451D01*
X1755158Y217397D01*
X1755132Y217341D01*
X1755098Y217289D01*
X1755087Y217242D01*
X1755048Y217155D01*
X1755021Y216943D01*
X1755014Y216912D01*
X1755014Y183138D01*
X1755023Y183076D01*
X1755022Y183014D01*
X1755043Y182946D01*
X1755054Y182875D01*
X1755080Y182819D01*
X1755098Y182760D01*
X1755138Y182700D01*
X1755169Y182636D01*
X1755212Y182590D01*
X1755246Y182539D01*
X1755285Y182511D01*
X1755351Y182441D01*
X1755536Y182335D01*
X1755562Y182317D01*
X1755606Y182299D01*
X1757099Y180806D01*
X1757907Y178856D01*
X1757907Y176744D01*
X1757099Y174794D01*
X1755606Y173301D01*
X1753656Y172493D01*
X1751544Y172493D01*
G37*
%LPD*%
%LPC*%
G36*
X1548344Y172493D02*
X1548344Y172493D01*
X1546394Y173301D01*
X1544901Y174794D01*
X1544093Y176744D01*
X1544093Y178856D01*
X1544901Y180806D01*
X1546394Y182299D01*
X1546438Y182317D01*
X1546491Y182349D01*
X1546549Y182372D01*
X1546604Y182417D01*
X1546666Y182454D01*
X1546707Y182501D01*
X1546755Y182540D01*
X1546795Y182599D01*
X1546842Y182653D01*
X1546868Y182709D01*
X1546902Y182761D01*
X1546913Y182808D01*
X1546952Y182895D01*
X1546979Y183107D01*
X1546986Y183138D01*
X1546986Y216912D01*
X1546977Y216974D01*
X1546978Y217036D01*
X1546957Y217104D01*
X1546946Y217175D01*
X1546920Y217231D01*
X1546902Y217290D01*
X1546862Y217350D01*
X1546831Y217414D01*
X1546788Y217460D01*
X1546754Y217511D01*
X1546715Y217539D01*
X1546649Y217609D01*
X1546464Y217715D01*
X1546438Y217733D01*
X1546394Y217751D01*
X1544901Y219244D01*
X1544093Y221194D01*
X1544093Y223306D01*
X1544901Y225256D01*
X1546394Y226749D01*
X1548344Y227557D01*
X1550456Y227557D01*
X1552406Y226749D01*
X1553899Y225256D01*
X1554707Y223306D01*
X1554707Y221194D01*
X1553899Y219244D01*
X1552406Y217751D01*
X1552362Y217733D01*
X1552309Y217701D01*
X1552251Y217678D01*
X1552196Y217633D01*
X1552134Y217596D01*
X1552093Y217549D01*
X1552045Y217510D01*
X1552005Y217451D01*
X1551958Y217397D01*
X1551932Y217341D01*
X1551898Y217289D01*
X1551887Y217242D01*
X1551848Y217155D01*
X1551821Y216943D01*
X1551814Y216912D01*
X1551814Y183138D01*
X1551823Y183076D01*
X1551822Y183014D01*
X1551843Y182946D01*
X1551854Y182875D01*
X1551880Y182819D01*
X1551898Y182760D01*
X1551938Y182700D01*
X1551969Y182636D01*
X1552012Y182590D01*
X1552046Y182539D01*
X1552085Y182511D01*
X1552151Y182441D01*
X1552336Y182335D01*
X1552362Y182317D01*
X1552406Y182299D01*
X1553899Y180806D01*
X1554707Y178856D01*
X1554707Y176744D01*
X1553899Y174794D01*
X1552406Y173301D01*
X1550456Y172493D01*
X1548344Y172493D01*
G37*
%LPD*%
%LPC*%
G36*
X1345144Y172493D02*
X1345144Y172493D01*
X1343194Y173301D01*
X1341701Y174794D01*
X1340893Y176744D01*
X1340893Y178856D01*
X1341701Y180806D01*
X1343194Y182299D01*
X1343238Y182317D01*
X1343291Y182349D01*
X1343349Y182372D01*
X1343404Y182417D01*
X1343466Y182454D01*
X1343507Y182501D01*
X1343555Y182540D01*
X1343595Y182599D01*
X1343642Y182653D01*
X1343668Y182709D01*
X1343702Y182761D01*
X1343713Y182808D01*
X1343752Y182895D01*
X1343779Y183107D01*
X1343786Y183138D01*
X1343786Y216912D01*
X1343777Y216974D01*
X1343778Y217036D01*
X1343757Y217104D01*
X1343746Y217175D01*
X1343720Y217231D01*
X1343702Y217290D01*
X1343662Y217350D01*
X1343631Y217414D01*
X1343588Y217460D01*
X1343554Y217511D01*
X1343515Y217539D01*
X1343449Y217609D01*
X1343264Y217715D01*
X1343238Y217733D01*
X1343194Y217751D01*
X1341701Y219244D01*
X1340893Y221194D01*
X1340893Y223306D01*
X1341701Y225256D01*
X1343194Y226749D01*
X1345144Y227557D01*
X1347256Y227557D01*
X1349206Y226749D01*
X1350699Y225256D01*
X1351507Y223306D01*
X1351507Y221194D01*
X1350699Y219244D01*
X1349206Y217751D01*
X1349162Y217733D01*
X1349109Y217701D01*
X1349051Y217678D01*
X1348996Y217633D01*
X1348934Y217596D01*
X1348893Y217549D01*
X1348845Y217510D01*
X1348805Y217451D01*
X1348758Y217397D01*
X1348732Y217341D01*
X1348698Y217289D01*
X1348687Y217242D01*
X1348648Y217155D01*
X1348621Y216943D01*
X1348614Y216912D01*
X1348614Y183138D01*
X1348623Y183076D01*
X1348622Y183014D01*
X1348643Y182946D01*
X1348654Y182875D01*
X1348680Y182819D01*
X1348698Y182760D01*
X1348738Y182700D01*
X1348769Y182636D01*
X1348812Y182590D01*
X1348846Y182539D01*
X1348885Y182511D01*
X1348951Y182441D01*
X1349136Y182335D01*
X1349162Y182317D01*
X1349206Y182299D01*
X1350699Y180806D01*
X1351507Y178856D01*
X1351507Y176744D01*
X1350699Y174794D01*
X1349206Y173301D01*
X1347256Y172493D01*
X1345144Y172493D01*
G37*
%LPD*%
%LPC*%
G36*
X1141944Y172493D02*
X1141944Y172493D01*
X1139994Y173301D01*
X1138501Y174794D01*
X1137693Y176744D01*
X1137693Y178856D01*
X1138501Y180806D01*
X1139994Y182299D01*
X1140038Y182317D01*
X1140091Y182349D01*
X1140149Y182372D01*
X1140204Y182417D01*
X1140266Y182454D01*
X1140307Y182501D01*
X1140355Y182540D01*
X1140395Y182599D01*
X1140442Y182653D01*
X1140468Y182709D01*
X1140502Y182761D01*
X1140513Y182808D01*
X1140552Y182895D01*
X1140579Y183107D01*
X1140586Y183138D01*
X1140586Y216912D01*
X1140577Y216974D01*
X1140578Y217036D01*
X1140557Y217104D01*
X1140546Y217175D01*
X1140520Y217231D01*
X1140502Y217290D01*
X1140462Y217350D01*
X1140431Y217414D01*
X1140388Y217460D01*
X1140354Y217511D01*
X1140315Y217539D01*
X1140249Y217609D01*
X1140064Y217715D01*
X1140038Y217733D01*
X1139994Y217751D01*
X1138501Y219244D01*
X1137693Y221194D01*
X1137693Y223306D01*
X1138501Y225256D01*
X1139994Y226749D01*
X1141944Y227557D01*
X1144056Y227557D01*
X1146006Y226749D01*
X1147499Y225256D01*
X1148307Y223306D01*
X1148307Y221194D01*
X1147499Y219244D01*
X1146006Y217751D01*
X1145962Y217733D01*
X1145909Y217701D01*
X1145851Y217678D01*
X1145796Y217633D01*
X1145734Y217596D01*
X1145693Y217549D01*
X1145645Y217510D01*
X1145605Y217451D01*
X1145558Y217397D01*
X1145532Y217341D01*
X1145498Y217289D01*
X1145487Y217242D01*
X1145448Y217155D01*
X1145421Y216943D01*
X1145414Y216912D01*
X1145414Y183138D01*
X1145423Y183076D01*
X1145422Y183014D01*
X1145443Y182946D01*
X1145454Y182875D01*
X1145480Y182819D01*
X1145498Y182760D01*
X1145538Y182700D01*
X1145569Y182636D01*
X1145612Y182590D01*
X1145646Y182539D01*
X1145685Y182511D01*
X1145751Y182441D01*
X1145936Y182335D01*
X1145962Y182317D01*
X1146006Y182299D01*
X1147499Y180806D01*
X1148307Y178856D01*
X1148307Y176744D01*
X1147499Y174794D01*
X1146006Y173301D01*
X1144056Y172493D01*
X1141944Y172493D01*
G37*
%LPD*%
%LPC*%
G36*
X938744Y172493D02*
X938744Y172493D01*
X936794Y173301D01*
X935301Y174794D01*
X934493Y176744D01*
X934493Y178856D01*
X935301Y180806D01*
X936794Y182299D01*
X936838Y182317D01*
X936891Y182349D01*
X936949Y182372D01*
X937004Y182417D01*
X937066Y182454D01*
X937107Y182501D01*
X937155Y182540D01*
X937195Y182599D01*
X937242Y182653D01*
X937268Y182709D01*
X937302Y182761D01*
X937313Y182808D01*
X937352Y182895D01*
X937379Y183107D01*
X937386Y183138D01*
X937386Y216912D01*
X937377Y216974D01*
X937378Y217036D01*
X937357Y217104D01*
X937346Y217175D01*
X937320Y217231D01*
X937302Y217290D01*
X937262Y217350D01*
X937231Y217414D01*
X937188Y217460D01*
X937154Y217511D01*
X937115Y217539D01*
X937049Y217609D01*
X936864Y217715D01*
X936838Y217733D01*
X936794Y217751D01*
X935301Y219244D01*
X934493Y221194D01*
X934493Y223306D01*
X935301Y225256D01*
X936794Y226749D01*
X938744Y227557D01*
X940856Y227557D01*
X942806Y226749D01*
X944299Y225256D01*
X945107Y223306D01*
X945107Y221194D01*
X944299Y219244D01*
X942806Y217751D01*
X942762Y217733D01*
X942709Y217701D01*
X942651Y217678D01*
X942596Y217633D01*
X942534Y217596D01*
X942493Y217549D01*
X942445Y217510D01*
X942405Y217451D01*
X942358Y217397D01*
X942332Y217341D01*
X942298Y217289D01*
X942287Y217242D01*
X942248Y217155D01*
X942221Y216943D01*
X942214Y216912D01*
X942214Y183138D01*
X942223Y183076D01*
X942222Y183014D01*
X942243Y182946D01*
X942254Y182875D01*
X942280Y182819D01*
X942298Y182760D01*
X942338Y182700D01*
X942369Y182636D01*
X942412Y182590D01*
X942446Y182539D01*
X942485Y182511D01*
X942551Y182441D01*
X942736Y182335D01*
X942762Y182317D01*
X942806Y182299D01*
X944299Y180806D01*
X945107Y178856D01*
X945107Y176744D01*
X944299Y174794D01*
X942806Y173301D01*
X940856Y172493D01*
X938744Y172493D01*
G37*
%LPD*%
%LPC*%
G36*
X735544Y172493D02*
X735544Y172493D01*
X733594Y173301D01*
X732101Y174794D01*
X731293Y176744D01*
X731293Y178856D01*
X732101Y180806D01*
X733594Y182299D01*
X733638Y182317D01*
X733691Y182349D01*
X733749Y182372D01*
X733804Y182417D01*
X733866Y182454D01*
X733907Y182501D01*
X733955Y182540D01*
X733995Y182599D01*
X734042Y182653D01*
X734068Y182709D01*
X734102Y182761D01*
X734113Y182808D01*
X734152Y182895D01*
X734179Y183107D01*
X734186Y183138D01*
X734186Y216912D01*
X734177Y216974D01*
X734178Y217036D01*
X734157Y217104D01*
X734146Y217175D01*
X734120Y217231D01*
X734102Y217290D01*
X734062Y217350D01*
X734031Y217414D01*
X733988Y217460D01*
X733954Y217511D01*
X733915Y217539D01*
X733849Y217609D01*
X733664Y217715D01*
X733638Y217733D01*
X733594Y217751D01*
X732101Y219244D01*
X731293Y221194D01*
X731293Y223306D01*
X732101Y225256D01*
X733594Y226749D01*
X735544Y227557D01*
X737656Y227557D01*
X739606Y226749D01*
X741099Y225256D01*
X741907Y223306D01*
X741907Y221194D01*
X741099Y219244D01*
X739606Y217751D01*
X739562Y217733D01*
X739509Y217701D01*
X739451Y217678D01*
X739396Y217633D01*
X739334Y217596D01*
X739293Y217549D01*
X739245Y217510D01*
X739205Y217451D01*
X739158Y217397D01*
X739132Y217341D01*
X739098Y217289D01*
X739087Y217242D01*
X739048Y217155D01*
X739021Y216943D01*
X739014Y216912D01*
X739014Y183138D01*
X739023Y183076D01*
X739022Y183014D01*
X739043Y182946D01*
X739054Y182875D01*
X739080Y182819D01*
X739098Y182760D01*
X739138Y182700D01*
X739169Y182636D01*
X739212Y182590D01*
X739246Y182539D01*
X739285Y182511D01*
X739351Y182441D01*
X739536Y182335D01*
X739562Y182317D01*
X739606Y182299D01*
X741099Y180806D01*
X741907Y178856D01*
X741907Y176744D01*
X741099Y174794D01*
X739606Y173301D01*
X737656Y172493D01*
X735544Y172493D01*
G37*
%LPD*%
%LPC*%
G36*
X2361144Y172493D02*
X2361144Y172493D01*
X2359194Y173301D01*
X2357701Y174794D01*
X2356893Y176744D01*
X2356893Y178856D01*
X2357701Y180806D01*
X2359194Y182299D01*
X2359238Y182317D01*
X2359291Y182349D01*
X2359349Y182372D01*
X2359404Y182417D01*
X2359466Y182454D01*
X2359507Y182501D01*
X2359555Y182540D01*
X2359595Y182599D01*
X2359642Y182653D01*
X2359668Y182709D01*
X2359702Y182761D01*
X2359713Y182808D01*
X2359752Y182895D01*
X2359779Y183107D01*
X2359786Y183138D01*
X2359786Y216912D01*
X2359777Y216974D01*
X2359778Y217036D01*
X2359757Y217104D01*
X2359746Y217175D01*
X2359720Y217231D01*
X2359702Y217290D01*
X2359662Y217350D01*
X2359631Y217414D01*
X2359588Y217460D01*
X2359554Y217511D01*
X2359515Y217539D01*
X2359449Y217609D01*
X2359264Y217715D01*
X2359238Y217733D01*
X2359194Y217751D01*
X2357701Y219244D01*
X2356893Y221194D01*
X2356893Y223306D01*
X2357701Y225256D01*
X2359194Y226749D01*
X2361144Y227557D01*
X2363256Y227557D01*
X2365206Y226749D01*
X2366699Y225256D01*
X2367507Y223306D01*
X2367507Y221194D01*
X2366699Y219244D01*
X2365206Y217751D01*
X2365162Y217733D01*
X2365109Y217701D01*
X2365051Y217678D01*
X2364996Y217633D01*
X2364934Y217596D01*
X2364893Y217549D01*
X2364845Y217510D01*
X2364805Y217451D01*
X2364758Y217397D01*
X2364732Y217341D01*
X2364698Y217289D01*
X2364687Y217242D01*
X2364648Y217155D01*
X2364621Y216943D01*
X2364614Y216912D01*
X2364614Y183138D01*
X2364623Y183076D01*
X2364622Y183014D01*
X2364643Y182946D01*
X2364654Y182875D01*
X2364680Y182819D01*
X2364698Y182760D01*
X2364738Y182700D01*
X2364769Y182636D01*
X2364812Y182590D01*
X2364846Y182539D01*
X2364885Y182511D01*
X2364951Y182441D01*
X2365136Y182335D01*
X2365162Y182317D01*
X2365206Y182299D01*
X2366699Y180806D01*
X2367507Y178856D01*
X2367507Y176744D01*
X2366699Y174794D01*
X2365206Y173301D01*
X2363256Y172493D01*
X2361144Y172493D01*
G37*
%LPD*%
%LPC*%
G36*
X1065395Y25495D02*
X1065395Y25495D01*
X1062798Y26571D01*
X1060811Y28558D01*
X1059735Y31155D01*
X1059735Y45045D01*
X1060811Y47642D01*
X1062798Y49629D01*
X1065395Y50705D01*
X1068205Y50705D01*
X1070802Y49629D01*
X1072789Y47642D01*
X1073865Y45045D01*
X1073865Y31155D01*
X1072789Y28558D01*
X1070802Y26571D01*
X1068205Y25495D01*
X1065395Y25495D01*
G37*
%LPD*%
%LPC*%
G36*
X608195Y25495D02*
X608195Y25495D01*
X605598Y26571D01*
X603611Y28558D01*
X602535Y31155D01*
X602535Y45045D01*
X603611Y47642D01*
X605598Y49629D01*
X608195Y50705D01*
X611005Y50705D01*
X613602Y49629D01*
X615589Y47642D01*
X616665Y45045D01*
X616665Y31155D01*
X615589Y28558D01*
X613602Y26571D01*
X611005Y25495D01*
X608195Y25495D01*
G37*
%LPD*%
%LPC*%
G36*
X862195Y25495D02*
X862195Y25495D01*
X859598Y26571D01*
X857611Y28558D01*
X856535Y31155D01*
X856535Y45045D01*
X857611Y47642D01*
X859598Y49629D01*
X862195Y50705D01*
X865005Y50705D01*
X867602Y49629D01*
X869589Y47642D01*
X870665Y45045D01*
X870665Y31155D01*
X869589Y28558D01*
X867602Y26571D01*
X865005Y25495D01*
X862195Y25495D01*
G37*
%LPD*%
%LPC*%
G36*
X836795Y25495D02*
X836795Y25495D01*
X834198Y26571D01*
X832211Y28558D01*
X831135Y31155D01*
X831135Y45045D01*
X832211Y47642D01*
X834198Y49629D01*
X836795Y50705D01*
X839605Y50705D01*
X842202Y49629D01*
X844189Y47642D01*
X845265Y45045D01*
X845265Y31155D01*
X844189Y28558D01*
X842202Y26571D01*
X839605Y25495D01*
X836795Y25495D01*
G37*
%LPD*%
%LPC*%
G36*
X811395Y25495D02*
X811395Y25495D01*
X808798Y26571D01*
X806811Y28558D01*
X805735Y31155D01*
X805735Y45045D01*
X806811Y47642D01*
X808798Y49629D01*
X811395Y50705D01*
X814205Y50705D01*
X816802Y49629D01*
X818789Y47642D01*
X819865Y45045D01*
X819865Y31155D01*
X818789Y28558D01*
X816802Y26571D01*
X814205Y25495D01*
X811395Y25495D01*
G37*
%LPD*%
%LPC*%
G36*
X785995Y25495D02*
X785995Y25495D01*
X783398Y26571D01*
X781411Y28558D01*
X780335Y31155D01*
X780335Y45045D01*
X781411Y47642D01*
X783398Y49629D01*
X785995Y50705D01*
X788805Y50705D01*
X791402Y49629D01*
X793389Y47642D01*
X794465Y45045D01*
X794465Y31155D01*
X793389Y28558D01*
X791402Y26571D01*
X788805Y25495D01*
X785995Y25495D01*
G37*
%LPD*%
%LPC*%
G36*
X760595Y25495D02*
X760595Y25495D01*
X757998Y26571D01*
X756011Y28558D01*
X754935Y31155D01*
X754935Y45045D01*
X756011Y47642D01*
X757998Y49629D01*
X760595Y50705D01*
X763405Y50705D01*
X766002Y49629D01*
X767989Y47642D01*
X769065Y45045D01*
X769065Y31155D01*
X767989Y28558D01*
X766002Y26571D01*
X763405Y25495D01*
X760595Y25495D01*
G37*
%LPD*%
%LPC*%
G36*
X735195Y25495D02*
X735195Y25495D01*
X732598Y26571D01*
X730611Y28558D01*
X729535Y31155D01*
X729535Y45045D01*
X730611Y47642D01*
X732598Y49629D01*
X735195Y50705D01*
X738005Y50705D01*
X740602Y49629D01*
X742589Y47642D01*
X743665Y45045D01*
X743665Y31155D01*
X742589Y28558D01*
X740602Y26571D01*
X738005Y25495D01*
X735195Y25495D01*
G37*
%LPD*%
%LPC*%
G36*
X709795Y25495D02*
X709795Y25495D01*
X707198Y26571D01*
X705211Y28558D01*
X704135Y31155D01*
X704135Y45045D01*
X705211Y47642D01*
X707198Y49629D01*
X709795Y50705D01*
X712605Y50705D01*
X715202Y49629D01*
X717189Y47642D01*
X718265Y45045D01*
X718265Y31155D01*
X717189Y28558D01*
X715202Y26571D01*
X712605Y25495D01*
X709795Y25495D01*
G37*
%LPD*%
%LPC*%
G36*
X684395Y25495D02*
X684395Y25495D01*
X681798Y26571D01*
X679811Y28558D01*
X678735Y31155D01*
X678735Y45045D01*
X679811Y47642D01*
X681798Y49629D01*
X684395Y50705D01*
X687205Y50705D01*
X689802Y49629D01*
X691789Y47642D01*
X692865Y45045D01*
X692865Y31155D01*
X691789Y28558D01*
X689802Y26571D01*
X687205Y25495D01*
X684395Y25495D01*
G37*
%LPD*%
%LPC*%
G36*
X658995Y25495D02*
X658995Y25495D01*
X656398Y26571D01*
X654411Y28558D01*
X653335Y31155D01*
X653335Y45045D01*
X654411Y47642D01*
X656398Y49629D01*
X658995Y50705D01*
X661805Y50705D01*
X664402Y49629D01*
X666389Y47642D01*
X667465Y45045D01*
X667465Y31155D01*
X666389Y28558D01*
X664402Y26571D01*
X661805Y25495D01*
X658995Y25495D01*
G37*
%LPD*%
%LPC*%
G36*
X633595Y25495D02*
X633595Y25495D01*
X630998Y26571D01*
X629011Y28558D01*
X627935Y31155D01*
X627935Y45045D01*
X629011Y47642D01*
X630998Y49629D01*
X633595Y50705D01*
X636405Y50705D01*
X639002Y49629D01*
X640989Y47642D01*
X642065Y45045D01*
X642065Y31155D01*
X640989Y28558D01*
X639002Y26571D01*
X636405Y25495D01*
X633595Y25495D01*
G37*
%LPD*%
%LPC*%
G36*
X1090795Y25495D02*
X1090795Y25495D01*
X1088198Y26571D01*
X1086211Y28558D01*
X1085135Y31155D01*
X1085135Y45045D01*
X1086211Y47642D01*
X1088198Y49629D01*
X1090795Y50705D01*
X1093605Y50705D01*
X1096202Y49629D01*
X1098189Y47642D01*
X1099265Y45045D01*
X1099265Y31155D01*
X1098189Y28558D01*
X1096202Y26571D01*
X1093605Y25495D01*
X1090795Y25495D01*
G37*
%LPD*%
%LPC*%
G36*
X989195Y25495D02*
X989195Y25495D01*
X986598Y26571D01*
X984611Y28558D01*
X983535Y31155D01*
X983535Y45045D01*
X984611Y47642D01*
X986598Y49629D01*
X989195Y50705D01*
X992005Y50705D01*
X994602Y49629D01*
X996589Y47642D01*
X997665Y45045D01*
X997665Y31155D01*
X996589Y28558D01*
X994602Y26571D01*
X992005Y25495D01*
X989195Y25495D01*
G37*
%LPD*%
%LPC*%
G36*
X1116195Y25495D02*
X1116195Y25495D01*
X1113598Y26571D01*
X1111611Y28558D01*
X1110535Y31155D01*
X1110535Y45045D01*
X1111611Y47642D01*
X1113598Y49629D01*
X1116195Y50705D01*
X1119005Y50705D01*
X1121602Y49629D01*
X1123589Y47642D01*
X1124665Y45045D01*
X1124665Y31155D01*
X1123589Y28558D01*
X1121602Y26571D01*
X1119005Y25495D01*
X1116195Y25495D01*
G37*
%LPD*%
%LPC*%
G36*
X1141595Y25495D02*
X1141595Y25495D01*
X1138998Y26571D01*
X1137011Y28558D01*
X1135935Y31155D01*
X1135935Y45045D01*
X1137011Y47642D01*
X1138998Y49629D01*
X1141595Y50705D01*
X1144405Y50705D01*
X1147002Y49629D01*
X1148989Y47642D01*
X1150065Y45045D01*
X1150065Y31155D01*
X1148989Y28558D01*
X1147002Y26571D01*
X1144405Y25495D01*
X1141595Y25495D01*
G37*
%LPD*%
%LPC*%
G36*
X1166995Y25495D02*
X1166995Y25495D01*
X1164398Y26571D01*
X1162411Y28558D01*
X1161335Y31155D01*
X1161335Y45045D01*
X1162411Y47642D01*
X1164398Y49629D01*
X1166995Y50705D01*
X1169805Y50705D01*
X1172402Y49629D01*
X1174389Y47642D01*
X1175465Y45045D01*
X1175465Y31155D01*
X1174389Y28558D01*
X1172402Y26571D01*
X1169805Y25495D01*
X1166995Y25495D01*
G37*
%LPD*%
%LPC*%
G36*
X1192395Y25495D02*
X1192395Y25495D01*
X1189798Y26571D01*
X1187811Y28558D01*
X1186735Y31155D01*
X1186735Y45045D01*
X1187811Y47642D01*
X1189798Y49629D01*
X1192395Y50705D01*
X1195205Y50705D01*
X1197802Y49629D01*
X1199789Y47642D01*
X1200865Y45045D01*
X1200865Y31155D01*
X1199789Y28558D01*
X1197802Y26571D01*
X1195205Y25495D01*
X1192395Y25495D01*
G37*
%LPD*%
%LPC*%
G36*
X1217795Y25495D02*
X1217795Y25495D01*
X1215198Y26571D01*
X1213211Y28558D01*
X1212135Y31155D01*
X1212135Y45045D01*
X1213211Y47642D01*
X1215198Y49629D01*
X1217795Y50705D01*
X1220605Y50705D01*
X1223202Y49629D01*
X1225189Y47642D01*
X1226265Y45045D01*
X1226265Y31155D01*
X1225189Y28558D01*
X1223202Y26571D01*
X1220605Y25495D01*
X1217795Y25495D01*
G37*
%LPD*%
%LPC*%
G36*
X1243195Y25495D02*
X1243195Y25495D01*
X1240598Y26571D01*
X1238611Y28558D01*
X1237535Y31155D01*
X1237535Y45045D01*
X1238611Y47642D01*
X1240598Y49629D01*
X1243195Y50705D01*
X1246005Y50705D01*
X1248602Y49629D01*
X1250589Y47642D01*
X1251665Y45045D01*
X1251665Y31155D01*
X1250589Y28558D01*
X1248602Y26571D01*
X1246005Y25495D01*
X1243195Y25495D01*
G37*
%LPD*%
%LPC*%
G36*
X938395Y25495D02*
X938395Y25495D01*
X935798Y26571D01*
X933811Y28558D01*
X932735Y31155D01*
X932735Y45045D01*
X933811Y47642D01*
X935798Y49629D01*
X938395Y50705D01*
X941205Y50705D01*
X943802Y49629D01*
X945789Y47642D01*
X946865Y45045D01*
X946865Y31155D01*
X945789Y28558D01*
X943802Y26571D01*
X941205Y25495D01*
X938395Y25495D01*
G37*
%LPD*%
%LPC*%
G36*
X1268595Y25495D02*
X1268595Y25495D01*
X1265998Y26571D01*
X1264011Y28558D01*
X1262935Y31155D01*
X1262935Y45045D01*
X1264011Y47642D01*
X1265998Y49629D01*
X1268595Y50705D01*
X1271405Y50705D01*
X1274002Y49629D01*
X1275989Y47642D01*
X1277065Y45045D01*
X1277065Y31155D01*
X1275989Y28558D01*
X1274002Y26571D01*
X1271405Y25495D01*
X1268595Y25495D01*
G37*
%LPD*%
%LPC*%
G36*
X1293995Y25495D02*
X1293995Y25495D01*
X1291398Y26571D01*
X1289411Y28558D01*
X1288335Y31155D01*
X1288335Y45045D01*
X1289411Y47642D01*
X1291398Y49629D01*
X1293995Y50705D01*
X1296805Y50705D01*
X1299402Y49629D01*
X1301389Y47642D01*
X1302465Y45045D01*
X1302465Y31155D01*
X1301389Y28558D01*
X1299402Y26571D01*
X1296805Y25495D01*
X1293995Y25495D01*
G37*
%LPD*%
%LPC*%
G36*
X1319395Y25495D02*
X1319395Y25495D01*
X1316798Y26571D01*
X1314811Y28558D01*
X1313735Y31155D01*
X1313735Y45045D01*
X1314811Y47642D01*
X1316798Y49629D01*
X1319395Y50705D01*
X1322205Y50705D01*
X1324802Y49629D01*
X1326789Y47642D01*
X1327865Y45045D01*
X1327865Y31155D01*
X1326789Y28558D01*
X1324802Y26571D01*
X1322205Y25495D01*
X1319395Y25495D01*
G37*
%LPD*%
%LPC*%
G36*
X1344795Y25495D02*
X1344795Y25495D01*
X1342198Y26571D01*
X1340211Y28558D01*
X1339135Y31155D01*
X1339135Y45045D01*
X1340211Y47642D01*
X1342198Y49629D01*
X1344795Y50705D01*
X1347605Y50705D01*
X1350202Y49629D01*
X1352189Y47642D01*
X1353265Y45045D01*
X1353265Y31155D01*
X1352189Y28558D01*
X1350202Y26571D01*
X1347605Y25495D01*
X1344795Y25495D01*
G37*
%LPD*%
%LPC*%
G36*
X1370195Y25495D02*
X1370195Y25495D01*
X1367598Y26571D01*
X1365611Y28558D01*
X1364535Y31155D01*
X1364535Y45045D01*
X1365611Y47642D01*
X1367598Y49629D01*
X1370195Y50705D01*
X1373005Y50705D01*
X1375602Y49629D01*
X1377589Y47642D01*
X1378665Y45045D01*
X1378665Y31155D01*
X1377589Y28558D01*
X1375602Y26571D01*
X1373005Y25495D01*
X1370195Y25495D01*
G37*
%LPD*%
%LPC*%
G36*
X1395595Y25495D02*
X1395595Y25495D01*
X1392998Y26571D01*
X1391011Y28558D01*
X1389935Y31155D01*
X1389935Y45045D01*
X1391011Y47642D01*
X1392998Y49629D01*
X1395595Y50705D01*
X1398405Y50705D01*
X1401002Y49629D01*
X1402989Y47642D01*
X1404065Y45045D01*
X1404065Y31155D01*
X1402989Y28558D01*
X1401002Y26571D01*
X1398405Y25495D01*
X1395595Y25495D01*
G37*
%LPD*%
%LPC*%
G36*
X1420995Y25495D02*
X1420995Y25495D01*
X1418398Y26571D01*
X1416411Y28558D01*
X1415335Y31155D01*
X1415335Y45045D01*
X1416411Y47642D01*
X1418398Y49629D01*
X1420995Y50705D01*
X1423805Y50705D01*
X1426402Y49629D01*
X1428389Y47642D01*
X1429465Y45045D01*
X1429465Y31155D01*
X1428389Y28558D01*
X1426402Y26571D01*
X1423805Y25495D01*
X1420995Y25495D01*
G37*
%LPD*%
%LPC*%
G36*
X1446395Y25495D02*
X1446395Y25495D01*
X1443798Y26571D01*
X1441811Y28558D01*
X1440735Y31155D01*
X1440735Y45045D01*
X1441811Y47642D01*
X1443798Y49629D01*
X1446395Y50705D01*
X1449205Y50705D01*
X1451802Y49629D01*
X1453789Y47642D01*
X1454865Y45045D01*
X1454865Y31155D01*
X1453789Y28558D01*
X1451802Y26571D01*
X1449205Y25495D01*
X1446395Y25495D01*
G37*
%LPD*%
%LPC*%
G36*
X1471795Y25495D02*
X1471795Y25495D01*
X1469198Y26571D01*
X1467211Y28558D01*
X1466135Y31155D01*
X1466135Y45045D01*
X1467211Y47642D01*
X1469198Y49629D01*
X1471795Y50705D01*
X1474605Y50705D01*
X1477202Y49629D01*
X1479189Y47642D01*
X1480265Y45045D01*
X1480265Y31155D01*
X1479189Y28558D01*
X1477202Y26571D01*
X1474605Y25495D01*
X1471795Y25495D01*
G37*
%LPD*%
%LPC*%
G36*
X1497195Y25495D02*
X1497195Y25495D01*
X1494598Y26571D01*
X1492611Y28558D01*
X1491535Y31155D01*
X1491535Y45045D01*
X1492611Y47642D01*
X1494598Y49629D01*
X1497195Y50705D01*
X1500005Y50705D01*
X1502602Y49629D01*
X1504589Y47642D01*
X1505665Y45045D01*
X1505665Y31155D01*
X1504589Y28558D01*
X1502602Y26571D01*
X1500005Y25495D01*
X1497195Y25495D01*
G37*
%LPD*%
%LPC*%
G36*
X1522595Y25495D02*
X1522595Y25495D01*
X1519998Y26571D01*
X1518011Y28558D01*
X1516935Y31155D01*
X1516935Y45045D01*
X1518011Y47642D01*
X1519998Y49629D01*
X1522595Y50705D01*
X1525405Y50705D01*
X1528002Y49629D01*
X1529989Y47642D01*
X1531065Y45045D01*
X1531065Y31155D01*
X1529989Y28558D01*
X1528002Y26571D01*
X1525405Y25495D01*
X1522595Y25495D01*
G37*
%LPD*%
%LPC*%
G36*
X1547995Y25495D02*
X1547995Y25495D01*
X1545398Y26571D01*
X1543411Y28558D01*
X1542335Y31155D01*
X1542335Y45045D01*
X1543411Y47642D01*
X1545398Y49629D01*
X1547995Y50705D01*
X1550805Y50705D01*
X1553402Y49629D01*
X1555389Y47642D01*
X1556465Y45045D01*
X1556465Y31155D01*
X1555389Y28558D01*
X1553402Y26571D01*
X1550805Y25495D01*
X1547995Y25495D01*
G37*
%LPD*%
%LPC*%
G36*
X1573395Y25495D02*
X1573395Y25495D01*
X1570798Y26571D01*
X1568811Y28558D01*
X1567735Y31155D01*
X1567735Y45045D01*
X1568811Y47642D01*
X1570798Y49629D01*
X1573395Y50705D01*
X1576205Y50705D01*
X1578802Y49629D01*
X1580789Y47642D01*
X1581865Y45045D01*
X1581865Y31155D01*
X1580789Y28558D01*
X1578802Y26571D01*
X1576205Y25495D01*
X1573395Y25495D01*
G37*
%LPD*%
%LPC*%
G36*
X1598795Y25495D02*
X1598795Y25495D01*
X1596198Y26571D01*
X1594211Y28558D01*
X1593135Y31155D01*
X1593135Y45045D01*
X1594211Y47642D01*
X1596198Y49629D01*
X1598795Y50705D01*
X1601605Y50705D01*
X1604202Y49629D01*
X1606189Y47642D01*
X1607265Y45045D01*
X1607265Y31155D01*
X1606189Y28558D01*
X1604202Y26571D01*
X1601605Y25495D01*
X1598795Y25495D01*
G37*
%LPD*%
%LPC*%
G36*
X1624195Y25495D02*
X1624195Y25495D01*
X1621598Y26571D01*
X1619611Y28558D01*
X1618535Y31155D01*
X1618535Y45045D01*
X1619611Y47642D01*
X1621598Y49629D01*
X1624195Y50705D01*
X1627005Y50705D01*
X1629602Y49629D01*
X1631589Y47642D01*
X1632665Y45045D01*
X1632665Y31155D01*
X1631589Y28558D01*
X1629602Y26571D01*
X1627005Y25495D01*
X1624195Y25495D01*
G37*
%LPD*%
%LPC*%
G36*
X1649595Y25495D02*
X1649595Y25495D01*
X1646998Y26571D01*
X1645011Y28558D01*
X1643935Y31155D01*
X1643935Y45045D01*
X1645011Y47642D01*
X1646998Y49629D01*
X1649595Y50705D01*
X1652405Y50705D01*
X1655002Y49629D01*
X1656989Y47642D01*
X1658065Y45045D01*
X1658065Y31155D01*
X1656989Y28558D01*
X1655002Y26571D01*
X1652405Y25495D01*
X1649595Y25495D01*
G37*
%LPD*%
%LPC*%
G36*
X1674995Y25495D02*
X1674995Y25495D01*
X1672398Y26571D01*
X1670411Y28558D01*
X1669335Y31155D01*
X1669335Y45045D01*
X1670411Y47642D01*
X1672398Y49629D01*
X1674995Y50705D01*
X1677805Y50705D01*
X1680402Y49629D01*
X1682389Y47642D01*
X1683465Y45045D01*
X1683465Y31155D01*
X1682389Y28558D01*
X1680402Y26571D01*
X1677805Y25495D01*
X1674995Y25495D01*
G37*
%LPD*%
%LPC*%
G36*
X1700395Y25495D02*
X1700395Y25495D01*
X1697798Y26571D01*
X1695811Y28558D01*
X1694735Y31155D01*
X1694735Y45045D01*
X1695811Y47642D01*
X1697798Y49629D01*
X1700395Y50705D01*
X1703205Y50705D01*
X1705802Y49629D01*
X1707789Y47642D01*
X1708865Y45045D01*
X1708865Y31155D01*
X1707789Y28558D01*
X1705802Y26571D01*
X1703205Y25495D01*
X1700395Y25495D01*
G37*
%LPD*%
%LPC*%
G36*
X1725795Y25495D02*
X1725795Y25495D01*
X1723198Y26571D01*
X1721211Y28558D01*
X1720135Y31155D01*
X1720135Y45045D01*
X1721211Y47642D01*
X1723198Y49629D01*
X1725795Y50705D01*
X1728605Y50705D01*
X1731202Y49629D01*
X1733189Y47642D01*
X1734265Y45045D01*
X1734265Y31155D01*
X1733189Y28558D01*
X1731202Y26571D01*
X1728605Y25495D01*
X1725795Y25495D01*
G37*
%LPD*%
%LPC*%
G36*
X1751195Y25495D02*
X1751195Y25495D01*
X1748598Y26571D01*
X1746611Y28558D01*
X1745535Y31155D01*
X1745535Y45045D01*
X1746611Y47642D01*
X1748598Y49629D01*
X1751195Y50705D01*
X1754005Y50705D01*
X1756602Y49629D01*
X1758589Y47642D01*
X1759665Y45045D01*
X1759665Y31155D01*
X1758589Y28558D01*
X1756602Y26571D01*
X1754005Y25495D01*
X1751195Y25495D01*
G37*
%LPD*%
%LPC*%
G36*
X1776595Y25495D02*
X1776595Y25495D01*
X1773998Y26571D01*
X1772011Y28558D01*
X1770935Y31155D01*
X1770935Y45045D01*
X1772011Y47642D01*
X1773998Y49629D01*
X1776595Y50705D01*
X1779405Y50705D01*
X1782002Y49629D01*
X1783989Y47642D01*
X1785065Y45045D01*
X1785065Y31155D01*
X1783989Y28558D01*
X1782002Y26571D01*
X1779405Y25495D01*
X1776595Y25495D01*
G37*
%LPD*%
%LPC*%
G36*
X1801995Y25495D02*
X1801995Y25495D01*
X1799398Y26571D01*
X1797411Y28558D01*
X1796335Y31155D01*
X1796335Y45045D01*
X1797411Y47642D01*
X1799398Y49629D01*
X1801995Y50705D01*
X1804805Y50705D01*
X1807402Y49629D01*
X1809389Y47642D01*
X1810465Y45045D01*
X1810465Y31155D01*
X1809389Y28558D01*
X1807402Y26571D01*
X1804805Y25495D01*
X1801995Y25495D01*
G37*
%LPD*%
%LPC*%
G36*
X1827395Y25495D02*
X1827395Y25495D01*
X1824798Y26571D01*
X1822811Y28558D01*
X1821735Y31155D01*
X1821735Y45045D01*
X1822811Y47642D01*
X1824798Y49629D01*
X1827395Y50705D01*
X1830205Y50705D01*
X1832802Y49629D01*
X1834789Y47642D01*
X1835865Y45045D01*
X1835865Y31155D01*
X1834789Y28558D01*
X1832802Y26571D01*
X1830205Y25495D01*
X1827395Y25495D01*
G37*
%LPD*%
%LPC*%
G36*
X1852795Y25495D02*
X1852795Y25495D01*
X1850198Y26571D01*
X1848211Y28558D01*
X1847135Y31155D01*
X1847135Y45045D01*
X1848211Y47642D01*
X1850198Y49629D01*
X1852795Y50705D01*
X1855605Y50705D01*
X1858202Y49629D01*
X1860189Y47642D01*
X1861265Y45045D01*
X1861265Y31155D01*
X1860189Y28558D01*
X1858202Y26571D01*
X1855605Y25495D01*
X1852795Y25495D01*
G37*
%LPD*%
%LPC*%
G36*
X1878195Y25495D02*
X1878195Y25495D01*
X1875598Y26571D01*
X1873611Y28558D01*
X1872535Y31155D01*
X1872535Y45045D01*
X1873611Y47642D01*
X1875598Y49629D01*
X1878195Y50705D01*
X1881005Y50705D01*
X1883602Y49629D01*
X1885589Y47642D01*
X1886665Y45045D01*
X1886665Y31155D01*
X1885589Y28558D01*
X1883602Y26571D01*
X1881005Y25495D01*
X1878195Y25495D01*
G37*
%LPD*%
%LPC*%
G36*
X1903595Y25495D02*
X1903595Y25495D01*
X1900998Y26571D01*
X1899011Y28558D01*
X1897935Y31155D01*
X1897935Y45045D01*
X1899011Y47642D01*
X1900998Y49629D01*
X1903595Y50705D01*
X1906405Y50705D01*
X1909002Y49629D01*
X1910989Y47642D01*
X1912065Y45045D01*
X1912065Y31155D01*
X1910989Y28558D01*
X1909002Y26571D01*
X1906405Y25495D01*
X1903595Y25495D01*
G37*
%LPD*%
%LPC*%
G36*
X1928995Y25495D02*
X1928995Y25495D01*
X1926398Y26571D01*
X1924411Y28558D01*
X1923335Y31155D01*
X1923335Y45045D01*
X1924411Y47642D01*
X1926398Y49629D01*
X1928995Y50705D01*
X1931805Y50705D01*
X1934402Y49629D01*
X1936389Y47642D01*
X1937465Y45045D01*
X1937465Y31155D01*
X1936389Y28558D01*
X1934402Y26571D01*
X1931805Y25495D01*
X1928995Y25495D01*
G37*
%LPD*%
%LPC*%
G36*
X1954395Y25495D02*
X1954395Y25495D01*
X1951798Y26571D01*
X1949811Y28558D01*
X1948735Y31155D01*
X1948735Y45045D01*
X1949811Y47642D01*
X1951798Y49629D01*
X1954395Y50705D01*
X1957205Y50705D01*
X1959802Y49629D01*
X1961789Y47642D01*
X1962865Y45045D01*
X1962865Y31155D01*
X1961789Y28558D01*
X1959802Y26571D01*
X1957205Y25495D01*
X1954395Y25495D01*
G37*
%LPD*%
%LPC*%
G36*
X1979795Y25495D02*
X1979795Y25495D01*
X1977198Y26571D01*
X1975211Y28558D01*
X1974135Y31155D01*
X1974135Y45045D01*
X1975211Y47642D01*
X1977198Y49629D01*
X1979795Y50705D01*
X1982605Y50705D01*
X1985202Y49629D01*
X1987189Y47642D01*
X1988265Y45045D01*
X1988265Y31155D01*
X1987189Y28558D01*
X1985202Y26571D01*
X1982605Y25495D01*
X1979795Y25495D01*
G37*
%LPD*%
%LPC*%
G36*
X2005195Y25495D02*
X2005195Y25495D01*
X2002598Y26571D01*
X2000611Y28558D01*
X1999535Y31155D01*
X1999535Y45045D01*
X2000611Y47642D01*
X2002598Y49629D01*
X2005195Y50705D01*
X2008005Y50705D01*
X2010602Y49629D01*
X2012589Y47642D01*
X2013665Y45045D01*
X2013665Y31155D01*
X2012589Y28558D01*
X2010602Y26571D01*
X2008005Y25495D01*
X2005195Y25495D01*
G37*
%LPD*%
%LPC*%
G36*
X2030595Y25495D02*
X2030595Y25495D01*
X2027998Y26571D01*
X2026011Y28558D01*
X2024935Y31155D01*
X2024935Y45045D01*
X2026011Y47642D01*
X2027998Y49629D01*
X2030595Y50705D01*
X2033405Y50705D01*
X2036002Y49629D01*
X2037989Y47642D01*
X2039065Y45045D01*
X2039065Y31155D01*
X2037989Y28558D01*
X2036002Y26571D01*
X2033405Y25495D01*
X2030595Y25495D01*
G37*
%LPD*%
%LPC*%
G36*
X2055995Y25495D02*
X2055995Y25495D01*
X2053398Y26571D01*
X2051411Y28558D01*
X2050335Y31155D01*
X2050335Y45045D01*
X2051411Y47642D01*
X2053398Y49629D01*
X2055995Y50705D01*
X2058805Y50705D01*
X2061402Y49629D01*
X2063389Y47642D01*
X2064465Y45045D01*
X2064465Y31155D01*
X2063389Y28558D01*
X2061402Y26571D01*
X2058805Y25495D01*
X2055995Y25495D01*
G37*
%LPD*%
%LPC*%
G36*
X2386195Y25495D02*
X2386195Y25495D01*
X2383598Y26571D01*
X2381611Y28558D01*
X2380535Y31155D01*
X2380535Y45045D01*
X2381611Y47642D01*
X2383598Y49629D01*
X2386195Y50705D01*
X2389005Y50705D01*
X2391602Y49629D01*
X2393589Y47642D01*
X2394665Y45045D01*
X2394665Y31155D01*
X2393589Y28558D01*
X2391602Y26571D01*
X2389005Y25495D01*
X2386195Y25495D01*
G37*
%LPD*%
%LPC*%
G36*
X2081395Y25495D02*
X2081395Y25495D01*
X2078798Y26571D01*
X2076811Y28558D01*
X2075735Y31155D01*
X2075735Y45045D01*
X2076811Y47642D01*
X2078798Y49629D01*
X2081395Y50705D01*
X2084205Y50705D01*
X2086802Y49629D01*
X2088789Y47642D01*
X2089865Y45045D01*
X2089865Y31155D01*
X2088789Y28558D01*
X2086802Y26571D01*
X2084205Y25495D01*
X2081395Y25495D01*
G37*
%LPD*%
%LPC*%
G36*
X2106795Y25495D02*
X2106795Y25495D01*
X2104198Y26571D01*
X2102211Y28558D01*
X2101135Y31155D01*
X2101135Y45045D01*
X2102211Y47642D01*
X2104198Y49629D01*
X2106795Y50705D01*
X2109605Y50705D01*
X2112202Y49629D01*
X2114189Y47642D01*
X2115265Y45045D01*
X2115265Y31155D01*
X2114189Y28558D01*
X2112202Y26571D01*
X2109605Y25495D01*
X2106795Y25495D01*
G37*
%LPD*%
%LPC*%
G36*
X2132195Y25495D02*
X2132195Y25495D01*
X2129598Y26571D01*
X2127611Y28558D01*
X2126535Y31155D01*
X2126535Y45045D01*
X2127611Y47642D01*
X2129598Y49629D01*
X2132195Y50705D01*
X2135005Y50705D01*
X2137602Y49629D01*
X2139589Y47642D01*
X2140665Y45045D01*
X2140665Y31155D01*
X2139589Y28558D01*
X2137602Y26571D01*
X2135005Y25495D01*
X2132195Y25495D01*
G37*
%LPD*%
%LPC*%
G36*
X2157595Y25495D02*
X2157595Y25495D01*
X2154998Y26571D01*
X2153011Y28558D01*
X2151935Y31155D01*
X2151935Y45045D01*
X2153011Y47642D01*
X2154998Y49629D01*
X2157595Y50705D01*
X2160405Y50705D01*
X2163002Y49629D01*
X2164989Y47642D01*
X2166065Y45045D01*
X2166065Y31155D01*
X2164989Y28558D01*
X2163002Y26571D01*
X2160405Y25495D01*
X2157595Y25495D01*
G37*
%LPD*%
%LPC*%
G36*
X2182995Y25495D02*
X2182995Y25495D01*
X2180398Y26571D01*
X2178411Y28558D01*
X2177335Y31155D01*
X2177335Y45045D01*
X2178411Y47642D01*
X2180398Y49629D01*
X2182995Y50705D01*
X2185805Y50705D01*
X2188402Y49629D01*
X2190389Y47642D01*
X2191465Y45045D01*
X2191465Y31155D01*
X2190389Y28558D01*
X2188402Y26571D01*
X2185805Y25495D01*
X2182995Y25495D01*
G37*
%LPD*%
%LPC*%
G36*
X2208395Y25495D02*
X2208395Y25495D01*
X2205798Y26571D01*
X2203811Y28558D01*
X2202735Y31155D01*
X2202735Y45045D01*
X2203811Y47642D01*
X2205798Y49629D01*
X2208395Y50705D01*
X2211205Y50705D01*
X2213802Y49629D01*
X2215789Y47642D01*
X2216865Y45045D01*
X2216865Y31155D01*
X2215789Y28558D01*
X2213802Y26571D01*
X2211205Y25495D01*
X2208395Y25495D01*
G37*
%LPD*%
%LPC*%
G36*
X2233795Y25495D02*
X2233795Y25495D01*
X2231198Y26571D01*
X2229211Y28558D01*
X2228135Y31155D01*
X2228135Y45045D01*
X2229211Y47642D01*
X2231198Y49629D01*
X2233795Y50705D01*
X2236605Y50705D01*
X2239202Y49629D01*
X2241189Y47642D01*
X2242265Y45045D01*
X2242265Y31155D01*
X2241189Y28558D01*
X2239202Y26571D01*
X2236605Y25495D01*
X2233795Y25495D01*
G37*
%LPD*%
%LPC*%
G36*
X2259195Y25495D02*
X2259195Y25495D01*
X2256598Y26571D01*
X2254611Y28558D01*
X2253535Y31155D01*
X2253535Y45045D01*
X2254611Y47642D01*
X2256598Y49629D01*
X2259195Y50705D01*
X2262005Y50705D01*
X2264602Y49629D01*
X2266589Y47642D01*
X2267665Y45045D01*
X2267665Y31155D01*
X2266589Y28558D01*
X2264602Y26571D01*
X2262005Y25495D01*
X2259195Y25495D01*
G37*
%LPD*%
%LPC*%
G36*
X2284595Y25495D02*
X2284595Y25495D01*
X2281998Y26571D01*
X2280011Y28558D01*
X2278935Y31155D01*
X2278935Y45045D01*
X2280011Y47642D01*
X2281998Y49629D01*
X2284595Y50705D01*
X2287405Y50705D01*
X2290002Y49629D01*
X2291989Y47642D01*
X2293065Y45045D01*
X2293065Y31155D01*
X2291989Y28558D01*
X2290002Y26571D01*
X2287405Y25495D01*
X2284595Y25495D01*
G37*
%LPD*%
%LPC*%
G36*
X2335395Y25495D02*
X2335395Y25495D01*
X2332798Y26571D01*
X2330811Y28558D01*
X2329735Y31155D01*
X2329735Y45045D01*
X2330811Y47642D01*
X2332798Y49629D01*
X2335395Y50705D01*
X2338205Y50705D01*
X2340802Y49629D01*
X2342789Y47642D01*
X2343865Y45045D01*
X2343865Y31155D01*
X2342789Y28558D01*
X2340802Y26571D01*
X2338205Y25495D01*
X2335395Y25495D01*
G37*
%LPD*%
%LPC*%
G36*
X2360795Y25495D02*
X2360795Y25495D01*
X2358198Y26571D01*
X2356211Y28558D01*
X2355135Y31155D01*
X2355135Y45045D01*
X2356211Y47642D01*
X2358198Y49629D01*
X2360795Y50705D01*
X2363605Y50705D01*
X2366202Y49629D01*
X2368189Y47642D01*
X2369265Y45045D01*
X2369265Y31155D01*
X2368189Y28558D01*
X2366202Y26571D01*
X2363605Y25495D01*
X2360795Y25495D01*
G37*
%LPD*%
%LPC*%
G36*
X2411595Y25495D02*
X2411595Y25495D01*
X2408998Y26571D01*
X2407011Y28558D01*
X2405935Y31155D01*
X2405935Y45045D01*
X2407011Y47642D01*
X2408998Y49629D01*
X2411595Y50705D01*
X2414405Y50705D01*
X2417002Y49629D01*
X2418989Y47642D01*
X2420065Y45045D01*
X2420065Y31155D01*
X2418989Y28558D01*
X2417002Y26571D01*
X2414405Y25495D01*
X2411595Y25495D01*
G37*
%LPD*%
%LPC*%
G36*
X2436995Y25495D02*
X2436995Y25495D01*
X2434398Y26571D01*
X2432411Y28558D01*
X2431335Y31155D01*
X2431335Y45045D01*
X2432411Y47642D01*
X2434398Y49629D01*
X2436995Y50705D01*
X2439805Y50705D01*
X2442402Y49629D01*
X2444389Y47642D01*
X2445465Y45045D01*
X2445465Y31155D01*
X2444389Y28558D01*
X2442402Y26571D01*
X2439805Y25495D01*
X2436995Y25495D01*
G37*
%LPD*%
%LPC*%
G36*
X430395Y25495D02*
X430395Y25495D01*
X427798Y26571D01*
X425811Y28558D01*
X424735Y31155D01*
X424735Y45045D01*
X425811Y47642D01*
X427798Y49629D01*
X430395Y50705D01*
X433205Y50705D01*
X435802Y49629D01*
X437789Y47642D01*
X438865Y45045D01*
X438865Y31155D01*
X437789Y28558D01*
X435802Y26571D01*
X433205Y25495D01*
X430395Y25495D01*
G37*
%LPD*%
%LPC*%
G36*
X455795Y25495D02*
X455795Y25495D01*
X453198Y26571D01*
X451211Y28558D01*
X450135Y31155D01*
X450135Y45045D01*
X451211Y47642D01*
X453198Y49629D01*
X455795Y50705D01*
X458605Y50705D01*
X461202Y49629D01*
X463189Y47642D01*
X464265Y45045D01*
X464265Y31155D01*
X463189Y28558D01*
X461202Y26571D01*
X458605Y25495D01*
X455795Y25495D01*
G37*
%LPD*%
%LPC*%
G36*
X481195Y25495D02*
X481195Y25495D01*
X478598Y26571D01*
X476611Y28558D01*
X475535Y31155D01*
X475535Y45045D01*
X476611Y47642D01*
X478598Y49629D01*
X481195Y50705D01*
X484005Y50705D01*
X486602Y49629D01*
X488589Y47642D01*
X489665Y45045D01*
X489665Y31155D01*
X488589Y28558D01*
X486602Y26571D01*
X484005Y25495D01*
X481195Y25495D01*
G37*
%LPD*%
%LPC*%
G36*
X506595Y25495D02*
X506595Y25495D01*
X503998Y26571D01*
X502011Y28558D01*
X500935Y31155D01*
X500935Y45045D01*
X502011Y47642D01*
X503998Y49629D01*
X506595Y50705D01*
X509405Y50705D01*
X512002Y49629D01*
X513989Y47642D01*
X515065Y45045D01*
X515065Y31155D01*
X513989Y28558D01*
X512002Y26571D01*
X509405Y25495D01*
X506595Y25495D01*
G37*
%LPD*%
%LPC*%
G36*
X531995Y25495D02*
X531995Y25495D01*
X529398Y26571D01*
X527411Y28558D01*
X526335Y31155D01*
X526335Y45045D01*
X527411Y47642D01*
X529398Y49629D01*
X531995Y50705D01*
X534805Y50705D01*
X537402Y49629D01*
X539389Y47642D01*
X540465Y45045D01*
X540465Y31155D01*
X539389Y28558D01*
X537402Y26571D01*
X534805Y25495D01*
X531995Y25495D01*
G37*
%LPD*%
%LPC*%
G36*
X557395Y25495D02*
X557395Y25495D01*
X554798Y26571D01*
X552811Y28558D01*
X551735Y31155D01*
X551735Y45045D01*
X552811Y47642D01*
X554798Y49629D01*
X557395Y50705D01*
X560205Y50705D01*
X562802Y49629D01*
X564789Y47642D01*
X565865Y45045D01*
X565865Y31155D01*
X564789Y28558D01*
X562802Y26571D01*
X560205Y25495D01*
X557395Y25495D01*
G37*
%LPD*%
%LPC*%
G36*
X582795Y25495D02*
X582795Y25495D01*
X580198Y26571D01*
X578211Y28558D01*
X577135Y31155D01*
X577135Y45045D01*
X578211Y47642D01*
X580198Y49629D01*
X582795Y50705D01*
X585605Y50705D01*
X588202Y49629D01*
X590189Y47642D01*
X591265Y45045D01*
X591265Y31155D01*
X590189Y28558D01*
X588202Y26571D01*
X585605Y25495D01*
X582795Y25495D01*
G37*
%LPD*%
%LPC*%
G36*
X1039995Y25495D02*
X1039995Y25495D01*
X1037398Y26571D01*
X1035411Y28558D01*
X1034335Y31155D01*
X1034335Y45045D01*
X1035411Y47642D01*
X1037398Y49629D01*
X1039995Y50705D01*
X1042805Y50705D01*
X1045402Y49629D01*
X1047389Y47642D01*
X1048465Y45045D01*
X1048465Y31155D01*
X1047389Y28558D01*
X1045402Y26571D01*
X1042805Y25495D01*
X1039995Y25495D01*
G37*
%LPD*%
%LPC*%
G36*
X1014595Y25495D02*
X1014595Y25495D01*
X1011998Y26571D01*
X1010011Y28558D01*
X1008935Y31155D01*
X1008935Y45045D01*
X1010011Y47642D01*
X1011998Y49629D01*
X1014595Y50705D01*
X1017405Y50705D01*
X1020002Y49629D01*
X1021989Y47642D01*
X1023065Y45045D01*
X1023065Y31155D01*
X1021989Y28558D01*
X1020002Y26571D01*
X1017405Y25495D01*
X1014595Y25495D01*
G37*
%LPD*%
%LPC*%
G36*
X963795Y25495D02*
X963795Y25495D01*
X961198Y26571D01*
X959211Y28558D01*
X958135Y31155D01*
X958135Y45045D01*
X959211Y47642D01*
X961198Y49629D01*
X963795Y50705D01*
X966605Y50705D01*
X969202Y49629D01*
X971189Y47642D01*
X972265Y45045D01*
X972265Y31155D01*
X971189Y28558D01*
X969202Y26571D01*
X966605Y25495D01*
X963795Y25495D01*
G37*
%LPD*%
%LPC*%
G36*
X2309995Y25495D02*
X2309995Y25495D01*
X2307398Y26571D01*
X2305411Y28558D01*
X2304335Y31155D01*
X2304335Y45045D01*
X2305411Y47642D01*
X2307398Y49629D01*
X2309995Y50705D01*
X2312805Y50705D01*
X2315402Y49629D01*
X2317389Y47642D01*
X2318465Y45045D01*
X2318465Y31155D01*
X2317389Y28558D01*
X2315402Y26571D01*
X2312805Y25495D01*
X2309995Y25495D01*
G37*
%LPD*%
%LPC*%
G36*
X912995Y25495D02*
X912995Y25495D01*
X910398Y26571D01*
X908411Y28558D01*
X907335Y31155D01*
X907335Y45045D01*
X908411Y47642D01*
X910398Y49629D01*
X912995Y50705D01*
X915805Y50705D01*
X918402Y49629D01*
X920389Y47642D01*
X921465Y45045D01*
X921465Y31155D01*
X920389Y28558D01*
X918402Y26571D01*
X915805Y25495D01*
X912995Y25495D01*
G37*
%LPD*%
%LPC*%
G36*
X887595Y25495D02*
X887595Y25495D01*
X884998Y26571D01*
X883011Y28558D01*
X881935Y31155D01*
X881935Y45045D01*
X883011Y47642D01*
X884998Y49629D01*
X887595Y50705D01*
X890405Y50705D01*
X893002Y49629D01*
X894989Y47642D01*
X896065Y45045D01*
X896065Y31155D01*
X894989Y28558D01*
X893002Y26571D01*
X890405Y25495D01*
X887595Y25495D01*
G37*
%LPD*%
%LPC*%
G36*
X1764244Y172493D02*
X1764244Y172493D01*
X1762294Y173301D01*
X1760801Y174794D01*
X1759993Y176744D01*
X1759993Y178856D01*
X1760801Y180806D01*
X1762294Y182299D01*
X1762338Y182317D01*
X1762391Y182349D01*
X1762449Y182372D01*
X1762504Y182417D01*
X1762566Y182454D01*
X1762607Y182501D01*
X1762655Y182540D01*
X1762695Y182599D01*
X1762742Y182653D01*
X1762768Y182709D01*
X1762802Y182761D01*
X1762813Y182808D01*
X1762852Y182895D01*
X1762879Y183107D01*
X1762886Y183138D01*
X1762886Y210562D01*
X1762877Y210624D01*
X1762878Y210686D01*
X1762857Y210754D01*
X1762846Y210825D01*
X1762820Y210881D01*
X1762802Y210940D01*
X1762762Y211000D01*
X1762731Y211064D01*
X1762688Y211110D01*
X1762654Y211161D01*
X1762615Y211189D01*
X1762549Y211259D01*
X1762364Y211365D01*
X1762338Y211383D01*
X1762294Y211401D01*
X1760801Y212894D01*
X1759993Y214844D01*
X1759993Y216956D01*
X1760801Y218906D01*
X1762294Y220399D01*
X1764244Y221207D01*
X1766356Y221207D01*
X1768306Y220399D01*
X1769799Y218906D01*
X1770607Y216956D01*
X1770607Y214844D01*
X1769799Y212894D01*
X1768306Y211401D01*
X1768262Y211383D01*
X1768209Y211351D01*
X1768151Y211328D01*
X1768096Y211283D01*
X1768034Y211246D01*
X1767993Y211199D01*
X1767945Y211160D01*
X1767905Y211101D01*
X1767858Y211047D01*
X1767832Y210991D01*
X1767798Y210939D01*
X1767787Y210892D01*
X1767748Y210805D01*
X1767721Y210593D01*
X1767714Y210562D01*
X1767714Y183138D01*
X1767723Y183076D01*
X1767722Y183014D01*
X1767743Y182946D01*
X1767754Y182875D01*
X1767780Y182819D01*
X1767798Y182760D01*
X1767838Y182700D01*
X1767869Y182636D01*
X1767912Y182590D01*
X1767946Y182539D01*
X1767985Y182511D01*
X1768051Y182441D01*
X1768236Y182335D01*
X1768262Y182317D01*
X1768306Y182299D01*
X1769799Y180806D01*
X1770607Y178856D01*
X1770607Y176744D01*
X1769799Y174794D01*
X1768306Y173301D01*
X1766356Y172493D01*
X1764244Y172493D01*
G37*
%LPD*%
%LPC*%
G36*
X1561044Y172493D02*
X1561044Y172493D01*
X1559094Y173301D01*
X1557601Y174794D01*
X1556793Y176744D01*
X1556793Y178856D01*
X1557601Y180806D01*
X1559094Y182299D01*
X1559138Y182317D01*
X1559191Y182349D01*
X1559249Y182372D01*
X1559304Y182417D01*
X1559366Y182454D01*
X1559407Y182501D01*
X1559455Y182540D01*
X1559495Y182599D01*
X1559542Y182653D01*
X1559568Y182709D01*
X1559602Y182761D01*
X1559613Y182808D01*
X1559652Y182895D01*
X1559679Y183107D01*
X1559686Y183138D01*
X1559686Y210562D01*
X1559677Y210624D01*
X1559678Y210686D01*
X1559657Y210754D01*
X1559646Y210825D01*
X1559620Y210881D01*
X1559602Y210940D01*
X1559562Y211000D01*
X1559531Y211064D01*
X1559488Y211110D01*
X1559454Y211161D01*
X1559415Y211189D01*
X1559349Y211259D01*
X1559164Y211365D01*
X1559138Y211383D01*
X1559094Y211401D01*
X1557601Y212894D01*
X1556793Y214844D01*
X1556793Y216956D01*
X1557601Y218906D01*
X1559094Y220399D01*
X1561044Y221207D01*
X1563156Y221207D01*
X1565106Y220399D01*
X1566599Y218906D01*
X1567407Y216956D01*
X1567407Y214844D01*
X1566599Y212894D01*
X1565106Y211401D01*
X1565062Y211383D01*
X1565009Y211351D01*
X1564951Y211328D01*
X1564896Y211283D01*
X1564834Y211246D01*
X1564793Y211199D01*
X1564745Y211160D01*
X1564705Y211101D01*
X1564658Y211047D01*
X1564632Y210991D01*
X1564598Y210939D01*
X1564587Y210892D01*
X1564548Y210805D01*
X1564521Y210593D01*
X1564514Y210562D01*
X1564514Y183138D01*
X1564523Y183076D01*
X1564522Y183014D01*
X1564543Y182946D01*
X1564554Y182875D01*
X1564580Y182819D01*
X1564598Y182760D01*
X1564638Y182700D01*
X1564669Y182636D01*
X1564712Y182590D01*
X1564746Y182539D01*
X1564785Y182511D01*
X1564851Y182441D01*
X1565036Y182335D01*
X1565062Y182317D01*
X1565106Y182299D01*
X1566599Y180806D01*
X1567407Y178856D01*
X1567407Y176744D01*
X1566599Y174794D01*
X1565106Y173301D01*
X1563156Y172493D01*
X1561044Y172493D01*
G37*
%LPD*%
%LPC*%
G36*
X1357844Y172493D02*
X1357844Y172493D01*
X1355894Y173301D01*
X1354401Y174794D01*
X1353593Y176744D01*
X1353593Y178856D01*
X1354401Y180806D01*
X1355894Y182299D01*
X1355938Y182317D01*
X1355991Y182349D01*
X1356049Y182372D01*
X1356104Y182417D01*
X1356166Y182454D01*
X1356207Y182501D01*
X1356255Y182540D01*
X1356295Y182599D01*
X1356342Y182653D01*
X1356368Y182709D01*
X1356402Y182761D01*
X1356413Y182808D01*
X1356452Y182895D01*
X1356479Y183107D01*
X1356486Y183138D01*
X1356486Y210562D01*
X1356477Y210624D01*
X1356478Y210686D01*
X1356457Y210754D01*
X1356446Y210825D01*
X1356420Y210881D01*
X1356402Y210940D01*
X1356362Y211000D01*
X1356331Y211064D01*
X1356288Y211110D01*
X1356254Y211161D01*
X1356215Y211189D01*
X1356149Y211259D01*
X1355964Y211365D01*
X1355938Y211383D01*
X1355894Y211401D01*
X1354401Y212894D01*
X1353593Y214844D01*
X1353593Y216956D01*
X1354401Y218906D01*
X1355894Y220399D01*
X1357844Y221207D01*
X1359956Y221207D01*
X1361906Y220399D01*
X1363399Y218906D01*
X1364207Y216956D01*
X1364207Y214844D01*
X1363399Y212894D01*
X1361906Y211401D01*
X1361862Y211383D01*
X1361809Y211351D01*
X1361751Y211328D01*
X1361696Y211283D01*
X1361634Y211246D01*
X1361593Y211199D01*
X1361545Y211160D01*
X1361505Y211101D01*
X1361458Y211047D01*
X1361432Y210991D01*
X1361398Y210939D01*
X1361387Y210892D01*
X1361348Y210805D01*
X1361321Y210593D01*
X1361314Y210562D01*
X1361314Y183138D01*
X1361323Y183076D01*
X1361322Y183014D01*
X1361343Y182946D01*
X1361354Y182875D01*
X1361380Y182819D01*
X1361398Y182760D01*
X1361438Y182700D01*
X1361469Y182636D01*
X1361512Y182590D01*
X1361546Y182539D01*
X1361585Y182511D01*
X1361651Y182441D01*
X1361836Y182335D01*
X1361862Y182317D01*
X1361906Y182299D01*
X1363399Y180806D01*
X1364207Y178856D01*
X1364207Y176744D01*
X1363399Y174794D01*
X1361906Y173301D01*
X1359956Y172493D01*
X1357844Y172493D01*
G37*
%LPD*%
%LPC*%
G36*
X1154644Y172493D02*
X1154644Y172493D01*
X1152694Y173301D01*
X1151201Y174794D01*
X1150393Y176744D01*
X1150393Y178856D01*
X1151201Y180806D01*
X1152694Y182299D01*
X1152738Y182317D01*
X1152791Y182349D01*
X1152849Y182372D01*
X1152904Y182417D01*
X1152966Y182454D01*
X1153007Y182501D01*
X1153055Y182540D01*
X1153095Y182599D01*
X1153142Y182653D01*
X1153168Y182709D01*
X1153202Y182761D01*
X1153213Y182808D01*
X1153252Y182895D01*
X1153279Y183107D01*
X1153286Y183138D01*
X1153286Y210562D01*
X1153277Y210624D01*
X1153278Y210686D01*
X1153257Y210754D01*
X1153246Y210825D01*
X1153220Y210881D01*
X1153202Y210940D01*
X1153162Y211000D01*
X1153131Y211064D01*
X1153088Y211110D01*
X1153054Y211161D01*
X1153015Y211189D01*
X1152949Y211259D01*
X1152764Y211365D01*
X1152738Y211383D01*
X1152694Y211401D01*
X1151201Y212894D01*
X1150393Y214844D01*
X1150393Y216956D01*
X1151201Y218906D01*
X1152694Y220399D01*
X1154644Y221207D01*
X1156756Y221207D01*
X1158706Y220399D01*
X1160199Y218906D01*
X1161007Y216956D01*
X1161007Y214844D01*
X1160199Y212894D01*
X1158706Y211401D01*
X1158662Y211383D01*
X1158609Y211351D01*
X1158551Y211328D01*
X1158496Y211283D01*
X1158434Y211246D01*
X1158393Y211199D01*
X1158345Y211160D01*
X1158305Y211101D01*
X1158258Y211047D01*
X1158232Y210991D01*
X1158198Y210939D01*
X1158187Y210892D01*
X1158148Y210805D01*
X1158121Y210593D01*
X1158114Y210562D01*
X1158114Y183138D01*
X1158123Y183076D01*
X1158122Y183014D01*
X1158143Y182946D01*
X1158154Y182875D01*
X1158180Y182819D01*
X1158198Y182760D01*
X1158238Y182700D01*
X1158269Y182636D01*
X1158312Y182590D01*
X1158346Y182539D01*
X1158385Y182511D01*
X1158451Y182441D01*
X1158636Y182335D01*
X1158662Y182317D01*
X1158706Y182299D01*
X1160199Y180806D01*
X1161007Y178856D01*
X1161007Y176744D01*
X1160199Y174794D01*
X1158706Y173301D01*
X1156756Y172493D01*
X1154644Y172493D01*
G37*
%LPD*%
%LPC*%
G36*
X951444Y172493D02*
X951444Y172493D01*
X949494Y173301D01*
X948001Y174794D01*
X947193Y176744D01*
X947193Y178856D01*
X948001Y180806D01*
X949494Y182299D01*
X949538Y182317D01*
X949591Y182349D01*
X949649Y182372D01*
X949704Y182417D01*
X949766Y182454D01*
X949807Y182501D01*
X949855Y182540D01*
X949895Y182599D01*
X949942Y182653D01*
X949968Y182709D01*
X950002Y182761D01*
X950013Y182808D01*
X950052Y182895D01*
X950079Y183107D01*
X950086Y183138D01*
X950086Y210562D01*
X950077Y210624D01*
X950078Y210686D01*
X950057Y210754D01*
X950046Y210825D01*
X950020Y210881D01*
X950002Y210940D01*
X949962Y211000D01*
X949931Y211064D01*
X949888Y211110D01*
X949854Y211161D01*
X949815Y211189D01*
X949749Y211259D01*
X949564Y211365D01*
X949538Y211383D01*
X949494Y211401D01*
X948001Y212894D01*
X947193Y214844D01*
X947193Y216956D01*
X948001Y218906D01*
X949494Y220399D01*
X951444Y221207D01*
X953556Y221207D01*
X955506Y220399D01*
X956999Y218906D01*
X957807Y216956D01*
X957807Y214844D01*
X956999Y212894D01*
X955506Y211401D01*
X955462Y211383D01*
X955409Y211351D01*
X955351Y211328D01*
X955296Y211283D01*
X955234Y211246D01*
X955193Y211199D01*
X955145Y211160D01*
X955105Y211101D01*
X955058Y211047D01*
X955032Y210991D01*
X954998Y210939D01*
X954987Y210892D01*
X954948Y210805D01*
X954921Y210593D01*
X954914Y210562D01*
X954914Y183138D01*
X954923Y183076D01*
X954922Y183014D01*
X954943Y182946D01*
X954954Y182875D01*
X954980Y182819D01*
X954998Y182760D01*
X955038Y182700D01*
X955069Y182636D01*
X955112Y182590D01*
X955146Y182539D01*
X955185Y182511D01*
X955251Y182441D01*
X955436Y182335D01*
X955462Y182317D01*
X955506Y182299D01*
X956999Y180806D01*
X957807Y178856D01*
X957807Y176744D01*
X956999Y174794D01*
X955506Y173301D01*
X953556Y172493D01*
X951444Y172493D01*
G37*
%LPD*%
%LPC*%
G36*
X748244Y172493D02*
X748244Y172493D01*
X746294Y173301D01*
X744801Y174794D01*
X743993Y176744D01*
X743993Y178856D01*
X744801Y180806D01*
X746294Y182299D01*
X746338Y182317D01*
X746391Y182349D01*
X746449Y182372D01*
X746504Y182417D01*
X746566Y182454D01*
X746607Y182501D01*
X746655Y182540D01*
X746695Y182599D01*
X746742Y182653D01*
X746768Y182709D01*
X746802Y182761D01*
X746813Y182808D01*
X746852Y182895D01*
X746879Y183107D01*
X746886Y183138D01*
X746886Y210562D01*
X746877Y210624D01*
X746878Y210686D01*
X746857Y210754D01*
X746846Y210825D01*
X746820Y210881D01*
X746802Y210940D01*
X746762Y211000D01*
X746731Y211064D01*
X746688Y211110D01*
X746654Y211161D01*
X746615Y211189D01*
X746549Y211259D01*
X746364Y211365D01*
X746338Y211383D01*
X746294Y211401D01*
X744801Y212894D01*
X743993Y214844D01*
X743993Y216956D01*
X744801Y218906D01*
X746294Y220399D01*
X748244Y221207D01*
X750356Y221207D01*
X752306Y220399D01*
X753799Y218906D01*
X754607Y216956D01*
X754607Y214844D01*
X753799Y212894D01*
X752306Y211401D01*
X752262Y211383D01*
X752209Y211351D01*
X752151Y211328D01*
X752096Y211283D01*
X752034Y211246D01*
X751993Y211199D01*
X751945Y211160D01*
X751905Y211101D01*
X751858Y211047D01*
X751832Y210991D01*
X751798Y210939D01*
X751787Y210892D01*
X751748Y210805D01*
X751721Y210593D01*
X751714Y210562D01*
X751714Y183138D01*
X751723Y183076D01*
X751722Y183014D01*
X751743Y182946D01*
X751754Y182875D01*
X751780Y182819D01*
X751798Y182760D01*
X751838Y182700D01*
X751869Y182636D01*
X751912Y182590D01*
X751946Y182539D01*
X751985Y182511D01*
X752051Y182441D01*
X752236Y182335D01*
X752262Y182317D01*
X752306Y182299D01*
X753799Y180806D01*
X754607Y178856D01*
X754607Y176744D01*
X753799Y174794D01*
X752306Y173301D01*
X750356Y172493D01*
X748244Y172493D01*
G37*
%LPD*%
%LPC*%
G36*
X545044Y172493D02*
X545044Y172493D01*
X543094Y173301D01*
X541601Y174794D01*
X540793Y176744D01*
X540793Y178856D01*
X541601Y180806D01*
X543094Y182299D01*
X543138Y182317D01*
X543191Y182349D01*
X543249Y182372D01*
X543304Y182417D01*
X543366Y182454D01*
X543407Y182501D01*
X543455Y182540D01*
X543495Y182599D01*
X543542Y182653D01*
X543568Y182709D01*
X543602Y182761D01*
X543613Y182808D01*
X543652Y182895D01*
X543679Y183107D01*
X543686Y183138D01*
X543686Y210562D01*
X543677Y210624D01*
X543678Y210686D01*
X543657Y210754D01*
X543646Y210825D01*
X543620Y210881D01*
X543602Y210940D01*
X543562Y211000D01*
X543531Y211064D01*
X543488Y211110D01*
X543454Y211161D01*
X543415Y211189D01*
X543349Y211259D01*
X543164Y211365D01*
X543138Y211383D01*
X543094Y211401D01*
X541601Y212894D01*
X540793Y214844D01*
X540793Y216956D01*
X541601Y218906D01*
X543094Y220399D01*
X545044Y221207D01*
X547156Y221207D01*
X549106Y220399D01*
X550599Y218906D01*
X551407Y216956D01*
X551407Y214844D01*
X550599Y212894D01*
X549106Y211401D01*
X549062Y211383D01*
X549009Y211351D01*
X548951Y211328D01*
X548896Y211283D01*
X548834Y211246D01*
X548793Y211199D01*
X548745Y211160D01*
X548705Y211101D01*
X548658Y211047D01*
X548632Y210991D01*
X548598Y210939D01*
X548587Y210892D01*
X548548Y210805D01*
X548521Y210593D01*
X548514Y210562D01*
X548514Y183138D01*
X548523Y183076D01*
X548522Y183014D01*
X548543Y182946D01*
X548554Y182875D01*
X548580Y182819D01*
X548598Y182760D01*
X548638Y182700D01*
X548669Y182636D01*
X548712Y182590D01*
X548746Y182539D01*
X548785Y182511D01*
X548851Y182441D01*
X549036Y182335D01*
X549062Y182317D01*
X549106Y182299D01*
X550599Y180806D01*
X551407Y178856D01*
X551407Y176744D01*
X550599Y174794D01*
X549106Y173301D01*
X547156Y172493D01*
X545044Y172493D01*
G37*
%LPD*%
%LPC*%
G36*
X2373844Y172493D02*
X2373844Y172493D01*
X2371894Y173301D01*
X2370401Y174794D01*
X2369593Y176744D01*
X2369593Y178856D01*
X2370401Y180806D01*
X2371894Y182299D01*
X2371938Y182317D01*
X2371991Y182349D01*
X2372049Y182372D01*
X2372104Y182417D01*
X2372166Y182454D01*
X2372207Y182501D01*
X2372255Y182540D01*
X2372295Y182599D01*
X2372342Y182653D01*
X2372368Y182709D01*
X2372402Y182761D01*
X2372413Y182808D01*
X2372452Y182895D01*
X2372479Y183107D01*
X2372486Y183138D01*
X2372486Y210562D01*
X2372477Y210624D01*
X2372478Y210686D01*
X2372457Y210754D01*
X2372446Y210825D01*
X2372420Y210881D01*
X2372402Y210940D01*
X2372362Y211000D01*
X2372331Y211064D01*
X2372288Y211110D01*
X2372254Y211161D01*
X2372215Y211189D01*
X2372149Y211259D01*
X2371964Y211365D01*
X2371938Y211383D01*
X2371894Y211401D01*
X2370401Y212894D01*
X2369593Y214844D01*
X2369593Y216956D01*
X2370401Y218906D01*
X2371894Y220399D01*
X2373844Y221207D01*
X2375956Y221207D01*
X2377906Y220399D01*
X2379399Y218906D01*
X2380207Y216956D01*
X2380207Y214844D01*
X2379399Y212894D01*
X2377906Y211401D01*
X2377862Y211383D01*
X2377809Y211351D01*
X2377751Y211328D01*
X2377696Y211283D01*
X2377634Y211246D01*
X2377593Y211199D01*
X2377545Y211160D01*
X2377505Y211101D01*
X2377458Y211047D01*
X2377432Y210991D01*
X2377398Y210939D01*
X2377387Y210892D01*
X2377348Y210805D01*
X2377321Y210593D01*
X2377314Y210562D01*
X2377314Y183138D01*
X2377323Y183076D01*
X2377322Y183014D01*
X2377343Y182946D01*
X2377354Y182875D01*
X2377380Y182819D01*
X2377398Y182760D01*
X2377438Y182700D01*
X2377469Y182636D01*
X2377512Y182590D01*
X2377546Y182539D01*
X2377585Y182511D01*
X2377651Y182441D01*
X2377836Y182335D01*
X2377862Y182317D01*
X2377906Y182299D01*
X2379399Y180806D01*
X2380207Y178856D01*
X2380207Y176744D01*
X2379399Y174794D01*
X2377906Y173301D01*
X2375956Y172493D01*
X2373844Y172493D01*
G37*
%LPD*%
%LPC*%
G36*
X2170644Y172493D02*
X2170644Y172493D01*
X2168694Y173301D01*
X2167201Y174794D01*
X2166393Y176744D01*
X2166393Y178856D01*
X2167201Y180806D01*
X2168694Y182299D01*
X2168738Y182317D01*
X2168791Y182349D01*
X2168849Y182372D01*
X2168904Y182417D01*
X2168966Y182454D01*
X2169007Y182501D01*
X2169055Y182540D01*
X2169095Y182599D01*
X2169142Y182653D01*
X2169168Y182709D01*
X2169202Y182761D01*
X2169213Y182808D01*
X2169252Y182895D01*
X2169279Y183107D01*
X2169286Y183138D01*
X2169286Y210562D01*
X2169277Y210624D01*
X2169278Y210686D01*
X2169257Y210754D01*
X2169246Y210825D01*
X2169220Y210881D01*
X2169202Y210940D01*
X2169162Y211000D01*
X2169131Y211064D01*
X2169088Y211110D01*
X2169054Y211161D01*
X2169015Y211189D01*
X2168949Y211259D01*
X2168764Y211365D01*
X2168738Y211383D01*
X2168694Y211401D01*
X2167201Y212894D01*
X2166393Y214844D01*
X2166393Y216956D01*
X2167201Y218906D01*
X2168694Y220399D01*
X2170644Y221207D01*
X2172756Y221207D01*
X2174706Y220399D01*
X2176199Y218906D01*
X2177007Y216956D01*
X2177007Y214844D01*
X2176199Y212894D01*
X2174706Y211401D01*
X2174662Y211383D01*
X2174609Y211351D01*
X2174551Y211328D01*
X2174496Y211283D01*
X2174434Y211246D01*
X2174393Y211199D01*
X2174345Y211160D01*
X2174305Y211101D01*
X2174258Y211047D01*
X2174232Y210991D01*
X2174198Y210939D01*
X2174187Y210892D01*
X2174148Y210805D01*
X2174121Y210593D01*
X2174114Y210562D01*
X2174114Y183138D01*
X2174123Y183076D01*
X2174122Y183014D01*
X2174143Y182946D01*
X2174154Y182875D01*
X2174180Y182819D01*
X2174198Y182760D01*
X2174238Y182700D01*
X2174269Y182636D01*
X2174312Y182590D01*
X2174346Y182539D01*
X2174385Y182511D01*
X2174451Y182441D01*
X2174636Y182335D01*
X2174662Y182317D01*
X2174706Y182299D01*
X2176199Y180806D01*
X2177007Y178856D01*
X2177007Y176744D01*
X2176199Y174794D01*
X2174706Y173301D01*
X2172756Y172493D01*
X2170644Y172493D01*
G37*
%LPD*%
%LPC*%
G36*
X1967444Y172493D02*
X1967444Y172493D01*
X1965494Y173301D01*
X1964001Y174794D01*
X1963193Y176744D01*
X1963193Y178856D01*
X1964001Y180806D01*
X1965494Y182299D01*
X1965538Y182317D01*
X1965591Y182349D01*
X1965649Y182372D01*
X1965704Y182417D01*
X1965766Y182454D01*
X1965807Y182501D01*
X1965855Y182540D01*
X1965895Y182599D01*
X1965942Y182653D01*
X1965968Y182709D01*
X1966002Y182761D01*
X1966013Y182808D01*
X1966052Y182895D01*
X1966079Y183107D01*
X1966086Y183138D01*
X1966086Y210562D01*
X1966077Y210624D01*
X1966078Y210686D01*
X1966057Y210754D01*
X1966046Y210825D01*
X1966020Y210881D01*
X1966002Y210940D01*
X1965962Y211000D01*
X1965931Y211064D01*
X1965888Y211110D01*
X1965854Y211161D01*
X1965815Y211189D01*
X1965749Y211259D01*
X1965564Y211365D01*
X1965538Y211383D01*
X1965494Y211401D01*
X1964001Y212894D01*
X1963193Y214844D01*
X1963193Y216956D01*
X1964001Y218906D01*
X1965494Y220399D01*
X1967444Y221207D01*
X1969556Y221207D01*
X1971506Y220399D01*
X1972999Y218906D01*
X1973807Y216956D01*
X1973807Y214844D01*
X1972999Y212894D01*
X1971506Y211401D01*
X1971462Y211383D01*
X1971409Y211351D01*
X1971351Y211328D01*
X1971296Y211283D01*
X1971234Y211246D01*
X1971193Y211199D01*
X1971145Y211160D01*
X1971105Y211101D01*
X1971058Y211047D01*
X1971032Y210991D01*
X1970998Y210939D01*
X1970987Y210892D01*
X1970948Y210805D01*
X1970921Y210593D01*
X1970914Y210562D01*
X1970914Y183138D01*
X1970923Y183076D01*
X1970922Y183014D01*
X1970943Y182946D01*
X1970954Y182875D01*
X1970980Y182819D01*
X1970998Y182760D01*
X1971038Y182700D01*
X1971069Y182636D01*
X1971112Y182590D01*
X1971146Y182539D01*
X1971185Y182511D01*
X1971251Y182441D01*
X1971436Y182335D01*
X1971462Y182317D01*
X1971506Y182299D01*
X1972999Y180806D01*
X1973807Y178856D01*
X1973807Y176744D01*
X1972999Y174794D01*
X1971506Y173301D01*
X1969556Y172493D01*
X1967444Y172493D01*
G37*
%LPD*%
%LPC*%
G36*
X236205Y180847D02*
X236205Y180847D01*
X232657Y182317D01*
X229942Y185032D01*
X228472Y188580D01*
X228472Y192420D01*
X229942Y195968D01*
X232657Y198683D01*
X236205Y200153D01*
X240045Y200153D01*
X243593Y198683D01*
X246308Y195968D01*
X247778Y192420D01*
X247778Y188580D01*
X246308Y185032D01*
X243593Y182317D01*
X240045Y180847D01*
X236205Y180847D01*
G37*
%LPD*%
%LPC*%
G36*
X210805Y130047D02*
X210805Y130047D01*
X207257Y131517D01*
X204542Y134232D01*
X203072Y137780D01*
X203072Y141620D01*
X204542Y145168D01*
X207257Y147883D01*
X210805Y149353D01*
X214645Y149353D01*
X218193Y147883D01*
X220908Y145168D01*
X222378Y141620D01*
X222378Y137780D01*
X220908Y134232D01*
X218193Y131517D01*
X214645Y130047D01*
X210805Y130047D01*
G37*
%LPD*%
%LPC*%
G36*
X210805Y155447D02*
X210805Y155447D01*
X207257Y156917D01*
X204542Y159632D01*
X203072Y163180D01*
X203072Y167020D01*
X204542Y170568D01*
X207257Y173283D01*
X210805Y174753D01*
X214645Y174753D01*
X218193Y173283D01*
X220908Y170568D01*
X222378Y167020D01*
X222378Y163180D01*
X220908Y159632D01*
X218193Y156917D01*
X214645Y155447D01*
X210805Y155447D01*
G37*
%LPD*%
%LPC*%
G36*
X210805Y180847D02*
X210805Y180847D01*
X207257Y182317D01*
X204542Y185032D01*
X203072Y188580D01*
X203072Y192420D01*
X204542Y195968D01*
X207257Y198683D01*
X210805Y200153D01*
X214645Y200153D01*
X218193Y198683D01*
X220908Y195968D01*
X222378Y192420D01*
X222378Y188580D01*
X220908Y185032D01*
X218193Y182317D01*
X214645Y180847D01*
X210805Y180847D01*
G37*
%LPD*%
%LPC*%
G36*
X236205Y155447D02*
X236205Y155447D01*
X232657Y156917D01*
X229942Y159632D01*
X228472Y163180D01*
X228472Y167020D01*
X229942Y170568D01*
X232657Y173283D01*
X236205Y174753D01*
X240045Y174753D01*
X243593Y173283D01*
X246308Y170568D01*
X247778Y167020D01*
X247778Y163180D01*
X246308Y159632D01*
X243593Y156917D01*
X240045Y155447D01*
X236205Y155447D01*
G37*
%LPD*%
%LPC*%
G36*
X468844Y121693D02*
X468844Y121693D01*
X466894Y122501D01*
X465401Y123994D01*
X464593Y125944D01*
X464593Y128056D01*
X465401Y130006D01*
X466894Y131499D01*
X466938Y131517D01*
X466991Y131549D01*
X467049Y131572D01*
X467104Y131617D01*
X467166Y131654D01*
X467207Y131701D01*
X467255Y131740D01*
X467295Y131799D01*
X467342Y131853D01*
X467368Y131909D01*
X467402Y131961D01*
X467413Y132008D01*
X467452Y132095D01*
X467479Y132307D01*
X467486Y132338D01*
X467486Y153412D01*
X467477Y153474D01*
X467478Y153536D01*
X467457Y153604D01*
X467446Y153675D01*
X467420Y153731D01*
X467402Y153790D01*
X467362Y153850D01*
X467331Y153914D01*
X467288Y153960D01*
X467254Y154011D01*
X467215Y154039D01*
X467149Y154109D01*
X466964Y154215D01*
X466938Y154233D01*
X466894Y154251D01*
X465401Y155744D01*
X464593Y157694D01*
X464593Y159806D01*
X465401Y161756D01*
X466894Y163249D01*
X468844Y164057D01*
X470956Y164057D01*
X472906Y163249D01*
X474399Y161756D01*
X475207Y159806D01*
X475207Y157694D01*
X474399Y155744D01*
X472906Y154251D01*
X472862Y154233D01*
X472809Y154201D01*
X472751Y154178D01*
X472696Y154133D01*
X472634Y154096D01*
X472593Y154049D01*
X472545Y154010D01*
X472505Y153951D01*
X472458Y153897D01*
X472432Y153841D01*
X472398Y153789D01*
X472387Y153742D01*
X472348Y153655D01*
X472321Y153443D01*
X472314Y153412D01*
X472314Y132338D01*
X472323Y132276D01*
X472322Y132214D01*
X472343Y132146D01*
X472354Y132075D01*
X472380Y132019D01*
X472398Y131960D01*
X472438Y131900D01*
X472469Y131836D01*
X472512Y131790D01*
X472546Y131739D01*
X472585Y131711D01*
X472651Y131641D01*
X472836Y131535D01*
X472862Y131517D01*
X472906Y131499D01*
X474399Y130006D01*
X475207Y128056D01*
X475207Y125944D01*
X474399Y123994D01*
X472906Y122501D01*
X470956Y121693D01*
X468844Y121693D01*
G37*
%LPD*%
%LPC*%
G36*
X2297644Y140743D02*
X2297644Y140743D01*
X2295694Y141551D01*
X2294201Y143044D01*
X2293393Y144994D01*
X2293393Y147106D01*
X2294201Y149056D01*
X2295694Y150549D01*
X2295738Y150567D01*
X2295791Y150599D01*
X2295849Y150622D01*
X2295887Y150653D01*
X2295900Y150660D01*
X2295916Y150674D01*
X2295966Y150704D01*
X2296007Y150751D01*
X2296055Y150790D01*
X2296080Y150828D01*
X2296094Y150841D01*
X2296107Y150863D01*
X2296142Y150903D01*
X2296168Y150959D01*
X2296202Y151011D01*
X2296209Y151042D01*
X2296226Y151072D01*
X2296233Y151103D01*
X2296252Y151145D01*
X2296266Y151248D01*
X2296284Y151331D01*
X2296281Y151366D01*
X2296286Y151388D01*
X2296286Y153412D01*
X2296277Y153474D01*
X2296278Y153536D01*
X2296257Y153604D01*
X2296246Y153675D01*
X2296220Y153731D01*
X2296202Y153790D01*
X2296162Y153850D01*
X2296131Y153914D01*
X2296088Y153960D01*
X2296054Y154011D01*
X2296015Y154039D01*
X2295949Y154109D01*
X2295764Y154215D01*
X2295738Y154233D01*
X2295694Y154251D01*
X2294201Y155744D01*
X2293393Y157694D01*
X2293393Y159806D01*
X2294201Y161756D01*
X2295694Y163249D01*
X2297644Y164057D01*
X2299756Y164057D01*
X2301706Y163249D01*
X2303199Y161756D01*
X2304007Y159806D01*
X2304007Y157694D01*
X2303199Y155744D01*
X2301706Y154251D01*
X2301662Y154233D01*
X2301609Y154201D01*
X2301551Y154178D01*
X2301496Y154133D01*
X2301434Y154096D01*
X2301393Y154049D01*
X2301345Y154010D01*
X2301305Y153951D01*
X2301258Y153897D01*
X2301232Y153841D01*
X2301198Y153789D01*
X2301187Y153742D01*
X2301148Y153655D01*
X2301121Y153443D01*
X2301114Y153412D01*
X2301114Y151388D01*
X2301123Y151326D01*
X2301122Y151264D01*
X2301135Y151223D01*
X2301137Y151189D01*
X2301148Y151163D01*
X2301154Y151125D01*
X2301180Y151069D01*
X2301198Y151010D01*
X2301226Y150968D01*
X2301236Y150942D01*
X2301250Y150925D01*
X2301269Y150886D01*
X2301312Y150840D01*
X2301346Y150789D01*
X2301381Y150764D01*
X2301404Y150736D01*
X2301418Y150726D01*
X2301451Y150691D01*
X2301590Y150612D01*
X2301625Y150588D01*
X2301635Y150586D01*
X2301636Y150585D01*
X2301662Y150567D01*
X2301706Y150549D01*
X2303199Y149056D01*
X2304007Y147106D01*
X2304007Y144994D01*
X2303199Y143044D01*
X2301706Y141551D01*
X2299756Y140743D01*
X2297644Y140743D01*
G37*
%LPD*%
%LPC*%
G36*
X262127Y27177D02*
X262127Y27177D01*
X262127Y37206D01*
X263146Y37045D01*
X264933Y36464D01*
X266607Y35611D01*
X268128Y34506D01*
X269456Y33178D01*
X270561Y31657D01*
X271414Y29983D01*
X271995Y28196D01*
X272156Y27177D01*
X262127Y27177D01*
G37*
%LPD*%
%LPC*%
G36*
X344677Y27177D02*
X344677Y27177D01*
X344677Y37206D01*
X345696Y37045D01*
X347483Y36464D01*
X349157Y35611D01*
X350678Y34506D01*
X352006Y33178D01*
X353111Y31657D01*
X353964Y29983D01*
X354545Y28196D01*
X354706Y27177D01*
X344677Y27177D01*
G37*
%LPD*%
%LPC*%
G36*
X33527Y77977D02*
X33527Y77977D01*
X33527Y88006D01*
X34546Y87845D01*
X36333Y87264D01*
X38007Y86411D01*
X39528Y85306D01*
X40856Y83978D01*
X41961Y82457D01*
X42814Y80783D01*
X43395Y78996D01*
X43556Y77977D01*
X33527Y77977D01*
G37*
%LPD*%
%LPC*%
G36*
X39877Y204977D02*
X39877Y204977D01*
X39877Y215006D01*
X40896Y214845D01*
X42683Y214264D01*
X44357Y213411D01*
X45878Y212306D01*
X47206Y210978D01*
X48311Y209457D01*
X49164Y207783D01*
X49745Y205996D01*
X49906Y204977D01*
X39877Y204977D01*
G37*
%LPD*%
%LPC*%
G36*
X258952Y217677D02*
X258952Y217677D01*
X258952Y227706D01*
X259971Y227545D01*
X261758Y226964D01*
X263432Y226111D01*
X264953Y225006D01*
X266281Y223678D01*
X267386Y222157D01*
X268239Y220483D01*
X268820Y218696D01*
X268981Y217677D01*
X258952Y217677D01*
G37*
%LPD*%
%LPC*%
G36*
X26294Y204977D02*
X26294Y204977D01*
X26455Y205996D01*
X27036Y207783D01*
X27889Y209457D01*
X28994Y210978D01*
X30322Y212306D01*
X31843Y213411D01*
X33517Y214264D01*
X35304Y214845D01*
X36323Y215006D01*
X36323Y204977D01*
X26294Y204977D01*
G37*
%LPD*%
%LPC*%
G36*
X19944Y77977D02*
X19944Y77977D01*
X20105Y78996D01*
X20686Y80783D01*
X21539Y82457D01*
X22644Y83978D01*
X23972Y85306D01*
X25493Y86411D01*
X27167Y87264D01*
X28954Y87845D01*
X29973Y88006D01*
X29973Y77977D01*
X19944Y77977D01*
G37*
%LPD*%
%LPC*%
G36*
X262127Y23623D02*
X262127Y23623D01*
X272156Y23623D01*
X271995Y22604D01*
X271414Y20817D01*
X270561Y19143D01*
X269456Y17622D01*
X268128Y16294D01*
X266607Y15189D01*
X264933Y14336D01*
X263146Y13755D01*
X262127Y13594D01*
X262127Y23623D01*
G37*
%LPD*%
%LPC*%
G36*
X344677Y23623D02*
X344677Y23623D01*
X354706Y23623D01*
X354545Y22604D01*
X353964Y20817D01*
X353111Y19143D01*
X352006Y17622D01*
X350678Y16294D01*
X349157Y15189D01*
X347483Y14336D01*
X345696Y13755D01*
X344677Y13594D01*
X344677Y23623D01*
G37*
%LPD*%
%LPC*%
G36*
X331094Y27177D02*
X331094Y27177D01*
X331255Y28196D01*
X331836Y29983D01*
X332689Y31657D01*
X333794Y33178D01*
X335122Y34506D01*
X336643Y35611D01*
X338317Y36464D01*
X340104Y37045D01*
X341123Y37206D01*
X341123Y27177D01*
X331094Y27177D01*
G37*
%LPD*%
%LPC*%
G36*
X248544Y27177D02*
X248544Y27177D01*
X248705Y28196D01*
X249286Y29983D01*
X250139Y31657D01*
X251244Y33178D01*
X252572Y34506D01*
X254093Y35611D01*
X255767Y36464D01*
X257554Y37045D01*
X258573Y37206D01*
X258573Y27177D01*
X248544Y27177D01*
G37*
%LPD*%
%LPC*%
G36*
X33527Y74423D02*
X33527Y74423D01*
X43556Y74423D01*
X43395Y73404D01*
X42814Y71617D01*
X41961Y69943D01*
X40856Y68422D01*
X39528Y67094D01*
X38007Y65989D01*
X36333Y65136D01*
X34546Y64555D01*
X33527Y64394D01*
X33527Y74423D01*
G37*
%LPD*%
%LPC*%
G36*
X245369Y217677D02*
X245369Y217677D01*
X245530Y218696D01*
X246111Y220483D01*
X246964Y222157D01*
X248069Y223678D01*
X249397Y225006D01*
X250918Y226111D01*
X252592Y226964D01*
X254379Y227545D01*
X255398Y227706D01*
X255398Y217677D01*
X245369Y217677D01*
G37*
%LPD*%
%LPC*%
G36*
X258952Y214123D02*
X258952Y214123D01*
X268981Y214123D01*
X268820Y213104D01*
X268239Y211317D01*
X267386Y209643D01*
X266281Y208122D01*
X264953Y206794D01*
X263432Y205689D01*
X261758Y204836D01*
X259971Y204255D01*
X258952Y204094D01*
X258952Y214123D01*
G37*
%LPD*%
%LPC*%
G36*
X39877Y201423D02*
X39877Y201423D01*
X49906Y201423D01*
X49745Y200404D01*
X49164Y198617D01*
X48311Y196943D01*
X47206Y195422D01*
X45878Y194094D01*
X44357Y192989D01*
X42683Y192136D01*
X40896Y191555D01*
X39877Y191394D01*
X39877Y201423D01*
G37*
%LPD*%
%LPC*%
G36*
X340104Y13755D02*
X340104Y13755D01*
X338317Y14336D01*
X336643Y15189D01*
X335122Y16294D01*
X333794Y17622D01*
X332689Y19143D01*
X331836Y20817D01*
X331255Y22604D01*
X331094Y23623D01*
X341123Y23623D01*
X341123Y13594D01*
X340104Y13755D01*
G37*
%LPD*%
%LPC*%
G36*
X28954Y64555D02*
X28954Y64555D01*
X27167Y65136D01*
X25493Y65989D01*
X23972Y67094D01*
X22644Y68422D01*
X21539Y69943D01*
X20686Y71617D01*
X20105Y73404D01*
X19944Y74423D01*
X29973Y74423D01*
X29973Y64394D01*
X28954Y64555D01*
G37*
%LPD*%
%LPC*%
G36*
X257554Y13755D02*
X257554Y13755D01*
X255767Y14336D01*
X254093Y15189D01*
X252572Y16294D01*
X251244Y17622D01*
X250139Y19143D01*
X249286Y20817D01*
X248705Y22604D01*
X248544Y23623D01*
X258573Y23623D01*
X258573Y13594D01*
X257554Y13755D01*
G37*
%LPD*%
%LPC*%
G36*
X254379Y204255D02*
X254379Y204255D01*
X252592Y204836D01*
X250918Y205689D01*
X249397Y206794D01*
X248069Y208122D01*
X246964Y209643D01*
X246111Y211317D01*
X245530Y213104D01*
X245369Y214123D01*
X255398Y214123D01*
X255398Y204094D01*
X254379Y204255D01*
G37*
%LPD*%
%LPC*%
G36*
X35304Y191555D02*
X35304Y191555D01*
X33517Y192136D01*
X31843Y192989D01*
X30322Y194094D01*
X28994Y195422D01*
X27889Y196943D01*
X27036Y198617D01*
X26455Y200404D01*
X26294Y201423D01*
X36323Y201423D01*
X36323Y191394D01*
X35304Y191555D01*
G37*
%LPD*%
%LPC*%
G36*
X1195299Y77699D02*
X1195299Y77699D01*
X1195299Y89681D01*
X1196157Y89510D01*
X1197628Y88901D01*
X1198951Y88017D01*
X1200077Y86891D01*
X1200961Y85568D01*
X1201570Y84097D01*
X1201881Y82536D01*
X1201881Y77699D01*
X1195299Y77699D01*
G37*
%LPD*%
%LPC*%
G36*
X1169899Y77699D02*
X1169899Y77699D01*
X1169899Y89681D01*
X1170757Y89510D01*
X1172228Y88901D01*
X1173551Y88017D01*
X1174677Y86891D01*
X1175561Y85568D01*
X1176170Y84097D01*
X1176481Y82536D01*
X1176481Y77699D01*
X1169899Y77699D01*
G37*
%LPD*%
%LPC*%
G36*
X915899Y77699D02*
X915899Y77699D01*
X915899Y89681D01*
X916757Y89510D01*
X918228Y88901D01*
X919551Y88017D01*
X920677Y86891D01*
X921561Y85568D01*
X922170Y84097D01*
X922481Y82536D01*
X922481Y77699D01*
X915899Y77699D01*
G37*
%LPD*%
%LPC*%
G36*
X687299Y77699D02*
X687299Y77699D01*
X687299Y89681D01*
X688157Y89510D01*
X689628Y88901D01*
X690951Y88017D01*
X692077Y86891D01*
X692961Y85568D01*
X693570Y84097D01*
X693881Y82536D01*
X693881Y77699D01*
X687299Y77699D01*
G37*
%LPD*%
%LPC*%
G36*
X661899Y77699D02*
X661899Y77699D01*
X661899Y89681D01*
X662757Y89510D01*
X664228Y88901D01*
X665551Y88017D01*
X666677Y86891D01*
X667561Y85568D01*
X668170Y84097D01*
X668481Y82536D01*
X668481Y77699D01*
X661899Y77699D01*
G37*
%LPD*%
%LPC*%
G36*
X433299Y77699D02*
X433299Y77699D01*
X433299Y89681D01*
X434157Y89510D01*
X435628Y88901D01*
X436951Y88017D01*
X438077Y86891D01*
X438961Y85568D01*
X439570Y84097D01*
X439881Y82536D01*
X439881Y77699D01*
X433299Y77699D01*
G37*
%LPD*%
%LPC*%
G36*
X1931899Y77699D02*
X1931899Y77699D01*
X1931899Y89681D01*
X1932757Y89510D01*
X1934228Y88901D01*
X1935551Y88017D01*
X1936677Y86891D01*
X1937561Y85568D01*
X1938170Y84097D01*
X1938481Y82536D01*
X1938481Y77699D01*
X1931899Y77699D01*
G37*
%LPD*%
%LPC*%
G36*
X2211299Y77699D02*
X2211299Y77699D01*
X2211299Y89681D01*
X2212157Y89510D01*
X2213628Y88901D01*
X2214951Y88017D01*
X2216077Y86891D01*
X2216961Y85568D01*
X2217570Y84097D01*
X2217881Y82536D01*
X2217881Y77699D01*
X2211299Y77699D01*
G37*
%LPD*%
%LPC*%
G36*
X2185899Y77699D02*
X2185899Y77699D01*
X2185899Y89681D01*
X2186757Y89510D01*
X2188228Y88901D01*
X2189551Y88017D01*
X2190677Y86891D01*
X2191561Y85568D01*
X2192170Y84097D01*
X2192481Y82536D01*
X2192481Y77699D01*
X2185899Y77699D01*
G37*
%LPD*%
%LPC*%
G36*
X1957299Y77699D02*
X1957299Y77699D01*
X1957299Y89681D01*
X1958157Y89510D01*
X1959628Y88901D01*
X1960951Y88017D01*
X1962077Y86891D01*
X1962961Y85568D01*
X1963570Y84097D01*
X1963881Y82536D01*
X1963881Y77699D01*
X1957299Y77699D01*
G37*
%LPD*%
%LPC*%
G36*
X941299Y77699D02*
X941299Y77699D01*
X941299Y89681D01*
X942157Y89510D01*
X943628Y88901D01*
X944951Y88017D01*
X946077Y86891D01*
X946961Y85568D01*
X947570Y84097D01*
X947881Y82536D01*
X947881Y77699D01*
X941299Y77699D01*
G37*
%LPD*%
%LPC*%
G36*
X1423899Y77699D02*
X1423899Y77699D01*
X1423899Y89681D01*
X1424757Y89510D01*
X1426228Y88901D01*
X1427551Y88017D01*
X1428677Y86891D01*
X1429561Y85568D01*
X1430170Y84097D01*
X1430481Y82536D01*
X1430481Y77699D01*
X1423899Y77699D01*
G37*
%LPD*%
%LPC*%
G36*
X1703299Y77699D02*
X1703299Y77699D01*
X1703299Y89681D01*
X1704157Y89510D01*
X1705628Y88901D01*
X1706951Y88017D01*
X1708077Y86891D01*
X1708961Y85568D01*
X1709570Y84097D01*
X1709881Y82536D01*
X1709881Y77699D01*
X1703299Y77699D01*
G37*
%LPD*%
%LPC*%
G36*
X1677899Y77699D02*
X1677899Y77699D01*
X1677899Y89681D01*
X1678757Y89510D01*
X1680228Y88901D01*
X1681551Y88017D01*
X1682677Y86891D01*
X1683561Y85568D01*
X1684170Y84097D01*
X1684481Y82536D01*
X1684481Y77699D01*
X1677899Y77699D01*
G37*
%LPD*%
%LPC*%
G36*
X1449299Y77699D02*
X1449299Y77699D01*
X1449299Y89681D01*
X1450157Y89510D01*
X1451628Y88901D01*
X1452951Y88017D01*
X1454077Y86891D01*
X1454961Y85568D01*
X1455570Y84097D01*
X1455881Y82536D01*
X1455881Y77699D01*
X1449299Y77699D01*
G37*
%LPD*%
%LPC*%
G36*
X2439899Y77699D02*
X2439899Y77699D01*
X2439899Y89681D01*
X2440757Y89510D01*
X2442228Y88901D01*
X2443551Y88017D01*
X2444677Y86891D01*
X2445561Y85568D01*
X2446170Y84097D01*
X2446481Y82536D01*
X2446481Y77699D01*
X2439899Y77699D01*
G37*
%LPD*%
%LPC*%
G36*
X915899Y74701D02*
X915899Y74701D01*
X922481Y74701D01*
X922481Y69864D01*
X922170Y68303D01*
X921561Y66832D01*
X920677Y65509D01*
X919551Y64383D01*
X918228Y63499D01*
X916757Y62890D01*
X915899Y62719D01*
X915899Y74701D01*
G37*
%LPD*%
%LPC*%
G36*
X2211299Y74701D02*
X2211299Y74701D01*
X2217881Y74701D01*
X2217881Y69864D01*
X2217570Y68303D01*
X2216961Y66832D01*
X2216077Y65509D01*
X2214951Y64383D01*
X2213628Y63499D01*
X2212157Y62890D01*
X2211299Y62719D01*
X2211299Y74701D01*
G37*
%LPD*%
%LPC*%
G36*
X1449299Y74701D02*
X1449299Y74701D01*
X1455881Y74701D01*
X1455881Y69864D01*
X1455570Y68303D01*
X1454961Y66832D01*
X1454077Y65509D01*
X1452951Y64383D01*
X1451628Y63499D01*
X1450157Y62890D01*
X1449299Y62719D01*
X1449299Y74701D01*
G37*
%LPD*%
%LPC*%
G36*
X2439899Y74701D02*
X2439899Y74701D01*
X2446481Y74701D01*
X2446481Y69864D01*
X2446170Y68303D01*
X2445561Y66832D01*
X2444677Y65509D01*
X2443551Y64383D01*
X2442228Y63499D01*
X2440757Y62890D01*
X2439899Y62719D01*
X2439899Y74701D01*
G37*
%LPD*%
%LPC*%
G36*
X1423899Y74701D02*
X1423899Y74701D01*
X1430481Y74701D01*
X1430481Y69864D01*
X1430170Y68303D01*
X1429561Y66832D01*
X1428677Y65509D01*
X1427551Y64383D01*
X1426228Y63499D01*
X1424757Y62890D01*
X1423899Y62719D01*
X1423899Y74701D01*
G37*
%LPD*%
%LPC*%
G36*
X1195299Y74701D02*
X1195299Y74701D01*
X1201881Y74701D01*
X1201881Y69864D01*
X1201570Y68303D01*
X1200961Y66832D01*
X1200077Y65509D01*
X1198951Y64383D01*
X1197628Y63499D01*
X1196157Y62890D01*
X1195299Y62719D01*
X1195299Y74701D01*
G37*
%LPD*%
%LPC*%
G36*
X433299Y74701D02*
X433299Y74701D01*
X439881Y74701D01*
X439881Y69864D01*
X439570Y68303D01*
X438961Y66832D01*
X438077Y65509D01*
X436951Y64383D01*
X435628Y63499D01*
X434157Y62890D01*
X433299Y62719D01*
X433299Y74701D01*
G37*
%LPD*%
%LPC*%
G36*
X1169899Y74701D02*
X1169899Y74701D01*
X1176481Y74701D01*
X1176481Y69864D01*
X1176170Y68303D01*
X1175561Y66832D01*
X1174677Y65509D01*
X1173551Y64383D01*
X1172228Y63499D01*
X1170757Y62890D01*
X1169899Y62719D01*
X1169899Y74701D01*
G37*
%LPD*%
%LPC*%
G36*
X941299Y74701D02*
X941299Y74701D01*
X947881Y74701D01*
X947881Y69864D01*
X947570Y68303D01*
X946961Y66832D01*
X946077Y65509D01*
X944951Y64383D01*
X943628Y63499D01*
X942157Y62890D01*
X941299Y62719D01*
X941299Y74701D01*
G37*
%LPD*%
%LPC*%
G36*
X1957299Y74701D02*
X1957299Y74701D01*
X1963881Y74701D01*
X1963881Y69864D01*
X1963570Y68303D01*
X1962961Y66832D01*
X1962077Y65509D01*
X1960951Y64383D01*
X1959628Y63499D01*
X1958157Y62890D01*
X1957299Y62719D01*
X1957299Y74701D01*
G37*
%LPD*%
%LPC*%
G36*
X687299Y74701D02*
X687299Y74701D01*
X693881Y74701D01*
X693881Y69864D01*
X693570Y68303D01*
X692961Y66832D01*
X692077Y65509D01*
X690951Y64383D01*
X689628Y63499D01*
X688157Y62890D01*
X687299Y62719D01*
X687299Y74701D01*
G37*
%LPD*%
%LPC*%
G36*
X661899Y74701D02*
X661899Y74701D01*
X668481Y74701D01*
X668481Y69864D01*
X668170Y68303D01*
X667561Y66832D01*
X666677Y65509D01*
X665551Y64383D01*
X664228Y63499D01*
X662757Y62890D01*
X661899Y62719D01*
X661899Y74701D01*
G37*
%LPD*%
%LPC*%
G36*
X2185899Y74701D02*
X2185899Y74701D01*
X2192481Y74701D01*
X2192481Y69864D01*
X2192170Y68303D01*
X2191561Y66832D01*
X2190677Y65509D01*
X2189551Y64383D01*
X2188228Y63499D01*
X2186757Y62890D01*
X2185899Y62719D01*
X2185899Y74701D01*
G37*
%LPD*%
%LPC*%
G36*
X1931899Y74701D02*
X1931899Y74701D01*
X1938481Y74701D01*
X1938481Y69864D01*
X1938170Y68303D01*
X1937561Y66832D01*
X1936677Y65509D01*
X1935551Y64383D01*
X1934228Y63499D01*
X1932757Y62890D01*
X1931899Y62719D01*
X1931899Y74701D01*
G37*
%LPD*%
%LPC*%
G36*
X1677899Y74701D02*
X1677899Y74701D01*
X1684481Y74701D01*
X1684481Y69864D01*
X1684170Y68303D01*
X1683561Y66832D01*
X1682677Y65509D01*
X1681551Y64383D01*
X1680228Y63499D01*
X1678757Y62890D01*
X1677899Y62719D01*
X1677899Y74701D01*
G37*
%LPD*%
%LPC*%
G36*
X1703299Y74701D02*
X1703299Y74701D01*
X1709881Y74701D01*
X1709881Y69864D01*
X1709570Y68303D01*
X1708961Y66832D01*
X1708077Y65509D01*
X1706951Y64383D01*
X1705628Y63499D01*
X1704157Y62890D01*
X1703299Y62719D01*
X1703299Y74701D01*
G37*
%LPD*%
%LPC*%
G36*
X652319Y77699D02*
X652319Y77699D01*
X652319Y82536D01*
X652630Y84097D01*
X653239Y85568D01*
X654123Y86891D01*
X655249Y88017D01*
X656572Y88901D01*
X658043Y89510D01*
X658901Y89681D01*
X658901Y77699D01*
X652319Y77699D01*
G37*
%LPD*%
%LPC*%
G36*
X906319Y77699D02*
X906319Y77699D01*
X906319Y82536D01*
X906630Y84097D01*
X907239Y85568D01*
X908123Y86891D01*
X909249Y88017D01*
X910572Y88901D01*
X912043Y89510D01*
X912901Y89681D01*
X912901Y77699D01*
X906319Y77699D01*
G37*
%LPD*%
%LPC*%
G36*
X677719Y77699D02*
X677719Y77699D01*
X677719Y82536D01*
X678030Y84097D01*
X678639Y85568D01*
X679523Y86891D01*
X680649Y88017D01*
X681972Y88901D01*
X683443Y89510D01*
X684301Y89681D01*
X684301Y77699D01*
X677719Y77699D01*
G37*
%LPD*%
%LPC*%
G36*
X931719Y77699D02*
X931719Y77699D01*
X931719Y82536D01*
X932030Y84097D01*
X932639Y85568D01*
X933523Y86891D01*
X934649Y88017D01*
X935972Y88901D01*
X937443Y89510D01*
X938301Y89681D01*
X938301Y77699D01*
X931719Y77699D01*
G37*
%LPD*%
%LPC*%
G36*
X423719Y77699D02*
X423719Y77699D01*
X423719Y82536D01*
X424030Y84097D01*
X424639Y85568D01*
X425523Y86891D01*
X426649Y88017D01*
X427972Y88901D01*
X429443Y89510D01*
X430301Y89681D01*
X430301Y77699D01*
X423719Y77699D01*
G37*
%LPD*%
%LPC*%
G36*
X1668319Y77699D02*
X1668319Y77699D01*
X1668319Y82536D01*
X1668630Y84097D01*
X1669239Y85568D01*
X1670123Y86891D01*
X1671249Y88017D01*
X1672572Y88901D01*
X1674043Y89510D01*
X1674901Y89681D01*
X1674901Y77699D01*
X1668319Y77699D01*
G37*
%LPD*%
%LPC*%
G36*
X1160319Y77699D02*
X1160319Y77699D01*
X1160319Y82536D01*
X1160630Y84097D01*
X1161239Y85568D01*
X1162123Y86891D01*
X1163249Y88017D01*
X1164572Y88901D01*
X1166043Y89510D01*
X1166901Y89681D01*
X1166901Y77699D01*
X1160319Y77699D01*
G37*
%LPD*%
%LPC*%
G36*
X1922319Y77699D02*
X1922319Y77699D01*
X1922319Y82536D01*
X1922630Y84097D01*
X1923239Y85568D01*
X1924123Y86891D01*
X1925249Y88017D01*
X1926572Y88901D01*
X1928043Y89510D01*
X1928901Y89681D01*
X1928901Y77699D01*
X1922319Y77699D01*
G37*
%LPD*%
%LPC*%
G36*
X1947719Y77699D02*
X1947719Y77699D01*
X1947719Y82536D01*
X1948030Y84097D01*
X1948639Y85568D01*
X1949523Y86891D01*
X1950649Y88017D01*
X1951972Y88901D01*
X1953443Y89510D01*
X1954301Y89681D01*
X1954301Y77699D01*
X1947719Y77699D01*
G37*
%LPD*%
%LPC*%
G36*
X2176319Y77699D02*
X2176319Y77699D01*
X2176319Y82536D01*
X2176630Y84097D01*
X2177239Y85568D01*
X2178123Y86891D01*
X2179249Y88017D01*
X2180572Y88901D01*
X2182043Y89510D01*
X2182901Y89681D01*
X2182901Y77699D01*
X2176319Y77699D01*
G37*
%LPD*%
%LPC*%
G36*
X2201719Y77699D02*
X2201719Y77699D01*
X2201719Y82536D01*
X2202030Y84097D01*
X2202639Y85568D01*
X2203523Y86891D01*
X2204649Y88017D01*
X2205972Y88901D01*
X2207443Y89510D01*
X2208301Y89681D01*
X2208301Y77699D01*
X2201719Y77699D01*
G37*
%LPD*%
%LPC*%
G36*
X1693719Y77699D02*
X1693719Y77699D01*
X1693719Y82536D01*
X1694030Y84097D01*
X1694639Y85568D01*
X1695523Y86891D01*
X1696649Y88017D01*
X1697972Y88901D01*
X1699443Y89510D01*
X1700301Y89681D01*
X1700301Y77699D01*
X1693719Y77699D01*
G37*
%LPD*%
%LPC*%
G36*
X2430319Y77699D02*
X2430319Y77699D01*
X2430319Y82536D01*
X2430630Y84097D01*
X2431239Y85568D01*
X2432123Y86891D01*
X2433249Y88017D01*
X2434572Y88901D01*
X2436043Y89510D01*
X2436901Y89681D01*
X2436901Y77699D01*
X2430319Y77699D01*
G37*
%LPD*%
%LPC*%
G36*
X1185719Y77699D02*
X1185719Y77699D01*
X1185719Y82536D01*
X1186030Y84097D01*
X1186639Y85568D01*
X1187523Y86891D01*
X1188649Y88017D01*
X1189972Y88901D01*
X1191443Y89510D01*
X1192301Y89681D01*
X1192301Y77699D01*
X1185719Y77699D01*
G37*
%LPD*%
%LPC*%
G36*
X1414319Y77699D02*
X1414319Y77699D01*
X1414319Y82536D01*
X1414630Y84097D01*
X1415239Y85568D01*
X1416123Y86891D01*
X1417249Y88017D01*
X1418572Y88901D01*
X1420043Y89510D01*
X1420901Y89681D01*
X1420901Y77699D01*
X1414319Y77699D01*
G37*
%LPD*%
%LPC*%
G36*
X1439719Y77699D02*
X1439719Y77699D01*
X1439719Y82536D01*
X1440030Y84097D01*
X1440639Y85568D01*
X1441523Y86891D01*
X1442649Y88017D01*
X1443972Y88901D01*
X1445443Y89510D01*
X1446301Y89681D01*
X1446301Y77699D01*
X1439719Y77699D01*
G37*
%LPD*%
%LPC*%
G36*
X1191443Y62890D02*
X1191443Y62890D01*
X1189972Y63499D01*
X1188649Y64383D01*
X1187523Y65509D01*
X1186639Y66832D01*
X1186030Y68303D01*
X1185719Y69864D01*
X1185719Y74701D01*
X1192301Y74701D01*
X1192301Y62719D01*
X1191443Y62890D01*
G37*
%LPD*%
%LPC*%
G36*
X1166043Y62890D02*
X1166043Y62890D01*
X1164572Y63499D01*
X1163249Y64383D01*
X1162123Y65509D01*
X1161239Y66832D01*
X1160630Y68303D01*
X1160319Y69864D01*
X1160319Y74701D01*
X1166901Y74701D01*
X1166901Y62719D01*
X1166043Y62890D01*
G37*
%LPD*%
%LPC*%
G36*
X1445443Y62890D02*
X1445443Y62890D01*
X1443972Y63499D01*
X1442649Y64383D01*
X1441523Y65509D01*
X1440639Y66832D01*
X1440030Y68303D01*
X1439719Y69864D01*
X1439719Y74701D01*
X1446301Y74701D01*
X1446301Y62719D01*
X1445443Y62890D01*
G37*
%LPD*%
%LPC*%
G36*
X2207443Y62890D02*
X2207443Y62890D01*
X2205972Y63499D01*
X2204649Y64383D01*
X2203523Y65509D01*
X2202639Y66832D01*
X2202030Y68303D01*
X2201719Y69864D01*
X2201719Y74701D01*
X2208301Y74701D01*
X2208301Y62719D01*
X2207443Y62890D01*
G37*
%LPD*%
%LPC*%
G36*
X429443Y62890D02*
X429443Y62890D01*
X427972Y63499D01*
X426649Y64383D01*
X425523Y65509D01*
X424639Y66832D01*
X424030Y68303D01*
X423719Y69864D01*
X423719Y74701D01*
X430301Y74701D01*
X430301Y62719D01*
X429443Y62890D01*
G37*
%LPD*%
%LPC*%
G36*
X937443Y62890D02*
X937443Y62890D01*
X935972Y63499D01*
X934649Y64383D01*
X933523Y65509D01*
X932639Y66832D01*
X932030Y68303D01*
X931719Y69864D01*
X931719Y74701D01*
X938301Y74701D01*
X938301Y62719D01*
X937443Y62890D01*
G37*
%LPD*%
%LPC*%
G36*
X912043Y62890D02*
X912043Y62890D01*
X910572Y63499D01*
X909249Y64383D01*
X908123Y65509D01*
X907239Y66832D01*
X906630Y68303D01*
X906319Y69864D01*
X906319Y74701D01*
X912901Y74701D01*
X912901Y62719D01*
X912043Y62890D01*
G37*
%LPD*%
%LPC*%
G36*
X1674043Y62890D02*
X1674043Y62890D01*
X1672572Y63499D01*
X1671249Y64383D01*
X1670123Y65509D01*
X1669239Y66832D01*
X1668630Y68303D01*
X1668319Y69864D01*
X1668319Y74701D01*
X1674901Y74701D01*
X1674901Y62719D01*
X1674043Y62890D01*
G37*
%LPD*%
%LPC*%
G36*
X683443Y62890D02*
X683443Y62890D01*
X681972Y63499D01*
X680649Y64383D01*
X679523Y65509D01*
X678639Y66832D01*
X678030Y68303D01*
X677719Y69864D01*
X677719Y74701D01*
X684301Y74701D01*
X684301Y62719D01*
X683443Y62890D01*
G37*
%LPD*%
%LPC*%
G36*
X1953443Y62890D02*
X1953443Y62890D01*
X1951972Y63499D01*
X1950649Y64383D01*
X1949523Y65509D01*
X1948639Y66832D01*
X1948030Y68303D01*
X1947719Y69864D01*
X1947719Y74701D01*
X1954301Y74701D01*
X1954301Y62719D01*
X1953443Y62890D01*
G37*
%LPD*%
%LPC*%
G36*
X2182043Y62890D02*
X2182043Y62890D01*
X2180572Y63499D01*
X2179249Y64383D01*
X2178123Y65509D01*
X2177239Y66832D01*
X2176630Y68303D01*
X2176319Y69864D01*
X2176319Y74701D01*
X2182901Y74701D01*
X2182901Y62719D01*
X2182043Y62890D01*
G37*
%LPD*%
%LPC*%
G36*
X2436043Y62890D02*
X2436043Y62890D01*
X2434572Y63499D01*
X2433249Y64383D01*
X2432123Y65509D01*
X2431239Y66832D01*
X2430630Y68303D01*
X2430319Y69864D01*
X2430319Y74701D01*
X2436901Y74701D01*
X2436901Y62719D01*
X2436043Y62890D01*
G37*
%LPD*%
%LPC*%
G36*
X1928043Y62890D02*
X1928043Y62890D01*
X1926572Y63499D01*
X1925249Y64383D01*
X1924123Y65509D01*
X1923239Y66832D01*
X1922630Y68303D01*
X1922319Y69864D01*
X1922319Y74701D01*
X1928901Y74701D01*
X1928901Y62719D01*
X1928043Y62890D01*
G37*
%LPD*%
%LPC*%
G36*
X1699443Y62890D02*
X1699443Y62890D01*
X1697972Y63499D01*
X1696649Y64383D01*
X1695523Y65509D01*
X1694639Y66832D01*
X1694030Y68303D01*
X1693719Y69864D01*
X1693719Y74701D01*
X1700301Y74701D01*
X1700301Y62719D01*
X1699443Y62890D01*
G37*
%LPD*%
%LPC*%
G36*
X658043Y62890D02*
X658043Y62890D01*
X656572Y63499D01*
X655249Y64383D01*
X654123Y65509D01*
X653239Y66832D01*
X652630Y68303D01*
X652319Y69864D01*
X652319Y74701D01*
X658901Y74701D01*
X658901Y62719D01*
X658043Y62890D01*
G37*
%LPD*%
%LPC*%
G36*
X1420043Y62890D02*
X1420043Y62890D01*
X1418572Y63499D01*
X1417249Y64383D01*
X1416123Y65509D01*
X1415239Y66832D01*
X1414630Y68303D01*
X1414319Y69864D01*
X1414319Y74701D01*
X1420901Y74701D01*
X1420901Y62719D01*
X1420043Y62890D01*
G37*
%LPD*%
%LPC*%
G36*
X239902Y141477D02*
X239902Y141477D01*
X239902Y150220D01*
X240623Y150106D01*
X242220Y149587D01*
X243717Y148825D01*
X245075Y147838D01*
X246263Y146650D01*
X247250Y145292D01*
X248012Y143795D01*
X248531Y142198D01*
X248645Y141477D01*
X239902Y141477D01*
G37*
%LPD*%
%LPC*%
G36*
X227605Y141477D02*
X227605Y141477D01*
X227719Y142198D01*
X228238Y143795D01*
X229000Y145292D01*
X229987Y146650D01*
X231175Y147838D01*
X232533Y148825D01*
X234030Y149587D01*
X235627Y150106D01*
X236348Y150220D01*
X236348Y141477D01*
X227605Y141477D01*
G37*
%LPD*%
%LPC*%
G36*
X235627Y129294D02*
X235627Y129294D01*
X234030Y129813D01*
X232533Y130575D01*
X231175Y131562D01*
X229987Y132750D01*
X229000Y134108D01*
X228238Y135605D01*
X227719Y137202D01*
X227605Y137923D01*
X236348Y137923D01*
X236348Y129180D01*
X235627Y129294D01*
G37*
%LPD*%
%LPC*%
G36*
X38099Y203199D02*
X38099Y203199D01*
X38099Y203201D01*
X38101Y203201D01*
X38101Y203199D01*
X38099Y203199D01*
G37*
%LPD*%
%LPC*%
G36*
X257174Y215899D02*
X257174Y215899D01*
X257174Y215901D01*
X257176Y215901D01*
X257176Y215899D01*
X257174Y215899D01*
G37*
%LPD*%
%LPC*%
G36*
X342899Y25399D02*
X342899Y25399D01*
X342899Y25401D01*
X342901Y25401D01*
X342901Y25399D01*
X342899Y25399D01*
G37*
%LPD*%
%LPC*%
G36*
X260349Y25399D02*
X260349Y25399D01*
X260349Y25401D01*
X260351Y25401D01*
X260351Y25399D01*
X260349Y25399D01*
G37*
%LPD*%
%LPC*%
G36*
X31749Y76199D02*
X31749Y76199D01*
X31749Y76201D01*
X31751Y76201D01*
X31751Y76199D01*
X31749Y76199D01*
G37*
%LPD*%
%LPC*%
G36*
X238124Y139699D02*
X238124Y139699D01*
X238124Y139701D01*
X238126Y139701D01*
X238126Y139699D01*
X238124Y139699D01*
G37*
%LPD*%
D10*
X212725Y165100D03*
X238125Y165100D03*
X238125Y190500D03*
X212725Y190500D03*
X212725Y139700D03*
X238125Y139700D03*
D11*
X38100Y203200D03*
X63500Y203200D03*
X311150Y25400D03*
X285750Y25400D03*
X260350Y25400D03*
X393700Y25400D03*
X368300Y25400D03*
X342900Y25400D03*
X31750Y101600D03*
X31750Y76200D03*
D12*
X431800Y43640D02*
X431800Y32560D01*
X457200Y32560D02*
X457200Y43640D01*
X482600Y43640D02*
X482600Y32560D01*
X508000Y32560D02*
X508000Y43640D01*
X533400Y43640D02*
X533400Y32560D01*
X558800Y32560D02*
X558800Y43640D01*
X584200Y43640D02*
X584200Y32560D01*
X609600Y32560D02*
X609600Y43640D01*
X635000Y43640D02*
X635000Y32560D01*
X660400Y32560D02*
X660400Y43640D01*
X431800Y70660D02*
X431800Y81740D01*
X660400Y81740D02*
X660400Y70660D01*
X685800Y43640D02*
X685800Y32560D01*
X711200Y32560D02*
X711200Y43640D01*
X736600Y43640D02*
X736600Y32560D01*
X762000Y32560D02*
X762000Y43640D01*
X787400Y43640D02*
X787400Y32560D01*
X812800Y32560D02*
X812800Y43640D01*
X838200Y43640D02*
X838200Y32560D01*
X863600Y32560D02*
X863600Y43640D01*
X889000Y43640D02*
X889000Y32560D01*
X914400Y32560D02*
X914400Y43640D01*
X685800Y70660D02*
X685800Y81740D01*
X914400Y81740D02*
X914400Y70660D01*
X939800Y43640D02*
X939800Y32560D01*
X965200Y32560D02*
X965200Y43640D01*
X990600Y43640D02*
X990600Y32560D01*
X1016000Y32560D02*
X1016000Y43640D01*
X1041400Y43640D02*
X1041400Y32560D01*
X1066800Y32560D02*
X1066800Y43640D01*
X1092200Y43640D02*
X1092200Y32560D01*
X1117600Y32560D02*
X1117600Y43640D01*
X1143000Y43640D02*
X1143000Y32560D01*
X1168400Y32560D02*
X1168400Y43640D01*
X939800Y70660D02*
X939800Y81740D01*
X1168400Y81740D02*
X1168400Y70660D01*
X1193800Y43640D02*
X1193800Y32560D01*
X1219200Y32560D02*
X1219200Y43640D01*
X1244600Y43640D02*
X1244600Y32560D01*
X1270000Y32560D02*
X1270000Y43640D01*
X1295400Y43640D02*
X1295400Y32560D01*
X1320800Y32560D02*
X1320800Y43640D01*
X1346200Y43640D02*
X1346200Y32560D01*
X1371600Y32560D02*
X1371600Y43640D01*
X1397000Y43640D02*
X1397000Y32560D01*
X1422400Y32560D02*
X1422400Y43640D01*
X1193800Y70660D02*
X1193800Y81740D01*
X1422400Y81740D02*
X1422400Y70660D01*
X1447800Y43640D02*
X1447800Y32560D01*
X1473200Y32560D02*
X1473200Y43640D01*
X1498600Y43640D02*
X1498600Y32560D01*
X1524000Y32560D02*
X1524000Y43640D01*
X1549400Y43640D02*
X1549400Y32560D01*
X1574800Y32560D02*
X1574800Y43640D01*
X1600200Y43640D02*
X1600200Y32560D01*
X1625600Y32560D02*
X1625600Y43640D01*
X1651000Y43640D02*
X1651000Y32560D01*
X1676400Y32560D02*
X1676400Y43640D01*
X1447800Y70660D02*
X1447800Y81740D01*
X1676400Y81740D02*
X1676400Y70660D01*
X1701800Y43640D02*
X1701800Y32560D01*
X1727200Y32560D02*
X1727200Y43640D01*
X1752600Y43640D02*
X1752600Y32560D01*
X1778000Y32560D02*
X1778000Y43640D01*
X1803400Y43640D02*
X1803400Y32560D01*
X1828800Y32560D02*
X1828800Y43640D01*
X1854200Y43640D02*
X1854200Y32560D01*
X1879600Y32560D02*
X1879600Y43640D01*
X1905000Y43640D02*
X1905000Y32560D01*
X1930400Y32560D02*
X1930400Y43640D01*
X1701800Y70660D02*
X1701800Y81740D01*
X1930400Y81740D02*
X1930400Y70660D01*
X1955800Y43640D02*
X1955800Y32560D01*
X1981200Y32560D02*
X1981200Y43640D01*
X2006600Y43640D02*
X2006600Y32560D01*
X2032000Y32560D02*
X2032000Y43640D01*
X2057400Y43640D02*
X2057400Y32560D01*
X2082800Y32560D02*
X2082800Y43640D01*
X2108200Y43640D02*
X2108200Y32560D01*
X2133600Y32560D02*
X2133600Y43640D01*
X2159000Y43640D02*
X2159000Y32560D01*
X2184400Y32560D02*
X2184400Y43640D01*
X1955800Y70660D02*
X1955800Y81740D01*
X2184400Y81740D02*
X2184400Y70660D01*
X2209800Y43640D02*
X2209800Y32560D01*
X2235200Y32560D02*
X2235200Y43640D01*
X2260600Y43640D02*
X2260600Y32560D01*
X2286000Y32560D02*
X2286000Y43640D01*
X2311400Y43640D02*
X2311400Y32560D01*
X2336800Y32560D02*
X2336800Y43640D01*
X2362200Y43640D02*
X2362200Y32560D01*
X2387600Y32560D02*
X2387600Y43640D01*
X2413000Y43640D02*
X2413000Y32560D01*
X2438400Y32560D02*
X2438400Y43640D01*
X2209800Y70660D02*
X2209800Y81740D01*
X2438400Y81740D02*
X2438400Y70660D01*
D11*
X371475Y76200D03*
X396875Y76200D03*
X257175Y215900D03*
X282575Y215900D03*
X307975Y215900D03*
X333375Y215900D03*
D13*
X311150Y60325D02*
X311150Y25400D01*
X311150Y60325D02*
X336550Y85725D01*
X336550Y114300D01*
D14*
X336550Y114300D03*
D13*
X311150Y139700D01*
D14*
X311150Y139700D03*
X460350Y168910D03*
D13*
X514350Y168910D01*
X520700Y168910D01*
X558800Y168910D02*
X666750Y168910D01*
X723900Y168910D01*
X762000Y168910D02*
X869950Y168910D01*
X965200Y168910D02*
X1073150Y168910D01*
X1130300Y168910D01*
X1168400Y168910D02*
X1276350Y168910D01*
X1333500Y168910D01*
X1371600Y168910D02*
X1479550Y168910D01*
X1536700Y168910D01*
X1574800Y168910D02*
X1682750Y168910D01*
X1778000Y168910D02*
X1885950Y168910D01*
X1943100Y168910D01*
X1981200Y168910D02*
X2089150Y168910D01*
X2146300Y168910D01*
X2184400Y168910D02*
X2289810Y168910D01*
X2292350Y171450D01*
D14*
X2292350Y171450D03*
X666750Y168910D03*
X869950Y168910D03*
X1073150Y168910D03*
X1276350Y168910D03*
X1479550Y168910D03*
X1682750Y168910D03*
X1885950Y168910D03*
X2089150Y168910D03*
D13*
X524510Y165100D02*
X520700Y168910D01*
X554990Y165100D02*
X558800Y168910D01*
X554990Y165100D02*
X524510Y165100D01*
X723900Y168910D02*
X727710Y165100D01*
X758190Y165100D02*
X762000Y168910D01*
X758190Y165100D02*
X727710Y165100D01*
X929640Y168910D02*
X933450Y165100D01*
X961390Y165100D01*
X965200Y168910D01*
X929640Y168910D02*
X869950Y168910D01*
X1130300Y168910D02*
X1134110Y165100D01*
X1164590Y165100D02*
X1168400Y168910D01*
X1164590Y165100D02*
X1134110Y165100D01*
X1333500Y168910D02*
X1337310Y165100D01*
X1367790Y165100D02*
X1371600Y168910D01*
X1367790Y165100D02*
X1337310Y165100D01*
X1536700Y168910D02*
X1540510Y165100D01*
X1570990Y165100D02*
X1574800Y168910D01*
X1570990Y165100D02*
X1540510Y165100D01*
X1742440Y168910D02*
X1746250Y165100D01*
X1774190Y165100D01*
X1778000Y168910D01*
X1742440Y168910D02*
X1682750Y168910D01*
X1943100Y168910D02*
X1946910Y165100D01*
X1977390Y165100D02*
X1981200Y168910D01*
X1977390Y165100D02*
X1946910Y165100D01*
X2146300Y168910D02*
X2150110Y165100D01*
X2180590Y165100D02*
X2184400Y168910D01*
X2180590Y165100D02*
X2150110Y165100D01*
D14*
X282575Y184150D03*
D13*
X282575Y177800D02*
X311150Y149225D01*
X282575Y177800D02*
X282575Y184150D01*
X311150Y149225D02*
X311150Y139700D01*
D14*
X171450Y95250D03*
D13*
X190500Y114300D01*
X190500Y203200D01*
D14*
X190500Y203200D03*
X285750Y114300D03*
X838200Y190500D03*
X635000Y190500D03*
X1041400Y190500D03*
X1244600Y190500D03*
X1447800Y190500D03*
X1651000Y190500D03*
X1854200Y190500D03*
X2057400Y190500D03*
X2260600Y190500D03*
X421640Y124460D03*
X2209800Y139700D03*
X2413000Y139700D03*
X2006600Y139700D03*
X1803400Y139700D03*
X1600200Y139700D03*
X1397000Y139700D03*
X1193800Y139700D03*
X990600Y139700D03*
X787400Y139700D03*
X584200Y139700D03*
X609600Y177800D03*
X609600Y158750D03*
X812800Y177800D03*
X812800Y158750D03*
X1016000Y177800D03*
X1016000Y158750D03*
X1219200Y177800D03*
X1219200Y158750D03*
X1422400Y177800D03*
X1422400Y158750D03*
X1625600Y177800D03*
X1625600Y158750D03*
X1828800Y177800D03*
X1828800Y158750D03*
X2032000Y177800D03*
X2032000Y158750D03*
X2235200Y177800D03*
X2235200Y158750D03*
X160655Y139700D03*
X219075Y76200D03*
X422275Y196850D03*
X25400Y184150D03*
X25400Y171450D03*
X31750Y38100D03*
X31750Y25400D03*
X339725Y139700D03*
X168910Y64770D03*
D15*
X226695Y64770D01*
X228600Y66675D01*
D14*
X228600Y66675D03*
X301625Y130175D03*
X254000Y133350D03*
D15*
X298450Y133350D01*
X301625Y130175D01*
D14*
X939800Y177800D03*
D15*
X939800Y222250D01*
D14*
X939800Y222250D03*
X736600Y177800D03*
D15*
X736600Y222250D01*
D14*
X736600Y222250D03*
X533400Y177800D03*
D15*
X533400Y222250D01*
D14*
X533400Y222250D03*
X2362200Y222250D03*
D15*
X2362200Y177800D01*
D14*
X2362200Y177800D03*
X1143000Y177800D03*
D15*
X1143000Y222250D01*
D14*
X1143000Y222250D03*
X1346200Y177800D03*
D15*
X1346200Y222250D01*
D14*
X1346200Y222250D03*
X2159000Y177800D03*
D15*
X2159000Y222250D01*
D14*
X2159000Y222250D03*
X1955800Y177800D03*
D15*
X1955800Y222250D01*
D14*
X1955800Y222250D03*
X1752600Y177800D03*
D15*
X1752600Y222250D01*
D14*
X1752600Y222250D03*
X1549400Y177800D03*
D15*
X1549400Y222250D01*
D14*
X1549400Y222250D03*
X952500Y177800D03*
D15*
X952500Y215900D01*
D14*
X952500Y215900D03*
X749300Y177800D03*
D15*
X749300Y215900D01*
D14*
X749300Y215900D03*
X546100Y177800D03*
D15*
X546100Y215900D01*
D14*
X546100Y215900D03*
X2374900Y177800D03*
D15*
X2374900Y215900D01*
D14*
X2374900Y215900D03*
X1155700Y177800D03*
D15*
X1155700Y215900D01*
D14*
X1155700Y215900D03*
X1358900Y177800D03*
D15*
X1358900Y215900D01*
D14*
X1358900Y215900D03*
X2171700Y177800D03*
D15*
X2171700Y215900D01*
D14*
X2171700Y215900D03*
X1968500Y177800D03*
D15*
X1968500Y215900D01*
D14*
X1968500Y215900D03*
X1765300Y177800D03*
D15*
X1765300Y215900D01*
D14*
X1765300Y215900D03*
X1562100Y177800D03*
D15*
X1562100Y215900D01*
D14*
X1562100Y215900D03*
X73660Y76200D03*
X82550Y152400D03*
D15*
X73660Y143510D01*
X73660Y76200D01*
D14*
X120650Y139700D03*
X120650Y44450D03*
D15*
X120650Y139700D01*
D14*
X469900Y127000D03*
D15*
X469900Y158750D01*
D14*
X469900Y158750D03*
X673100Y146050D03*
D15*
X673100Y158750D01*
D14*
X673100Y158750D03*
X876300Y146050D03*
D15*
X876300Y158750D01*
D14*
X876300Y158750D03*
X1079500Y146050D03*
D15*
X1079500Y158750D01*
D14*
X1079500Y158750D03*
X1282700Y146050D03*
D15*
X1282700Y158750D01*
D14*
X1282700Y158750D03*
X1485900Y146050D03*
D15*
X1485900Y158750D01*
D14*
X1485900Y158750D03*
X1689100Y146050D03*
D15*
X1689100Y158750D01*
D14*
X1689100Y158750D03*
X1892300Y146050D03*
D15*
X1892300Y158750D01*
D14*
X1892300Y158750D03*
X2095500Y146050D03*
D15*
X2095500Y158750D01*
D14*
X2095500Y158750D03*
X2298700Y146050D03*
D15*
X2298700Y158750D01*
D14*
X2298700Y158750D03*
M02*
