G04 EAGLE Gerber RS-274X export*
G75*
%MOMM*%
%FSLAX34Y34*%
%LPD*%
%INTop Copper*%
%IPPOS*%
%AMOC8*
5,1,8,0,0,1.08239X$1,22.5*%
G01*
%ADD10R,1.500000X1.300000*%
%ADD11R,1.300000X1.500000*%
%ADD12R,1.400000X1.800000*%
%ADD13R,2.032000X0.660400*%
%ADD14C,1.625600*%
%ADD15C,1.879600*%
%ADD16R,0.500000X0.650000*%
%ADD17R,1.270000X0.558800*%
%ADD18R,0.558800X1.270000*%
%ADD19R,0.600000X1.200000*%
%ADD20R,1.100000X1.200000*%
%ADD21C,1.108000*%
%ADD22C,0.254000*%
%ADD23C,0.756400*%
%ADD24C,0.177800*%

G36*
X242845Y10164D02*
X242845Y10164D01*
X242866Y10162D01*
X242976Y10184D01*
X243087Y10201D01*
X243106Y10210D01*
X243126Y10214D01*
X243165Y10238D01*
X243326Y10316D01*
X243409Y10393D01*
X243452Y10421D01*
X248278Y15247D01*
X248291Y15264D01*
X248307Y15277D01*
X248369Y15371D01*
X248436Y15461D01*
X248443Y15481D01*
X248454Y15498D01*
X248464Y15543D01*
X248523Y15712D01*
X248527Y15825D01*
X248538Y15875D01*
X248538Y23589D01*
X248524Y23680D01*
X248527Y23728D01*
X248459Y24157D01*
X248460Y24158D01*
X248478Y24190D01*
X248536Y24450D01*
X248533Y24488D01*
X248538Y24511D01*
X248538Y26289D01*
X248523Y26390D01*
X248515Y26493D01*
X248503Y26521D01*
X248498Y26552D01*
X248458Y26635D01*
X248527Y27072D01*
X248528Y27165D01*
X248538Y27211D01*
X248538Y50432D01*
X254368Y56262D01*
X257175Y56262D01*
X257196Y56265D01*
X257217Y56263D01*
X257327Y56285D01*
X257438Y56302D01*
X257457Y56311D01*
X257477Y56315D01*
X257516Y56339D01*
X257677Y56417D01*
X257760Y56494D01*
X257803Y56522D01*
X264153Y62872D01*
X264166Y62889D01*
X264182Y62902D01*
X264244Y62996D01*
X264311Y63086D01*
X264318Y63106D01*
X264329Y63123D01*
X264339Y63168D01*
X264398Y63337D01*
X264402Y63450D01*
X264413Y63500D01*
X264413Y76200D01*
X264410Y76221D01*
X264412Y76242D01*
X264390Y76352D01*
X264373Y76463D01*
X264364Y76482D01*
X264360Y76502D01*
X264336Y76541D01*
X264258Y76702D01*
X264181Y76785D01*
X264153Y76828D01*
X261105Y79876D01*
X261064Y79907D01*
X261028Y79944D01*
X260957Y79985D01*
X260891Y80034D01*
X260842Y80051D01*
X260798Y80076D01*
X260718Y80094D01*
X260640Y80121D01*
X260588Y80123D01*
X260538Y80134D01*
X260456Y80128D01*
X260374Y80130D01*
X260324Y80117D01*
X260273Y80113D01*
X260197Y80082D01*
X260118Y80060D01*
X260074Y80033D01*
X260026Y80014D01*
X259963Y79962D01*
X259894Y79918D01*
X259860Y79879D01*
X259820Y79846D01*
X259775Y79778D01*
X259722Y79715D01*
X259701Y79668D01*
X259673Y79625D01*
X259661Y79574D01*
X259617Y79471D01*
X259599Y79292D01*
X259589Y79248D01*
X259589Y72000D01*
X244235Y56646D01*
X244222Y56629D01*
X244206Y56616D01*
X244144Y56523D01*
X244077Y56432D01*
X244070Y56413D01*
X244059Y56395D01*
X244049Y56351D01*
X243990Y56181D01*
X243986Y56069D01*
X243975Y56018D01*
X243975Y43643D01*
X243082Y42750D01*
X226818Y42750D01*
X225925Y43643D01*
X225925Y57907D01*
X225926Y57907D01*
X225939Y57924D01*
X225955Y57938D01*
X226017Y58031D01*
X226084Y58121D01*
X226091Y58141D01*
X226102Y58159D01*
X226112Y58203D01*
X226171Y58372D01*
X226175Y58485D01*
X226186Y58535D01*
X226186Y61337D01*
X226177Y61399D01*
X226178Y61461D01*
X226157Y61529D01*
X226146Y61600D01*
X226120Y61656D01*
X226102Y61715D01*
X226062Y61775D01*
X226031Y61839D01*
X225988Y61885D01*
X225954Y61936D01*
X225915Y61964D01*
X225849Y62034D01*
X225664Y62140D01*
X225638Y62158D01*
X225594Y62176D01*
X224101Y63669D01*
X223293Y65619D01*
X223293Y67731D01*
X224101Y69681D01*
X225594Y71174D01*
X227544Y71982D01*
X229656Y71982D01*
X231606Y71174D01*
X233099Y69681D01*
X233907Y67731D01*
X233907Y65619D01*
X233099Y63669D01*
X231606Y62176D01*
X231562Y62158D01*
X231509Y62126D01*
X231451Y62103D01*
X231396Y62058D01*
X231334Y62021D01*
X231293Y61974D01*
X231245Y61935D01*
X231205Y61876D01*
X231158Y61822D01*
X231132Y61766D01*
X231098Y61714D01*
X231087Y61667D01*
X231048Y61580D01*
X231021Y61368D01*
X231014Y61337D01*
X231014Y59688D01*
X231029Y59586D01*
X231037Y59484D01*
X231049Y59456D01*
X231054Y59425D01*
X231098Y59333D01*
X231136Y59237D01*
X231156Y59214D01*
X231169Y59186D01*
X231239Y59111D01*
X231304Y59031D01*
X231330Y59014D01*
X231351Y58992D01*
X231440Y58941D01*
X231525Y58884D01*
X231549Y58878D01*
X231581Y58860D01*
X231841Y58802D01*
X231879Y58805D01*
X231902Y58800D01*
X239193Y58800D01*
X239214Y58803D01*
X239235Y58801D01*
X239345Y58823D01*
X239456Y58840D01*
X239475Y58849D01*
X239496Y58853D01*
X239534Y58877D01*
X239695Y58955D01*
X239778Y59032D01*
X239821Y59060D01*
X254501Y73740D01*
X254514Y73757D01*
X254530Y73770D01*
X254592Y73863D01*
X254659Y73954D01*
X254666Y73973D01*
X254677Y73991D01*
X254687Y74035D01*
X254746Y74205D01*
X254750Y74317D01*
X254761Y74368D01*
X254761Y82550D01*
X254746Y82652D01*
X254738Y82754D01*
X254726Y82782D01*
X254721Y82813D01*
X254677Y82905D01*
X254639Y83001D01*
X254619Y83024D01*
X254606Y83052D01*
X254536Y83127D01*
X254471Y83207D01*
X254445Y83224D01*
X254424Y83246D01*
X254335Y83297D01*
X254250Y83354D01*
X254226Y83360D01*
X254194Y83378D01*
X253934Y83436D01*
X253896Y83433D01*
X253873Y83438D01*
X232143Y83438D01*
X226313Y89268D01*
X226313Y107950D01*
X226310Y107971D01*
X226312Y107992D01*
X226290Y108102D01*
X226273Y108213D01*
X226264Y108232D01*
X226260Y108252D01*
X226236Y108291D01*
X226158Y108452D01*
X226081Y108535D01*
X226053Y108578D01*
X219703Y114928D01*
X219686Y114941D01*
X219673Y114957D01*
X219579Y115019D01*
X219489Y115086D01*
X219469Y115093D01*
X219452Y115104D01*
X219407Y115114D01*
X219238Y115173D01*
X219125Y115177D01*
X219075Y115188D01*
X197218Y115188D01*
X191388Y121018D01*
X191388Y197005D01*
X191373Y197107D01*
X191365Y197209D01*
X191353Y197237D01*
X191348Y197268D01*
X191304Y197360D01*
X191266Y197456D01*
X191246Y197479D01*
X191233Y197507D01*
X191163Y197582D01*
X191098Y197662D01*
X191072Y197679D01*
X191051Y197701D01*
X190962Y197752D01*
X190877Y197809D01*
X190853Y197815D01*
X190821Y197833D01*
X190561Y197891D01*
X190523Y197888D01*
X190500Y197893D01*
X189444Y197893D01*
X187494Y198701D01*
X186050Y200145D01*
X186033Y200158D01*
X186020Y200174D01*
X185926Y200236D01*
X185836Y200303D01*
X185816Y200310D01*
X185799Y200321D01*
X185754Y200331D01*
X185585Y200390D01*
X185472Y200394D01*
X185422Y200405D01*
X147063Y200405D01*
X146961Y200390D01*
X146859Y200382D01*
X146831Y200370D01*
X146800Y200365D01*
X146708Y200321D01*
X146612Y200283D01*
X146589Y200263D01*
X146561Y200250D01*
X146486Y200180D01*
X146406Y200115D01*
X146389Y200089D01*
X146367Y200068D01*
X146316Y199979D01*
X146259Y199894D01*
X146253Y199870D01*
X146235Y199838D01*
X146177Y199578D01*
X146180Y199540D01*
X146175Y199517D01*
X146175Y180868D01*
X145282Y179975D01*
X135007Y179975D01*
X134986Y179972D01*
X134965Y179974D01*
X134855Y179952D01*
X134744Y179935D01*
X134725Y179926D01*
X134704Y179922D01*
X134666Y179898D01*
X134505Y179820D01*
X134422Y179743D01*
X134379Y179715D01*
X112435Y157771D01*
X112422Y157754D01*
X112406Y157741D01*
X112344Y157648D01*
X112277Y157557D01*
X112270Y157538D01*
X112259Y157520D01*
X112249Y157476D01*
X112190Y157306D01*
X112186Y157194D01*
X112175Y157143D01*
X112175Y142768D01*
X111282Y141875D01*
X106952Y141875D01*
X106850Y141860D01*
X106748Y141852D01*
X106720Y141840D01*
X106689Y141835D01*
X106597Y141791D01*
X106501Y141753D01*
X106478Y141733D01*
X106450Y141720D01*
X106375Y141650D01*
X106295Y141585D01*
X106278Y141559D01*
X106256Y141538D01*
X106205Y141449D01*
X106148Y141364D01*
X106142Y141340D01*
X106124Y141308D01*
X106066Y141048D01*
X106069Y141010D01*
X106064Y140987D01*
X106064Y139734D01*
X104390Y138060D01*
X99673Y133343D01*
X99646Y133307D01*
X99628Y133291D01*
X99627Y133287D01*
X99604Y133266D01*
X99564Y133195D01*
X99515Y133129D01*
X99498Y133080D01*
X99472Y133036D01*
X99454Y132956D01*
X99428Y132878D01*
X99426Y132826D01*
X99415Y132776D01*
X99421Y132694D01*
X99418Y132612D01*
X99432Y132563D01*
X99436Y132511D01*
X99467Y132435D01*
X99488Y132356D01*
X99516Y132312D01*
X99535Y132264D01*
X99587Y132201D01*
X99631Y132132D01*
X99670Y132098D01*
X99703Y132058D01*
X99771Y132013D01*
X99833Y131960D01*
X99881Y131939D01*
X99924Y131911D01*
X99974Y131899D01*
X100078Y131855D01*
X100256Y131837D01*
X100301Y131827D01*
X100708Y131827D01*
X101601Y130934D01*
X101601Y123066D01*
X100708Y122173D01*
X79124Y122173D01*
X78231Y123066D01*
X78231Y130934D01*
X79124Y131827D01*
X90961Y131827D01*
X90982Y131830D01*
X91003Y131828D01*
X91113Y131850D01*
X91224Y131867D01*
X91243Y131876D01*
X91264Y131880D01*
X91302Y131904D01*
X91463Y131982D01*
X91546Y132059D01*
X91589Y132087D01*
X99861Y140359D01*
X99892Y140400D01*
X99930Y140436D01*
X99970Y140507D01*
X100019Y140573D01*
X100036Y140622D01*
X100062Y140666D01*
X100080Y140746D01*
X100106Y140824D01*
X100108Y140876D01*
X100119Y140926D01*
X100113Y141008D01*
X100116Y141090D01*
X100102Y141139D01*
X100098Y141191D01*
X100067Y141267D01*
X100046Y141346D01*
X100018Y141390D01*
X99999Y141438D01*
X99947Y141501D01*
X99903Y141570D01*
X99864Y141604D01*
X99831Y141644D01*
X99763Y141689D01*
X99701Y141742D01*
X99653Y141763D01*
X99610Y141791D01*
X99560Y141803D01*
X99456Y141847D01*
X99278Y141865D01*
X99233Y141875D01*
X96018Y141875D01*
X95125Y142768D01*
X95125Y162032D01*
X96018Y162925D01*
X110393Y162925D01*
X110414Y162928D01*
X110435Y162926D01*
X110545Y162948D01*
X110656Y162965D01*
X110675Y162974D01*
X110696Y162978D01*
X110734Y163002D01*
X110895Y163080D01*
X110978Y163157D01*
X111021Y163185D01*
X128865Y181029D01*
X128878Y181046D01*
X128894Y181059D01*
X128956Y181152D01*
X129023Y181243D01*
X129030Y181262D01*
X129041Y181280D01*
X129051Y181324D01*
X129110Y181494D01*
X129114Y181606D01*
X129125Y181657D01*
X129125Y199517D01*
X129110Y199619D01*
X129102Y199721D01*
X129090Y199749D01*
X129085Y199780D01*
X129041Y199872D01*
X129003Y199968D01*
X128983Y199991D01*
X128970Y200019D01*
X128900Y200094D01*
X128835Y200174D01*
X128809Y200191D01*
X128788Y200213D01*
X128699Y200264D01*
X128614Y200321D01*
X128590Y200327D01*
X128558Y200345D01*
X128298Y200403D01*
X128260Y200400D01*
X128237Y200405D01*
X113063Y200405D01*
X112961Y200390D01*
X112859Y200382D01*
X112831Y200370D01*
X112800Y200365D01*
X112708Y200321D01*
X112612Y200283D01*
X112589Y200263D01*
X112561Y200250D01*
X112486Y200180D01*
X112406Y200115D01*
X112389Y200089D01*
X112367Y200068D01*
X112316Y199979D01*
X112259Y199894D01*
X112253Y199870D01*
X112235Y199838D01*
X112177Y199578D01*
X112180Y199540D01*
X112175Y199517D01*
X112175Y180868D01*
X111282Y179975D01*
X96368Y179975D01*
X96347Y179972D01*
X96327Y179974D01*
X96216Y179952D01*
X96105Y179935D01*
X96087Y179926D01*
X96066Y179922D01*
X96027Y179898D01*
X95866Y179820D01*
X95784Y179743D01*
X95740Y179715D01*
X85224Y169199D01*
X85211Y169182D01*
X85195Y169169D01*
X85133Y169075D01*
X85066Y168985D01*
X85059Y168965D01*
X85048Y168948D01*
X85038Y168903D01*
X84979Y168734D01*
X84975Y168621D01*
X84964Y168571D01*
X84964Y157738D01*
X84973Y157676D01*
X84972Y157614D01*
X84993Y157546D01*
X85004Y157475D01*
X85030Y157419D01*
X85048Y157360D01*
X85088Y157300D01*
X85119Y157236D01*
X85162Y157190D01*
X85196Y157139D01*
X85235Y157111D01*
X85301Y157041D01*
X85486Y156935D01*
X85512Y156917D01*
X85556Y156899D01*
X87049Y155406D01*
X87857Y153456D01*
X87857Y151344D01*
X87049Y149394D01*
X85556Y147901D01*
X83606Y147093D01*
X81494Y147093D01*
X79544Y147901D01*
X78051Y149394D01*
X77243Y151344D01*
X77243Y153456D01*
X77928Y155108D01*
X77930Y155118D01*
X77936Y155127D01*
X77962Y155247D01*
X77992Y155366D01*
X77991Y155377D01*
X77993Y155387D01*
X77983Y155509D01*
X77976Y155632D01*
X77973Y155641D01*
X77972Y155652D01*
X77926Y155766D01*
X77883Y155880D01*
X77877Y155889D01*
X77873Y155899D01*
X77795Y155994D01*
X77720Y156091D01*
X77712Y156097D01*
X77705Y156105D01*
X77603Y156173D01*
X77503Y156243D01*
X77493Y156247D01*
X77484Y156252D01*
X77453Y156259D01*
X77250Y156325D01*
X77154Y156326D01*
X77107Y156336D01*
X75563Y156336D01*
X75461Y156321D01*
X75359Y156313D01*
X75331Y156301D01*
X75300Y156296D01*
X75208Y156252D01*
X75112Y156214D01*
X75089Y156194D01*
X75061Y156181D01*
X74986Y156111D01*
X74906Y156046D01*
X74889Y156020D01*
X74867Y155999D01*
X74816Y155910D01*
X74759Y155825D01*
X74753Y155801D01*
X74735Y155769D01*
X74677Y155509D01*
X74680Y155471D01*
X74675Y155448D01*
X74675Y144268D01*
X73782Y143375D01*
X59189Y143375D01*
X59069Y143357D01*
X58949Y143342D01*
X58938Y143337D01*
X58926Y143335D01*
X58817Y143283D01*
X58707Y143233D01*
X58698Y143225D01*
X58687Y143220D01*
X58598Y143137D01*
X58508Y143057D01*
X58501Y143047D01*
X58492Y143038D01*
X58432Y142933D01*
X58370Y142830D01*
X58367Y142818D01*
X58360Y142808D01*
X58334Y142689D01*
X58305Y142572D01*
X58305Y142560D01*
X58303Y142548D01*
X58312Y142428D01*
X58319Y142307D01*
X58323Y142298D01*
X58324Y142283D01*
X58423Y142036D01*
X58463Y141988D01*
X58478Y141955D01*
X62647Y136381D01*
X62707Y136322D01*
X62760Y136256D01*
X62801Y136229D01*
X62836Y136194D01*
X62911Y136155D01*
X62982Y136109D01*
X63017Y136101D01*
X63072Y136072D01*
X63334Y136025D01*
X63349Y136027D01*
X63358Y136025D01*
X73782Y136025D01*
X74675Y135132D01*
X74675Y122757D01*
X74678Y122736D01*
X74676Y122715D01*
X74698Y122605D01*
X74715Y122494D01*
X74724Y122475D01*
X74728Y122454D01*
X74752Y122416D01*
X74830Y122255D01*
X74907Y122172D01*
X74935Y122129D01*
X77903Y119161D01*
X77985Y119100D01*
X78063Y119034D01*
X78092Y119022D01*
X78116Y119003D01*
X78214Y118969D01*
X78308Y118929D01*
X78338Y118926D01*
X78368Y118916D01*
X78470Y118912D01*
X78572Y118902D01*
X78602Y118908D01*
X78633Y118907D01*
X78732Y118934D01*
X78833Y118954D01*
X78853Y118967D01*
X78890Y118977D01*
X79114Y119119D01*
X79120Y119127D01*
X100708Y119127D01*
X101601Y118234D01*
X101601Y117602D01*
X101616Y117500D01*
X101624Y117398D01*
X101636Y117370D01*
X101641Y117339D01*
X101685Y117247D01*
X101723Y117151D01*
X101743Y117128D01*
X101756Y117100D01*
X101826Y117025D01*
X101891Y116945D01*
X101917Y116928D01*
X101938Y116906D01*
X102027Y116855D01*
X102112Y116798D01*
X102136Y116792D01*
X102168Y116774D01*
X102428Y116716D01*
X102466Y116719D01*
X102489Y116714D01*
X112932Y116714D01*
X112953Y116717D01*
X112974Y116715D01*
X113084Y116737D01*
X113195Y116754D01*
X113214Y116763D01*
X113235Y116767D01*
X113273Y116791D01*
X113434Y116869D01*
X113517Y116946D01*
X113560Y116974D01*
X136945Y140359D01*
X136976Y140400D01*
X137014Y140436D01*
X137054Y140507D01*
X137103Y140573D01*
X137120Y140622D01*
X137146Y140666D01*
X137164Y140746D01*
X137190Y140824D01*
X137192Y140876D01*
X137203Y140926D01*
X137197Y141008D01*
X137200Y141090D01*
X137186Y141139D01*
X137182Y141191D01*
X137151Y141267D01*
X137130Y141346D01*
X137102Y141390D01*
X137083Y141438D01*
X137031Y141501D01*
X136987Y141570D01*
X136948Y141604D01*
X136915Y141644D01*
X136847Y141689D01*
X136785Y141742D01*
X136737Y141763D01*
X136694Y141791D01*
X136644Y141803D01*
X136540Y141847D01*
X136362Y141865D01*
X136317Y141875D01*
X130018Y141875D01*
X129099Y142795D01*
X129098Y142799D01*
X129085Y142880D01*
X129063Y142927D01*
X129049Y142976D01*
X129005Y143046D01*
X128970Y143119D01*
X128935Y143157D01*
X128907Y143201D01*
X128844Y143254D01*
X128788Y143314D01*
X128744Y143339D01*
X128704Y143373D01*
X128629Y143405D01*
X128558Y143446D01*
X128507Y143457D01*
X128460Y143477D01*
X128378Y143486D01*
X128298Y143503D01*
X128247Y143499D01*
X128195Y143505D01*
X128115Y143489D01*
X128033Y143482D01*
X127985Y143463D01*
X127935Y143453D01*
X127891Y143425D01*
X127786Y143383D01*
X127647Y143270D01*
X127609Y143245D01*
X126131Y141768D01*
X126094Y141718D01*
X126050Y141674D01*
X126016Y141611D01*
X125973Y141554D01*
X125953Y141495D01*
X125923Y141440D01*
X125910Y141370D01*
X125886Y141303D01*
X125884Y141241D01*
X125872Y141180D01*
X125880Y141132D01*
X125877Y141037D01*
X125933Y140830D01*
X125939Y140799D01*
X125957Y140756D01*
X125957Y138644D01*
X125149Y136694D01*
X123656Y135201D01*
X121706Y134393D01*
X119594Y134393D01*
X117644Y135201D01*
X116151Y136694D01*
X115343Y138644D01*
X115343Y140756D01*
X116151Y142706D01*
X117644Y144199D01*
X119594Y145007D01*
X121706Y145007D01*
X121749Y144989D01*
X121810Y144974D01*
X121867Y144949D01*
X121938Y144942D01*
X122007Y144925D01*
X122069Y144928D01*
X122131Y144922D01*
X122201Y144936D01*
X122273Y144940D01*
X122331Y144962D01*
X122392Y144974D01*
X122432Y145000D01*
X122522Y145033D01*
X122691Y145164D01*
X122718Y145181D01*
X128865Y151329D01*
X128878Y151346D01*
X128894Y151359D01*
X128956Y151452D01*
X129023Y151543D01*
X129030Y151562D01*
X129041Y151580D01*
X129051Y151624D01*
X129110Y151794D01*
X129114Y151906D01*
X129125Y151957D01*
X129125Y162032D01*
X130018Y162925D01*
X143293Y162925D01*
X143314Y162928D01*
X143335Y162926D01*
X143445Y162948D01*
X143556Y162965D01*
X143575Y162974D01*
X143596Y162978D01*
X143634Y163002D01*
X143795Y163080D01*
X143878Y163157D01*
X143921Y163185D01*
X162165Y181429D01*
X162178Y181446D01*
X162194Y181459D01*
X162256Y181552D01*
X162323Y181643D01*
X162330Y181662D01*
X162341Y181680D01*
X162351Y181724D01*
X162410Y181894D01*
X162414Y182006D01*
X162425Y182057D01*
X162425Y194432D01*
X163318Y195325D01*
X179582Y195325D01*
X180475Y194432D01*
X180475Y180168D01*
X179582Y179275D01*
X167207Y179275D01*
X167186Y179272D01*
X167165Y179274D01*
X167055Y179252D01*
X166944Y179235D01*
X166925Y179226D01*
X166904Y179222D01*
X166866Y179198D01*
X166705Y179120D01*
X166622Y179043D01*
X166579Y179015D01*
X165405Y177841D01*
X165374Y177800D01*
X165336Y177764D01*
X165296Y177693D01*
X165247Y177627D01*
X165230Y177578D01*
X165204Y177534D01*
X165186Y177454D01*
X165160Y177376D01*
X165158Y177324D01*
X165147Y177274D01*
X165153Y177192D01*
X165150Y177110D01*
X165164Y177061D01*
X165168Y177009D01*
X165199Y176933D01*
X165220Y176854D01*
X165248Y176810D01*
X165267Y176762D01*
X165319Y176699D01*
X165363Y176630D01*
X165402Y176596D01*
X165435Y176556D01*
X165503Y176511D01*
X165565Y176458D01*
X165613Y176437D01*
X165656Y176409D01*
X165706Y176397D01*
X165810Y176353D01*
X165988Y176335D01*
X166033Y176325D01*
X179582Y176325D01*
X180475Y175432D01*
X180475Y161168D01*
X179582Y160275D01*
X173582Y160275D01*
X173561Y160272D01*
X173540Y160274D01*
X173430Y160252D01*
X173319Y160235D01*
X173300Y160226D01*
X173279Y160222D01*
X173241Y160198D01*
X173080Y160120D01*
X172997Y160043D01*
X172954Y160015D01*
X150225Y137286D01*
X141068Y137286D01*
X141047Y137283D01*
X141026Y137285D01*
X140916Y137263D01*
X140805Y137246D01*
X140786Y137237D01*
X140765Y137233D01*
X140727Y137209D01*
X140566Y137131D01*
X140483Y137054D01*
X140440Y137026D01*
X115300Y111886D01*
X102489Y111886D01*
X102387Y111871D01*
X102285Y111863D01*
X102257Y111851D01*
X102226Y111846D01*
X102134Y111802D01*
X102038Y111764D01*
X102015Y111744D01*
X101987Y111731D01*
X101912Y111661D01*
X101832Y111596D01*
X101815Y111570D01*
X101793Y111549D01*
X101742Y111460D01*
X101685Y111375D01*
X101679Y111351D01*
X101661Y111319D01*
X101603Y111059D01*
X101606Y111021D01*
X101601Y110998D01*
X101601Y110366D01*
X100708Y109473D01*
X79124Y109473D01*
X78231Y110366D01*
X78231Y111637D01*
X78228Y111658D01*
X78230Y111679D01*
X78208Y111789D01*
X78191Y111900D01*
X78182Y111919D01*
X78178Y111940D01*
X78154Y111978D01*
X78076Y112139D01*
X77999Y112222D01*
X77971Y112265D01*
X72521Y117715D01*
X72504Y117728D01*
X72491Y117744D01*
X72398Y117806D01*
X72307Y117873D01*
X72288Y117880D01*
X72270Y117891D01*
X72226Y117901D01*
X72056Y117960D01*
X71944Y117964D01*
X71893Y117975D01*
X59518Y117975D01*
X58625Y118868D01*
X58625Y133403D01*
X58612Y133492D01*
X58607Y133583D01*
X58594Y133612D01*
X58585Y133665D01*
X58470Y133905D01*
X58454Y133921D01*
X58448Y133935D01*
X57274Y135504D01*
X57193Y135585D01*
X57114Y135669D01*
X57098Y135678D01*
X57085Y135691D01*
X56983Y135744D01*
X56884Y135801D01*
X56866Y135805D01*
X56849Y135813D01*
X56736Y135833D01*
X56624Y135858D01*
X56606Y135857D01*
X56587Y135860D01*
X56474Y135846D01*
X56359Y135837D01*
X56342Y135830D01*
X56323Y135828D01*
X56219Y135781D01*
X56112Y135738D01*
X56098Y135726D01*
X56081Y135718D01*
X55996Y135643D01*
X55906Y135570D01*
X55896Y135555D01*
X55882Y135542D01*
X55823Y135445D01*
X55759Y135349D01*
X55755Y135335D01*
X55744Y135315D01*
X55679Y135058D01*
X55682Y135004D01*
X55675Y134972D01*
X55675Y118868D01*
X54782Y117975D01*
X50952Y117975D01*
X50850Y117960D01*
X50748Y117952D01*
X50720Y117940D01*
X50689Y117935D01*
X50597Y117891D01*
X50501Y117853D01*
X50478Y117833D01*
X50450Y117820D01*
X50375Y117750D01*
X50295Y117685D01*
X50278Y117659D01*
X50256Y117638D01*
X50205Y117549D01*
X50148Y117464D01*
X50142Y117440D01*
X50124Y117408D01*
X50066Y117148D01*
X50069Y117110D01*
X50064Y117087D01*
X50064Y116500D01*
X48390Y114826D01*
X41529Y107966D01*
X41493Y107916D01*
X41448Y107873D01*
X41414Y107810D01*
X41372Y107752D01*
X41351Y107693D01*
X41322Y107639D01*
X41308Y107568D01*
X41284Y107501D01*
X41282Y107439D01*
X41270Y107378D01*
X41278Y107331D01*
X41275Y107235D01*
X41331Y107028D01*
X41337Y106998D01*
X42673Y103773D01*
X42673Y99427D01*
X41010Y95413D01*
X37937Y92340D01*
X33923Y90677D01*
X29577Y90677D01*
X25563Y92340D01*
X22490Y95413D01*
X20827Y99427D01*
X20827Y103773D01*
X22490Y107787D01*
X25563Y110860D01*
X29577Y112523D01*
X33923Y112523D01*
X37148Y111187D01*
X37208Y111172D01*
X37265Y111148D01*
X37336Y111140D01*
X37406Y111123D01*
X37468Y111127D01*
X37529Y111120D01*
X37600Y111134D01*
X37671Y111138D01*
X37729Y111160D01*
X37790Y111172D01*
X37831Y111198D01*
X37920Y111232D01*
X38090Y111363D01*
X38116Y111379D01*
X43195Y116459D01*
X43226Y116500D01*
X43264Y116536D01*
X43304Y116607D01*
X43353Y116673D01*
X43370Y116722D01*
X43396Y116766D01*
X43414Y116846D01*
X43440Y116924D01*
X43442Y116976D01*
X43453Y117026D01*
X43447Y117108D01*
X43450Y117190D01*
X43436Y117239D01*
X43432Y117291D01*
X43401Y117367D01*
X43380Y117446D01*
X43352Y117490D01*
X43333Y117538D01*
X43281Y117601D01*
X43237Y117670D01*
X43198Y117704D01*
X43165Y117744D01*
X43097Y117789D01*
X43035Y117842D01*
X42987Y117863D01*
X42944Y117891D01*
X42894Y117903D01*
X42790Y117947D01*
X42612Y117965D01*
X42567Y117975D01*
X40518Y117975D01*
X39625Y118868D01*
X39625Y135132D01*
X40518Y136025D01*
X55111Y136025D01*
X55231Y136043D01*
X55351Y136058D01*
X55362Y136063D01*
X55374Y136065D01*
X55483Y136117D01*
X55593Y136167D01*
X55602Y136175D01*
X55613Y136180D01*
X55702Y136263D01*
X55792Y136343D01*
X55799Y136353D01*
X55808Y136362D01*
X55868Y136467D01*
X55930Y136570D01*
X55933Y136582D01*
X55940Y136592D01*
X55966Y136711D01*
X55995Y136828D01*
X55995Y136840D01*
X55997Y136852D01*
X55988Y136972D01*
X55981Y137093D01*
X55977Y137102D01*
X55976Y137117D01*
X55877Y137364D01*
X55837Y137412D01*
X55822Y137445D01*
X51653Y143019D01*
X51593Y143078D01*
X51540Y143144D01*
X51499Y143171D01*
X51464Y143206D01*
X51389Y143245D01*
X51318Y143291D01*
X51283Y143299D01*
X51228Y143328D01*
X50966Y143375D01*
X50951Y143373D01*
X50942Y143375D01*
X40518Y143375D01*
X39625Y144268D01*
X39625Y160532D01*
X40518Y161425D01*
X54782Y161425D01*
X55675Y160532D01*
X55675Y145997D01*
X55688Y145908D01*
X55693Y145817D01*
X55706Y145788D01*
X55715Y145735D01*
X55830Y145495D01*
X55846Y145479D01*
X55852Y145465D01*
X57026Y143896D01*
X57107Y143815D01*
X57186Y143731D01*
X57202Y143722D01*
X57215Y143709D01*
X57317Y143656D01*
X57416Y143599D01*
X57434Y143595D01*
X57451Y143587D01*
X57564Y143567D01*
X57676Y143542D01*
X57694Y143543D01*
X57713Y143540D01*
X57826Y143554D01*
X57941Y143563D01*
X57958Y143570D01*
X57977Y143572D01*
X58081Y143619D01*
X58188Y143662D01*
X58202Y143674D01*
X58219Y143682D01*
X58304Y143757D01*
X58394Y143830D01*
X58404Y143845D01*
X58418Y143858D01*
X58477Y143955D01*
X58541Y144051D01*
X58545Y144065D01*
X58556Y144085D01*
X58621Y144342D01*
X58618Y144396D01*
X58625Y144428D01*
X58625Y160532D01*
X59518Y161425D01*
X73782Y161425D01*
X73782Y161424D01*
X73799Y161411D01*
X73813Y161395D01*
X73906Y161333D01*
X73996Y161266D01*
X74016Y161259D01*
X74034Y161248D01*
X74078Y161238D01*
X74247Y161179D01*
X74360Y161175D01*
X74411Y161164D01*
X79248Y161164D01*
X79350Y161179D01*
X79452Y161187D01*
X79480Y161199D01*
X79511Y161204D01*
X79603Y161248D01*
X79699Y161286D01*
X79722Y161306D01*
X79750Y161319D01*
X79825Y161389D01*
X79905Y161454D01*
X79922Y161480D01*
X79944Y161501D01*
X79995Y161590D01*
X80052Y161675D01*
X80058Y161699D01*
X80076Y161731D01*
X80134Y161991D01*
X80131Y162029D01*
X80136Y162052D01*
X80136Y170938D01*
X94865Y185667D01*
X94878Y185684D01*
X94894Y185697D01*
X94956Y185791D01*
X95023Y185881D01*
X95030Y185901D01*
X95041Y185918D01*
X95051Y185963D01*
X95110Y186132D01*
X95114Y186245D01*
X95125Y186295D01*
X95125Y199517D01*
X95110Y199619D01*
X95102Y199721D01*
X95090Y199749D01*
X95085Y199780D01*
X95041Y199872D01*
X95003Y199968D01*
X94983Y199991D01*
X94970Y200019D01*
X94900Y200094D01*
X94835Y200174D01*
X94809Y200191D01*
X94788Y200213D01*
X94699Y200264D01*
X94614Y200321D01*
X94590Y200327D01*
X94558Y200345D01*
X94298Y200403D01*
X94260Y200400D01*
X94237Y200405D01*
X74759Y200405D01*
X74697Y200396D01*
X74635Y200397D01*
X74567Y200376D01*
X74496Y200365D01*
X74440Y200338D01*
X74381Y200321D01*
X74321Y200281D01*
X74256Y200250D01*
X74211Y200207D01*
X74160Y200173D01*
X74132Y200134D01*
X74062Y200068D01*
X73956Y199882D01*
X73938Y199857D01*
X72760Y197013D01*
X69687Y193940D01*
X65673Y192277D01*
X61327Y192277D01*
X57313Y193940D01*
X54240Y197013D01*
X52577Y201027D01*
X52577Y205373D01*
X54240Y209387D01*
X57313Y212460D01*
X61327Y214123D01*
X65673Y214123D01*
X69687Y212460D01*
X72760Y209387D01*
X73938Y206543D01*
X73970Y206490D01*
X73993Y206432D01*
X74038Y206377D01*
X74075Y206315D01*
X74122Y206274D01*
X74161Y206226D01*
X74220Y206186D01*
X74274Y206139D01*
X74330Y206113D01*
X74382Y206079D01*
X74429Y206068D01*
X74516Y206029D01*
X74728Y206002D01*
X74759Y205995D01*
X185422Y205995D01*
X185443Y205998D01*
X185464Y205996D01*
X185574Y206018D01*
X185685Y206035D01*
X185704Y206044D01*
X185724Y206048D01*
X185763Y206072D01*
X185924Y206150D01*
X186007Y206227D01*
X186050Y206255D01*
X187494Y207699D01*
X189444Y208507D01*
X190500Y208507D01*
X190602Y208522D01*
X190704Y208530D01*
X190732Y208542D01*
X190763Y208547D01*
X190855Y208591D01*
X190951Y208629D01*
X190974Y208649D01*
X191002Y208662D01*
X191077Y208732D01*
X191157Y208797D01*
X191174Y208823D01*
X191196Y208844D01*
X191247Y208933D01*
X191304Y209018D01*
X191310Y209042D01*
X191328Y209074D01*
X191386Y209334D01*
X191383Y209372D01*
X191388Y209395D01*
X191388Y225425D01*
X191385Y225446D01*
X191387Y225467D01*
X191365Y225577D01*
X191348Y225688D01*
X191339Y225707D01*
X191335Y225727D01*
X191311Y225766D01*
X191233Y225927D01*
X191156Y226010D01*
X191128Y226053D01*
X186302Y230879D01*
X186285Y230892D01*
X186272Y230908D01*
X186178Y230970D01*
X186088Y231037D01*
X186068Y231044D01*
X186051Y231055D01*
X186006Y231065D01*
X185837Y231124D01*
X185724Y231128D01*
X185674Y231139D01*
X23876Y231139D01*
X23855Y231136D01*
X23834Y231138D01*
X23724Y231116D01*
X23613Y231099D01*
X23594Y231090D01*
X23574Y231086D01*
X23535Y231062D01*
X23374Y230984D01*
X23291Y230907D01*
X23248Y230879D01*
X21927Y229559D01*
X21857Y229462D01*
X21783Y229368D01*
X21778Y229356D01*
X21770Y229345D01*
X21730Y229232D01*
X21688Y229120D01*
X21687Y229106D01*
X21682Y229094D01*
X21678Y228974D01*
X21671Y228855D01*
X21674Y228844D01*
X21673Y228828D01*
X21743Y228572D01*
X21776Y228520D01*
X21786Y228486D01*
X23446Y225612D01*
X25161Y219213D01*
X25161Y212587D01*
X23446Y206188D01*
X20134Y200451D01*
X18422Y198739D01*
X18409Y198722D01*
X18393Y198709D01*
X18331Y198616D01*
X18264Y198525D01*
X18257Y198505D01*
X18246Y198488D01*
X18236Y198443D01*
X18177Y198274D01*
X18173Y198162D01*
X18162Y198111D01*
X18162Y78011D01*
X18171Y77948D01*
X18171Y77884D01*
X18191Y77817D01*
X18202Y77748D01*
X18229Y77691D01*
X18248Y77630D01*
X18287Y77572D01*
X18317Y77509D01*
X18361Y77462D01*
X18397Y77410D01*
X18451Y77366D01*
X18499Y77315D01*
X18554Y77283D01*
X18604Y77243D01*
X18669Y77218D01*
X18729Y77183D01*
X18792Y77169D01*
X18851Y77146D01*
X18921Y77140D01*
X18989Y77125D01*
X19053Y77130D01*
X19116Y77125D01*
X19184Y77141D01*
X19254Y77147D01*
X19313Y77170D01*
X19375Y77185D01*
X19436Y77220D01*
X19501Y77246D01*
X19550Y77286D01*
X19605Y77318D01*
X19653Y77369D01*
X19707Y77413D01*
X19742Y77466D01*
X19786Y77513D01*
X19803Y77557D01*
X19854Y77634D01*
X19882Y77756D01*
X19927Y77872D01*
X20105Y78996D01*
X20686Y80783D01*
X21539Y82457D01*
X22644Y83978D01*
X23972Y85306D01*
X25493Y86411D01*
X27167Y87264D01*
X28954Y87845D01*
X29973Y88006D01*
X29973Y77089D01*
X29988Y76988D01*
X29996Y76885D01*
X30008Y76857D01*
X30013Y76826D01*
X30057Y76734D01*
X30095Y76639D01*
X30115Y76615D01*
X30128Y76587D01*
X30198Y76512D01*
X30263Y76432D01*
X30289Y76415D01*
X30310Y76393D01*
X30399Y76342D01*
X30484Y76285D01*
X30508Y76280D01*
X30540Y76261D01*
X30800Y76203D01*
X30838Y76206D01*
X30861Y76201D01*
X31751Y76201D01*
X31751Y76199D01*
X30861Y76199D01*
X30759Y76184D01*
X30657Y76175D01*
X30629Y76164D01*
X30598Y76159D01*
X30506Y76115D01*
X30410Y76076D01*
X30387Y76057D01*
X30359Y76044D01*
X30284Y75974D01*
X30204Y75909D01*
X30187Y75883D01*
X30165Y75862D01*
X30114Y75773D01*
X30057Y75688D01*
X30051Y75664D01*
X30033Y75631D01*
X29975Y75372D01*
X29978Y75334D01*
X29973Y75311D01*
X29973Y64394D01*
X28954Y64555D01*
X27167Y65136D01*
X25493Y65989D01*
X23972Y67094D01*
X22644Y68422D01*
X21539Y69943D01*
X20686Y71617D01*
X20105Y73404D01*
X19927Y74528D01*
X19908Y74589D01*
X19898Y74652D01*
X19868Y74715D01*
X19847Y74781D01*
X19811Y74833D01*
X19783Y74891D01*
X19735Y74942D01*
X19695Y74999D01*
X19645Y75039D01*
X19601Y75085D01*
X19541Y75120D01*
X19486Y75163D01*
X19426Y75186D01*
X19371Y75217D01*
X19303Y75232D01*
X19237Y75257D01*
X19173Y75261D01*
X19111Y75275D01*
X19041Y75269D01*
X18972Y75274D01*
X18910Y75259D01*
X18846Y75253D01*
X18781Y75227D01*
X18713Y75211D01*
X18659Y75178D01*
X18599Y75154D01*
X18545Y75110D01*
X18485Y75074D01*
X18443Y75027D01*
X18393Y74987D01*
X18354Y74929D01*
X18308Y74877D01*
X18281Y74819D01*
X18246Y74766D01*
X18235Y74719D01*
X18197Y74635D01*
X18189Y74511D01*
X18162Y74389D01*
X18162Y43189D01*
X18165Y43168D01*
X18163Y43147D01*
X18185Y43037D01*
X18202Y42926D01*
X18211Y42907D01*
X18215Y42886D01*
X18239Y42848D01*
X18317Y42687D01*
X18394Y42604D01*
X18422Y42561D01*
X20134Y40849D01*
X23446Y35112D01*
X25161Y28713D01*
X25161Y22087D01*
X23446Y15688D01*
X21786Y12814D01*
X21743Y12702D01*
X21696Y12592D01*
X21694Y12579D01*
X21689Y12566D01*
X21681Y12447D01*
X21668Y12328D01*
X21671Y12314D01*
X21670Y12301D01*
X21697Y12185D01*
X21720Y12067D01*
X21726Y12058D01*
X21730Y12042D01*
X21864Y11812D01*
X21908Y11771D01*
X21927Y11741D01*
X23248Y10421D01*
X23265Y10408D01*
X23278Y10392D01*
X23372Y10330D01*
X23462Y10263D01*
X23482Y10256D01*
X23499Y10245D01*
X23544Y10235D01*
X23713Y10176D01*
X23826Y10172D01*
X23876Y10161D01*
X242824Y10161D01*
X242845Y10164D01*
G37*
%LPC*%
G36*
X91268Y13200D02*
X91268Y13200D01*
X90375Y14093D01*
X90375Y30357D01*
X91268Y31250D01*
X103668Y31250D01*
X103689Y31253D01*
X103710Y31251D01*
X103820Y31273D01*
X103931Y31290D01*
X103950Y31299D01*
X103971Y31303D01*
X104009Y31327D01*
X104170Y31405D01*
X104253Y31482D01*
X104296Y31510D01*
X115169Y42382D01*
X115206Y42432D01*
X115250Y42476D01*
X115284Y42539D01*
X115327Y42596D01*
X115347Y42655D01*
X115377Y42710D01*
X115390Y42780D01*
X115414Y42847D01*
X115416Y42909D01*
X115428Y42970D01*
X115420Y43018D01*
X115423Y43113D01*
X115402Y43190D01*
X115399Y43230D01*
X115375Y43289D01*
X115367Y43320D01*
X115361Y43351D01*
X115343Y43394D01*
X115343Y45506D01*
X116028Y47158D01*
X116030Y47168D01*
X116036Y47177D01*
X116062Y47297D01*
X116092Y47416D01*
X116091Y47427D01*
X116093Y47437D01*
X116083Y47559D01*
X116076Y47682D01*
X116073Y47691D01*
X116072Y47702D01*
X116026Y47816D01*
X115983Y47930D01*
X115977Y47939D01*
X115973Y47949D01*
X115895Y48044D01*
X115820Y48141D01*
X115812Y48147D01*
X115805Y48155D01*
X115703Y48223D01*
X115603Y48293D01*
X115593Y48297D01*
X115584Y48302D01*
X115553Y48309D01*
X115350Y48375D01*
X115254Y48376D01*
X115207Y48386D01*
X102489Y48386D01*
X102387Y48371D01*
X102285Y48363D01*
X102257Y48351D01*
X102226Y48346D01*
X102134Y48302D01*
X102038Y48264D01*
X102015Y48244D01*
X101987Y48231D01*
X101912Y48161D01*
X101832Y48096D01*
X101815Y48070D01*
X101793Y48049D01*
X101742Y47960D01*
X101685Y47875D01*
X101679Y47851D01*
X101661Y47819D01*
X101603Y47559D01*
X101605Y47537D01*
X101603Y47528D01*
X101604Y47513D01*
X101601Y47498D01*
X101601Y46866D01*
X100708Y45973D01*
X88871Y45973D01*
X88850Y45970D01*
X88829Y45972D01*
X88719Y45950D01*
X88608Y45933D01*
X88589Y45924D01*
X88568Y45920D01*
X88530Y45896D01*
X88369Y45818D01*
X88286Y45741D01*
X88243Y45713D01*
X78241Y35711D01*
X67063Y35711D01*
X66961Y35696D01*
X66859Y35688D01*
X66831Y35676D01*
X66800Y35671D01*
X66708Y35627D01*
X66612Y35589D01*
X66589Y35569D01*
X66561Y35556D01*
X66486Y35486D01*
X66406Y35421D01*
X66389Y35395D01*
X66367Y35374D01*
X66316Y35285D01*
X66259Y35200D01*
X66253Y35176D01*
X66235Y35144D01*
X66177Y34884D01*
X66180Y34846D01*
X66175Y34823D01*
X66175Y30993D01*
X65282Y30100D01*
X49018Y30100D01*
X48125Y30993D01*
X48125Y45257D01*
X49018Y46150D01*
X65282Y46150D01*
X66175Y45257D01*
X66175Y41427D01*
X66190Y41325D01*
X66198Y41223D01*
X66210Y41195D01*
X66215Y41164D01*
X66259Y41072D01*
X66297Y40976D01*
X66317Y40953D01*
X66330Y40925D01*
X66400Y40850D01*
X66465Y40770D01*
X66491Y40753D01*
X66512Y40731D01*
X66601Y40680D01*
X66686Y40623D01*
X66710Y40617D01*
X66742Y40599D01*
X67002Y40541D01*
X67040Y40544D01*
X67063Y40539D01*
X75873Y40539D01*
X75894Y40542D01*
X75915Y40540D01*
X76025Y40562D01*
X76136Y40579D01*
X76155Y40588D01*
X76176Y40592D01*
X76214Y40616D01*
X76375Y40694D01*
X76458Y40771D01*
X76501Y40799D01*
X80159Y44457D01*
X80190Y44498D01*
X80228Y44534D01*
X80268Y44605D01*
X80317Y44671D01*
X80334Y44720D01*
X80360Y44764D01*
X80378Y44844D01*
X80404Y44922D01*
X80406Y44974D01*
X80417Y45024D01*
X80411Y45106D01*
X80414Y45188D01*
X80400Y45237D01*
X80396Y45289D01*
X80365Y45365D01*
X80344Y45444D01*
X80316Y45488D01*
X80297Y45536D01*
X80245Y45599D01*
X80201Y45668D01*
X80162Y45702D01*
X80129Y45742D01*
X80061Y45787D01*
X79999Y45840D01*
X79951Y45861D01*
X79908Y45889D01*
X79858Y45901D01*
X79754Y45945D01*
X79576Y45963D01*
X79531Y45973D01*
X79124Y45973D01*
X78231Y46866D01*
X78231Y54734D01*
X79124Y55627D01*
X100708Y55627D01*
X101601Y54734D01*
X101601Y54102D01*
X101616Y54000D01*
X101624Y53898D01*
X101636Y53870D01*
X101641Y53839D01*
X101685Y53747D01*
X101723Y53651D01*
X101743Y53628D01*
X101756Y53600D01*
X101826Y53525D01*
X101891Y53445D01*
X101917Y53428D01*
X101938Y53406D01*
X102027Y53355D01*
X102112Y53298D01*
X102136Y53292D01*
X102168Y53274D01*
X102428Y53216D01*
X102466Y53219D01*
X102489Y53214D01*
X128000Y53214D01*
X137265Y43949D01*
X137282Y43936D01*
X137295Y43920D01*
X137388Y43858D01*
X137479Y43791D01*
X137498Y43784D01*
X137516Y43773D01*
X137560Y43763D01*
X137730Y43704D01*
X137842Y43700D01*
X137893Y43689D01*
X174237Y43689D01*
X174339Y43704D01*
X174441Y43712D01*
X174469Y43724D01*
X174500Y43729D01*
X174592Y43773D01*
X174688Y43811D01*
X174711Y43831D01*
X174739Y43844D01*
X174814Y43914D01*
X174894Y43979D01*
X174911Y44005D01*
X174933Y44026D01*
X174984Y44115D01*
X175041Y44200D01*
X175047Y44224D01*
X175065Y44256D01*
X175123Y44516D01*
X175120Y44554D01*
X175125Y44577D01*
X175125Y57907D01*
X176018Y58800D01*
X180848Y58800D01*
X180950Y58815D01*
X181052Y58823D01*
X181080Y58835D01*
X181111Y58840D01*
X181203Y58884D01*
X181299Y58922D01*
X181322Y58942D01*
X181350Y58955D01*
X181425Y59025D01*
X181505Y59090D01*
X181522Y59116D01*
X181544Y59137D01*
X181595Y59226D01*
X181652Y59311D01*
X181658Y59335D01*
X181676Y59367D01*
X181734Y59627D01*
X181731Y59665D01*
X181736Y59688D01*
X181736Y63112D01*
X181721Y63214D01*
X181713Y63316D01*
X181701Y63344D01*
X181696Y63375D01*
X181652Y63467D01*
X181614Y63563D01*
X181594Y63586D01*
X181581Y63614D01*
X181511Y63689D01*
X181446Y63769D01*
X181420Y63786D01*
X181399Y63808D01*
X181310Y63859D01*
X181225Y63916D01*
X181201Y63922D01*
X181169Y63940D01*
X180909Y63998D01*
X180871Y63995D01*
X180848Y64000D01*
X180218Y64000D01*
X179325Y64893D01*
X179325Y72898D01*
X179310Y73000D01*
X179302Y73102D01*
X179290Y73130D01*
X179285Y73161D01*
X179241Y73253D01*
X179203Y73349D01*
X179183Y73372D01*
X179170Y73400D01*
X179100Y73475D01*
X179035Y73555D01*
X179009Y73572D01*
X178988Y73594D01*
X178899Y73645D01*
X178814Y73702D01*
X178790Y73708D01*
X178758Y73726D01*
X178498Y73784D01*
X178460Y73781D01*
X178437Y73786D01*
X163957Y73786D01*
X163855Y73771D01*
X163753Y73763D01*
X163725Y73751D01*
X163694Y73746D01*
X163602Y73702D01*
X163506Y73664D01*
X163483Y73644D01*
X163455Y73631D01*
X163380Y73561D01*
X163300Y73496D01*
X163283Y73470D01*
X163261Y73449D01*
X163210Y73360D01*
X163153Y73275D01*
X163147Y73251D01*
X163129Y73219D01*
X163071Y72959D01*
X163074Y72921D01*
X163069Y72898D01*
X163069Y72266D01*
X162176Y71373D01*
X140592Y71373D01*
X139699Y72266D01*
X139699Y80134D01*
X140592Y81027D01*
X162176Y81027D01*
X163069Y80134D01*
X163069Y79502D01*
X163084Y79400D01*
X163092Y79298D01*
X163104Y79270D01*
X163109Y79239D01*
X163153Y79147D01*
X163191Y79051D01*
X163211Y79028D01*
X163224Y79000D01*
X163294Y78925D01*
X163359Y78845D01*
X163385Y78828D01*
X163406Y78806D01*
X163495Y78755D01*
X163580Y78698D01*
X163604Y78692D01*
X163636Y78674D01*
X163896Y78616D01*
X163934Y78619D01*
X163957Y78614D01*
X178437Y78614D01*
X178539Y78629D01*
X178641Y78637D01*
X178669Y78649D01*
X178700Y78654D01*
X178792Y78698D01*
X178888Y78736D01*
X178911Y78756D01*
X178939Y78769D01*
X179014Y78839D01*
X179094Y78904D01*
X179111Y78930D01*
X179133Y78951D01*
X179184Y79040D01*
X179241Y79125D01*
X179247Y79149D01*
X179265Y79181D01*
X179323Y79441D01*
X179320Y79479D01*
X179325Y79502D01*
X179325Y81157D01*
X180218Y82050D01*
X194482Y82050D01*
X195375Y81157D01*
X195375Y64893D01*
X194482Y64000D01*
X187452Y64000D01*
X187350Y63985D01*
X187248Y63977D01*
X187220Y63965D01*
X187189Y63960D01*
X187097Y63916D01*
X187001Y63878D01*
X186978Y63858D01*
X186950Y63845D01*
X186875Y63775D01*
X186795Y63710D01*
X186778Y63684D01*
X186756Y63663D01*
X186705Y63574D01*
X186648Y63489D01*
X186642Y63465D01*
X186624Y63433D01*
X186566Y63173D01*
X186569Y63135D01*
X186564Y63112D01*
X186564Y59688D01*
X186579Y59586D01*
X186587Y59484D01*
X186599Y59456D01*
X186604Y59425D01*
X186648Y59333D01*
X186686Y59237D01*
X186706Y59214D01*
X186719Y59186D01*
X186789Y59111D01*
X186854Y59031D01*
X186880Y59014D01*
X186901Y58992D01*
X186990Y58941D01*
X187075Y58884D01*
X187099Y58878D01*
X187131Y58860D01*
X187391Y58802D01*
X187429Y58805D01*
X187452Y58800D01*
X192282Y58800D01*
X193175Y57907D01*
X193175Y44577D01*
X193190Y44475D01*
X193198Y44373D01*
X193210Y44345D01*
X193215Y44314D01*
X193259Y44222D01*
X193297Y44126D01*
X193317Y44103D01*
X193330Y44075D01*
X193400Y44000D01*
X193465Y43920D01*
X193491Y43903D01*
X193512Y43881D01*
X193601Y43830D01*
X193686Y43773D01*
X193710Y43767D01*
X193742Y43749D01*
X194002Y43691D01*
X194040Y43694D01*
X194063Y43689D01*
X198682Y43689D01*
X198703Y43692D01*
X198724Y43690D01*
X198834Y43712D01*
X198945Y43729D01*
X198964Y43738D01*
X198985Y43742D01*
X199023Y43766D01*
X199184Y43844D01*
X199267Y43921D01*
X199310Y43949D01*
X200265Y44904D01*
X200278Y44921D01*
X200294Y44934D01*
X200356Y45027D01*
X200423Y45118D01*
X200430Y45137D01*
X200441Y45155D01*
X200451Y45199D01*
X200510Y45369D01*
X200514Y45481D01*
X200525Y45532D01*
X200525Y57907D01*
X201418Y58800D01*
X217682Y58800D01*
X218575Y57907D01*
X218575Y43643D01*
X217682Y42750D01*
X205307Y42750D01*
X205286Y42747D01*
X205265Y42749D01*
X205155Y42727D01*
X205044Y42710D01*
X205025Y42701D01*
X205004Y42697D01*
X204966Y42673D01*
X204805Y42595D01*
X204722Y42518D01*
X204679Y42490D01*
X203505Y41316D01*
X203474Y41275D01*
X203436Y41239D01*
X203396Y41168D01*
X203347Y41102D01*
X203330Y41053D01*
X203304Y41009D01*
X203286Y40929D01*
X203260Y40851D01*
X203258Y40799D01*
X203247Y40749D01*
X203253Y40667D01*
X203250Y40585D01*
X203264Y40536D01*
X203268Y40484D01*
X203299Y40408D01*
X203320Y40329D01*
X203348Y40285D01*
X203367Y40237D01*
X203419Y40174D01*
X203463Y40105D01*
X203502Y40071D01*
X203535Y40031D01*
X203603Y39986D01*
X203665Y39933D01*
X203713Y39912D01*
X203756Y39884D01*
X203806Y39872D01*
X203910Y39828D01*
X204088Y39810D01*
X204133Y39800D01*
X217682Y39800D01*
X218575Y38907D01*
X218575Y35077D01*
X218590Y34975D01*
X218598Y34873D01*
X218610Y34845D01*
X218615Y34814D01*
X218659Y34722D01*
X218697Y34626D01*
X218717Y34603D01*
X218730Y34575D01*
X218800Y34500D01*
X218865Y34420D01*
X218891Y34403D01*
X218912Y34381D01*
X219001Y34330D01*
X219086Y34273D01*
X219110Y34267D01*
X219142Y34249D01*
X219402Y34191D01*
X219440Y34194D01*
X219463Y34189D01*
X225037Y34189D01*
X225139Y34204D01*
X225241Y34212D01*
X225269Y34224D01*
X225300Y34229D01*
X225392Y34273D01*
X225488Y34311D01*
X225511Y34331D01*
X225539Y34344D01*
X225614Y34414D01*
X225694Y34479D01*
X225711Y34505D01*
X225733Y34526D01*
X225784Y34615D01*
X225841Y34700D01*
X225847Y34724D01*
X225865Y34756D01*
X225923Y35016D01*
X225920Y35054D01*
X225925Y35077D01*
X225925Y38907D01*
X226818Y39800D01*
X243082Y39800D01*
X243975Y38907D01*
X243975Y24643D01*
X243082Y23750D01*
X226818Y23750D01*
X225925Y24643D01*
X225925Y28473D01*
X225910Y28575D01*
X225902Y28677D01*
X225890Y28705D01*
X225885Y28736D01*
X225841Y28828D01*
X225803Y28924D01*
X225783Y28947D01*
X225770Y28975D01*
X225700Y29050D01*
X225635Y29130D01*
X225609Y29147D01*
X225588Y29169D01*
X225499Y29220D01*
X225414Y29277D01*
X225390Y29283D01*
X225358Y29301D01*
X225098Y29359D01*
X225060Y29356D01*
X225037Y29361D01*
X219463Y29361D01*
X219361Y29346D01*
X219259Y29338D01*
X219231Y29326D01*
X219200Y29321D01*
X219108Y29277D01*
X219012Y29239D01*
X218989Y29219D01*
X218961Y29206D01*
X218886Y29136D01*
X218806Y29071D01*
X218789Y29045D01*
X218767Y29024D01*
X218716Y28935D01*
X218659Y28850D01*
X218653Y28826D01*
X218635Y28794D01*
X218577Y28534D01*
X218580Y28496D01*
X218575Y28473D01*
X218575Y24643D01*
X217682Y23750D01*
X201418Y23750D01*
X200525Y24643D01*
X200525Y28473D01*
X200510Y28575D01*
X200502Y28677D01*
X200490Y28705D01*
X200485Y28736D01*
X200441Y28828D01*
X200403Y28924D01*
X200383Y28947D01*
X200370Y28975D01*
X200300Y29050D01*
X200235Y29130D01*
X200209Y29147D01*
X200188Y29169D01*
X200099Y29220D01*
X200014Y29277D01*
X199990Y29283D01*
X199958Y29301D01*
X199698Y29359D01*
X199660Y29356D01*
X199637Y29361D01*
X194063Y29361D01*
X193961Y29346D01*
X193859Y29338D01*
X193831Y29326D01*
X193800Y29321D01*
X193708Y29277D01*
X193612Y29239D01*
X193589Y29219D01*
X193561Y29206D01*
X193486Y29136D01*
X193406Y29071D01*
X193389Y29045D01*
X193367Y29024D01*
X193316Y28935D01*
X193259Y28850D01*
X193253Y28826D01*
X193235Y28794D01*
X193177Y28534D01*
X193180Y28496D01*
X193175Y28473D01*
X193175Y24643D01*
X192282Y23750D01*
X176018Y23750D01*
X175125Y24643D01*
X175125Y37973D01*
X175110Y38075D01*
X175102Y38177D01*
X175090Y38205D01*
X175085Y38236D01*
X175041Y38328D01*
X175003Y38424D01*
X174983Y38447D01*
X174970Y38475D01*
X174900Y38550D01*
X174835Y38630D01*
X174809Y38647D01*
X174788Y38669D01*
X174699Y38720D01*
X174614Y38777D01*
X174590Y38783D01*
X174558Y38801D01*
X174298Y38859D01*
X174260Y38856D01*
X174237Y38861D01*
X135525Y38861D01*
X133851Y40535D01*
X127047Y47340D01*
X126972Y47395D01*
X126903Y47456D01*
X126866Y47473D01*
X126833Y47498D01*
X126745Y47528D01*
X126661Y47566D01*
X126621Y47571D01*
X126582Y47585D01*
X126489Y47588D01*
X126398Y47600D01*
X126357Y47593D01*
X126316Y47594D01*
X126227Y47570D01*
X126136Y47554D01*
X126099Y47535D01*
X126059Y47524D01*
X125981Y47475D01*
X125899Y47432D01*
X125870Y47404D01*
X125835Y47382D01*
X125775Y47311D01*
X125709Y47247D01*
X125690Y47210D01*
X125663Y47179D01*
X125627Y47094D01*
X125583Y47013D01*
X125575Y46972D01*
X125559Y46935D01*
X125549Y46843D01*
X125531Y46752D01*
X125537Y46721D01*
X125531Y46670D01*
X125583Y46409D01*
X125594Y46392D01*
X125598Y46372D01*
X125957Y45506D01*
X125957Y43394D01*
X125149Y41444D01*
X123656Y39951D01*
X121706Y39143D01*
X119594Y39143D01*
X119551Y39161D01*
X119490Y39176D01*
X119433Y39201D01*
X119362Y39208D01*
X119293Y39225D01*
X119231Y39222D01*
X119169Y39228D01*
X119099Y39214D01*
X119027Y39210D01*
X118969Y39188D01*
X118908Y39176D01*
X118868Y39150D01*
X118778Y39117D01*
X118609Y38986D01*
X118582Y38969D01*
X106685Y27071D01*
X106672Y27054D01*
X106656Y27041D01*
X106594Y26948D01*
X106527Y26857D01*
X106520Y26838D01*
X106509Y26820D01*
X106499Y26776D01*
X106440Y26606D01*
X106436Y26494D01*
X106425Y26443D01*
X106425Y14093D01*
X105532Y13200D01*
X91268Y13200D01*
G37*
%LPD*%
G36*
X396589Y139310D02*
X396589Y139310D01*
X396691Y139318D01*
X396719Y139330D01*
X396750Y139335D01*
X396842Y139379D01*
X396938Y139417D01*
X396961Y139437D01*
X396989Y139450D01*
X397064Y139520D01*
X397144Y139585D01*
X397161Y139611D01*
X397183Y139632D01*
X397234Y139721D01*
X397291Y139806D01*
X397297Y139830D01*
X397315Y139862D01*
X397373Y140122D01*
X397370Y140160D01*
X397375Y140183D01*
X397375Y143632D01*
X398268Y144525D01*
X414532Y144525D01*
X415425Y143632D01*
X415425Y140183D01*
X415440Y140081D01*
X415448Y139979D01*
X415460Y139951D01*
X415465Y139920D01*
X415509Y139828D01*
X415547Y139732D01*
X415567Y139709D01*
X415580Y139681D01*
X415650Y139606D01*
X415715Y139526D01*
X415741Y139509D01*
X415762Y139487D01*
X415851Y139436D01*
X415936Y139379D01*
X415960Y139373D01*
X415992Y139355D01*
X416252Y139297D01*
X416290Y139300D01*
X416313Y139295D01*
X426414Y139295D01*
X426435Y139298D01*
X426456Y139296D01*
X426566Y139318D01*
X426677Y139335D01*
X426696Y139344D01*
X426717Y139348D01*
X426755Y139372D01*
X426917Y139450D01*
X426999Y139527D01*
X427043Y139555D01*
X435603Y148115D01*
X435616Y148132D01*
X435632Y148146D01*
X435694Y148239D01*
X435761Y148329D01*
X435768Y148349D01*
X435779Y148367D01*
X435789Y148411D01*
X435848Y148580D01*
X435852Y148693D01*
X435863Y148744D01*
X435863Y181425D01*
X435858Y181463D01*
X435860Y181501D01*
X435844Y181551D01*
X435823Y181688D01*
X435760Y181819D01*
X435744Y181869D01*
X435657Y182019D01*
X435484Y182665D01*
X435484Y188885D01*
X435552Y188948D01*
X435632Y189013D01*
X435649Y189039D01*
X435671Y189060D01*
X435722Y189149D01*
X435779Y189234D01*
X435785Y189258D01*
X435803Y189290D01*
X435861Y189550D01*
X435858Y189588D01*
X435863Y189611D01*
X435863Y191389D01*
X435848Y191490D01*
X435840Y191593D01*
X435828Y191621D01*
X435823Y191652D01*
X435779Y191744D01*
X435741Y191839D01*
X435721Y191863D01*
X435708Y191891D01*
X435638Y191966D01*
X435573Y192046D01*
X435547Y192063D01*
X435526Y192085D01*
X435484Y192109D01*
X435484Y198335D01*
X435657Y198981D01*
X435744Y199131D01*
X435758Y199167D01*
X435779Y199198D01*
X435791Y199250D01*
X435841Y199379D01*
X435852Y199524D01*
X435863Y199575D01*
X435863Y200025D01*
X435860Y200046D01*
X435862Y200067D01*
X435840Y200177D01*
X435823Y200288D01*
X435814Y200307D01*
X435810Y200327D01*
X435786Y200366D01*
X435708Y200527D01*
X435631Y200610D01*
X435603Y200653D01*
X429380Y206876D01*
X429363Y206889D01*
X429350Y206905D01*
X429256Y206967D01*
X429166Y207034D01*
X429146Y207041D01*
X429129Y207052D01*
X429084Y207062D01*
X428915Y207121D01*
X428802Y207125D01*
X428752Y207136D01*
X369668Y207136D01*
X369647Y207133D01*
X369626Y207135D01*
X369516Y207113D01*
X369405Y207096D01*
X369386Y207087D01*
X369365Y207083D01*
X369327Y207059D01*
X369166Y206981D01*
X369083Y206904D01*
X369040Y206876D01*
X357580Y195416D01*
X357549Y195375D01*
X357511Y195339D01*
X357471Y195268D01*
X357422Y195202D01*
X357405Y195153D01*
X357379Y195109D01*
X357361Y195029D01*
X357335Y194951D01*
X357333Y194899D01*
X357322Y194849D01*
X357328Y194767D01*
X357325Y194685D01*
X357339Y194636D01*
X357343Y194584D01*
X357374Y194508D01*
X357395Y194429D01*
X357423Y194385D01*
X357442Y194337D01*
X357494Y194274D01*
X357538Y194205D01*
X357577Y194171D01*
X357610Y194131D01*
X357678Y194086D01*
X357740Y194033D01*
X357788Y194012D01*
X357831Y193984D01*
X357881Y193972D01*
X357985Y193928D01*
X358163Y193910D01*
X358208Y193900D01*
X364743Y193900D01*
X364764Y193903D01*
X364785Y193901D01*
X364895Y193923D01*
X365006Y193940D01*
X365025Y193949D01*
X365046Y193953D01*
X365084Y193977D01*
X365245Y194055D01*
X365328Y194132D01*
X365371Y194160D01*
X368801Y197590D01*
X370475Y199264D01*
X394700Y199264D01*
X402489Y191475D01*
X402489Y190888D01*
X402504Y190786D01*
X402512Y190684D01*
X402524Y190656D01*
X402529Y190625D01*
X402573Y190533D01*
X402611Y190437D01*
X402631Y190414D01*
X402644Y190386D01*
X402714Y190311D01*
X402779Y190231D01*
X402805Y190214D01*
X402826Y190192D01*
X402915Y190141D01*
X403000Y190084D01*
X403024Y190078D01*
X403056Y190060D01*
X403316Y190002D01*
X403354Y190005D01*
X403377Y190000D01*
X407207Y190000D01*
X408100Y189107D01*
X408100Y172843D01*
X407207Y171950D01*
X392943Y171950D01*
X392050Y172843D01*
X392050Y189107D01*
X392943Y190000D01*
X394992Y190000D01*
X395043Y190007D01*
X395095Y190006D01*
X395174Y190027D01*
X395255Y190040D01*
X395302Y190062D01*
X395351Y190076D01*
X395421Y190120D01*
X395494Y190155D01*
X395532Y190190D01*
X395576Y190218D01*
X395629Y190281D01*
X395689Y190337D01*
X395714Y190381D01*
X395748Y190421D01*
X395780Y190496D01*
X395821Y190567D01*
X395832Y190618D01*
X395852Y190665D01*
X395861Y190747D01*
X395878Y190827D01*
X395874Y190878D01*
X395880Y190930D01*
X395864Y191010D01*
X395857Y191092D01*
X395838Y191140D01*
X395828Y191190D01*
X395800Y191234D01*
X395758Y191339D01*
X395645Y191478D01*
X395620Y191516D01*
X392960Y194176D01*
X392943Y194189D01*
X392930Y194205D01*
X392837Y194267D01*
X392746Y194334D01*
X392727Y194341D01*
X392709Y194352D01*
X392665Y194362D01*
X392495Y194421D01*
X392383Y194425D01*
X392332Y194436D01*
X387964Y194436D01*
X387913Y194429D01*
X387862Y194430D01*
X387783Y194409D01*
X387702Y194396D01*
X387655Y194374D01*
X387605Y194360D01*
X387536Y194316D01*
X387462Y194281D01*
X387424Y194245D01*
X387381Y194218D01*
X387328Y194155D01*
X387268Y194099D01*
X387242Y194054D01*
X387209Y194015D01*
X387177Y193940D01*
X387136Y193869D01*
X387125Y193818D01*
X387105Y193771D01*
X387096Y193689D01*
X387078Y193609D01*
X387082Y193558D01*
X387077Y193506D01*
X387093Y193426D01*
X387100Y193344D01*
X387119Y193296D01*
X387129Y193246D01*
X387157Y193202D01*
X387199Y193097D01*
X387250Y193035D01*
X387250Y179743D01*
X386357Y178850D01*
X374093Y178850D01*
X373200Y179743D01*
X373200Y193017D01*
X373193Y193068D01*
X373194Y193120D01*
X373173Y193199D01*
X373160Y193280D01*
X373138Y193327D01*
X373124Y193376D01*
X373080Y193446D01*
X373045Y193519D01*
X373010Y193557D01*
X372982Y193601D01*
X372919Y193654D01*
X372863Y193714D01*
X372819Y193739D01*
X372779Y193773D01*
X372704Y193805D01*
X372633Y193846D01*
X372582Y193857D01*
X372535Y193877D01*
X372453Y193886D01*
X372373Y193903D01*
X372322Y193899D01*
X372270Y193905D01*
X372190Y193889D01*
X372108Y193882D01*
X372060Y193863D01*
X372010Y193853D01*
X371966Y193825D01*
X371861Y193783D01*
X371722Y193670D01*
X371684Y193645D01*
X370010Y191971D01*
X369997Y191954D01*
X369981Y191941D01*
X369919Y191848D01*
X369852Y191757D01*
X369845Y191738D01*
X369834Y191720D01*
X369824Y191676D01*
X369765Y191506D01*
X369761Y191394D01*
X369750Y191343D01*
X369750Y179743D01*
X368857Y178850D01*
X358982Y178850D01*
X358961Y178847D01*
X358940Y178849D01*
X358830Y178827D01*
X358719Y178810D01*
X358700Y178801D01*
X358679Y178797D01*
X358641Y178773D01*
X358480Y178695D01*
X358397Y178618D01*
X358354Y178590D01*
X356750Y176986D01*
X356737Y176969D01*
X356721Y176956D01*
X356659Y176862D01*
X356592Y176772D01*
X356585Y176753D01*
X356574Y176735D01*
X356564Y176690D01*
X356505Y176521D01*
X356501Y176409D01*
X356490Y176358D01*
X356490Y171288D01*
X356505Y171186D01*
X356513Y171084D01*
X356525Y171056D01*
X356530Y171025D01*
X356574Y170933D01*
X356612Y170837D01*
X356632Y170814D01*
X356645Y170786D01*
X356715Y170711D01*
X356780Y170631D01*
X356806Y170614D01*
X356827Y170592D01*
X356916Y170541D01*
X357001Y170484D01*
X357025Y170478D01*
X357057Y170460D01*
X357317Y170402D01*
X357355Y170405D01*
X357378Y170400D01*
X368857Y170400D01*
X369750Y169507D01*
X369750Y156243D01*
X368857Y155350D01*
X357378Y155350D01*
X357276Y155335D01*
X357174Y155327D01*
X357146Y155315D01*
X357115Y155310D01*
X357023Y155266D01*
X356927Y155228D01*
X356904Y155208D01*
X356876Y155195D01*
X356801Y155125D01*
X356721Y155060D01*
X356704Y155034D01*
X356682Y155013D01*
X356631Y154924D01*
X356574Y154839D01*
X356568Y154815D01*
X356550Y154783D01*
X356492Y154523D01*
X356495Y154485D01*
X356490Y154462D01*
X356490Y153857D01*
X356505Y153755D01*
X356513Y153653D01*
X356525Y153625D01*
X356530Y153594D01*
X356574Y153502D01*
X356612Y153406D01*
X356632Y153383D01*
X356645Y153355D01*
X356715Y153280D01*
X356780Y153200D01*
X356806Y153183D01*
X356827Y153161D01*
X356916Y153110D01*
X357001Y153053D01*
X357025Y153047D01*
X357057Y153029D01*
X357317Y152971D01*
X357355Y152974D01*
X357378Y152969D01*
X361058Y152969D01*
X361951Y152076D01*
X361951Y145205D01*
X361943Y145195D01*
X361877Y145117D01*
X361865Y145089D01*
X361847Y145064D01*
X361813Y144967D01*
X361773Y144873D01*
X361769Y144842D01*
X361759Y144813D01*
X361756Y144710D01*
X361745Y144608D01*
X361751Y144578D01*
X361750Y144547D01*
X361777Y144448D01*
X361797Y144348D01*
X361810Y144327D01*
X361820Y144291D01*
X361951Y144085D01*
X361951Y143952D01*
X361966Y143850D01*
X361974Y143748D01*
X361986Y143720D01*
X361991Y143689D01*
X362035Y143597D01*
X362073Y143501D01*
X362093Y143478D01*
X362106Y143450D01*
X362176Y143375D01*
X362241Y143295D01*
X362267Y143278D01*
X362288Y143256D01*
X362377Y143205D01*
X362462Y143148D01*
X362486Y143142D01*
X362518Y143124D01*
X362778Y143066D01*
X362816Y143069D01*
X362839Y143064D01*
X362982Y143064D01*
X363003Y143067D01*
X363024Y143065D01*
X363134Y143087D01*
X363245Y143104D01*
X363264Y143113D01*
X363285Y143117D01*
X363323Y143141D01*
X363484Y143219D01*
X363567Y143296D01*
X363610Y143324D01*
X374237Y153951D01*
X374298Y154033D01*
X374364Y154111D01*
X374376Y154140D01*
X374395Y154164D01*
X374428Y154262D01*
X374469Y154356D01*
X374472Y154386D01*
X374482Y154416D01*
X374486Y154518D01*
X374496Y154620D01*
X374490Y154650D01*
X374491Y154681D01*
X374464Y154780D01*
X374444Y154881D01*
X374431Y154901D01*
X374421Y154938D01*
X374279Y155162D01*
X374250Y155187D01*
X374237Y155207D01*
X373200Y156243D01*
X373200Y169507D01*
X374093Y170400D01*
X386357Y170400D01*
X387250Y169507D01*
X387250Y165227D01*
X387265Y165125D01*
X387273Y165023D01*
X387285Y164995D01*
X387290Y164964D01*
X387334Y164872D01*
X387372Y164776D01*
X387392Y164753D01*
X387405Y164725D01*
X387475Y164650D01*
X387540Y164570D01*
X387566Y164553D01*
X387587Y164531D01*
X387676Y164480D01*
X387761Y164423D01*
X387785Y164417D01*
X387817Y164399D01*
X388077Y164341D01*
X388115Y164344D01*
X388138Y164339D01*
X391162Y164339D01*
X391264Y164354D01*
X391366Y164362D01*
X391394Y164374D01*
X391425Y164379D01*
X391517Y164423D01*
X391613Y164461D01*
X391636Y164481D01*
X391664Y164494D01*
X391739Y164564D01*
X391819Y164629D01*
X391836Y164655D01*
X391858Y164676D01*
X391909Y164765D01*
X391966Y164850D01*
X391972Y164874D01*
X391990Y164906D01*
X392048Y165166D01*
X392045Y165204D01*
X392050Y165227D01*
X392050Y166882D01*
X392943Y167775D01*
X407207Y167775D01*
X408100Y166882D01*
X408100Y150618D01*
X407207Y149725D01*
X392943Y149725D01*
X392050Y150618D01*
X392050Y158623D01*
X392035Y158725D01*
X392027Y158827D01*
X392015Y158855D01*
X392010Y158886D01*
X391966Y158978D01*
X391928Y159074D01*
X391908Y159097D01*
X391895Y159125D01*
X391825Y159200D01*
X391760Y159280D01*
X391734Y159297D01*
X391713Y159319D01*
X391624Y159370D01*
X391539Y159427D01*
X391515Y159433D01*
X391483Y159451D01*
X391223Y159509D01*
X391185Y159506D01*
X391162Y159511D01*
X388138Y159511D01*
X388036Y159496D01*
X387934Y159488D01*
X387906Y159476D01*
X387875Y159471D01*
X387783Y159427D01*
X387687Y159389D01*
X387664Y159369D01*
X387636Y159356D01*
X387561Y159286D01*
X387481Y159221D01*
X387464Y159195D01*
X387442Y159174D01*
X387391Y159085D01*
X387334Y159000D01*
X387328Y158976D01*
X387310Y158944D01*
X387252Y158684D01*
X387255Y158646D01*
X387250Y158623D01*
X387250Y156243D01*
X386357Y155350D01*
X382832Y155350D01*
X382811Y155347D01*
X382790Y155349D01*
X382680Y155327D01*
X382569Y155310D01*
X382550Y155301D01*
X382529Y155297D01*
X382491Y155273D01*
X382330Y155195D01*
X382247Y155118D01*
X382204Y155090D01*
X380965Y153851D01*
X373155Y146041D01*
X373124Y146000D01*
X373086Y145964D01*
X373046Y145893D01*
X372997Y145827D01*
X372980Y145778D01*
X372954Y145734D01*
X372936Y145654D01*
X372910Y145576D01*
X372908Y145524D01*
X372897Y145474D01*
X372903Y145392D01*
X372900Y145310D01*
X372914Y145261D01*
X372918Y145209D01*
X372949Y145133D01*
X372970Y145054D01*
X372998Y145010D01*
X373017Y144962D01*
X373069Y144899D01*
X373113Y144830D01*
X373152Y144796D01*
X373185Y144756D01*
X373253Y144711D01*
X373315Y144658D01*
X373363Y144637D01*
X373406Y144609D01*
X373456Y144597D01*
X373560Y144553D01*
X373738Y144535D01*
X373783Y144525D01*
X389132Y144525D01*
X390025Y143632D01*
X390025Y140183D01*
X390040Y140081D01*
X390048Y139979D01*
X390060Y139951D01*
X390065Y139920D01*
X390109Y139828D01*
X390147Y139732D01*
X390167Y139709D01*
X390180Y139681D01*
X390250Y139606D01*
X390315Y139526D01*
X390341Y139509D01*
X390362Y139487D01*
X390451Y139436D01*
X390536Y139379D01*
X390560Y139373D01*
X390592Y139355D01*
X390852Y139297D01*
X390890Y139300D01*
X390913Y139295D01*
X396487Y139295D01*
X396589Y139310D01*
G37*
G36*
X345415Y97552D02*
X345415Y97552D01*
X345517Y97560D01*
X345545Y97572D01*
X345576Y97577D01*
X345668Y97621D01*
X345764Y97659D01*
X345787Y97679D01*
X345815Y97692D01*
X345890Y97762D01*
X345970Y97827D01*
X345987Y97853D01*
X346009Y97874D01*
X346060Y97963D01*
X346117Y98048D01*
X346123Y98072D01*
X346141Y98104D01*
X346199Y98364D01*
X346196Y98402D01*
X346201Y98425D01*
X346201Y103420D01*
X346198Y103440D01*
X346200Y103461D01*
X346178Y103572D01*
X346161Y103683D01*
X346152Y103701D01*
X346148Y103722D01*
X346124Y103761D01*
X346046Y103922D01*
X345969Y104004D01*
X345941Y104048D01*
X345693Y104296D01*
X345358Y104875D01*
X345185Y105521D01*
X345185Y107254D01*
X353568Y107254D01*
X353669Y107269D01*
X353772Y107277D01*
X353800Y107289D01*
X353831Y107293D01*
X353923Y107338D01*
X354018Y107376D01*
X354042Y107396D01*
X354070Y107409D01*
X354080Y107419D01*
X354122Y107395D01*
X354207Y107338D01*
X354231Y107332D01*
X354264Y107314D01*
X354523Y107256D01*
X354561Y107259D01*
X354584Y107254D01*
X362967Y107254D01*
X362967Y105521D01*
X362794Y104875D01*
X362517Y104396D01*
X362492Y104332D01*
X362458Y104273D01*
X362444Y104209D01*
X362420Y104149D01*
X362415Y104080D01*
X362400Y104013D01*
X362405Y103948D01*
X362401Y103884D01*
X362416Y103817D01*
X362422Y103748D01*
X362446Y103688D01*
X362460Y103625D01*
X362495Y103565D01*
X362521Y103501D01*
X362562Y103451D01*
X362594Y103395D01*
X362645Y103349D01*
X362688Y103295D01*
X362742Y103259D01*
X362790Y103215D01*
X362852Y103186D01*
X362909Y103148D01*
X362953Y103138D01*
X363030Y103101D01*
X363273Y103067D01*
X363286Y103064D01*
X423132Y103064D01*
X423153Y103067D01*
X423174Y103065D01*
X423284Y103087D01*
X423395Y103104D01*
X423414Y103113D01*
X423435Y103117D01*
X423473Y103141D01*
X423634Y103219D01*
X423717Y103296D01*
X423760Y103324D01*
X435603Y115167D01*
X435616Y115184D01*
X435632Y115197D01*
X435694Y115290D01*
X435761Y115381D01*
X435768Y115400D01*
X435779Y115418D01*
X435789Y115462D01*
X435848Y115632D01*
X435852Y115744D01*
X435863Y115795D01*
X435863Y138326D01*
X435856Y138377D01*
X435857Y138429D01*
X435836Y138508D01*
X435823Y138589D01*
X435801Y138636D01*
X435787Y138686D01*
X435743Y138755D01*
X435708Y138829D01*
X435673Y138866D01*
X435645Y138910D01*
X435582Y138963D01*
X435526Y139023D01*
X435482Y139049D01*
X435442Y139082D01*
X435367Y139114D01*
X435296Y139155D01*
X435245Y139166D01*
X435198Y139186D01*
X435116Y139195D01*
X435036Y139213D01*
X434985Y139208D01*
X434933Y139214D01*
X434853Y139198D01*
X434771Y139191D01*
X434723Y139172D01*
X434673Y139162D01*
X434629Y139134D01*
X434524Y139092D01*
X434385Y138979D01*
X434347Y138955D01*
X429098Y133705D01*
X416313Y133705D01*
X416211Y133690D01*
X416109Y133682D01*
X416081Y133670D01*
X416050Y133665D01*
X415958Y133621D01*
X415862Y133583D01*
X415839Y133563D01*
X415811Y133550D01*
X415736Y133480D01*
X415656Y133415D01*
X415639Y133389D01*
X415617Y133368D01*
X415566Y133279D01*
X415509Y133194D01*
X415503Y133170D01*
X415485Y133138D01*
X415427Y132878D01*
X415430Y132840D01*
X415425Y132817D01*
X415425Y129368D01*
X414532Y128475D01*
X398268Y128475D01*
X397375Y129368D01*
X397375Y132817D01*
X397360Y132919D01*
X397352Y133021D01*
X397340Y133049D01*
X397335Y133080D01*
X397291Y133172D01*
X397253Y133268D01*
X397233Y133291D01*
X397220Y133319D01*
X397150Y133394D01*
X397085Y133474D01*
X397059Y133491D01*
X397038Y133513D01*
X396949Y133564D01*
X396864Y133621D01*
X396840Y133627D01*
X396808Y133645D01*
X396548Y133703D01*
X396510Y133700D01*
X396487Y133705D01*
X390913Y133705D01*
X390811Y133690D01*
X390709Y133682D01*
X390681Y133670D01*
X390650Y133665D01*
X390558Y133621D01*
X390462Y133583D01*
X390439Y133563D01*
X390411Y133550D01*
X390336Y133480D01*
X390256Y133415D01*
X390239Y133389D01*
X390217Y133368D01*
X390166Y133279D01*
X390109Y133194D01*
X390103Y133170D01*
X390085Y133138D01*
X390027Y132878D01*
X390030Y132840D01*
X390025Y132817D01*
X390025Y129368D01*
X389132Y128475D01*
X372868Y128475D01*
X372611Y128733D01*
X372570Y128763D01*
X372534Y128801D01*
X372463Y128842D01*
X372397Y128890D01*
X372348Y128907D01*
X372304Y128933D01*
X372224Y128951D01*
X372146Y128978D01*
X372094Y128979D01*
X372044Y128991D01*
X371962Y128984D01*
X371880Y128987D01*
X371831Y128973D01*
X371779Y128969D01*
X371703Y128939D01*
X371624Y128917D01*
X371580Y128889D01*
X371532Y128870D01*
X371469Y128818D01*
X371400Y128774D01*
X371366Y128735D01*
X371326Y128702D01*
X371281Y128634D01*
X371228Y128572D01*
X371207Y128524D01*
X371179Y128481D01*
X371167Y128431D01*
X371123Y128327D01*
X371105Y128149D01*
X371095Y128105D01*
X371095Y127084D01*
X371105Y127016D01*
X371105Y126947D01*
X371125Y126885D01*
X371135Y126821D01*
X371164Y126759D01*
X371185Y126693D01*
X371222Y126640D01*
X371250Y126581D01*
X371297Y126531D01*
X371336Y126475D01*
X371387Y126435D01*
X371432Y126387D01*
X371491Y126353D01*
X371545Y126311D01*
X371606Y126287D01*
X371662Y126255D01*
X371729Y126240D01*
X371794Y126216D01*
X371858Y126212D01*
X371922Y126197D01*
X371990Y126203D01*
X372059Y126199D01*
X372102Y126212D01*
X372187Y126219D01*
X372414Y126310D01*
X372427Y126314D01*
X372519Y126368D01*
X373165Y126541D01*
X379223Y126541D01*
X379223Y119277D01*
X371247Y119277D01*
X371227Y119274D01*
X371206Y119276D01*
X371095Y119254D01*
X370985Y119237D01*
X370966Y119228D01*
X370945Y119224D01*
X370907Y119200D01*
X370745Y119122D01*
X370663Y119045D01*
X370619Y119017D01*
X365458Y113855D01*
X363506Y113855D01*
X363438Y113845D01*
X363369Y113845D01*
X363307Y113825D01*
X363243Y113815D01*
X363181Y113786D01*
X363116Y113765D01*
X363063Y113728D01*
X363004Y113700D01*
X362954Y113653D01*
X362897Y113614D01*
X362857Y113563D01*
X362810Y113518D01*
X362776Y113459D01*
X362733Y113405D01*
X362710Y113344D01*
X362678Y113288D01*
X362663Y113221D01*
X362638Y113156D01*
X362634Y113092D01*
X362620Y113028D01*
X362626Y112960D01*
X362621Y112891D01*
X362635Y112848D01*
X362642Y112763D01*
X362733Y112536D01*
X362737Y112523D01*
X362794Y112425D01*
X362967Y111779D01*
X362967Y110046D01*
X354584Y110046D01*
X354483Y110031D01*
X354380Y110023D01*
X354352Y110011D01*
X354321Y110006D01*
X354229Y109962D01*
X354134Y109924D01*
X354110Y109904D01*
X354082Y109891D01*
X354072Y109881D01*
X354030Y109905D01*
X353945Y109962D01*
X353921Y109968D01*
X353888Y109986D01*
X353629Y110044D01*
X353591Y110041D01*
X353568Y110046D01*
X345185Y110046D01*
X345185Y111779D01*
X345358Y112425D01*
X345415Y112523D01*
X345440Y112587D01*
X345474Y112646D01*
X345488Y112710D01*
X345512Y112770D01*
X345517Y112839D01*
X345532Y112906D01*
X345527Y112971D01*
X345532Y113035D01*
X345516Y113102D01*
X345510Y113171D01*
X345486Y113231D01*
X345472Y113294D01*
X345437Y113354D01*
X345411Y113418D01*
X345370Y113468D01*
X345338Y113524D01*
X345287Y113571D01*
X345244Y113624D01*
X345190Y113660D01*
X345142Y113704D01*
X345080Y113733D01*
X345023Y113771D01*
X344979Y113781D01*
X344902Y113818D01*
X344659Y113852D01*
X344646Y113855D01*
X342703Y113855D01*
X342642Y113846D01*
X342580Y113847D01*
X342511Y113826D01*
X342440Y113815D01*
X342385Y113788D01*
X342325Y113771D01*
X342266Y113731D01*
X342201Y113700D01*
X342156Y113657D01*
X342104Y113623D01*
X342077Y113584D01*
X342007Y113518D01*
X341901Y113332D01*
X341883Y113307D01*
X341049Y111294D01*
X339556Y109801D01*
X337606Y108993D01*
X335494Y108993D01*
X333544Y109801D01*
X332051Y111294D01*
X331243Y113244D01*
X331243Y115356D01*
X332051Y117306D01*
X333544Y118799D01*
X335494Y119607D01*
X337606Y119607D01*
X337833Y119512D01*
X338091Y119449D01*
X338143Y119451D01*
X338173Y119445D01*
X344646Y119445D01*
X344714Y119455D01*
X344783Y119455D01*
X344845Y119475D01*
X344909Y119485D01*
X344971Y119514D01*
X345036Y119535D01*
X345089Y119572D01*
X345148Y119600D01*
X345198Y119647D01*
X345255Y119686D01*
X345295Y119737D01*
X345342Y119782D01*
X345376Y119841D01*
X345419Y119895D01*
X345442Y119956D01*
X345474Y120012D01*
X345489Y120079D01*
X345514Y120144D01*
X345518Y120208D01*
X345532Y120272D01*
X345526Y120340D01*
X345531Y120409D01*
X345517Y120452D01*
X345510Y120537D01*
X345419Y120764D01*
X345415Y120777D01*
X345358Y120875D01*
X345185Y121521D01*
X345185Y123254D01*
X353568Y123254D01*
X353669Y123269D01*
X353772Y123277D01*
X353800Y123289D01*
X353831Y123293D01*
X353923Y123338D01*
X354018Y123376D01*
X354042Y123396D01*
X354070Y123409D01*
X354080Y123419D01*
X354122Y123395D01*
X354207Y123338D01*
X354231Y123332D01*
X354264Y123314D01*
X354523Y123256D01*
X354561Y123259D01*
X354584Y123254D01*
X362967Y123254D01*
X362967Y121413D01*
X362974Y121362D01*
X362973Y121311D01*
X362994Y121232D01*
X363007Y121151D01*
X363029Y121104D01*
X363043Y121054D01*
X363087Y120985D01*
X363122Y120911D01*
X363158Y120874D01*
X363185Y120830D01*
X363248Y120777D01*
X363304Y120717D01*
X363348Y120691D01*
X363388Y120658D01*
X363463Y120626D01*
X363534Y120585D01*
X363585Y120574D01*
X363632Y120554D01*
X363714Y120545D01*
X363794Y120527D01*
X363845Y120532D01*
X363897Y120526D01*
X363977Y120542D01*
X364059Y120549D01*
X364107Y120568D01*
X364157Y120578D01*
X364201Y120606D01*
X364306Y120648D01*
X364445Y120761D01*
X364483Y120785D01*
X365245Y121547D01*
X365258Y121564D01*
X365274Y121578D01*
X365336Y121671D01*
X365403Y121761D01*
X365410Y121781D01*
X365421Y121799D01*
X365431Y121843D01*
X365490Y122013D01*
X365494Y122125D01*
X365505Y122176D01*
X365505Y129667D01*
X365490Y129769D01*
X365482Y129871D01*
X365470Y129899D01*
X365465Y129930D01*
X365421Y130022D01*
X365383Y130118D01*
X365363Y130141D01*
X365350Y130169D01*
X365280Y130244D01*
X365215Y130324D01*
X365189Y130341D01*
X365168Y130363D01*
X365079Y130414D01*
X364994Y130471D01*
X364970Y130477D01*
X364938Y130495D01*
X364678Y130553D01*
X364640Y130550D01*
X364617Y130555D01*
X363052Y130555D01*
X363001Y130548D01*
X362950Y130549D01*
X362871Y130528D01*
X362789Y130515D01*
X362743Y130493D01*
X362693Y130479D01*
X362624Y130435D01*
X362550Y130400D01*
X362512Y130364D01*
X362469Y130337D01*
X362416Y130274D01*
X362356Y130218D01*
X362330Y130173D01*
X362297Y130134D01*
X362265Y130059D01*
X362224Y129988D01*
X362213Y129937D01*
X362192Y129890D01*
X362184Y129808D01*
X362166Y129728D01*
X362170Y129677D01*
X362165Y129625D01*
X362181Y129545D01*
X362188Y129463D01*
X362207Y129415D01*
X362217Y129365D01*
X362245Y129321D01*
X362287Y129216D01*
X362400Y129077D01*
X362424Y129039D01*
X362459Y129004D01*
X362794Y128425D01*
X362967Y127779D01*
X362967Y126046D01*
X354584Y126046D01*
X354483Y126031D01*
X354380Y126023D01*
X354352Y126011D01*
X354321Y126006D01*
X354229Y125962D01*
X354134Y125924D01*
X354110Y125904D01*
X354082Y125891D01*
X354072Y125881D01*
X354030Y125905D01*
X353945Y125962D01*
X353921Y125968D01*
X353888Y125986D01*
X353629Y126044D01*
X353591Y126041D01*
X353568Y126046D01*
X345185Y126046D01*
X345185Y127779D01*
X345358Y128425D01*
X345693Y129004D01*
X345941Y129252D01*
X345954Y129269D01*
X345970Y129282D01*
X346032Y129376D01*
X346099Y129466D01*
X346106Y129486D01*
X346117Y129504D01*
X346127Y129548D01*
X346186Y129717D01*
X346190Y129830D01*
X346201Y129880D01*
X346201Y136095D01*
X346208Y136104D01*
X346275Y136183D01*
X346287Y136211D01*
X346305Y136236D01*
X346339Y136333D01*
X346379Y136427D01*
X346383Y136458D01*
X346393Y136487D01*
X346396Y136589D01*
X346407Y136692D01*
X346401Y136722D01*
X346402Y136753D01*
X346375Y136852D01*
X346355Y136952D01*
X346342Y136972D01*
X346332Y137009D01*
X346201Y137215D01*
X346201Y144095D01*
X346208Y144104D01*
X346275Y144183D01*
X346287Y144211D01*
X346305Y144236D01*
X346339Y144333D01*
X346379Y144427D01*
X346383Y144458D01*
X346393Y144487D01*
X346396Y144589D01*
X346407Y144692D01*
X346401Y144722D01*
X346402Y144753D01*
X346375Y144852D01*
X346355Y144952D01*
X346342Y144972D01*
X346332Y145009D01*
X346201Y145215D01*
X346201Y152076D01*
X347094Y152969D01*
X350774Y152969D01*
X350876Y152984D01*
X350978Y152992D01*
X351006Y153004D01*
X351037Y153009D01*
X351129Y153053D01*
X351225Y153091D01*
X351248Y153111D01*
X351276Y153124D01*
X351351Y153194D01*
X351431Y153259D01*
X351448Y153285D01*
X351470Y153306D01*
X351521Y153395D01*
X351578Y153480D01*
X351584Y153504D01*
X351602Y153536D01*
X351660Y153796D01*
X351657Y153834D01*
X351662Y153857D01*
X351662Y178726D01*
X353336Y180400D01*
X355440Y182504D01*
X355453Y182521D01*
X355469Y182534D01*
X355531Y182627D01*
X355598Y182718D01*
X355605Y182737D01*
X355616Y182755D01*
X355626Y182799D01*
X355685Y182969D01*
X355689Y183081D01*
X355700Y183132D01*
X355700Y191392D01*
X355693Y191443D01*
X355694Y191495D01*
X355673Y191574D01*
X355660Y191655D01*
X355638Y191702D01*
X355624Y191751D01*
X355580Y191821D01*
X355545Y191894D01*
X355510Y191932D01*
X355482Y191976D01*
X355419Y192029D01*
X355363Y192089D01*
X355319Y192114D01*
X355279Y192148D01*
X355204Y192180D01*
X355133Y192221D01*
X355082Y192232D01*
X355035Y192252D01*
X354953Y192261D01*
X354873Y192278D01*
X354822Y192274D01*
X354770Y192280D01*
X354690Y192264D01*
X354608Y192257D01*
X354560Y192238D01*
X354510Y192228D01*
X354466Y192200D01*
X354361Y192158D01*
X354222Y192045D01*
X354184Y192020D01*
X341824Y179660D01*
X341811Y179643D01*
X341795Y179630D01*
X341733Y179537D01*
X341666Y179446D01*
X341659Y179427D01*
X341648Y179409D01*
X341638Y179365D01*
X341579Y179195D01*
X341575Y179083D01*
X341564Y179032D01*
X341564Y172339D01*
X341579Y172237D01*
X341587Y172135D01*
X341599Y172107D01*
X341604Y172076D01*
X341648Y171984D01*
X341686Y171888D01*
X341706Y171865D01*
X341719Y171837D01*
X341789Y171762D01*
X341854Y171682D01*
X341880Y171665D01*
X341901Y171643D01*
X341990Y171592D01*
X342075Y171535D01*
X342099Y171529D01*
X342131Y171511D01*
X342391Y171453D01*
X342429Y171456D01*
X342452Y171451D01*
X342576Y171451D01*
X343469Y170558D01*
X343469Y156594D01*
X342576Y155701D01*
X335705Y155701D01*
X335696Y155708D01*
X335617Y155775D01*
X335589Y155787D01*
X335564Y155805D01*
X335467Y155839D01*
X335373Y155879D01*
X335342Y155883D01*
X335313Y155893D01*
X335211Y155896D01*
X335108Y155907D01*
X335078Y155901D01*
X335047Y155902D01*
X334948Y155875D01*
X334848Y155855D01*
X334828Y155842D01*
X334791Y155832D01*
X334585Y155701D01*
X327705Y155701D01*
X327696Y155708D01*
X327617Y155775D01*
X327589Y155787D01*
X327564Y155805D01*
X327467Y155839D01*
X327373Y155879D01*
X327342Y155883D01*
X327313Y155893D01*
X327211Y155896D01*
X327108Y155907D01*
X327078Y155901D01*
X327047Y155902D01*
X326948Y155875D01*
X326848Y155855D01*
X326828Y155842D01*
X326791Y155832D01*
X326567Y155689D01*
X326542Y155660D01*
X326522Y155648D01*
X326397Y155523D01*
X326384Y155506D01*
X326368Y155492D01*
X326306Y155399D01*
X326239Y155309D01*
X326232Y155289D01*
X326221Y155271D01*
X326211Y155227D01*
X326152Y155058D01*
X326148Y154945D01*
X326137Y154895D01*
X326137Y104775D01*
X326140Y104754D01*
X326138Y104733D01*
X326160Y104623D01*
X326177Y104512D01*
X326186Y104493D01*
X326190Y104473D01*
X326214Y104434D01*
X326292Y104273D01*
X326369Y104190D01*
X326397Y104147D01*
X332747Y97797D01*
X332764Y97784D01*
X332777Y97768D01*
X332871Y97706D01*
X332961Y97639D01*
X332981Y97632D01*
X332998Y97621D01*
X333043Y97611D01*
X333212Y97552D01*
X333325Y97548D01*
X333375Y97537D01*
X345313Y97537D01*
X345415Y97552D01*
G37*
%LPC*%
G36*
X49018Y71375D02*
X49018Y71375D01*
X48125Y72268D01*
X48125Y86532D01*
X49018Y87425D01*
X64054Y87425D01*
X64075Y87428D01*
X64096Y87426D01*
X64207Y87448D01*
X64317Y87465D01*
X64336Y87474D01*
X64357Y87478D01*
X64395Y87502D01*
X64557Y87580D01*
X64639Y87657D01*
X64683Y87685D01*
X64841Y87843D01*
X64871Y87884D01*
X64909Y87920D01*
X64950Y87991D01*
X64998Y88057D01*
X65015Y88106D01*
X65041Y88150D01*
X65059Y88230D01*
X65086Y88308D01*
X65087Y88360D01*
X65099Y88410D01*
X65092Y88492D01*
X65095Y88574D01*
X65081Y88623D01*
X65077Y88675D01*
X65047Y88751D01*
X65025Y88830D01*
X64997Y88874D01*
X64978Y88922D01*
X64926Y88985D01*
X64882Y89054D01*
X64843Y89088D01*
X64810Y89128D01*
X64742Y89173D01*
X64680Y89226D01*
X64632Y89247D01*
X64589Y89275D01*
X64539Y89287D01*
X64435Y89331D01*
X64257Y89349D01*
X64213Y89359D01*
X58927Y89359D01*
X58927Y96623D01*
X67191Y96623D01*
X67191Y92337D01*
X67198Y92286D01*
X67197Y92235D01*
X67218Y92156D01*
X67231Y92075D01*
X67253Y92028D01*
X67267Y91978D01*
X67311Y91909D01*
X67346Y91835D01*
X67382Y91798D01*
X67409Y91754D01*
X67472Y91701D01*
X67528Y91641D01*
X67572Y91615D01*
X67612Y91582D01*
X67687Y91550D01*
X67758Y91509D01*
X67809Y91498D01*
X67856Y91478D01*
X67938Y91469D01*
X68018Y91451D01*
X68069Y91456D01*
X68121Y91450D01*
X68201Y91466D01*
X68283Y91473D01*
X68331Y91492D01*
X68381Y91502D01*
X68425Y91530D01*
X68530Y91572D01*
X68669Y91685D01*
X68684Y91695D01*
X77343Y91695D01*
X77445Y91710D01*
X77547Y91718D01*
X77575Y91730D01*
X77606Y91735D01*
X77698Y91779D01*
X77794Y91817D01*
X77817Y91837D01*
X77845Y91850D01*
X77920Y91920D01*
X78000Y91985D01*
X78017Y92011D01*
X78039Y92032D01*
X78090Y92121D01*
X78147Y92206D01*
X78153Y92230D01*
X78171Y92262D01*
X78229Y92522D01*
X78226Y92560D01*
X78231Y92583D01*
X78231Y92834D01*
X79124Y93727D01*
X100708Y93727D01*
X101601Y92834D01*
X101601Y92583D01*
X101616Y92481D01*
X101624Y92379D01*
X101636Y92351D01*
X101641Y92320D01*
X101685Y92228D01*
X101723Y92132D01*
X101743Y92109D01*
X101756Y92081D01*
X101826Y92006D01*
X101891Y91926D01*
X101917Y91909D01*
X101938Y91887D01*
X102027Y91836D01*
X102112Y91779D01*
X102136Y91773D01*
X102168Y91755D01*
X102428Y91697D01*
X102466Y91700D01*
X102489Y91695D01*
X125474Y91695D01*
X125495Y91698D01*
X125516Y91696D01*
X125627Y91718D01*
X125737Y91735D01*
X125756Y91744D01*
X125777Y91748D01*
X125815Y91772D01*
X125977Y91850D01*
X126059Y91927D01*
X126103Y91955D01*
X130295Y96147D01*
X130295Y96148D01*
X132192Y98045D01*
X138811Y98045D01*
X138913Y98060D01*
X139015Y98068D01*
X139043Y98080D01*
X139074Y98085D01*
X139166Y98129D01*
X139262Y98167D01*
X139285Y98187D01*
X139313Y98200D01*
X139388Y98270D01*
X139468Y98335D01*
X139485Y98361D01*
X139507Y98382D01*
X139558Y98471D01*
X139615Y98556D01*
X139621Y98580D01*
X139639Y98612D01*
X139697Y98872D01*
X139694Y98910D01*
X139699Y98933D01*
X139699Y105534D01*
X140592Y106427D01*
X162176Y106427D01*
X163069Y105534D01*
X163069Y105127D01*
X163076Y105076D01*
X163075Y105024D01*
X163096Y104945D01*
X163109Y104864D01*
X163131Y104817D01*
X163145Y104768D01*
X163189Y104698D01*
X163224Y104625D01*
X163259Y104587D01*
X163287Y104543D01*
X163350Y104490D01*
X163406Y104430D01*
X163450Y104405D01*
X163490Y104371D01*
X163565Y104339D01*
X163636Y104298D01*
X163687Y104287D01*
X163734Y104267D01*
X163816Y104258D01*
X163896Y104241D01*
X163947Y104245D01*
X163999Y104239D01*
X164079Y104255D01*
X164161Y104262D01*
X164209Y104281D01*
X164259Y104291D01*
X164303Y104319D01*
X164408Y104361D01*
X164547Y104474D01*
X164585Y104499D01*
X165601Y105515D01*
X170450Y110364D01*
X174498Y110364D01*
X174600Y110379D01*
X174702Y110387D01*
X174730Y110399D01*
X174761Y110404D01*
X174853Y110448D01*
X174949Y110486D01*
X174972Y110506D01*
X175000Y110519D01*
X175075Y110589D01*
X175155Y110654D01*
X175172Y110680D01*
X175194Y110701D01*
X175245Y110790D01*
X175302Y110875D01*
X175308Y110899D01*
X175326Y110931D01*
X175384Y111191D01*
X175381Y111229D01*
X175386Y111252D01*
X175386Y111762D01*
X175371Y111864D01*
X175363Y111966D01*
X175351Y111994D01*
X175346Y112025D01*
X175302Y112117D01*
X175264Y112213D01*
X175244Y112236D01*
X175231Y112264D01*
X175161Y112339D01*
X175096Y112419D01*
X175070Y112436D01*
X175049Y112458D01*
X174960Y112509D01*
X174875Y112566D01*
X174851Y112572D01*
X174819Y112590D01*
X174559Y112648D01*
X174521Y112645D01*
X174498Y112650D01*
X169668Y112650D01*
X168775Y113543D01*
X168775Y127807D01*
X169668Y128700D01*
X185932Y128700D01*
X186825Y127807D01*
X186825Y113543D01*
X185932Y112650D01*
X181102Y112650D01*
X181000Y112635D01*
X180898Y112627D01*
X180870Y112615D01*
X180839Y112610D01*
X180747Y112566D01*
X180651Y112528D01*
X180628Y112508D01*
X180600Y112495D01*
X180525Y112425D01*
X180445Y112360D01*
X180428Y112334D01*
X180406Y112313D01*
X180355Y112224D01*
X180298Y112139D01*
X180292Y112115D01*
X180274Y112083D01*
X180216Y111823D01*
X180219Y111785D01*
X180214Y111762D01*
X180214Y111252D01*
X180229Y111150D01*
X180237Y111048D01*
X180249Y111020D01*
X180254Y110989D01*
X180298Y110897D01*
X180336Y110801D01*
X180356Y110778D01*
X180369Y110750D01*
X180439Y110675D01*
X180504Y110595D01*
X180530Y110578D01*
X180551Y110556D01*
X180640Y110505D01*
X180725Y110448D01*
X180749Y110442D01*
X180781Y110424D01*
X181041Y110366D01*
X181079Y110369D01*
X181102Y110364D01*
X194650Y110364D01*
X200479Y104535D01*
X200496Y104522D01*
X200509Y104506D01*
X200602Y104444D01*
X200693Y104377D01*
X200712Y104370D01*
X200730Y104359D01*
X200774Y104349D01*
X200944Y104290D01*
X201056Y104286D01*
X201107Y104275D01*
X213482Y104275D01*
X214375Y103382D01*
X214375Y87118D01*
X213482Y86225D01*
X199218Y86225D01*
X198325Y87118D01*
X198325Y99493D01*
X198322Y99514D01*
X198324Y99535D01*
X198302Y99645D01*
X198285Y99756D01*
X198276Y99775D01*
X198272Y99796D01*
X198248Y99834D01*
X198170Y99995D01*
X198093Y100078D01*
X198065Y100121D01*
X196891Y101295D01*
X196850Y101326D01*
X196814Y101364D01*
X196743Y101404D01*
X196677Y101453D01*
X196628Y101470D01*
X196584Y101496D01*
X196504Y101514D01*
X196426Y101540D01*
X196374Y101542D01*
X196324Y101553D01*
X196242Y101547D01*
X196160Y101550D01*
X196111Y101536D01*
X196059Y101532D01*
X195983Y101501D01*
X195904Y101480D01*
X195860Y101452D01*
X195812Y101433D01*
X195749Y101381D01*
X195680Y101337D01*
X195646Y101298D01*
X195606Y101265D01*
X195561Y101197D01*
X195508Y101135D01*
X195487Y101087D01*
X195459Y101044D01*
X195447Y100994D01*
X195403Y100890D01*
X195385Y100712D01*
X195375Y100667D01*
X195375Y87118D01*
X194482Y86225D01*
X180218Y86225D01*
X179325Y87118D01*
X179325Y91567D01*
X179310Y91669D01*
X179302Y91771D01*
X179290Y91799D01*
X179285Y91830D01*
X179241Y91922D01*
X179203Y92018D01*
X179183Y92041D01*
X179170Y92069D01*
X179100Y92144D01*
X179035Y92224D01*
X179009Y92241D01*
X178988Y92263D01*
X178899Y92314D01*
X178814Y92371D01*
X178790Y92377D01*
X178758Y92395D01*
X178498Y92453D01*
X178460Y92450D01*
X178437Y92455D01*
X176528Y92455D01*
X176507Y92452D01*
X176486Y92454D01*
X176376Y92432D01*
X176265Y92415D01*
X176246Y92406D01*
X176226Y92402D01*
X176187Y92378D01*
X176026Y92300D01*
X175943Y92223D01*
X175900Y92195D01*
X174456Y90751D01*
X172506Y89943D01*
X170394Y89943D01*
X168444Y90751D01*
X167000Y92195D01*
X166983Y92208D01*
X166970Y92224D01*
X166876Y92286D01*
X166786Y92353D01*
X166766Y92360D01*
X166749Y92371D01*
X166704Y92381D01*
X166535Y92440D01*
X166422Y92444D01*
X166372Y92455D01*
X164973Y92455D01*
X164871Y92440D01*
X164769Y92432D01*
X164741Y92420D01*
X164710Y92415D01*
X164618Y92371D01*
X164522Y92333D01*
X164499Y92313D01*
X164471Y92300D01*
X164396Y92230D01*
X164316Y92165D01*
X164299Y92139D01*
X164277Y92118D01*
X164226Y92029D01*
X164169Y91944D01*
X164163Y91920D01*
X164145Y91888D01*
X164087Y91628D01*
X164090Y91590D01*
X164085Y91567D01*
X164085Y90550D01*
X152146Y90550D01*
X152045Y90535D01*
X151942Y90527D01*
X151914Y90515D01*
X151883Y90510D01*
X151791Y90466D01*
X151696Y90428D01*
X151672Y90408D01*
X151644Y90395D01*
X151569Y90325D01*
X151489Y90260D01*
X151472Y90234D01*
X151450Y90213D01*
X151399Y90124D01*
X151389Y90109D01*
X151387Y90113D01*
X151368Y90136D01*
X151355Y90164D01*
X151284Y90239D01*
X151220Y90319D01*
X151194Y90336D01*
X151173Y90358D01*
X151084Y90409D01*
X150999Y90466D01*
X150975Y90472D01*
X150942Y90490D01*
X150683Y90548D01*
X150645Y90545D01*
X150622Y90550D01*
X138683Y90550D01*
X138683Y91567D01*
X138668Y91669D01*
X138660Y91771D01*
X138648Y91799D01*
X138643Y91830D01*
X138599Y91922D01*
X138561Y92018D01*
X138541Y92041D01*
X138528Y92069D01*
X138458Y92144D01*
X138393Y92224D01*
X138367Y92241D01*
X138346Y92263D01*
X138257Y92314D01*
X138172Y92371D01*
X138148Y92377D01*
X138116Y92395D01*
X137856Y92453D01*
X137818Y92450D01*
X137795Y92455D01*
X134876Y92455D01*
X134855Y92452D01*
X134834Y92454D01*
X134723Y92432D01*
X134613Y92415D01*
X134594Y92406D01*
X134573Y92402D01*
X134535Y92378D01*
X134373Y92300D01*
X134291Y92223D01*
X134247Y92195D01*
X130055Y88003D01*
X130055Y88002D01*
X128158Y86105D01*
X102489Y86105D01*
X102387Y86090D01*
X102285Y86082D01*
X102257Y86070D01*
X102226Y86065D01*
X102134Y86021D01*
X102038Y85983D01*
X102015Y85963D01*
X101987Y85950D01*
X101912Y85880D01*
X101832Y85815D01*
X101815Y85789D01*
X101793Y85768D01*
X101742Y85679D01*
X101685Y85594D01*
X101679Y85570D01*
X101661Y85538D01*
X101603Y85278D01*
X101606Y85240D01*
X101601Y85217D01*
X101601Y84966D01*
X100708Y84073D01*
X79124Y84073D01*
X78231Y84966D01*
X78231Y85217D01*
X78216Y85319D01*
X78208Y85421D01*
X78196Y85449D01*
X78191Y85480D01*
X78147Y85572D01*
X78109Y85668D01*
X78089Y85691D01*
X78076Y85719D01*
X78006Y85794D01*
X77941Y85874D01*
X77915Y85891D01*
X77894Y85913D01*
X77805Y85964D01*
X77720Y86021D01*
X77696Y86027D01*
X77664Y86045D01*
X77404Y86103D01*
X77366Y86100D01*
X77343Y86105D01*
X71376Y86105D01*
X71355Y86102D01*
X71334Y86104D01*
X71224Y86082D01*
X71113Y86065D01*
X71094Y86056D01*
X71073Y86052D01*
X71035Y86028D01*
X70873Y85950D01*
X70791Y85873D01*
X70747Y85845D01*
X66435Y81533D01*
X66422Y81516D01*
X66406Y81502D01*
X66344Y81409D01*
X66277Y81319D01*
X66270Y81299D01*
X66259Y81281D01*
X66249Y81237D01*
X66190Y81068D01*
X66186Y80955D01*
X66175Y80904D01*
X66175Y72268D01*
X65282Y71375D01*
X49018Y71375D01*
G37*
%LPD*%
%LPC*%
G36*
X72268Y13200D02*
X72268Y13200D01*
X71375Y14093D01*
X71375Y18923D01*
X71360Y19025D01*
X71352Y19127D01*
X71340Y19155D01*
X71335Y19186D01*
X71291Y19278D01*
X71253Y19374D01*
X71233Y19397D01*
X71220Y19425D01*
X71150Y19500D01*
X71085Y19580D01*
X71059Y19597D01*
X71038Y19619D01*
X70949Y19670D01*
X70864Y19727D01*
X70840Y19733D01*
X70808Y19751D01*
X70548Y19809D01*
X70510Y19806D01*
X70487Y19811D01*
X46625Y19811D01*
X38861Y27575D01*
X38861Y45450D01*
X47865Y54454D01*
X47878Y54471D01*
X47894Y54484D01*
X47956Y54577D01*
X48023Y54668D01*
X48030Y54687D01*
X48041Y54705D01*
X48051Y54749D01*
X48110Y54919D01*
X48114Y55031D01*
X48125Y55082D01*
X48125Y64257D01*
X49018Y65150D01*
X61393Y65150D01*
X61414Y65153D01*
X61435Y65151D01*
X61545Y65173D01*
X61656Y65190D01*
X61675Y65199D01*
X61696Y65203D01*
X61734Y65227D01*
X61895Y65305D01*
X61978Y65382D01*
X62021Y65410D01*
X62525Y65914D01*
X77343Y65914D01*
X77445Y65929D01*
X77547Y65937D01*
X77575Y65949D01*
X77606Y65954D01*
X77698Y65998D01*
X77794Y66036D01*
X77817Y66056D01*
X77845Y66069D01*
X77920Y66139D01*
X78000Y66204D01*
X78017Y66230D01*
X78039Y66251D01*
X78090Y66340D01*
X78147Y66425D01*
X78153Y66449D01*
X78171Y66481D01*
X78229Y66741D01*
X78226Y66779D01*
X78231Y66802D01*
X78231Y67434D01*
X79124Y68327D01*
X100708Y68327D01*
X101601Y67434D01*
X101601Y59566D01*
X100708Y58673D01*
X79124Y58673D01*
X78231Y59566D01*
X78231Y60198D01*
X78216Y60300D01*
X78208Y60402D01*
X78196Y60430D01*
X78191Y60461D01*
X78147Y60553D01*
X78109Y60649D01*
X78089Y60672D01*
X78076Y60700D01*
X78006Y60775D01*
X77941Y60855D01*
X77915Y60872D01*
X77894Y60894D01*
X77805Y60945D01*
X77720Y61002D01*
X77696Y61008D01*
X77664Y61026D01*
X77404Y61084D01*
X77366Y61081D01*
X77343Y61086D01*
X67063Y61086D01*
X66961Y61071D01*
X66859Y61063D01*
X66831Y61051D01*
X66800Y61046D01*
X66708Y61002D01*
X66612Y60964D01*
X66589Y60944D01*
X66561Y60931D01*
X66486Y60861D01*
X66406Y60796D01*
X66389Y60770D01*
X66367Y60749D01*
X66316Y60660D01*
X66259Y60575D01*
X66253Y60551D01*
X66235Y60519D01*
X66177Y60259D01*
X66180Y60221D01*
X66175Y60198D01*
X66175Y49993D01*
X65282Y49100D01*
X49707Y49100D01*
X49686Y49097D01*
X49665Y49099D01*
X49555Y49077D01*
X49444Y49060D01*
X49425Y49051D01*
X49404Y49047D01*
X49366Y49023D01*
X49205Y48945D01*
X49122Y48868D01*
X49079Y48840D01*
X43949Y43710D01*
X43936Y43693D01*
X43920Y43680D01*
X43858Y43587D01*
X43791Y43496D01*
X43784Y43477D01*
X43773Y43459D01*
X43763Y43415D01*
X43704Y43245D01*
X43700Y43133D01*
X43689Y43082D01*
X43689Y29943D01*
X43692Y29922D01*
X43690Y29901D01*
X43712Y29791D01*
X43729Y29680D01*
X43738Y29661D01*
X43742Y29640D01*
X43766Y29602D01*
X43844Y29441D01*
X43921Y29358D01*
X43949Y29315D01*
X48365Y24899D01*
X48382Y24886D01*
X48395Y24870D01*
X48488Y24808D01*
X48579Y24741D01*
X48598Y24734D01*
X48616Y24723D01*
X48660Y24713D01*
X48830Y24654D01*
X48942Y24650D01*
X48993Y24639D01*
X70487Y24639D01*
X70589Y24654D01*
X70691Y24662D01*
X70719Y24674D01*
X70750Y24679D01*
X70842Y24723D01*
X70938Y24761D01*
X70961Y24781D01*
X70989Y24794D01*
X71064Y24864D01*
X71144Y24929D01*
X71161Y24955D01*
X71183Y24976D01*
X71234Y25065D01*
X71291Y25150D01*
X71297Y25174D01*
X71315Y25206D01*
X71373Y25466D01*
X71370Y25504D01*
X71375Y25527D01*
X71375Y30357D01*
X72268Y31250D01*
X86532Y31250D01*
X87425Y30357D01*
X87425Y14093D01*
X86532Y13200D01*
X72268Y13200D01*
G37*
%LPD*%
%LPC*%
G36*
X140592Y45973D02*
X140592Y45973D01*
X139699Y46866D01*
X139699Y54734D01*
X140592Y55627D01*
X148082Y55627D01*
X148184Y55642D01*
X148286Y55650D01*
X148314Y55662D01*
X148345Y55667D01*
X148437Y55711D01*
X148533Y55749D01*
X148556Y55769D01*
X148584Y55782D01*
X148659Y55852D01*
X148739Y55917D01*
X148756Y55943D01*
X148778Y55964D01*
X148829Y56053D01*
X148886Y56138D01*
X148892Y56162D01*
X148910Y56194D01*
X148968Y56454D01*
X148965Y56492D01*
X148970Y56515D01*
X148970Y57785D01*
X148955Y57887D01*
X148947Y57989D01*
X148935Y58017D01*
X148930Y58048D01*
X148886Y58140D01*
X148848Y58236D01*
X148828Y58259D01*
X148815Y58287D01*
X148745Y58362D01*
X148680Y58442D01*
X148654Y58459D01*
X148633Y58481D01*
X148544Y58532D01*
X148459Y58589D01*
X148435Y58595D01*
X148403Y58613D01*
X148143Y58671D01*
X148105Y58668D01*
X148082Y58673D01*
X140592Y58673D01*
X139699Y59566D01*
X139699Y67434D01*
X140592Y68327D01*
X162176Y68327D01*
X162978Y67525D01*
X162986Y67518D01*
X162993Y67510D01*
X163093Y67440D01*
X163192Y67367D01*
X163202Y67363D01*
X163210Y67357D01*
X163327Y67320D01*
X163443Y67280D01*
X163453Y67279D01*
X163463Y67276D01*
X163586Y67275D01*
X163708Y67270D01*
X163719Y67273D01*
X163729Y67273D01*
X163847Y67308D01*
X163965Y67340D01*
X163974Y67346D01*
X163984Y67349D01*
X164086Y67417D01*
X164189Y67483D01*
X164196Y67491D01*
X164205Y67497D01*
X164223Y67523D01*
X164361Y67686D01*
X164391Y67756D01*
X165904Y69269D01*
X167854Y70077D01*
X169966Y70077D01*
X171916Y69269D01*
X173409Y67776D01*
X174217Y65826D01*
X174217Y63714D01*
X173409Y61764D01*
X171916Y60271D01*
X169966Y59463D01*
X167854Y59463D01*
X165904Y60271D01*
X165349Y60826D01*
X165332Y60839D01*
X165319Y60855D01*
X165225Y60917D01*
X165135Y60984D01*
X165115Y60991D01*
X165098Y61002D01*
X165053Y61012D01*
X164884Y61071D01*
X164771Y61075D01*
X164721Y61086D01*
X163957Y61086D01*
X163855Y61071D01*
X163753Y61063D01*
X163725Y61051D01*
X163694Y61046D01*
X163602Y61002D01*
X163506Y60964D01*
X163483Y60944D01*
X163455Y60931D01*
X163380Y60861D01*
X163300Y60796D01*
X163283Y60770D01*
X163261Y60749D01*
X163210Y60660D01*
X163153Y60575D01*
X163147Y60551D01*
X163129Y60519D01*
X163071Y60259D01*
X163074Y60221D01*
X163069Y60198D01*
X163069Y59566D01*
X162176Y58673D01*
X154686Y58673D01*
X154584Y58658D01*
X154482Y58650D01*
X154454Y58638D01*
X154423Y58633D01*
X154331Y58589D01*
X154235Y58551D01*
X154212Y58531D01*
X154184Y58518D01*
X154109Y58448D01*
X154029Y58383D01*
X154012Y58357D01*
X153990Y58336D01*
X153939Y58247D01*
X153882Y58162D01*
X153876Y58138D01*
X153858Y58106D01*
X153800Y57846D01*
X153803Y57808D01*
X153798Y57785D01*
X153798Y56515D01*
X153813Y56413D01*
X153821Y56311D01*
X153833Y56283D01*
X153838Y56252D01*
X153882Y56160D01*
X153920Y56064D01*
X153940Y56041D01*
X153953Y56013D01*
X154023Y55938D01*
X154088Y55858D01*
X154114Y55841D01*
X154135Y55819D01*
X154224Y55768D01*
X154309Y55711D01*
X154333Y55705D01*
X154365Y55687D01*
X154625Y55629D01*
X154663Y55632D01*
X154686Y55627D01*
X162176Y55627D01*
X163069Y54734D01*
X163069Y46866D01*
X162176Y45973D01*
X140592Y45973D01*
G37*
%LPD*%
%LPC*%
G36*
X140592Y109473D02*
X140592Y109473D01*
X139699Y110366D01*
X139699Y118234D01*
X140592Y119127D01*
X148082Y119127D01*
X148184Y119142D01*
X148286Y119150D01*
X148314Y119162D01*
X148345Y119167D01*
X148437Y119211D01*
X148533Y119249D01*
X148556Y119269D01*
X148584Y119282D01*
X148659Y119352D01*
X148739Y119417D01*
X148756Y119443D01*
X148778Y119464D01*
X148829Y119553D01*
X148886Y119638D01*
X148892Y119662D01*
X148910Y119694D01*
X148968Y119954D01*
X148965Y119992D01*
X148970Y120015D01*
X148970Y121285D01*
X148955Y121387D01*
X148947Y121489D01*
X148935Y121517D01*
X148930Y121548D01*
X148886Y121640D01*
X148848Y121736D01*
X148828Y121759D01*
X148815Y121787D01*
X148745Y121862D01*
X148680Y121942D01*
X148654Y121959D01*
X148633Y121981D01*
X148544Y122032D01*
X148459Y122089D01*
X148435Y122095D01*
X148403Y122113D01*
X148143Y122171D01*
X148105Y122168D01*
X148082Y122173D01*
X140592Y122173D01*
X139699Y123066D01*
X139699Y130934D01*
X140592Y131827D01*
X162176Y131827D01*
X163069Y130934D01*
X163069Y123066D01*
X162176Y122173D01*
X154686Y122173D01*
X154584Y122158D01*
X154482Y122150D01*
X154454Y122138D01*
X154423Y122133D01*
X154331Y122089D01*
X154235Y122051D01*
X154212Y122031D01*
X154184Y122018D01*
X154109Y121948D01*
X154029Y121883D01*
X154012Y121857D01*
X153990Y121836D01*
X153939Y121747D01*
X153882Y121662D01*
X153876Y121638D01*
X153858Y121606D01*
X153800Y121346D01*
X153803Y121308D01*
X153798Y121285D01*
X153798Y120015D01*
X153813Y119913D01*
X153821Y119811D01*
X153833Y119783D01*
X153838Y119752D01*
X153882Y119660D01*
X153920Y119564D01*
X153940Y119541D01*
X153953Y119513D01*
X154023Y119438D01*
X154088Y119358D01*
X154114Y119341D01*
X154135Y119319D01*
X154224Y119268D01*
X154309Y119211D01*
X154333Y119205D01*
X154365Y119187D01*
X154625Y119129D01*
X154663Y119132D01*
X154686Y119127D01*
X162176Y119127D01*
X163069Y118234D01*
X163069Y110366D01*
X162176Y109473D01*
X140592Y109473D01*
G37*
%LPD*%
%LPC*%
G36*
X72604Y70893D02*
X72604Y70893D01*
X70654Y71701D01*
X69161Y73194D01*
X68353Y75144D01*
X68353Y77256D01*
X69161Y79206D01*
X70654Y80699D01*
X72604Y81507D01*
X74716Y81507D01*
X76666Y80699D01*
X77103Y80262D01*
X77186Y80201D01*
X77264Y80134D01*
X77292Y80122D01*
X77317Y80104D01*
X77414Y80070D01*
X77509Y80030D01*
X77539Y80027D01*
X77568Y80017D01*
X77671Y80013D01*
X77773Y80002D01*
X77803Y80008D01*
X77834Y80007D01*
X77933Y80034D01*
X78034Y80055D01*
X78054Y80067D01*
X78090Y80077D01*
X78315Y80220D01*
X78339Y80249D01*
X78359Y80262D01*
X79124Y81027D01*
X100708Y81027D01*
X101601Y80134D01*
X101601Y72266D01*
X100708Y71373D01*
X79124Y71373D01*
X78359Y72138D01*
X78277Y72199D01*
X78198Y72266D01*
X78170Y72278D01*
X78145Y72296D01*
X78048Y72330D01*
X77954Y72370D01*
X77923Y72373D01*
X77894Y72383D01*
X77792Y72387D01*
X77690Y72398D01*
X77659Y72392D01*
X77629Y72393D01*
X77530Y72366D01*
X77429Y72345D01*
X77409Y72333D01*
X77372Y72323D01*
X77148Y72180D01*
X77123Y72151D01*
X77103Y72138D01*
X76666Y71701D01*
X74716Y70893D01*
X72604Y70893D01*
G37*
%LPD*%
%LPC*%
G36*
X39877Y204977D02*
X39877Y204977D01*
X39877Y215006D01*
X40896Y214845D01*
X42683Y214264D01*
X44357Y213411D01*
X45878Y212306D01*
X47206Y210978D01*
X48311Y209457D01*
X49164Y207783D01*
X49745Y205996D01*
X49906Y204977D01*
X39877Y204977D01*
G37*
%LPD*%
%LPC*%
G36*
X33527Y77977D02*
X33527Y77977D01*
X33527Y88006D01*
X34546Y87845D01*
X36333Y87264D01*
X38007Y86411D01*
X39528Y85306D01*
X40856Y83978D01*
X41961Y82457D01*
X42814Y80783D01*
X43395Y78996D01*
X43556Y77977D01*
X33527Y77977D01*
G37*
%LPD*%
%LPC*%
G36*
X26294Y204977D02*
X26294Y204977D01*
X26455Y205996D01*
X27036Y207783D01*
X27889Y209457D01*
X28994Y210978D01*
X30322Y212306D01*
X31843Y213411D01*
X33517Y214264D01*
X35304Y214845D01*
X36323Y215006D01*
X36323Y204977D01*
X26294Y204977D01*
G37*
%LPD*%
%LPC*%
G36*
X33527Y74423D02*
X33527Y74423D01*
X43556Y74423D01*
X43395Y73404D01*
X42814Y71617D01*
X41961Y69943D01*
X40856Y68422D01*
X39528Y67094D01*
X38007Y65989D01*
X36333Y65136D01*
X34546Y64555D01*
X33527Y64394D01*
X33527Y74423D01*
G37*
%LPD*%
%LPC*%
G36*
X39877Y201423D02*
X39877Y201423D01*
X49906Y201423D01*
X49745Y200404D01*
X49164Y198617D01*
X48311Y196943D01*
X47206Y195422D01*
X45878Y194094D01*
X44357Y192989D01*
X42683Y192136D01*
X40896Y191555D01*
X39877Y191394D01*
X39877Y201423D01*
G37*
%LPD*%
%LPC*%
G36*
X35304Y191555D02*
X35304Y191555D01*
X33517Y192136D01*
X31843Y192989D01*
X30322Y194094D01*
X28994Y195422D01*
X27889Y196943D01*
X27036Y198617D01*
X26455Y200404D01*
X26294Y201423D01*
X36323Y201423D01*
X36323Y191394D01*
X35304Y191555D01*
G37*
%LPD*%
%LPC*%
G36*
X382777Y119277D02*
X382777Y119277D01*
X382777Y126541D01*
X388835Y126541D01*
X389481Y126368D01*
X390060Y126033D01*
X390533Y125560D01*
X390868Y124981D01*
X391041Y124335D01*
X391041Y119277D01*
X382777Y119277D01*
G37*
%LPD*%
%LPC*%
G36*
X420852Y182752D02*
X420852Y182752D01*
X420852Y191016D01*
X425910Y191016D01*
X426556Y190843D01*
X427135Y190508D01*
X427608Y190035D01*
X427943Y189456D01*
X428116Y188810D01*
X428116Y182752D01*
X420852Y182752D01*
G37*
%LPD*%
%LPC*%
G36*
X420852Y160527D02*
X420852Y160527D01*
X420852Y168791D01*
X425910Y168791D01*
X426556Y168618D01*
X427135Y168283D01*
X427608Y167810D01*
X427943Y167231D01*
X428116Y166585D01*
X428116Y160527D01*
X420852Y160527D01*
G37*
%LPD*%
%LPC*%
G36*
X179577Y141452D02*
X179577Y141452D01*
X179577Y148716D01*
X185635Y148716D01*
X186281Y148543D01*
X186860Y148208D01*
X187333Y147735D01*
X187668Y147156D01*
X187841Y146510D01*
X187841Y141452D01*
X179577Y141452D01*
G37*
%LPD*%
%LPC*%
G36*
X58927Y100177D02*
X58927Y100177D01*
X58927Y107441D01*
X64985Y107441D01*
X65631Y107268D01*
X66210Y106933D01*
X66683Y106460D01*
X67018Y105881D01*
X67191Y105235D01*
X67191Y100177D01*
X58927Y100177D01*
G37*
%LPD*%
%LPC*%
G36*
X208127Y74802D02*
X208127Y74802D01*
X208127Y83066D01*
X213185Y83066D01*
X213831Y82893D01*
X214410Y82558D01*
X214883Y82085D01*
X215218Y81506D01*
X215391Y80860D01*
X215391Y74802D01*
X208127Y74802D01*
G37*
%LPD*%
%LPC*%
G36*
X408177Y119277D02*
X408177Y119277D01*
X408177Y126541D01*
X414235Y126541D01*
X414881Y126368D01*
X415460Y126033D01*
X415933Y125560D01*
X416268Y124981D01*
X416441Y124335D01*
X416441Y119277D01*
X408177Y119277D01*
G37*
%LPD*%
%LPC*%
G36*
X410034Y182752D02*
X410034Y182752D01*
X410034Y188810D01*
X410207Y189456D01*
X410542Y190035D01*
X411015Y190508D01*
X411594Y190843D01*
X412240Y191016D01*
X417298Y191016D01*
X417298Y182752D01*
X410034Y182752D01*
G37*
%LPD*%
%LPC*%
G36*
X410034Y160527D02*
X410034Y160527D01*
X410034Y166585D01*
X410207Y167231D01*
X410542Y167810D01*
X411015Y168283D01*
X411594Y168618D01*
X412240Y168791D01*
X417298Y168791D01*
X417298Y160527D01*
X410034Y160527D01*
G37*
%LPD*%
%LPC*%
G36*
X197309Y74802D02*
X197309Y74802D01*
X197309Y80860D01*
X197482Y81506D01*
X197817Y82085D01*
X198290Y82558D01*
X198869Y82893D01*
X199515Y83066D01*
X204573Y83066D01*
X204573Y74802D01*
X197309Y74802D01*
G37*
%LPD*%
%LPC*%
G36*
X420852Y170934D02*
X420852Y170934D01*
X420852Y179198D01*
X428116Y179198D01*
X428116Y173140D01*
X427943Y172494D01*
X427608Y171915D01*
X427135Y171442D01*
X426556Y171107D01*
X425910Y170934D01*
X420852Y170934D01*
G37*
%LPD*%
%LPC*%
G36*
X47109Y100177D02*
X47109Y100177D01*
X47109Y105235D01*
X47282Y105881D01*
X47617Y106460D01*
X48090Y106933D01*
X48669Y107268D01*
X49315Y107441D01*
X55373Y107441D01*
X55373Y100177D01*
X47109Y100177D01*
G37*
%LPD*%
%LPC*%
G36*
X420852Y148709D02*
X420852Y148709D01*
X420852Y156973D01*
X428116Y156973D01*
X428116Y150915D01*
X427943Y150269D01*
X427608Y149690D01*
X427135Y149217D01*
X426556Y148882D01*
X425910Y148709D01*
X420852Y148709D01*
G37*
%LPD*%
%LPC*%
G36*
X167759Y141452D02*
X167759Y141452D01*
X167759Y146510D01*
X167932Y147156D01*
X168267Y147735D01*
X168740Y148208D01*
X169319Y148543D01*
X169965Y148716D01*
X176023Y148716D01*
X176023Y141452D01*
X167759Y141452D01*
G37*
%LPD*%
%LPC*%
G36*
X396359Y119277D02*
X396359Y119277D01*
X396359Y124335D01*
X396532Y124981D01*
X396867Y125560D01*
X397340Y126033D01*
X397919Y126368D01*
X398565Y126541D01*
X404623Y126541D01*
X404623Y119277D01*
X396359Y119277D01*
G37*
%LPD*%
%LPC*%
G36*
X208127Y62984D02*
X208127Y62984D01*
X208127Y71248D01*
X215391Y71248D01*
X215391Y65190D01*
X215218Y64544D01*
X214883Y63965D01*
X214410Y63492D01*
X213831Y63157D01*
X213185Y62984D01*
X208127Y62984D01*
G37*
%LPD*%
%LPC*%
G36*
X408177Y108459D02*
X408177Y108459D01*
X408177Y115723D01*
X416441Y115723D01*
X416441Y110665D01*
X416268Y110019D01*
X415933Y109440D01*
X415460Y108967D01*
X414881Y108632D01*
X414235Y108459D01*
X408177Y108459D01*
G37*
%LPD*%
%LPC*%
G36*
X382777Y108459D02*
X382777Y108459D01*
X382777Y115723D01*
X391041Y115723D01*
X391041Y110665D01*
X390868Y110019D01*
X390533Y109440D01*
X390060Y108967D01*
X389481Y108632D01*
X388835Y108459D01*
X382777Y108459D01*
G37*
%LPD*%
%LPC*%
G36*
X179577Y130634D02*
X179577Y130634D01*
X179577Y137898D01*
X187841Y137898D01*
X187841Y132840D01*
X187668Y132194D01*
X187333Y131615D01*
X186860Y131142D01*
X186281Y130807D01*
X185635Y130634D01*
X179577Y130634D01*
G37*
%LPD*%
%LPC*%
G36*
X49315Y89359D02*
X49315Y89359D01*
X48669Y89532D01*
X48090Y89867D01*
X47617Y90340D01*
X47282Y90919D01*
X47109Y91565D01*
X47109Y96623D01*
X55373Y96623D01*
X55373Y89359D01*
X49315Y89359D01*
G37*
%LPD*%
%LPC*%
G36*
X373165Y108459D02*
X373165Y108459D01*
X372519Y108632D01*
X371940Y108967D01*
X371467Y109440D01*
X371132Y110019D01*
X370959Y110665D01*
X370959Y115723D01*
X379223Y115723D01*
X379223Y108459D01*
X373165Y108459D01*
G37*
%LPD*%
%LPC*%
G36*
X398565Y108459D02*
X398565Y108459D01*
X397919Y108632D01*
X397340Y108967D01*
X396867Y109440D01*
X396532Y110019D01*
X396359Y110665D01*
X396359Y115723D01*
X404623Y115723D01*
X404623Y108459D01*
X398565Y108459D01*
G37*
%LPD*%
%LPC*%
G36*
X169965Y130634D02*
X169965Y130634D01*
X169319Y130807D01*
X168740Y131142D01*
X168267Y131615D01*
X167932Y132194D01*
X167759Y132840D01*
X167759Y137898D01*
X176023Y137898D01*
X176023Y130634D01*
X169965Y130634D01*
G37*
%LPD*%
%LPC*%
G36*
X412240Y170934D02*
X412240Y170934D01*
X411594Y171107D01*
X411015Y171442D01*
X410542Y171915D01*
X410207Y172494D01*
X410034Y173140D01*
X410034Y179198D01*
X417298Y179198D01*
X417298Y170934D01*
X412240Y170934D01*
G37*
%LPD*%
%LPC*%
G36*
X412240Y148709D02*
X412240Y148709D01*
X411594Y148882D01*
X411015Y149217D01*
X410542Y149690D01*
X410207Y150269D01*
X410034Y150915D01*
X410034Y156973D01*
X417298Y156973D01*
X417298Y148709D01*
X412240Y148709D01*
G37*
%LPD*%
%LPC*%
G36*
X199515Y62984D02*
X199515Y62984D01*
X198869Y63157D01*
X198290Y63492D01*
X197817Y63965D01*
X197482Y64544D01*
X197309Y65190D01*
X197309Y71248D01*
X204573Y71248D01*
X204573Y62984D01*
X199515Y62984D01*
G37*
%LPD*%
%LPC*%
G36*
X77215Y103250D02*
X77215Y103250D01*
X77215Y105237D01*
X77388Y105883D01*
X77723Y106462D01*
X78196Y106935D01*
X78775Y107270D01*
X79421Y107443D01*
X88266Y107443D01*
X88266Y103250D01*
X77215Y103250D01*
G37*
%LPD*%
%LPC*%
G36*
X91566Y103250D02*
X91566Y103250D01*
X91566Y107443D01*
X100411Y107443D01*
X101057Y107270D01*
X101636Y106935D01*
X102109Y106462D01*
X102444Y105883D01*
X102617Y105237D01*
X102617Y103250D01*
X91566Y103250D01*
G37*
%LPD*%
%LPC*%
G36*
X153034Y83057D02*
X153034Y83057D01*
X153034Y87250D01*
X164085Y87250D01*
X164085Y85263D01*
X163912Y84617D01*
X163577Y84038D01*
X163104Y83565D01*
X162525Y83230D01*
X161879Y83057D01*
X153034Y83057D01*
G37*
%LPD*%
%LPC*%
G36*
X91566Y95757D02*
X91566Y95757D01*
X91566Y99950D01*
X102617Y99950D01*
X102617Y97963D01*
X102444Y97317D01*
X102109Y96738D01*
X101636Y96265D01*
X101057Y95930D01*
X100411Y95757D01*
X91566Y95757D01*
G37*
%LPD*%
%LPC*%
G36*
X140889Y83057D02*
X140889Y83057D01*
X140243Y83230D01*
X139664Y83565D01*
X139191Y84038D01*
X138856Y84617D01*
X138683Y85263D01*
X138683Y87250D01*
X149734Y87250D01*
X149734Y83057D01*
X140889Y83057D01*
G37*
%LPD*%
%LPC*%
G36*
X79421Y95757D02*
X79421Y95757D01*
X78775Y95930D01*
X78196Y96265D01*
X77723Y96738D01*
X77388Y97317D01*
X77215Y97963D01*
X77215Y99950D01*
X88266Y99950D01*
X88266Y95757D01*
X79421Y95757D01*
G37*
%LPD*%
%LPC*%
G36*
X38099Y203199D02*
X38099Y203199D01*
X38099Y203201D01*
X38101Y203201D01*
X38101Y203199D01*
X38099Y203199D01*
G37*
%LPD*%
%LPC*%
G36*
X177799Y139674D02*
X177799Y139674D01*
X177799Y139676D01*
X177801Y139676D01*
X177801Y139674D01*
X177799Y139674D01*
G37*
%LPD*%
%LPC*%
G36*
X419074Y158749D02*
X419074Y158749D01*
X419074Y158751D01*
X419076Y158751D01*
X419076Y158749D01*
X419074Y158749D01*
G37*
%LPD*%
%LPC*%
G36*
X406399Y117499D02*
X406399Y117499D01*
X406399Y117501D01*
X406401Y117501D01*
X406401Y117499D01*
X406399Y117499D01*
G37*
%LPD*%
%LPC*%
G36*
X206349Y73024D02*
X206349Y73024D01*
X206349Y73026D01*
X206351Y73026D01*
X206351Y73024D01*
X206349Y73024D01*
G37*
%LPD*%
%LPC*%
G36*
X57149Y98399D02*
X57149Y98399D01*
X57149Y98401D01*
X57151Y98401D01*
X57151Y98399D01*
X57149Y98399D01*
G37*
%LPD*%
%LPC*%
G36*
X419074Y180974D02*
X419074Y180974D01*
X419074Y180976D01*
X419076Y180976D01*
X419076Y180974D01*
X419074Y180974D01*
G37*
%LPD*%
%LPC*%
G36*
X380999Y117499D02*
X380999Y117499D01*
X380999Y117501D01*
X381001Y117501D01*
X381001Y117499D01*
X380999Y117499D01*
G37*
%LPD*%
D10*
X241300Y95275D03*
X241300Y114275D03*
D11*
X206350Y73025D03*
X187350Y73025D03*
X419075Y158750D03*
X400075Y158750D03*
X419075Y180975D03*
X400075Y180975D03*
D10*
X406400Y136500D03*
X406400Y117500D03*
X381000Y136500D03*
X381000Y117500D03*
X234950Y31775D03*
X234950Y50775D03*
D12*
X103650Y152400D03*
X137650Y152400D03*
X103650Y190500D03*
X137650Y190500D03*
D13*
X89916Y127000D03*
X151384Y127000D03*
X89916Y114300D03*
X89916Y101600D03*
X151384Y114300D03*
X151384Y101600D03*
X89916Y88900D03*
X151384Y88900D03*
X89916Y76200D03*
X89916Y63500D03*
X151384Y76200D03*
X151384Y63500D03*
X89916Y50800D03*
X151384Y50800D03*
D14*
X212725Y165100D03*
X238125Y165100D03*
X238125Y190500D03*
X212725Y190500D03*
X212725Y139700D03*
X238125Y139700D03*
D15*
X38100Y203200D03*
X63500Y203200D03*
X311150Y25400D03*
X285750Y25400D03*
X260350Y25400D03*
D11*
X206350Y95250D03*
X187350Y95250D03*
D10*
X177800Y120675D03*
X177800Y139675D03*
D15*
X393700Y25400D03*
X368300Y25400D03*
X342900Y25400D03*
D10*
X171450Y168300D03*
X171450Y187300D03*
D11*
X98400Y22225D03*
X79400Y22225D03*
D10*
X57150Y57125D03*
X57150Y38125D03*
D11*
X47650Y127000D03*
X66650Y127000D03*
D10*
X209550Y50775D03*
X209550Y31775D03*
X184150Y31775D03*
X184150Y50775D03*
D11*
X47650Y152400D03*
X66650Y152400D03*
D16*
X489650Y108050D03*
X497650Y108050D03*
X505650Y108050D03*
X513650Y108050D03*
X513650Y120550D03*
X505650Y120550D03*
X497650Y120550D03*
X489650Y120550D03*
X1353250Y108050D03*
X1361250Y108050D03*
X1369250Y108050D03*
X1377250Y108050D03*
X1377250Y120550D03*
X1369250Y120550D03*
X1361250Y120550D03*
X1353250Y120550D03*
X1505650Y108050D03*
X1513650Y108050D03*
X1521650Y108050D03*
X1529650Y108050D03*
X1529650Y120550D03*
X1521650Y120550D03*
X1513650Y120550D03*
X1505650Y120550D03*
X1556450Y108050D03*
X1564450Y108050D03*
X1572450Y108050D03*
X1580450Y108050D03*
X1580450Y120550D03*
X1572450Y120550D03*
X1564450Y120550D03*
X1556450Y120550D03*
X1708850Y108050D03*
X1716850Y108050D03*
X1724850Y108050D03*
X1732850Y108050D03*
X1732850Y120550D03*
X1724850Y120550D03*
X1716850Y120550D03*
X1708850Y120550D03*
X1759650Y108050D03*
X1767650Y108050D03*
X1775650Y108050D03*
X1783650Y108050D03*
X1783650Y120550D03*
X1775650Y120550D03*
X1767650Y120550D03*
X1759650Y120550D03*
X1912050Y108050D03*
X1920050Y108050D03*
X1928050Y108050D03*
X1936050Y108050D03*
X1936050Y120550D03*
X1928050Y120550D03*
X1920050Y120550D03*
X1912050Y120550D03*
X1962850Y108050D03*
X1970850Y108050D03*
X1978850Y108050D03*
X1986850Y108050D03*
X1986850Y120550D03*
X1978850Y120550D03*
X1970850Y120550D03*
X1962850Y120550D03*
X2115250Y108050D03*
X2123250Y108050D03*
X2131250Y108050D03*
X2139250Y108050D03*
X2139250Y120550D03*
X2131250Y120550D03*
X2123250Y120550D03*
X2115250Y120550D03*
X2166050Y108050D03*
X2174050Y108050D03*
X2182050Y108050D03*
X2190050Y108050D03*
X2190050Y120550D03*
X2182050Y120550D03*
X2174050Y120550D03*
X2166050Y120550D03*
X2318450Y108050D03*
X2326450Y108050D03*
X2334450Y108050D03*
X2342450Y108050D03*
X2342450Y120550D03*
X2334450Y120550D03*
X2326450Y120550D03*
X2318450Y120550D03*
X540450Y108050D03*
X548450Y108050D03*
X556450Y108050D03*
X564450Y108050D03*
X564450Y120550D03*
X556450Y120550D03*
X548450Y120550D03*
X540450Y120550D03*
X2369250Y108050D03*
X2377250Y108050D03*
X2385250Y108050D03*
X2393250Y108050D03*
X2393250Y120550D03*
X2385250Y120550D03*
X2377250Y120550D03*
X2369250Y120550D03*
X692850Y108050D03*
X700850Y108050D03*
X708850Y108050D03*
X716850Y108050D03*
X716850Y120550D03*
X708850Y120550D03*
X700850Y120550D03*
X692850Y120550D03*
X743650Y108050D03*
X751650Y108050D03*
X759650Y108050D03*
X767650Y108050D03*
X767650Y120550D03*
X759650Y120550D03*
X751650Y120550D03*
X743650Y120550D03*
X896050Y108050D03*
X904050Y108050D03*
X912050Y108050D03*
X920050Y108050D03*
X920050Y120550D03*
X912050Y120550D03*
X904050Y120550D03*
X896050Y120550D03*
X946850Y108050D03*
X954850Y108050D03*
X962850Y108050D03*
X970850Y108050D03*
X970850Y120550D03*
X962850Y120550D03*
X954850Y120550D03*
X946850Y120550D03*
X1099250Y108050D03*
X1107250Y108050D03*
X1115250Y108050D03*
X1123250Y108050D03*
X1123250Y120550D03*
X1115250Y120550D03*
X1107250Y120550D03*
X1099250Y120550D03*
X1150050Y108050D03*
X1158050Y108050D03*
X1166050Y108050D03*
X1174050Y108050D03*
X1174050Y120550D03*
X1166050Y120550D03*
X1158050Y120550D03*
X1150050Y120550D03*
X1302450Y108050D03*
X1310450Y108050D03*
X1318450Y108050D03*
X1326450Y108050D03*
X1326450Y120550D03*
X1318450Y120550D03*
X1310450Y120550D03*
X1302450Y120550D03*
D17*
X354076Y92650D03*
X354076Y100650D03*
X354076Y108650D03*
X354076Y116650D03*
X354076Y124650D03*
X354076Y132650D03*
X354076Y140650D03*
X354076Y148650D03*
D18*
X339150Y163576D03*
X331150Y163576D03*
X323150Y163576D03*
X315150Y163576D03*
X307150Y163576D03*
X299150Y163576D03*
X291150Y163576D03*
X283150Y163576D03*
D17*
X268224Y148650D03*
X268224Y140650D03*
X268224Y132650D03*
X268224Y124650D03*
X268224Y116650D03*
X268224Y108650D03*
X268224Y100650D03*
X268224Y92650D03*
D18*
X283150Y77724D03*
X291150Y77724D03*
X299150Y77724D03*
X307150Y77724D03*
X315150Y77724D03*
X323150Y77724D03*
X331150Y77724D03*
X339150Y77724D03*
D19*
X2108200Y137100D03*
X2120900Y137100D03*
X2133600Y137100D03*
X2146300Y137100D03*
X2159000Y137100D03*
X2171700Y137100D03*
X2184400Y137100D03*
X2197100Y137100D03*
X2197100Y193100D03*
X2184400Y193100D03*
X2171700Y193100D03*
X2159000Y193100D03*
X2146300Y193100D03*
X2133600Y193100D03*
X2120900Y193100D03*
X2108200Y193100D03*
X2311400Y137100D03*
X2324100Y137100D03*
X2336800Y137100D03*
X2349500Y137100D03*
X2362200Y137100D03*
X2374900Y137100D03*
X2387600Y137100D03*
X2400300Y137100D03*
X2400300Y193100D03*
X2387600Y193100D03*
X2374900Y193100D03*
X2362200Y193100D03*
X2349500Y193100D03*
X2336800Y193100D03*
X2324100Y193100D03*
X2311400Y193100D03*
X482600Y137100D03*
X495300Y137100D03*
X508000Y137100D03*
X520700Y137100D03*
X533400Y137100D03*
X546100Y137100D03*
X558800Y137100D03*
X571500Y137100D03*
X571500Y193100D03*
X558800Y193100D03*
X546100Y193100D03*
X533400Y193100D03*
X520700Y193100D03*
X508000Y193100D03*
X495300Y193100D03*
X482600Y193100D03*
X685800Y137100D03*
X698500Y137100D03*
X711200Y137100D03*
X723900Y137100D03*
X736600Y137100D03*
X749300Y137100D03*
X762000Y137100D03*
X774700Y137100D03*
X774700Y193100D03*
X762000Y193100D03*
X749300Y193100D03*
X736600Y193100D03*
X723900Y193100D03*
X711200Y193100D03*
X698500Y193100D03*
X685800Y193100D03*
X889000Y137100D03*
X901700Y137100D03*
X914400Y137100D03*
X927100Y137100D03*
X939800Y137100D03*
X952500Y137100D03*
X965200Y137100D03*
X977900Y137100D03*
X977900Y193100D03*
X965200Y193100D03*
X952500Y193100D03*
X939800Y193100D03*
X927100Y193100D03*
X914400Y193100D03*
X901700Y193100D03*
X889000Y193100D03*
X1092200Y137100D03*
X1104900Y137100D03*
X1117600Y137100D03*
X1130300Y137100D03*
X1143000Y137100D03*
X1155700Y137100D03*
X1168400Y137100D03*
X1181100Y137100D03*
X1181100Y193100D03*
X1168400Y193100D03*
X1155700Y193100D03*
X1143000Y193100D03*
X1130300Y193100D03*
X1117600Y193100D03*
X1104900Y193100D03*
X1092200Y193100D03*
X1295400Y137100D03*
X1308100Y137100D03*
X1320800Y137100D03*
X1333500Y137100D03*
X1346200Y137100D03*
X1358900Y137100D03*
X1371600Y137100D03*
X1384300Y137100D03*
X1384300Y193100D03*
X1371600Y193100D03*
X1358900Y193100D03*
X1346200Y193100D03*
X1333500Y193100D03*
X1320800Y193100D03*
X1308100Y193100D03*
X1295400Y193100D03*
X1498600Y137100D03*
X1511300Y137100D03*
X1524000Y137100D03*
X1536700Y137100D03*
X1549400Y137100D03*
X1562100Y137100D03*
X1574800Y137100D03*
X1587500Y137100D03*
X1587500Y193100D03*
X1574800Y193100D03*
X1562100Y193100D03*
X1549400Y193100D03*
X1536700Y193100D03*
X1524000Y193100D03*
X1511300Y193100D03*
X1498600Y193100D03*
X1701800Y137100D03*
X1714500Y137100D03*
X1727200Y137100D03*
X1739900Y137100D03*
X1752600Y137100D03*
X1765300Y137100D03*
X1778000Y137100D03*
X1790700Y137100D03*
X1790700Y193100D03*
X1778000Y193100D03*
X1765300Y193100D03*
X1752600Y193100D03*
X1739900Y193100D03*
X1727200Y193100D03*
X1714500Y193100D03*
X1701800Y193100D03*
X1905000Y137100D03*
X1917700Y137100D03*
X1930400Y137100D03*
X1943100Y137100D03*
X1955800Y137100D03*
X1968500Y137100D03*
X1981200Y137100D03*
X1993900Y137100D03*
X1993900Y193100D03*
X1981200Y193100D03*
X1968500Y193100D03*
X1955800Y193100D03*
X1943100Y193100D03*
X1930400Y193100D03*
X1917700Y193100D03*
X1905000Y193100D03*
D20*
X362725Y186375D03*
X362725Y162875D03*
X380225Y162875D03*
X380225Y186375D03*
D10*
X57150Y98400D03*
X57150Y79400D03*
D11*
X444525Y190500D03*
X463525Y190500D03*
X650900Y190500D03*
X669900Y190500D03*
X854100Y190500D03*
X873100Y190500D03*
X1057300Y190500D03*
X1076300Y190500D03*
X1260500Y190500D03*
X1279500Y190500D03*
X1463700Y190500D03*
X1482700Y190500D03*
X1666900Y190500D03*
X1685900Y190500D03*
X1870100Y190500D03*
X1889100Y190500D03*
X2073300Y190500D03*
X2092300Y190500D03*
X2276500Y190500D03*
X2295500Y190500D03*
D15*
X31750Y101600D03*
X31750Y76200D03*
D21*
X431800Y43640D02*
X431800Y32560D01*
X457200Y32560D02*
X457200Y43640D01*
X482600Y43640D02*
X482600Y32560D01*
X508000Y32560D02*
X508000Y43640D01*
X533400Y43640D02*
X533400Y32560D01*
X558800Y32560D02*
X558800Y43640D01*
X584200Y43640D02*
X584200Y32560D01*
X609600Y32560D02*
X609600Y43640D01*
X635000Y43640D02*
X635000Y32560D01*
X660400Y32560D02*
X660400Y43640D01*
X431800Y70660D02*
X431800Y81740D01*
X660400Y81740D02*
X660400Y70660D01*
X685800Y43640D02*
X685800Y32560D01*
X711200Y32560D02*
X711200Y43640D01*
X736600Y43640D02*
X736600Y32560D01*
X762000Y32560D02*
X762000Y43640D01*
X787400Y43640D02*
X787400Y32560D01*
X812800Y32560D02*
X812800Y43640D01*
X838200Y43640D02*
X838200Y32560D01*
X863600Y32560D02*
X863600Y43640D01*
X889000Y43640D02*
X889000Y32560D01*
X914400Y32560D02*
X914400Y43640D01*
X685800Y70660D02*
X685800Y81740D01*
X914400Y81740D02*
X914400Y70660D01*
X939800Y43640D02*
X939800Y32560D01*
X965200Y32560D02*
X965200Y43640D01*
X990600Y43640D02*
X990600Y32560D01*
X1016000Y32560D02*
X1016000Y43640D01*
X1041400Y43640D02*
X1041400Y32560D01*
X1066800Y32560D02*
X1066800Y43640D01*
X1092200Y43640D02*
X1092200Y32560D01*
X1117600Y32560D02*
X1117600Y43640D01*
X1143000Y43640D02*
X1143000Y32560D01*
X1168400Y32560D02*
X1168400Y43640D01*
X939800Y70660D02*
X939800Y81740D01*
X1168400Y81740D02*
X1168400Y70660D01*
X1193800Y43640D02*
X1193800Y32560D01*
X1219200Y32560D02*
X1219200Y43640D01*
X1244600Y43640D02*
X1244600Y32560D01*
X1270000Y32560D02*
X1270000Y43640D01*
X1295400Y43640D02*
X1295400Y32560D01*
X1320800Y32560D02*
X1320800Y43640D01*
X1346200Y43640D02*
X1346200Y32560D01*
X1371600Y32560D02*
X1371600Y43640D01*
X1397000Y43640D02*
X1397000Y32560D01*
X1422400Y32560D02*
X1422400Y43640D01*
X1193800Y70660D02*
X1193800Y81740D01*
X1422400Y81740D02*
X1422400Y70660D01*
X1447800Y43640D02*
X1447800Y32560D01*
X1473200Y32560D02*
X1473200Y43640D01*
X1498600Y43640D02*
X1498600Y32560D01*
X1524000Y32560D02*
X1524000Y43640D01*
X1549400Y43640D02*
X1549400Y32560D01*
X1574800Y32560D02*
X1574800Y43640D01*
X1600200Y43640D02*
X1600200Y32560D01*
X1625600Y32560D02*
X1625600Y43640D01*
X1651000Y43640D02*
X1651000Y32560D01*
X1676400Y32560D02*
X1676400Y43640D01*
X1447800Y70660D02*
X1447800Y81740D01*
X1676400Y81740D02*
X1676400Y70660D01*
X1701800Y43640D02*
X1701800Y32560D01*
X1727200Y32560D02*
X1727200Y43640D01*
X1752600Y43640D02*
X1752600Y32560D01*
X1778000Y32560D02*
X1778000Y43640D01*
X1803400Y43640D02*
X1803400Y32560D01*
X1828800Y32560D02*
X1828800Y43640D01*
X1854200Y43640D02*
X1854200Y32560D01*
X1879600Y32560D02*
X1879600Y43640D01*
X1905000Y43640D02*
X1905000Y32560D01*
X1930400Y32560D02*
X1930400Y43640D01*
X1701800Y70660D02*
X1701800Y81740D01*
X1930400Y81740D02*
X1930400Y70660D01*
X1955800Y43640D02*
X1955800Y32560D01*
X1981200Y32560D02*
X1981200Y43640D01*
X2006600Y43640D02*
X2006600Y32560D01*
X2032000Y32560D02*
X2032000Y43640D01*
X2057400Y43640D02*
X2057400Y32560D01*
X2082800Y32560D02*
X2082800Y43640D01*
X2108200Y43640D02*
X2108200Y32560D01*
X2133600Y32560D02*
X2133600Y43640D01*
X2159000Y43640D02*
X2159000Y32560D01*
X2184400Y32560D02*
X2184400Y43640D01*
X1955800Y70660D02*
X1955800Y81740D01*
X2184400Y81740D02*
X2184400Y70660D01*
X2209800Y43640D02*
X2209800Y32560D01*
X2235200Y32560D02*
X2235200Y43640D01*
X2260600Y43640D02*
X2260600Y32560D01*
X2286000Y32560D02*
X2286000Y43640D01*
X2311400Y43640D02*
X2311400Y32560D01*
X2336800Y32560D02*
X2336800Y43640D01*
X2362200Y43640D02*
X2362200Y32560D01*
X2387600Y32560D02*
X2387600Y43640D01*
X2413000Y43640D02*
X2413000Y32560D01*
X2438400Y32560D02*
X2438400Y43640D01*
X2209800Y70660D02*
X2209800Y81740D01*
X2438400Y81740D02*
X2438400Y70660D01*
D15*
X371475Y76200D03*
X396875Y76200D03*
X257175Y215900D03*
X282575Y215900D03*
X307975Y215900D03*
X333375Y215900D03*
D22*
X89916Y88900D02*
X69850Y88900D01*
X60350Y79400D02*
X57150Y79400D01*
X60350Y79400D02*
X69850Y88900D01*
X354076Y132650D02*
X354776Y133350D01*
X377850Y133350D02*
X381000Y136500D01*
X368300Y133350D02*
X354776Y133350D01*
X368300Y133350D02*
X377850Y133350D01*
X381000Y136500D02*
X406400Y136500D01*
X364300Y116650D02*
X354076Y116650D01*
X364300Y116650D02*
X368300Y120650D01*
X368300Y133350D01*
X311150Y25400D02*
X323850Y12700D01*
X384175Y12700D01*
X393700Y22225D02*
X393700Y25400D01*
X393700Y22225D02*
X384175Y12700D01*
D23*
X336550Y114300D03*
D22*
X338900Y116650D01*
X354076Y116650D01*
X133350Y95250D02*
X127000Y88900D01*
X89916Y88900D01*
X268224Y140650D02*
X310200Y140650D01*
X311150Y139700D01*
X463525Y190500D02*
X462950Y193100D01*
X482600Y193100D01*
X669900Y190500D02*
X672500Y193100D01*
X685800Y193100D01*
X873100Y190500D02*
X875700Y193100D01*
X889000Y193100D01*
X1076300Y190500D02*
X1078900Y193100D01*
X1092200Y193100D01*
X1279500Y190500D02*
X1282100Y193100D01*
X1295400Y193100D01*
X1482700Y190500D02*
X1485300Y193100D01*
X1498600Y193100D01*
X1685900Y190500D02*
X1688500Y193100D01*
X1701800Y193100D01*
X1889100Y190500D02*
X1891700Y193100D01*
X1905000Y193100D01*
X2092300Y190500D02*
X2094900Y193100D01*
X2108200Y193100D01*
X2295500Y190500D02*
X2298100Y193100D01*
X2311400Y193100D01*
D23*
X311150Y139700D03*
X460350Y168910D03*
X2292350Y171450D03*
D22*
X2295500Y174600D01*
X2295500Y190500D01*
D23*
X666750Y168910D03*
D22*
X666750Y187350D02*
X669900Y190500D01*
X666750Y187350D02*
X666750Y168910D01*
D23*
X869950Y168910D03*
D22*
X869950Y187350D02*
X873100Y190500D01*
X869950Y187350D02*
X869950Y168910D01*
D23*
X1073150Y168910D03*
D22*
X1073150Y187350D02*
X1076300Y190500D01*
X1073150Y187350D02*
X1073150Y168910D01*
D23*
X1276350Y168910D03*
D22*
X1276350Y187350D02*
X1279500Y190500D01*
X1276350Y187350D02*
X1276350Y168910D01*
D23*
X1479550Y168910D03*
D22*
X1479550Y187350D02*
X1482700Y190500D01*
X1479550Y187350D02*
X1479550Y168910D01*
D23*
X1682750Y168910D03*
D22*
X1682750Y187350D02*
X1685900Y190500D01*
X1682750Y187350D02*
X1682750Y168910D01*
D23*
X1885950Y168910D03*
D22*
X1885950Y187350D02*
X1889100Y190500D01*
X1885950Y187350D02*
X1885950Y168910D01*
D23*
X2089150Y168910D03*
D22*
X2089150Y187350D02*
X2092300Y190500D01*
X2089150Y187350D02*
X2089150Y168910D01*
X427940Y136500D02*
X406400Y136500D01*
X427940Y136500D02*
X460350Y168910D01*
X238125Y190500D02*
X225425Y203200D01*
X190500Y203200D02*
X63500Y203200D01*
X190500Y203200D02*
X225425Y203200D01*
X238125Y190500D02*
X276225Y190500D01*
X282575Y184150D01*
D23*
X282575Y184150D03*
D22*
X171450Y95250D02*
X133350Y95250D01*
X171450Y95250D02*
X187350Y95250D01*
X460350Y168910D02*
X460350Y187325D01*
X463525Y190500D01*
D23*
X171450Y95250D03*
X190500Y203200D03*
D22*
X89916Y101600D02*
X60350Y101600D01*
X57150Y98400D01*
X268224Y116650D02*
X283400Y116650D01*
X285750Y114300D01*
D23*
X285750Y114300D03*
D22*
X381000Y117500D02*
X406400Y117500D01*
X372150Y108650D02*
X354076Y108650D01*
X372150Y108650D02*
X381000Y117500D01*
X838200Y190500D02*
X854100Y190500D01*
D23*
X838200Y190500D03*
D22*
X650900Y190500D02*
X635000Y190500D01*
D23*
X635000Y190500D03*
D22*
X1041400Y190500D02*
X1057300Y190500D01*
D23*
X1041400Y190500D03*
D22*
X1244600Y190500D02*
X1260500Y190500D01*
D23*
X1244600Y190500D03*
D22*
X1447800Y190500D02*
X1463700Y190500D01*
D23*
X1447800Y190500D03*
D22*
X1651000Y190500D02*
X1666900Y190500D01*
D23*
X1651000Y190500D03*
D22*
X1854200Y190500D02*
X1870100Y190500D01*
D23*
X1854200Y190500D03*
D22*
X2057400Y190500D02*
X2073300Y190500D01*
D23*
X2057400Y190500D03*
D22*
X2260600Y190500D02*
X2276500Y190500D01*
D23*
X2260600Y190500D03*
D22*
X414680Y117500D02*
X406400Y117500D01*
D23*
X421640Y124460D03*
D22*
X2197100Y137100D02*
X2207200Y137100D01*
X2209800Y139700D01*
D23*
X2209800Y139700D03*
D22*
X2400300Y137100D02*
X2410400Y137100D01*
X2413000Y139700D01*
D23*
X2413000Y139700D03*
D22*
X2004000Y137100D02*
X1993900Y137100D01*
X2004000Y137100D02*
X2006600Y139700D01*
D23*
X2006600Y139700D03*
D22*
X1800800Y137100D02*
X1790700Y137100D01*
X1800800Y137100D02*
X1803400Y139700D01*
D23*
X1803400Y139700D03*
D22*
X1597600Y137100D02*
X1587500Y137100D01*
X1597600Y137100D02*
X1600200Y139700D01*
D23*
X1600200Y139700D03*
D22*
X1394400Y137100D02*
X1384300Y137100D01*
X1394400Y137100D02*
X1397000Y139700D01*
D23*
X1397000Y139700D03*
D22*
X1191200Y137100D02*
X1181100Y137100D01*
X1191200Y137100D02*
X1193800Y139700D01*
D23*
X1193800Y139700D03*
D22*
X988000Y137100D02*
X977900Y137100D01*
X988000Y137100D02*
X990600Y139700D01*
D23*
X990600Y139700D03*
D22*
X784800Y137100D02*
X774700Y137100D01*
X784800Y137100D02*
X787400Y139700D01*
D23*
X787400Y139700D03*
D22*
X581600Y137100D02*
X571500Y137100D01*
X581600Y137100D02*
X584200Y139700D01*
D23*
X584200Y139700D03*
X609600Y177800D03*
D22*
X609600Y158750D01*
D23*
X609600Y158750D03*
X812800Y177800D03*
D22*
X812800Y158750D01*
D23*
X812800Y158750D03*
X1016000Y177800D03*
D22*
X1016000Y158750D01*
D23*
X1016000Y158750D03*
X1219200Y177800D03*
D22*
X1219200Y158750D01*
D23*
X1219200Y158750D03*
X1422400Y177800D03*
D22*
X1422400Y158750D01*
D23*
X1422400Y158750D03*
X1625600Y177800D03*
D22*
X1625600Y158750D01*
D23*
X1625600Y158750D03*
X1828800Y177800D03*
D22*
X1828800Y158750D01*
D23*
X1828800Y158750D03*
X2032000Y177800D03*
D22*
X2032000Y158750D01*
D23*
X2032000Y158750D03*
X2235200Y177800D03*
D22*
X2235200Y158750D01*
D23*
X2235200Y158750D03*
D22*
X177800Y139675D02*
X177775Y139700D01*
X160655Y139700D01*
D23*
X160655Y139700D03*
D22*
X209525Y76200D02*
X206350Y73025D01*
X209525Y76200D02*
X219075Y76200D01*
D23*
X219075Y76200D03*
D22*
X259525Y116650D02*
X268224Y116650D01*
X254000Y111125D02*
X254000Y101600D01*
X247675Y95275D01*
X241300Y95275D01*
X254000Y111125D02*
X259525Y116650D01*
X431825Y190500D02*
X444525Y190500D01*
D23*
X422275Y196850D03*
X25400Y184150D03*
X25400Y171450D03*
X31750Y38100D03*
X31750Y25400D03*
X339725Y139700D03*
D24*
X268224Y124650D02*
X254000Y124650D01*
X251675Y124650D01*
X241300Y114275D01*
X251675Y124650D02*
X254000Y124650D01*
X228600Y66675D02*
X228600Y53975D01*
X231800Y50775D01*
X234950Y50775D01*
X151384Y50800D02*
X151384Y63500D01*
X167640Y63500D01*
X168910Y64770D01*
D23*
X168910Y64770D03*
X228600Y66675D03*
D24*
X262575Y100650D02*
X263525Y100650D01*
X268224Y100650D01*
X257175Y73000D02*
X234950Y50775D01*
X257175Y73000D02*
X257175Y95250D01*
X262575Y100650D01*
X263525Y100650D01*
X268224Y148650D02*
X251400Y148650D01*
X247650Y152400D01*
X219075Y152400D01*
X212725Y158750D01*
X212725Y165100D01*
X225425Y177800D02*
X212725Y190500D01*
X283150Y170875D02*
X283150Y163576D01*
X276225Y177800D02*
X225425Y177800D01*
X276225Y177800D02*
X283150Y170875D01*
X266700Y165100D02*
X238125Y165100D01*
X266700Y165100D02*
X279400Y152400D01*
X288925Y152400D01*
X291150Y154625D02*
X291150Y163576D01*
X291150Y154625D02*
X288925Y152400D01*
D23*
X301625Y130175D03*
D24*
X315150Y116650D01*
X315150Y77724D01*
X225425Y127000D02*
X212725Y139700D01*
X247650Y127000D02*
X254000Y133350D01*
D23*
X254000Y133350D03*
D24*
X247650Y127000D02*
X225425Y127000D01*
X354076Y140650D02*
X364350Y140650D01*
X380225Y156525D02*
X380225Y162875D01*
X380225Y156525D02*
X364350Y140650D01*
X381175Y161925D02*
X380225Y162875D01*
X396900Y161925D02*
X400075Y158750D01*
X396900Y161925D02*
X381175Y161925D01*
X362725Y186375D02*
X354076Y177726D01*
X354076Y148650D01*
X362725Y186375D02*
X362725Y188100D01*
X371475Y196850D01*
X393700Y196850D01*
X400075Y190475D02*
X400075Y180975D01*
X400075Y190475D02*
X393700Y196850D01*
X723900Y152400D02*
X927100Y152400D01*
X723900Y165100D02*
X723900Y193100D01*
X723900Y165100D02*
X723900Y158750D01*
X723900Y152400D01*
X927100Y158750D02*
X927100Y193100D01*
X927100Y158750D02*
X927100Y152400D01*
X723900Y152400D02*
X520700Y152400D01*
X520700Y165100D02*
X520700Y193100D01*
X520700Y165100D02*
X520700Y158750D01*
X520700Y152400D01*
X422850Y92650D02*
X354076Y92650D01*
X422850Y92650D02*
X425450Y95250D01*
X482600Y152400D01*
X520700Y152400D01*
X927100Y152400D02*
X1130300Y152400D01*
X1333500Y152400D01*
X1536700Y152400D01*
X1739900Y152400D01*
X1943100Y152400D01*
X2146300Y152400D01*
X2324100Y152400D01*
X2349500Y177800D01*
X2349500Y193100D01*
X1130300Y193100D02*
X1130300Y165100D01*
X1130300Y152400D01*
X1739900Y165100D02*
X1739900Y193100D01*
X1739900Y165100D02*
X1739900Y158750D01*
X1739900Y152400D01*
X1943100Y165100D02*
X1943100Y193100D01*
X1943100Y165100D02*
X1943100Y152400D01*
X1536700Y165100D02*
X1536700Y193100D01*
X1536700Y165100D02*
X1536700Y152400D01*
X1333500Y165100D02*
X1333500Y193100D01*
X1333500Y165100D02*
X1333500Y158750D01*
X1333500Y152400D01*
X2146300Y165100D02*
X2146300Y193100D01*
X2146300Y165100D02*
X2146300Y152400D01*
X736600Y222250D02*
X533400Y222250D01*
X736600Y222250D02*
X939800Y222250D01*
X939800Y193100D02*
X939800Y177800D01*
D23*
X939800Y177800D03*
X939800Y222250D03*
D24*
X736600Y193100D02*
X736600Y177800D01*
D23*
X736600Y177800D03*
X736600Y222250D03*
D24*
X533400Y193100D02*
X533400Y177800D01*
D23*
X533400Y177800D03*
X533400Y222250D03*
D24*
X460375Y222250D01*
D23*
X2362200Y222250D03*
X2362200Y177800D03*
D24*
X2362200Y193100D01*
X1143000Y222250D02*
X939800Y222250D01*
X1143000Y222250D02*
X1346200Y222250D01*
X1549400Y222250D01*
X1752600Y222250D01*
X1955800Y222250D01*
X2159000Y222250D01*
X2362200Y222250D01*
X1143000Y193100D02*
X1143000Y177800D01*
D23*
X1143000Y177800D03*
X1143000Y222250D03*
D24*
X1346200Y193100D02*
X1346200Y177800D01*
D23*
X1346200Y177800D03*
X1346200Y222250D03*
D24*
X2159000Y193100D02*
X2159000Y177800D01*
D23*
X2159000Y177800D03*
X2159000Y222250D03*
D24*
X1955800Y193100D02*
X1955800Y177800D01*
D23*
X1955800Y177800D03*
X1955800Y222250D03*
D24*
X1752600Y193100D02*
X1752600Y177800D01*
D23*
X1752600Y177800D03*
X1752600Y222250D03*
D24*
X1549400Y193100D02*
X1549400Y177800D01*
D23*
X1549400Y177800D03*
X1549400Y222250D03*
D24*
X323150Y183450D02*
X323150Y163576D01*
X323150Y183450D02*
X361950Y222250D01*
X454025Y222250D01*
X460375Y222250D01*
X749300Y215900D02*
X952500Y215900D01*
X952500Y193100D02*
X952500Y177800D01*
D23*
X952500Y177800D03*
X952500Y215900D03*
D24*
X749300Y193100D02*
X749300Y177800D01*
D23*
X749300Y177800D03*
X749300Y215900D03*
D24*
X546100Y193100D02*
X546100Y177800D01*
D23*
X546100Y177800D03*
X546100Y215900D03*
D24*
X952500Y215900D02*
X1155700Y215900D01*
X1358900Y215900D01*
X1562100Y215900D01*
X1765300Y215900D01*
X1968500Y215900D01*
X2171700Y215900D01*
X2374900Y215900D01*
X2374900Y193100D02*
X2374900Y177800D01*
D23*
X2374900Y177800D03*
X2374900Y215900D03*
D24*
X1155700Y193100D02*
X1155700Y177800D01*
D23*
X1155700Y177800D03*
X1155700Y215900D03*
D24*
X1358900Y193100D02*
X1358900Y177800D01*
D23*
X1358900Y177800D03*
X1358900Y215900D03*
D24*
X2171700Y193100D02*
X2171700Y177800D01*
D23*
X2171700Y177800D03*
X2171700Y215900D03*
D24*
X1968500Y193100D02*
X1968500Y177800D01*
D23*
X1968500Y177800D03*
X1968500Y215900D03*
D24*
X1765300Y193100D02*
X1765300Y177800D01*
D23*
X1765300Y177800D03*
X1765300Y215900D03*
D24*
X1562100Y193100D02*
X1562100Y177800D01*
D23*
X1562100Y177800D03*
X1562100Y215900D03*
D24*
X749300Y215900D02*
X546100Y215900D01*
X457200Y215900D02*
X450850Y215900D01*
X331150Y181925D02*
X331150Y163576D01*
X331150Y181925D02*
X365125Y215900D01*
X450850Y215900D01*
X457200Y215900D02*
X546100Y215900D01*
X762000Y209550D02*
X965200Y209550D01*
X965200Y193100D01*
X762000Y193100D02*
X762000Y209550D01*
X558800Y209550D02*
X558800Y193100D01*
X339150Y180400D02*
X339150Y163576D01*
X339150Y180400D02*
X368300Y209550D01*
X444500Y209550D01*
X454025Y209550D02*
X558800Y209550D01*
X965200Y209550D02*
X1168400Y209550D01*
X1371600Y209550D01*
X1574800Y209550D01*
X1778000Y209550D01*
X1981200Y209550D01*
X2184400Y209550D01*
X2381250Y209550D01*
X2387600Y203200D01*
X2387600Y193100D01*
X1371600Y193100D02*
X1371600Y209550D01*
X1574800Y209550D02*
X1574800Y193100D01*
X1778000Y193100D02*
X1778000Y209550D01*
X1981200Y209550D02*
X1981200Y193100D01*
X2184400Y193100D02*
X2184400Y209550D01*
X1168400Y209550D02*
X1168400Y193100D01*
X762000Y209550D02*
X558800Y209550D01*
X454025Y209550D02*
X444500Y209550D01*
X508000Y193100D02*
X508000Y184150D01*
X424500Y100650D02*
X354076Y100650D01*
X424500Y100650D02*
X508000Y184150D01*
X268224Y92650D02*
X268224Y42926D01*
X285750Y25400D01*
X283150Y66100D02*
X283150Y77724D01*
X283150Y66100D02*
X285750Y63500D01*
X330200Y63500D01*
X368300Y25400D01*
X66663Y126988D02*
X66650Y127000D01*
X66663Y126988D02*
X79350Y114300D01*
X89916Y114300D01*
X114300Y114300D01*
X139700Y139700D01*
X149225Y139700D01*
X171450Y161925D01*
X171450Y168300D01*
X66650Y127000D02*
X47650Y152400D01*
X66650Y127000D02*
X66663Y126988D01*
X99342Y186731D02*
X103650Y190500D01*
X89916Y76200D02*
X73660Y76200D01*
D23*
X73660Y76200D03*
X82550Y152400D03*
D24*
X82550Y158750D01*
X82550Y169939D01*
X99342Y186731D01*
X73000Y158750D02*
X66650Y152400D01*
X73000Y158750D02*
X82550Y158750D01*
X103650Y152400D02*
X137650Y186400D01*
X137650Y190500D01*
X103650Y140734D02*
X89916Y127000D01*
X103650Y140734D02*
X103650Y152400D01*
D23*
X120650Y139700D03*
D24*
X133350Y152400D01*
X137650Y152400D01*
D23*
X120650Y44450D03*
D24*
X137650Y152400D02*
X137650Y153500D01*
X120650Y44450D02*
X98425Y22225D01*
X137650Y152400D02*
X137650Y153500D01*
X171450Y187300D01*
X98425Y22225D02*
X98400Y22225D01*
X57150Y57125D02*
X63525Y63500D01*
X89916Y63500D01*
X57150Y57125D02*
X53950Y57125D01*
X41275Y44450D01*
X41275Y28575D01*
X47625Y22225D01*
X79400Y22225D01*
X142875Y41275D02*
X200050Y41275D01*
X127000Y50800D02*
X89916Y50800D01*
X127000Y50800D02*
X136525Y41275D01*
X142875Y41275D01*
X89916Y50800D02*
X77241Y38125D01*
X57150Y38125D01*
X200050Y41275D02*
X209550Y50775D01*
X209550Y31775D02*
X184150Y31775D01*
X209550Y31775D02*
X234950Y31775D01*
X184175Y76200D02*
X151384Y76200D01*
X184175Y76200D02*
X187350Y73025D01*
X184150Y69825D02*
X184150Y50775D01*
X184150Y69825D02*
X187350Y73025D01*
X47650Y117500D02*
X31750Y101600D01*
X47650Y117500D02*
X47650Y127000D01*
X151384Y127000D02*
X151384Y114300D01*
X151384Y101600D02*
X165100Y101600D01*
X168275Y104775D01*
X171450Y107950D01*
X168275Y104775D01*
X177800Y107950D02*
X193650Y107950D01*
X177800Y107950D02*
X171450Y107950D01*
X177800Y107950D02*
X177800Y120675D01*
X193650Y107950D02*
X206350Y95250D01*
X571500Y193100D02*
X581600Y203200D01*
X704850Y203200D01*
X711200Y196850D02*
X711200Y193100D01*
X711200Y196850D02*
X704850Y203200D01*
X774700Y193100D02*
X784800Y203200D01*
X908050Y203200D02*
X914400Y196850D01*
X914400Y193100D01*
X908050Y203200D02*
X784800Y203200D01*
X977900Y193100D02*
X988000Y203200D01*
X1111250Y203200D02*
X1117600Y196850D01*
X1117600Y193100D01*
X1111250Y203200D02*
X988000Y203200D01*
X1181100Y193100D02*
X1191200Y203200D01*
X1314450Y203200D02*
X1320800Y196850D01*
X1320800Y193100D01*
X1314450Y203200D02*
X1191200Y203200D01*
X489650Y120550D02*
X476350Y120550D01*
X469900Y127000D01*
D23*
X469900Y127000D03*
X469900Y158750D03*
D24*
X495300Y184150D01*
X495300Y193100D01*
X497650Y122050D02*
X497650Y120550D01*
X497650Y122050D02*
X482600Y137100D01*
X495300Y137100D02*
X505650Y126750D01*
X505650Y120550D01*
X513650Y131450D02*
X508000Y137100D01*
X513650Y131450D02*
X513650Y120550D01*
X537250Y120550D02*
X540450Y120550D01*
X537250Y120550D02*
X520700Y137100D01*
X548450Y122050D02*
X548450Y120550D01*
X548450Y122050D02*
X533400Y137100D01*
X546100Y137100D02*
X556450Y126750D01*
X556450Y120550D01*
X564450Y131450D02*
X558800Y137100D01*
X564450Y131450D02*
X564450Y120550D01*
X685900Y120550D02*
X692850Y120550D01*
X685900Y120550D02*
X673100Y133350D01*
X673100Y146050D01*
D23*
X673100Y146050D03*
X673100Y158750D03*
D24*
X698500Y184150D01*
X698500Y193100D01*
X700850Y122050D02*
X700850Y120550D01*
X700850Y122050D02*
X685800Y137100D01*
X698500Y137100D02*
X708850Y126750D01*
X708850Y120550D01*
X716850Y131450D02*
X711200Y137100D01*
X716850Y131450D02*
X716850Y120550D01*
X740450Y120550D02*
X743650Y120550D01*
X740450Y120550D02*
X723900Y137100D01*
X751650Y122050D02*
X751650Y120550D01*
X751650Y122050D02*
X736600Y137100D01*
X749300Y137100D02*
X759650Y126750D01*
X759650Y120550D01*
X767650Y131450D02*
X762000Y137100D01*
X767650Y131450D02*
X767650Y120550D01*
X889100Y120550D02*
X896050Y120550D01*
X889100Y120550D02*
X876300Y133350D01*
X876300Y146050D01*
D23*
X876300Y146050D03*
X876300Y158750D03*
D24*
X901700Y184150D01*
X901700Y193100D01*
X904050Y122050D02*
X904050Y120550D01*
X904050Y122050D02*
X889000Y137100D01*
X901700Y137100D02*
X912050Y126750D01*
X912050Y120550D01*
X920050Y131450D02*
X914400Y137100D01*
X920050Y131450D02*
X920050Y120550D01*
X943650Y120550D02*
X946850Y120550D01*
X943650Y120550D02*
X927100Y137100D01*
X954850Y122050D02*
X954850Y120550D01*
X954850Y122050D02*
X939800Y137100D01*
X952500Y137100D02*
X962850Y126750D01*
X962850Y120550D01*
X970850Y131450D02*
X965200Y137100D01*
X970850Y131450D02*
X970850Y120550D01*
X1092300Y120550D02*
X1099250Y120550D01*
X1092300Y120550D02*
X1079500Y133350D01*
X1079500Y146050D01*
D23*
X1079500Y146050D03*
X1079500Y158750D03*
D24*
X1104900Y184150D01*
X1104900Y193100D01*
X1107250Y122050D02*
X1107250Y120550D01*
X1107250Y122050D02*
X1092200Y137100D01*
X1104900Y137100D02*
X1115250Y126750D01*
X1115250Y120550D01*
X1123250Y131450D02*
X1117600Y137100D01*
X1123250Y131450D02*
X1123250Y120550D01*
X1146850Y120550D02*
X1150050Y120550D01*
X1146850Y120550D02*
X1130300Y137100D01*
X1158050Y122050D02*
X1158050Y120550D01*
X1158050Y122050D02*
X1143000Y137100D01*
X1155700Y137100D02*
X1166050Y126750D01*
X1166050Y120550D01*
X1174050Y131450D02*
X1168400Y137100D01*
X1174050Y131450D02*
X1174050Y120550D01*
X1295500Y120550D02*
X1302450Y120550D01*
X1295500Y120550D02*
X1282700Y133350D01*
X1282700Y146050D01*
D23*
X1282700Y146050D03*
X1282700Y158750D03*
D24*
X1308100Y184150D01*
X1308100Y193100D01*
X1310450Y122050D02*
X1310450Y120550D01*
X1310450Y122050D02*
X1295400Y137100D01*
X1308100Y137100D02*
X1318450Y126750D01*
X1318450Y120550D01*
X1326450Y131450D02*
X1320800Y137100D01*
X1326450Y131450D02*
X1326450Y120550D01*
X1350050Y120550D02*
X1353250Y120550D01*
X1350050Y120550D02*
X1333500Y137100D01*
X1361250Y122050D02*
X1361250Y120550D01*
X1361250Y122050D02*
X1346200Y137100D01*
X1358900Y137100D02*
X1369250Y126750D01*
X1369250Y120550D01*
X1377250Y131450D02*
X1371600Y137100D01*
X1377250Y131450D02*
X1377250Y120550D01*
X1498700Y120550D02*
X1505650Y120550D01*
X1498700Y120550D02*
X1485900Y133350D01*
X1485900Y146050D01*
D23*
X1485900Y146050D03*
X1485900Y158750D03*
D24*
X1511300Y184150D01*
X1511300Y193100D01*
X1513650Y122050D02*
X1513650Y120550D01*
X1513650Y122050D02*
X1498600Y137100D01*
X1511300Y137100D02*
X1521650Y126750D01*
X1521650Y120550D01*
X1529650Y131450D02*
X1524000Y137100D01*
X1529650Y131450D02*
X1529650Y120550D01*
X1553250Y120550D02*
X1556450Y120550D01*
X1553250Y120550D02*
X1536700Y137100D01*
X1564450Y122050D02*
X1564450Y120550D01*
X1564450Y122050D02*
X1549400Y137100D01*
X1562100Y137100D02*
X1572450Y126750D01*
X1572450Y120550D01*
X1580450Y131450D02*
X1574800Y137100D01*
X1580450Y131450D02*
X1580450Y120550D01*
X1701900Y120550D02*
X1708850Y120550D01*
X1701900Y120550D02*
X1689100Y133350D01*
X1689100Y146050D01*
D23*
X1689100Y146050D03*
X1689100Y158750D03*
D24*
X1714500Y184150D01*
X1714500Y193100D01*
X1716850Y122050D02*
X1716850Y120550D01*
X1716850Y122050D02*
X1701800Y137100D01*
X1714500Y137100D02*
X1724850Y126750D01*
X1724850Y120550D01*
X1732850Y131450D02*
X1727200Y137100D01*
X1732850Y131450D02*
X1732850Y120550D01*
X1756450Y120550D02*
X1759650Y120550D01*
X1756450Y120550D02*
X1739900Y137100D01*
X1767650Y122050D02*
X1767650Y120550D01*
X1767650Y122050D02*
X1752600Y137100D01*
X1765300Y137100D02*
X1775650Y126750D01*
X1775650Y120550D01*
X1783650Y131450D02*
X1778000Y137100D01*
X1783650Y131450D02*
X1783650Y120550D01*
X1905100Y120550D02*
X1912050Y120550D01*
X1905100Y120550D02*
X1892300Y133350D01*
X1892300Y146050D01*
D23*
X1892300Y146050D03*
X1892300Y158750D03*
D24*
X1917700Y184150D01*
X1917700Y193100D01*
X1920050Y122050D02*
X1920050Y120550D01*
X1920050Y122050D02*
X1905000Y137100D01*
X1917700Y137100D02*
X1928050Y126750D01*
X1928050Y120550D01*
X1936050Y131450D02*
X1930400Y137100D01*
X1936050Y131450D02*
X1936050Y120550D01*
X1959650Y120550D02*
X1962850Y120550D01*
X1959650Y120550D02*
X1943100Y137100D01*
X1970850Y122050D02*
X1970850Y120550D01*
X1970850Y122050D02*
X1955800Y137100D01*
X1968500Y137100D02*
X1978850Y126750D01*
X1978850Y120550D01*
X1986850Y131450D02*
X1981200Y137100D01*
X1986850Y131450D02*
X1986850Y120550D01*
X2108300Y120550D02*
X2115250Y120550D01*
X2108300Y120550D02*
X2095500Y133350D01*
X2095500Y146050D01*
D23*
X2095500Y146050D03*
X2095500Y158750D03*
D24*
X2120900Y184150D01*
X2120900Y193100D01*
X2123250Y122050D02*
X2123250Y120550D01*
X2123250Y122050D02*
X2108200Y137100D01*
X2120900Y137100D02*
X2131250Y126750D01*
X2131250Y120550D01*
X2139250Y131450D02*
X2133600Y137100D01*
X2139250Y131450D02*
X2139250Y120550D01*
X2162850Y120550D02*
X2166050Y120550D01*
X2162850Y120550D02*
X2146300Y137100D01*
X2174050Y122050D02*
X2174050Y120550D01*
X2174050Y122050D02*
X2159000Y137100D01*
X2182050Y126750D02*
X2182050Y120550D01*
X2182050Y126750D02*
X2171700Y137100D01*
X2190050Y131450D02*
X2190050Y120550D01*
X2190050Y131450D02*
X2184400Y137100D01*
X2311500Y120550D02*
X2318450Y120550D01*
X2311500Y120550D02*
X2298700Y133350D01*
X2298700Y146050D01*
D23*
X2298700Y146050D03*
X2298700Y158750D03*
D24*
X2324100Y184150D01*
X2324100Y193100D01*
X2326450Y122050D02*
X2326450Y120550D01*
X2326450Y122050D02*
X2311400Y137100D01*
X2324100Y137100D02*
X2334450Y126750D01*
X2334450Y120550D01*
X2342450Y131450D02*
X2336800Y137100D01*
X2342450Y131450D02*
X2342450Y120550D01*
X2366050Y120550D02*
X2369250Y120550D01*
X2366050Y120550D02*
X2349500Y137100D01*
X2377250Y122050D02*
X2377250Y120550D01*
X2377250Y122050D02*
X2362200Y137100D01*
X2374900Y137100D02*
X2385250Y126750D01*
X2385250Y120550D01*
X2393250Y131450D02*
X2387600Y137100D01*
X2393250Y131450D02*
X2393250Y120550D01*
X1597600Y203200D02*
X1587500Y193100D01*
X1720850Y203200D02*
X1727200Y196850D01*
X1727200Y193100D01*
X1720850Y203200D02*
X1597600Y203200D01*
X1790700Y193100D02*
X1800800Y203200D01*
X1924050Y203200D02*
X1930400Y196850D01*
X1930400Y193100D01*
X1924050Y203200D02*
X1800800Y203200D01*
X1993900Y193100D02*
X2004000Y203200D01*
X2127250Y203200D02*
X2133600Y196850D01*
X2133600Y193100D01*
X2127250Y203200D02*
X2004000Y203200D01*
X2197100Y193100D02*
X2207200Y203200D01*
X2330450Y203200D02*
X2336800Y196850D01*
X2336800Y193100D01*
X2330450Y203200D02*
X2207200Y203200D01*
X1394400Y203200D02*
X1384300Y193100D01*
X1517650Y203200D02*
X1524000Y196850D01*
X1524000Y193100D01*
X1517650Y203200D02*
X1394400Y203200D01*
X489650Y108050D02*
X489650Y95950D01*
X431800Y38100D01*
X497650Y78550D02*
X497650Y108050D01*
X497650Y78550D02*
X457200Y38100D01*
X505650Y61150D02*
X505650Y108050D01*
X505650Y61150D02*
X482600Y38100D01*
X513650Y43750D02*
X513650Y108050D01*
X513650Y43750D02*
X508000Y38100D01*
X540450Y45150D02*
X540450Y108050D01*
X540450Y45150D02*
X533400Y38100D01*
X548450Y48450D02*
X548450Y108050D01*
X548450Y48450D02*
X558800Y38100D01*
X556450Y65850D02*
X556450Y108050D01*
X556450Y65850D02*
X584200Y38100D01*
X564450Y83250D02*
X564450Y108050D01*
X564450Y83250D02*
X609600Y38100D01*
X650975Y108050D02*
X692850Y108050D01*
X635000Y92075D02*
X635000Y38100D01*
X635000Y92075D02*
X650975Y108050D01*
X700850Y108050D02*
X700850Y100775D01*
X698500Y98425D01*
X676275Y98425D02*
X673100Y95250D01*
X673100Y47625D01*
X663575Y38100D01*
X660400Y38100D01*
X676275Y98425D02*
X698500Y98425D01*
X708850Y61150D02*
X685800Y38100D01*
X708850Y61150D02*
X708850Y108050D01*
X716850Y108050D02*
X716850Y43750D01*
X711200Y38100D01*
X743650Y45150D02*
X743650Y108050D01*
X743650Y45150D02*
X736600Y38100D01*
X751650Y48450D02*
X751650Y108050D01*
X751650Y48450D02*
X762000Y38100D01*
X759650Y65850D02*
X759650Y108050D01*
X759650Y65850D02*
X787400Y38100D01*
X767650Y83250D02*
X767650Y108050D01*
X767650Y83250D02*
X812800Y38100D01*
X838200Y50200D02*
X896050Y108050D01*
X838200Y50200D02*
X838200Y38100D01*
X904050Y103950D02*
X904050Y108050D01*
X863600Y63500D02*
X863600Y38100D01*
X863600Y63500D02*
X904050Y103950D01*
X889000Y76200D02*
X889000Y38100D01*
X912050Y99250D02*
X912050Y108050D01*
X912050Y99250D02*
X889000Y76200D01*
X920050Y108050D02*
X927100Y101000D01*
X927100Y50800D02*
X914400Y38100D01*
X927100Y50800D02*
X927100Y101000D01*
X939800Y47625D02*
X939800Y38100D01*
X939800Y47625D02*
X952500Y60325D01*
X952500Y92075D01*
X949325Y95250D01*
X946850Y97725D02*
X946850Y108050D01*
X946850Y97725D02*
X949325Y95250D01*
X954850Y99250D02*
X954850Y108050D01*
X965200Y88900D02*
X965200Y38100D01*
X965200Y88900D02*
X954850Y99250D01*
X962850Y103950D02*
X962850Y108050D01*
X990600Y76200D02*
X990600Y38100D01*
X990600Y76200D02*
X962850Y103950D01*
X970850Y108050D02*
X1016000Y62900D01*
X1016000Y38100D01*
X1041400Y38100D02*
X1099250Y95950D01*
X1099250Y108050D01*
X1107250Y78550D02*
X1066800Y38100D01*
X1107250Y78550D02*
X1107250Y108050D01*
X1115250Y61150D02*
X1092200Y38100D01*
X1115250Y61150D02*
X1115250Y108050D01*
X1123250Y43750D02*
X1117600Y38100D01*
X1123250Y43750D02*
X1123250Y108050D01*
X1150050Y45150D02*
X1143000Y38100D01*
X1150050Y45150D02*
X1150050Y108050D01*
X1158050Y108050D02*
X1158050Y48450D01*
X1168400Y38100D01*
X1166050Y100775D02*
X1166050Y108050D01*
X1181100Y85725D02*
X1181100Y50800D01*
X1193800Y38100D01*
X1181100Y85725D02*
X1166050Y100775D01*
X1174050Y108050D02*
X1183675Y98425D01*
X1196975Y98425D01*
X1219200Y76200D01*
X1219200Y38100D01*
X1244600Y38100D02*
X1302450Y95950D01*
X1302450Y108050D01*
X1310450Y78550D02*
X1270000Y38100D01*
X1310450Y78550D02*
X1310450Y108050D01*
X1318450Y61150D02*
X1295400Y38100D01*
X1318450Y61150D02*
X1318450Y108050D01*
X1326450Y43750D02*
X1320800Y38100D01*
X1326450Y43750D02*
X1326450Y108050D01*
X1353250Y45150D02*
X1346200Y38100D01*
X1353250Y45150D02*
X1353250Y108050D01*
X1361250Y108050D02*
X1361250Y48450D01*
X1371600Y38100D01*
X1369250Y65850D02*
X1369250Y108050D01*
X1369250Y65850D02*
X1397000Y38100D01*
X1377250Y83250D02*
X1377250Y108050D01*
X1377250Y83250D02*
X1422400Y38100D01*
X1447800Y38100D02*
X1447800Y50200D01*
X1505650Y108050D01*
X1513650Y78550D02*
X1473200Y38100D01*
X1513650Y78550D02*
X1513650Y108050D01*
X1521650Y61150D02*
X1498600Y38100D01*
X1521650Y61150D02*
X1521650Y108050D01*
X1529650Y108050D02*
X1529650Y43750D01*
X1524000Y38100D01*
X1556450Y45150D02*
X1556450Y108050D01*
X1556450Y45150D02*
X1549400Y38100D01*
X1564450Y48450D02*
X1564450Y108050D01*
X1564450Y48450D02*
X1574800Y38100D01*
X1572450Y65850D02*
X1572450Y108050D01*
X1572450Y65850D02*
X1600200Y38100D01*
X1580450Y83250D02*
X1580450Y108050D01*
X1580450Y83250D02*
X1625600Y38100D01*
X1679675Y108050D02*
X1708850Y108050D01*
X1679675Y108050D02*
X1651000Y79375D01*
X1651000Y38100D01*
X1716850Y100775D02*
X1716850Y108050D01*
X1711325Y95250D02*
X1695450Y95250D01*
X1689100Y88900D01*
X1689100Y50800D02*
X1676400Y38100D01*
X1711325Y95250D02*
X1716850Y100775D01*
X1689100Y88900D02*
X1689100Y50800D01*
X1701800Y38100D02*
X1724850Y61150D01*
X1724850Y108050D01*
X1732850Y108050D02*
X1732850Y43750D01*
X1727200Y38100D01*
X1759650Y45150D02*
X1759650Y108050D01*
X1759650Y45150D02*
X1752600Y38100D01*
X1767650Y48450D02*
X1778000Y38100D01*
X1767650Y48450D02*
X1767650Y108050D01*
X1775650Y108050D02*
X1775650Y65850D01*
X1803400Y38100D01*
X1783650Y83250D02*
X1783650Y108050D01*
X1783650Y83250D02*
X1828800Y38100D01*
X1854200Y50200D02*
X1912050Y108050D01*
X1854200Y50200D02*
X1854200Y38100D01*
X1879600Y38100D02*
X1879600Y60325D01*
X1920050Y100775D02*
X1920050Y108050D01*
X1920050Y100775D02*
X1879600Y60325D01*
X1905000Y73025D02*
X1905000Y38100D01*
X1928050Y96075D02*
X1928050Y108050D01*
X1928050Y96075D02*
X1905000Y73025D01*
X1936750Y107350D02*
X1936050Y108050D01*
X1936750Y107350D02*
X1936750Y98425D01*
X1943100Y92075D01*
X1943100Y50800D01*
X1930400Y38100D01*
X1955800Y38100D02*
X1955800Y47625D01*
X1968500Y60325D01*
X1962850Y98425D02*
X1962850Y108050D01*
X1962850Y98425D02*
X1962850Y94550D01*
X1968500Y88900D01*
X1968500Y60325D01*
X1974850Y44450D02*
X1981200Y38100D01*
X1970850Y96075D02*
X1970850Y108050D01*
X1974850Y92075D02*
X1974850Y44450D01*
X1974850Y92075D02*
X1970850Y96075D01*
X1978850Y100775D02*
X1978850Y108050D01*
X2006600Y73025D02*
X2006600Y38100D01*
X2006600Y73025D02*
X1978850Y100775D01*
X1986850Y108050D02*
X2032000Y62900D01*
X2032000Y38100D01*
X2057400Y38100D02*
X2115250Y95950D01*
X2115250Y108050D01*
X2123250Y78550D02*
X2082800Y38100D01*
X2123250Y78550D02*
X2123250Y108050D01*
X2131250Y61150D02*
X2108200Y38100D01*
X2131250Y61150D02*
X2131250Y108050D01*
X2139250Y43750D02*
X2133600Y38100D01*
X2139250Y43750D02*
X2139250Y108050D01*
X2166050Y45150D02*
X2159000Y38100D01*
X2166050Y45150D02*
X2166050Y108050D01*
X2174050Y108050D02*
X2174050Y48450D01*
X2184400Y38100D01*
X2182050Y103950D02*
X2182050Y108050D01*
X2197100Y50800D02*
X2209800Y38100D01*
X2197100Y88900D02*
X2182050Y103950D01*
X2197100Y88900D02*
X2197100Y50800D01*
X2202850Y95250D02*
X2190050Y108050D01*
X2202850Y95250D02*
X2216150Y95250D01*
X2235200Y76200D01*
X2235200Y38100D01*
X2260600Y38100D02*
X2318450Y95950D01*
X2318450Y108050D01*
X2326450Y78550D02*
X2286000Y38100D01*
X2326450Y78550D02*
X2326450Y108050D01*
X2334450Y61150D02*
X2311400Y38100D01*
X2334450Y61150D02*
X2334450Y108050D01*
X2342450Y43750D02*
X2336800Y38100D01*
X2342450Y43750D02*
X2342450Y108050D01*
X2369250Y45150D02*
X2362200Y38100D01*
X2369250Y45150D02*
X2369250Y108050D01*
X2377250Y48450D02*
X2387600Y38100D01*
X2377250Y48450D02*
X2377250Y108050D01*
X2385250Y65850D02*
X2413000Y38100D01*
X2385250Y65850D02*
X2385250Y108050D01*
X2393250Y83250D02*
X2438400Y38100D01*
X2393250Y83250D02*
X2393250Y108050D01*
X323150Y77724D02*
X323150Y70550D01*
X326898Y66802D01*
X363445Y60325D02*
X387350Y60325D01*
X363445Y60325D02*
X356968Y66802D01*
X326898Y66802D01*
X387350Y60325D02*
X396875Y69850D01*
X396875Y76200D01*
X331150Y77724D02*
X331150Y83500D01*
X336550Y88900D01*
X342900Y88900D01*
X355600Y76200D01*
X371475Y76200D01*
X315150Y163576D02*
X315150Y197675D01*
X333375Y215900D01*
X307150Y215075D02*
X307150Y163576D01*
X307150Y215075D02*
X307975Y215900D01*
X299150Y187325D02*
X299150Y163576D01*
X299150Y187325D02*
X282575Y203900D01*
X282575Y215900D01*
M02*
