G04 EAGLE Gerber RS-274X export*
G75*
%MOMM*%
%FSLAX34Y34*%
%LPD*%
%IN*%
%IPPOS*%
%AMOC8*
5,1,8,0,0,1.08239X$1,22.5*%
G01*
%ADD10C,0.254000*%


D10*
X-25400Y0D02*
X2501700Y0D01*
X2501800Y241300D01*
X-25300Y241300D01*
X-25400Y0D01*
X15000Y215364D02*
X14924Y214296D01*
X14771Y213235D01*
X14543Y212188D01*
X14241Y211160D01*
X13867Y210156D01*
X13422Y209181D01*
X12908Y208241D01*
X12329Y207340D01*
X11687Y206482D01*
X10985Y205672D01*
X10228Y204915D01*
X9418Y204213D01*
X8560Y203571D01*
X7659Y202992D01*
X6719Y202478D01*
X5744Y202033D01*
X4740Y201659D01*
X3712Y201357D01*
X2665Y201129D01*
X1604Y200976D01*
X536Y200900D01*
X-536Y200900D01*
X-1604Y200976D01*
X-2665Y201129D01*
X-3712Y201357D01*
X-4740Y201659D01*
X-5744Y202033D01*
X-6719Y202478D01*
X-7659Y202992D01*
X-8560Y203571D01*
X-9418Y204213D01*
X-10228Y204915D01*
X-10985Y205672D01*
X-11687Y206482D01*
X-12329Y207340D01*
X-12908Y208241D01*
X-13422Y209181D01*
X-13867Y210156D01*
X-14241Y211160D01*
X-14543Y212188D01*
X-14771Y213235D01*
X-14924Y214296D01*
X-15000Y215364D01*
X-15000Y216436D01*
X-14924Y217504D01*
X-14771Y218565D01*
X-14543Y219612D01*
X-14241Y220640D01*
X-13867Y221644D01*
X-13422Y222619D01*
X-12908Y223559D01*
X-12329Y224460D01*
X-11687Y225318D01*
X-10985Y226128D01*
X-10228Y226885D01*
X-9418Y227587D01*
X-8560Y228229D01*
X-7659Y228808D01*
X-6719Y229322D01*
X-5744Y229767D01*
X-4740Y230141D01*
X-3712Y230443D01*
X-2665Y230671D01*
X-1604Y230824D01*
X-536Y230900D01*
X536Y230900D01*
X1604Y230824D01*
X2665Y230671D01*
X3712Y230443D01*
X4740Y230141D01*
X5744Y229767D01*
X6719Y229322D01*
X7659Y228808D01*
X8560Y228229D01*
X9418Y227587D01*
X10228Y226885D01*
X10985Y226128D01*
X11687Y225318D01*
X12329Y224460D01*
X12908Y223559D01*
X13422Y222619D01*
X13867Y221644D01*
X14241Y220640D01*
X14543Y219612D01*
X14771Y218565D01*
X14924Y217504D01*
X15000Y216436D01*
X15000Y215364D01*
X15000Y24864D02*
X14924Y23796D01*
X14771Y22735D01*
X14543Y21688D01*
X14241Y20660D01*
X13867Y19656D01*
X13422Y18681D01*
X12908Y17741D01*
X12329Y16840D01*
X11687Y15982D01*
X10985Y15172D01*
X10228Y14415D01*
X9418Y13713D01*
X8560Y13071D01*
X7659Y12492D01*
X6719Y11978D01*
X5744Y11533D01*
X4740Y11159D01*
X3712Y10857D01*
X2665Y10629D01*
X1604Y10476D01*
X536Y10400D01*
X-536Y10400D01*
X-1604Y10476D01*
X-2665Y10629D01*
X-3712Y10857D01*
X-4740Y11159D01*
X-5744Y11533D01*
X-6719Y11978D01*
X-7659Y12492D01*
X-8560Y13071D01*
X-9418Y13713D01*
X-10228Y14415D01*
X-10985Y15172D01*
X-11687Y15982D01*
X-12329Y16840D01*
X-12908Y17741D01*
X-13422Y18681D01*
X-13867Y19656D01*
X-14241Y20660D01*
X-14543Y21688D01*
X-14771Y22735D01*
X-14924Y23796D01*
X-15000Y24864D01*
X-15000Y25936D01*
X-14924Y27004D01*
X-14771Y28065D01*
X-14543Y29112D01*
X-14241Y30140D01*
X-13867Y31144D01*
X-13422Y32119D01*
X-12908Y33059D01*
X-12329Y33960D01*
X-11687Y34818D01*
X-10985Y35628D01*
X-10228Y36385D01*
X-9418Y37087D01*
X-8560Y37729D01*
X-7659Y38308D01*
X-6719Y38822D01*
X-5744Y39267D01*
X-4740Y39641D01*
X-3712Y39943D01*
X-2665Y40171D01*
X-1604Y40324D01*
X-536Y40400D01*
X536Y40400D01*
X1604Y40324D01*
X2665Y40171D01*
X3712Y39943D01*
X4740Y39641D01*
X5744Y39267D01*
X6719Y38822D01*
X7659Y38308D01*
X8560Y37729D01*
X9418Y37087D01*
X10228Y36385D01*
X10985Y35628D01*
X11687Y34818D01*
X12329Y33960D01*
X12908Y33059D01*
X13422Y32119D01*
X13867Y31144D01*
X14241Y30140D01*
X14543Y29112D01*
X14771Y28065D01*
X14924Y27004D01*
X15000Y25936D01*
X15000Y24864D01*
X2491500Y215364D02*
X2491424Y214296D01*
X2491271Y213235D01*
X2491043Y212188D01*
X2490741Y211160D01*
X2490367Y210156D01*
X2489922Y209181D01*
X2489408Y208241D01*
X2488829Y207340D01*
X2488187Y206482D01*
X2487485Y205672D01*
X2486728Y204915D01*
X2485918Y204213D01*
X2485060Y203571D01*
X2484159Y202992D01*
X2483219Y202478D01*
X2482244Y202033D01*
X2481240Y201659D01*
X2480212Y201357D01*
X2479165Y201129D01*
X2478104Y200976D01*
X2477036Y200900D01*
X2475964Y200900D01*
X2474896Y200976D01*
X2473835Y201129D01*
X2472788Y201357D01*
X2471760Y201659D01*
X2470756Y202033D01*
X2469781Y202478D01*
X2468841Y202992D01*
X2467940Y203571D01*
X2467082Y204213D01*
X2466272Y204915D01*
X2465515Y205672D01*
X2464813Y206482D01*
X2464171Y207340D01*
X2463592Y208241D01*
X2463078Y209181D01*
X2462633Y210156D01*
X2462259Y211160D01*
X2461957Y212188D01*
X2461729Y213235D01*
X2461576Y214296D01*
X2461500Y215364D01*
X2461500Y216436D01*
X2461576Y217504D01*
X2461729Y218565D01*
X2461957Y219612D01*
X2462259Y220640D01*
X2462633Y221644D01*
X2463078Y222619D01*
X2463592Y223559D01*
X2464171Y224460D01*
X2464813Y225318D01*
X2465515Y226128D01*
X2466272Y226885D01*
X2467082Y227587D01*
X2467940Y228229D01*
X2468841Y228808D01*
X2469781Y229322D01*
X2470756Y229767D01*
X2471760Y230141D01*
X2472788Y230443D01*
X2473835Y230671D01*
X2474896Y230824D01*
X2475964Y230900D01*
X2477036Y230900D01*
X2478104Y230824D01*
X2479165Y230671D01*
X2480212Y230443D01*
X2481240Y230141D01*
X2482244Y229767D01*
X2483219Y229322D01*
X2484159Y228808D01*
X2485060Y228229D01*
X2485918Y227587D01*
X2486728Y226885D01*
X2487485Y226128D01*
X2488187Y225318D01*
X2488829Y224460D01*
X2489408Y223559D01*
X2489922Y222619D01*
X2490367Y221644D01*
X2490741Y220640D01*
X2491043Y219612D01*
X2491271Y218565D01*
X2491424Y217504D01*
X2491500Y216436D01*
X2491500Y215364D01*
X2491500Y24864D02*
X2491424Y23796D01*
X2491271Y22735D01*
X2491043Y21688D01*
X2490741Y20660D01*
X2490367Y19656D01*
X2489922Y18681D01*
X2489408Y17741D01*
X2488829Y16840D01*
X2488187Y15982D01*
X2487485Y15172D01*
X2486728Y14415D01*
X2485918Y13713D01*
X2485060Y13071D01*
X2484159Y12492D01*
X2483219Y11978D01*
X2482244Y11533D01*
X2481240Y11159D01*
X2480212Y10857D01*
X2479165Y10629D01*
X2478104Y10476D01*
X2477036Y10400D01*
X2475964Y10400D01*
X2474896Y10476D01*
X2473835Y10629D01*
X2472788Y10857D01*
X2471760Y11159D01*
X2470756Y11533D01*
X2469781Y11978D01*
X2468841Y12492D01*
X2467940Y13071D01*
X2467082Y13713D01*
X2466272Y14415D01*
X2465515Y15172D01*
X2464813Y15982D01*
X2464171Y16840D01*
X2463592Y17741D01*
X2463078Y18681D01*
X2462633Y19656D01*
X2462259Y20660D01*
X2461957Y21688D01*
X2461729Y22735D01*
X2461576Y23796D01*
X2461500Y24864D01*
X2461500Y25936D01*
X2461576Y27004D01*
X2461729Y28065D01*
X2461957Y29112D01*
X2462259Y30140D01*
X2462633Y31144D01*
X2463078Y32119D01*
X2463592Y33059D01*
X2464171Y33960D01*
X2464813Y34818D01*
X2465515Y35628D01*
X2466272Y36385D01*
X2467082Y37087D01*
X2467940Y37729D01*
X2468841Y38308D01*
X2469781Y38822D01*
X2470756Y39267D01*
X2471760Y39641D01*
X2472788Y39943D01*
X2473835Y40171D01*
X2474896Y40324D01*
X2475964Y40400D01*
X2477036Y40400D01*
X2478104Y40324D01*
X2479165Y40171D01*
X2480212Y39943D01*
X2481240Y39641D01*
X2482244Y39267D01*
X2483219Y38822D01*
X2484159Y38308D01*
X2485060Y37729D01*
X2485918Y37087D01*
X2486728Y36385D01*
X2487485Y35628D01*
X2488187Y34818D01*
X2488829Y33960D01*
X2489408Y33059D01*
X2489922Y32119D01*
X2490367Y31144D01*
X2490741Y30140D01*
X2491043Y29112D01*
X2491271Y28065D01*
X2491424Y27004D01*
X2491500Y25936D01*
X2491500Y24864D01*
X1253250Y120114D02*
X1253174Y119046D01*
X1253021Y117985D01*
X1252793Y116938D01*
X1252491Y115910D01*
X1252117Y114906D01*
X1251672Y113931D01*
X1251158Y112991D01*
X1250579Y112090D01*
X1249937Y111232D01*
X1249235Y110422D01*
X1248478Y109665D01*
X1247668Y108963D01*
X1246810Y108321D01*
X1245909Y107742D01*
X1244969Y107228D01*
X1243994Y106783D01*
X1242990Y106409D01*
X1241962Y106107D01*
X1240915Y105879D01*
X1239854Y105726D01*
X1238786Y105650D01*
X1237714Y105650D01*
X1236646Y105726D01*
X1235585Y105879D01*
X1234538Y106107D01*
X1233510Y106409D01*
X1232506Y106783D01*
X1231531Y107228D01*
X1230591Y107742D01*
X1229690Y108321D01*
X1228832Y108963D01*
X1228022Y109665D01*
X1227265Y110422D01*
X1226563Y111232D01*
X1225921Y112090D01*
X1225342Y112991D01*
X1224828Y113931D01*
X1224383Y114906D01*
X1224009Y115910D01*
X1223707Y116938D01*
X1223479Y117985D01*
X1223326Y119046D01*
X1223250Y120114D01*
X1223250Y121186D01*
X1223326Y122254D01*
X1223479Y123315D01*
X1223707Y124362D01*
X1224009Y125390D01*
X1224383Y126394D01*
X1224828Y127369D01*
X1225342Y128309D01*
X1225921Y129210D01*
X1226563Y130068D01*
X1227265Y130878D01*
X1228022Y131635D01*
X1228832Y132337D01*
X1229690Y132979D01*
X1230591Y133558D01*
X1231531Y134072D01*
X1232506Y134517D01*
X1233510Y134891D01*
X1234538Y135193D01*
X1235585Y135421D01*
X1236646Y135574D01*
X1237714Y135650D01*
X1238786Y135650D01*
X1239854Y135574D01*
X1240915Y135421D01*
X1241962Y135193D01*
X1242990Y134891D01*
X1243994Y134517D01*
X1244969Y134072D01*
X1245909Y133558D01*
X1246810Y132979D01*
X1247668Y132337D01*
X1248478Y131635D01*
X1249235Y130878D01*
X1249937Y130068D01*
X1250579Y129210D01*
X1251158Y128309D01*
X1251672Y127369D01*
X1252117Y126394D01*
X1252491Y125390D01*
X1252793Y124362D01*
X1253021Y123315D01*
X1253174Y122254D01*
X1253250Y121186D01*
X1253250Y120114D01*
M02*
