G04 EAGLE Gerber RS-274X export*
G75*
%MOMM*%
%FSLAX34Y34*%
%LPD*%
%INSolderpaste Top*%
%IPPOS*%
%AMOC8*
5,1,8,0,0,1.08239X$1,22.5*%
G01*
%ADD10R,1.500000X1.300000*%
%ADD11R,1.300000X1.500000*%
%ADD12R,1.400000X1.800000*%
%ADD13R,2.032000X0.660400*%
%ADD14R,0.500000X0.650000*%
%ADD15R,1.270000X0.558800*%
%ADD16R,0.558800X1.270000*%
%ADD17R,0.600000X1.200000*%
%ADD18R,1.100000X1.200000*%


D10*
X241300Y95275D03*
X241300Y114275D03*
D11*
X206350Y73025D03*
X187350Y73025D03*
X419075Y158750D03*
X400075Y158750D03*
X419075Y180975D03*
X400075Y180975D03*
D10*
X406400Y136500D03*
X406400Y117500D03*
X381000Y136500D03*
X381000Y117500D03*
X234950Y31775D03*
X234950Y50775D03*
D12*
X103650Y152400D03*
X137650Y152400D03*
X103650Y190500D03*
X137650Y190500D03*
D13*
X89916Y127000D03*
X151384Y127000D03*
X89916Y114300D03*
X89916Y101600D03*
X151384Y114300D03*
X151384Y101600D03*
X89916Y88900D03*
X151384Y88900D03*
X89916Y76200D03*
X89916Y63500D03*
X151384Y76200D03*
X151384Y63500D03*
X89916Y50800D03*
X151384Y50800D03*
D11*
X206350Y95250D03*
X187350Y95250D03*
D10*
X177800Y120675D03*
X177800Y139675D03*
X171450Y168300D03*
X171450Y187300D03*
D11*
X98400Y22225D03*
X79400Y22225D03*
D10*
X57150Y57125D03*
X57150Y38125D03*
D11*
X47650Y127000D03*
X66650Y127000D03*
D10*
X209550Y50775D03*
X209550Y31775D03*
X184150Y31775D03*
X184150Y50775D03*
D11*
X47650Y152400D03*
X66650Y152400D03*
D14*
X489650Y108050D03*
X497650Y108050D03*
X505650Y108050D03*
X513650Y108050D03*
X513650Y120550D03*
X505650Y120550D03*
X497650Y120550D03*
X489650Y120550D03*
X1353250Y108050D03*
X1361250Y108050D03*
X1369250Y108050D03*
X1377250Y108050D03*
X1377250Y120550D03*
X1369250Y120550D03*
X1361250Y120550D03*
X1353250Y120550D03*
X1505650Y108050D03*
X1513650Y108050D03*
X1521650Y108050D03*
X1529650Y108050D03*
X1529650Y120550D03*
X1521650Y120550D03*
X1513650Y120550D03*
X1505650Y120550D03*
X1556450Y108050D03*
X1564450Y108050D03*
X1572450Y108050D03*
X1580450Y108050D03*
X1580450Y120550D03*
X1572450Y120550D03*
X1564450Y120550D03*
X1556450Y120550D03*
X1708850Y108050D03*
X1716850Y108050D03*
X1724850Y108050D03*
X1732850Y108050D03*
X1732850Y120550D03*
X1724850Y120550D03*
X1716850Y120550D03*
X1708850Y120550D03*
X1759650Y108050D03*
X1767650Y108050D03*
X1775650Y108050D03*
X1783650Y108050D03*
X1783650Y120550D03*
X1775650Y120550D03*
X1767650Y120550D03*
X1759650Y120550D03*
X1912050Y108050D03*
X1920050Y108050D03*
X1928050Y108050D03*
X1936050Y108050D03*
X1936050Y120550D03*
X1928050Y120550D03*
X1920050Y120550D03*
X1912050Y120550D03*
X1962850Y108050D03*
X1970850Y108050D03*
X1978850Y108050D03*
X1986850Y108050D03*
X1986850Y120550D03*
X1978850Y120550D03*
X1970850Y120550D03*
X1962850Y120550D03*
X2115250Y108050D03*
X2123250Y108050D03*
X2131250Y108050D03*
X2139250Y108050D03*
X2139250Y120550D03*
X2131250Y120550D03*
X2123250Y120550D03*
X2115250Y120550D03*
X2166050Y108050D03*
X2174050Y108050D03*
X2182050Y108050D03*
X2190050Y108050D03*
X2190050Y120550D03*
X2182050Y120550D03*
X2174050Y120550D03*
X2166050Y120550D03*
X2318450Y108050D03*
X2326450Y108050D03*
X2334450Y108050D03*
X2342450Y108050D03*
X2342450Y120550D03*
X2334450Y120550D03*
X2326450Y120550D03*
X2318450Y120550D03*
X540450Y108050D03*
X548450Y108050D03*
X556450Y108050D03*
X564450Y108050D03*
X564450Y120550D03*
X556450Y120550D03*
X548450Y120550D03*
X540450Y120550D03*
X2369250Y108050D03*
X2377250Y108050D03*
X2385250Y108050D03*
X2393250Y108050D03*
X2393250Y120550D03*
X2385250Y120550D03*
X2377250Y120550D03*
X2369250Y120550D03*
X692850Y108050D03*
X700850Y108050D03*
X708850Y108050D03*
X716850Y108050D03*
X716850Y120550D03*
X708850Y120550D03*
X700850Y120550D03*
X692850Y120550D03*
X743650Y108050D03*
X751650Y108050D03*
X759650Y108050D03*
X767650Y108050D03*
X767650Y120550D03*
X759650Y120550D03*
X751650Y120550D03*
X743650Y120550D03*
X896050Y108050D03*
X904050Y108050D03*
X912050Y108050D03*
X920050Y108050D03*
X920050Y120550D03*
X912050Y120550D03*
X904050Y120550D03*
X896050Y120550D03*
X946850Y108050D03*
X954850Y108050D03*
X962850Y108050D03*
X970850Y108050D03*
X970850Y120550D03*
X962850Y120550D03*
X954850Y120550D03*
X946850Y120550D03*
X1099250Y108050D03*
X1107250Y108050D03*
X1115250Y108050D03*
X1123250Y108050D03*
X1123250Y120550D03*
X1115250Y120550D03*
X1107250Y120550D03*
X1099250Y120550D03*
X1150050Y108050D03*
X1158050Y108050D03*
X1166050Y108050D03*
X1174050Y108050D03*
X1174050Y120550D03*
X1166050Y120550D03*
X1158050Y120550D03*
X1150050Y120550D03*
X1302450Y108050D03*
X1310450Y108050D03*
X1318450Y108050D03*
X1326450Y108050D03*
X1326450Y120550D03*
X1318450Y120550D03*
X1310450Y120550D03*
X1302450Y120550D03*
D15*
X354076Y92650D03*
X354076Y100650D03*
X354076Y108650D03*
X354076Y116650D03*
X354076Y124650D03*
X354076Y132650D03*
X354076Y140650D03*
X354076Y148650D03*
D16*
X339150Y163576D03*
X331150Y163576D03*
X323150Y163576D03*
X315150Y163576D03*
X307150Y163576D03*
X299150Y163576D03*
X291150Y163576D03*
X283150Y163576D03*
D15*
X268224Y148650D03*
X268224Y140650D03*
X268224Y132650D03*
X268224Y124650D03*
X268224Y116650D03*
X268224Y108650D03*
X268224Y100650D03*
X268224Y92650D03*
D16*
X283150Y77724D03*
X291150Y77724D03*
X299150Y77724D03*
X307150Y77724D03*
X315150Y77724D03*
X323150Y77724D03*
X331150Y77724D03*
X339150Y77724D03*
D17*
X2108200Y137100D03*
X2120900Y137100D03*
X2133600Y137100D03*
X2146300Y137100D03*
X2159000Y137100D03*
X2171700Y137100D03*
X2184400Y137100D03*
X2197100Y137100D03*
X2197100Y193100D03*
X2184400Y193100D03*
X2171700Y193100D03*
X2159000Y193100D03*
X2146300Y193100D03*
X2133600Y193100D03*
X2120900Y193100D03*
X2108200Y193100D03*
X2311400Y137100D03*
X2324100Y137100D03*
X2336800Y137100D03*
X2349500Y137100D03*
X2362200Y137100D03*
X2374900Y137100D03*
X2387600Y137100D03*
X2400300Y137100D03*
X2400300Y193100D03*
X2387600Y193100D03*
X2374900Y193100D03*
X2362200Y193100D03*
X2349500Y193100D03*
X2336800Y193100D03*
X2324100Y193100D03*
X2311400Y193100D03*
X482600Y137100D03*
X495300Y137100D03*
X508000Y137100D03*
X520700Y137100D03*
X533400Y137100D03*
X546100Y137100D03*
X558800Y137100D03*
X571500Y137100D03*
X571500Y193100D03*
X558800Y193100D03*
X546100Y193100D03*
X533400Y193100D03*
X520700Y193100D03*
X508000Y193100D03*
X495300Y193100D03*
X482600Y193100D03*
X685800Y137100D03*
X698500Y137100D03*
X711200Y137100D03*
X723900Y137100D03*
X736600Y137100D03*
X749300Y137100D03*
X762000Y137100D03*
X774700Y137100D03*
X774700Y193100D03*
X762000Y193100D03*
X749300Y193100D03*
X736600Y193100D03*
X723900Y193100D03*
X711200Y193100D03*
X698500Y193100D03*
X685800Y193100D03*
X889000Y137100D03*
X901700Y137100D03*
X914400Y137100D03*
X927100Y137100D03*
X939800Y137100D03*
X952500Y137100D03*
X965200Y137100D03*
X977900Y137100D03*
X977900Y193100D03*
X965200Y193100D03*
X952500Y193100D03*
X939800Y193100D03*
X927100Y193100D03*
X914400Y193100D03*
X901700Y193100D03*
X889000Y193100D03*
X1092200Y137100D03*
X1104900Y137100D03*
X1117600Y137100D03*
X1130300Y137100D03*
X1143000Y137100D03*
X1155700Y137100D03*
X1168400Y137100D03*
X1181100Y137100D03*
X1181100Y193100D03*
X1168400Y193100D03*
X1155700Y193100D03*
X1143000Y193100D03*
X1130300Y193100D03*
X1117600Y193100D03*
X1104900Y193100D03*
X1092200Y193100D03*
X1295400Y137100D03*
X1308100Y137100D03*
X1320800Y137100D03*
X1333500Y137100D03*
X1346200Y137100D03*
X1358900Y137100D03*
X1371600Y137100D03*
X1384300Y137100D03*
X1384300Y193100D03*
X1371600Y193100D03*
X1358900Y193100D03*
X1346200Y193100D03*
X1333500Y193100D03*
X1320800Y193100D03*
X1308100Y193100D03*
X1295400Y193100D03*
X1498600Y137100D03*
X1511300Y137100D03*
X1524000Y137100D03*
X1536700Y137100D03*
X1549400Y137100D03*
X1562100Y137100D03*
X1574800Y137100D03*
X1587500Y137100D03*
X1587500Y193100D03*
X1574800Y193100D03*
X1562100Y193100D03*
X1549400Y193100D03*
X1536700Y193100D03*
X1524000Y193100D03*
X1511300Y193100D03*
X1498600Y193100D03*
X1701800Y137100D03*
X1714500Y137100D03*
X1727200Y137100D03*
X1739900Y137100D03*
X1752600Y137100D03*
X1765300Y137100D03*
X1778000Y137100D03*
X1790700Y137100D03*
X1790700Y193100D03*
X1778000Y193100D03*
X1765300Y193100D03*
X1752600Y193100D03*
X1739900Y193100D03*
X1727200Y193100D03*
X1714500Y193100D03*
X1701800Y193100D03*
X1905000Y137100D03*
X1917700Y137100D03*
X1930400Y137100D03*
X1943100Y137100D03*
X1955800Y137100D03*
X1968500Y137100D03*
X1981200Y137100D03*
X1993900Y137100D03*
X1993900Y193100D03*
X1981200Y193100D03*
X1968500Y193100D03*
X1955800Y193100D03*
X1943100Y193100D03*
X1930400Y193100D03*
X1917700Y193100D03*
X1905000Y193100D03*
D18*
X362725Y186375D03*
X362725Y162875D03*
X380225Y162875D03*
X380225Y186375D03*
D10*
X57150Y98400D03*
X57150Y79400D03*
D11*
X444525Y190500D03*
X463525Y190500D03*
X650900Y190500D03*
X669900Y190500D03*
X854100Y190500D03*
X873100Y190500D03*
X1057300Y190500D03*
X1076300Y190500D03*
X1260500Y190500D03*
X1279500Y190500D03*
X1463700Y190500D03*
X1482700Y190500D03*
X1666900Y190500D03*
X1685900Y190500D03*
X1870100Y190500D03*
X1889100Y190500D03*
X2073300Y190500D03*
X2092300Y190500D03*
X2276500Y190500D03*
X2295500Y190500D03*
M02*
